<svg width="28" height="28" viewBox="0 0 28 28" fill="none" xmlns="http://www.w3.org/2000/svg">
<path d="M13.9998 14.2917C13.4865 14.2917 12.9732 14.1633 12.5065 13.9183L4.9115 9.82333C4.22317 9.44999 3.7915 8.71499 3.7915 7.89833C3.7915 7.08166 4.22317 6.34666 4.9115 5.97333L12.5065 1.87833C13.4398 1.37666 14.5598 1.37666 15.4815 1.87833L23.0765 5.97333C23.7648 6.34666 24.1965 7.08166 24.1965 7.89833C24.1965 8.71499 23.7648 9.44999 23.0765 9.82333L15.4815 13.9183C15.0265 14.175 14.5132 14.2917 13.9998 14.2917ZM13.9998 3.24333C13.7782 3.24333 13.5448 3.30166 13.3348 3.41833L5.7515 7.50166C5.55317 7.60666 5.5415 7.82833 5.5415 7.89833C5.5415 7.96833 5.55317 8.18999 5.7515 8.28333L13.3465 12.3783C13.7665 12.6 14.2448 12.6 14.6648 12.3783L22.2598 8.28333C22.4465 8.17833 22.4698 7.95666 22.4698 7.89833C22.4698 7.82833 22.4582 7.60666 22.2598 7.51333L14.6648 3.41833C14.4548 3.30166 14.2215 3.24333 13.9998 3.24333Z" fill="#FFC481"/>
<path d="M11.4102 26.5067C11.0835 26.5067 10.7452 26.425 10.4418 26.2734L3.37183 22.75C2.1935 22.155 1.4585 20.965 1.4585 19.6467V12.9734C1.4585 12.215 1.8435 11.5267 2.48516 11.13C3.1385 10.7334 3.92016 10.6984 4.59683 11.0367L11.6668 14.56C12.8452 15.155 13.5802 16.3334 13.5802 17.6634V24.3367C13.5802 25.095 13.1952 25.7834 12.5535 26.18C12.2035 26.4017 11.8068 26.5067 11.4102 26.5067ZM3.6285 12.5534C3.53516 12.5534 3.4535 12.5884 3.40683 12.6117C3.33683 12.6584 3.2085 12.7634 3.2085 12.9734V19.6467C3.2085 20.3 3.57016 20.895 4.1535 21.1867L11.2118 24.7217C11.3985 24.815 11.5502 24.745 11.6202 24.71C11.6902 24.6634 11.8185 24.5584 11.8185 24.3484V17.675C11.8185 17.0217 11.4568 16.4267 10.8735 16.135L3.81516 12.6C3.74516 12.565 3.68683 12.5534 3.6285 12.5534Z" fill="#FF9E30"/>
<path d="M16.5899 26.5067C16.1933 26.5067 15.7966 26.4017 15.4466 26.18C14.8049 25.7833 14.4199 25.095 14.4199 24.3367V17.6633C14.4199 16.345 15.1549 15.155 16.3333 14.56L23.3916 11.025C24.0683 10.6867 24.8616 10.7217 25.5033 11.1183C26.1449 11.515 26.5299 12.2033 26.5299 12.9617V19.635C26.5299 20.9533 25.7949 22.1433 24.6166 22.7383L17.5583 26.2733C17.2549 26.4367 16.9166 26.5067 16.5899 26.5067ZM24.3716 12.5533C24.3133 12.5533 24.2549 12.565 24.1849 12.6L17.1266 16.135C16.5433 16.4267 16.1816 17.01 16.1816 17.675V24.3483C16.1816 24.5583 16.3099 24.6633 16.3799 24.71C16.4499 24.7567 16.6016 24.815 16.7883 24.7217L23.8466 21.1867C24.4299 20.895 24.7916 20.3 24.7916 19.6467V12.9733C24.7916 12.7633 24.6633 12.6583 24.5933 12.6117C24.5466 12.5883 24.4649 12.5533 24.3716 12.5533Z" fill="#FF9E30"/>
</svg>
