<svg width="439" height="297" viewBox="0 0 439 297" fill="none" xmlns="http://www.w3.org/2000/svg">
<g clip-path="url(#clip0_280_2611)">
<path d="M250.108 229.141C250.108 229.141 221.711 200.877 184.252 225.453C146.792 250.028 47.0233 307.544 5.7153 194.687C-25.3156 109.901 79.9091 113.353 84.5613 63.8803C91.2073 -6.77079 172.772 -4.92972 219.294 33.1635C259.763 66.3028 354.776 30.8864 398.133 79.2387C435.592 121.014 437.405 232.829 343.152 259.864C301.765 271.734 250.108 229.147 250.108 229.147V229.141Z" fill="#D3EBFF"/>
<path d="M164.144 283.107C191.266 283.107 213.252 279.311 213.252 274.629C213.252 269.946 191.266 266.15 164.144 266.15C137.023 266.15 115.036 269.946 115.036 274.629C115.036 279.311 137.023 283.107 164.144 283.107Z" fill="#D3EBFF"/>
<path d="M255.727 149.787C255.727 149.787 247.353 155.304 247.692 161.142C248.036 166.986 257.479 171.426 260.833 169.221C264.186 167.017 263.056 148.212 263.056 148.212L255.727 149.787Z" fill="#E28686"/>
<path d="M267.207 90.37C267.207 90.37 257.171 82.6665 256.144 76.9435C255.117 71.2265 257.28 67.3808 262.011 67.1628C266.742 66.9387 270.614 68.6586 270.614 68.6586L267.207 90.37Z" fill="#FFB8B8"/>
<path d="M265.455 67.3142C265.545 67.5685 265.612 67.829 265.636 68.0954C266.029 71.6867 266.391 82.1094 259.938 83.5205C263.159 87.2571 267.207 90.37 267.207 90.37L270.614 68.6586C270.614 68.6586 268.482 67.7139 265.449 67.3142H265.455Z" fill="#FFA1A1"/>
<path d="M267.019 101.816C267.019 101.816 261.104 100.351 259.684 101.114C258.264 101.877 250.603 111.712 250.072 117.284C249.54 122.855 254.633 123.564 259.527 124.03C264.415 124.496 266.608 117.962 266.608 117.962L267.025 101.81L267.019 101.816Z" fill="#FFB8B8"/>
<path d="M267.019 101.816C267.019 101.816 264.783 101.265 262.729 101.017C263.031 102.234 263.025 103.681 262.808 105.426C262.222 110.071 261.78 120.705 256.772 121.087C254.585 121.25 252.246 120.778 250.295 119.797C251.34 123.097 255.497 123.655 259.527 124.042C264.415 124.509 266.608 117.974 266.608 117.974L267.025 101.822L267.019 101.816Z" fill="#FFA1A1"/>
<path d="M263.841 125.798C263.841 125.798 260.875 123.939 257.552 125.871C254.229 127.803 250.247 131.921 249.643 135.906C249.039 139.897 246.247 148.352 247.776 150.792C248.984 152.724 257.884 155.359 261.08 150.041C264.276 144.724 263.835 125.792 263.835 125.792L263.841 125.798Z" fill="#FFB8B8"/>
<path d="M374.256 125.332C374.256 125.332 365.683 106.976 371.441 93.5858C377.198 80.1956 386.841 83.3024 386.841 83.3024C386.841 83.3024 390.491 91.3571 390.152 104.366C390.152 104.366 396.164 116.636 396.442 118.458C396.72 120.281 399.257 140.763 402.834 145.602C406.411 150.441 409.462 156.128 410.072 163.831C410.688 171.535 408.84 205.086 410.743 213.364C412.646 221.643 434.983 247.376 434.983 247.376L380.141 285.1C380.141 285.1 375.356 278.795 369.833 275.567C364.305 272.339 339.032 255.085 327.619 238.255L364.341 135.179L375.966 149.781L374.25 125.332H374.256Z" fill="#FFB8B8"/>
<path d="M418.356 225.646C402.816 238.637 384.968 249.108 368.323 260.457C364.885 262.801 361.429 265.139 357.979 267.464C363.417 271.498 367.876 274.423 369.834 275.567C375.362 278.795 380.147 285.1 380.147 285.1L434.989 247.376C434.989 247.376 434.904 248.829 418.356 225.646Z" fill="#FFA1A1"/>
<path d="M369.598 217.131C368.184 215.345 367.097 213.395 366.517 211.39C359.949 188.577 371.012 160.761 374.776 152.324L375.072 148.654L364.341 135.173L327.619 238.249C331.033 243.282 335.679 248.345 340.669 253.063L356.783 254.359C359.393 254.571 361.925 253.747 363.919 252.045C365.912 250.343 367.121 247.969 367.332 245.353L369.586 217.125L369.598 217.131Z" fill="#FFA1A1"/>
<path d="M362.105 287.571L433.744 231.333L439 237.08V297H370.945L362.105 287.571Z" fill="#00438C"/>
<path d="M361.374 239.757C361.006 244.36 356.988 247.794 352.396 247.424L263.654 240.296C259.062 239.927 255.636 235.899 256.005 231.297L272.263 27.9673C272.632 23.3646 276.65 19.9308 281.241 20.3002L369.984 27.4283C374.576 27.7978 378.002 31.8251 377.633 36.4278L361.374 239.757Z" fill="#00438C" stroke="#010034" stroke-width="4.83" stroke-miterlimit="10"/>
<path d="M349.006 29.9659C348.813 32.3883 346.698 34.1931 344.282 33.9993L305.565 30.8864C303.149 30.6926 301.348 28.5729 301.542 26.1505C301.735 23.728 303.85 21.9233 306.266 22.1171L344.982 25.2299C347.399 25.4237 349.2 27.5434 349.006 29.9659Z" fill="#010034"/>
<path d="M302.146 228.571C301.832 232.472 304.738 235.893 308.629 236.202C312.52 236.517 315.934 233.604 316.242 229.704C316.556 225.804 313.65 222.382 309.759 222.073C305.868 221.758 302.454 224.671 302.146 228.571Z" stroke="#FDEDEE" stroke-width="0.63" stroke-miterlimit="10"/>
<path d="M277.127 31.1829L262.717 211.497L357.867 219.137L372.277 38.8231L277.127 31.1829Z" fill="white"/>
<path d="M399.075 228.19L382.212 149.339C382.484 148.249 382.944 148.249 383.971 150.786C390.647 150.053 397.124 148.503 403.468 146.462C403.262 146.171 403.057 145.887 402.845 145.602C399.269 140.763 396.731 120.281 396.453 118.458C396.175 116.636 386.853 83.3024 386.853 83.3024C386.853 83.3024 377.21 80.1956 371.452 93.5858C365.694 106.976 372.654 123.382 372.654 123.382L375.977 149.781C371.99 158.798 363.06 172.734 361.978 186.063C360.335 206.285 363.749 225.87 389.571 234.422C392.719 232.308 395.903 230.255 399.081 228.19H399.075Z" fill="#FFB8B8"/>
<g opacity="0.4">
<path d="M320.611 42.6898L316.968 89.0134L340.754 102.513L343.739 64.5647L329.885 63.4685L331.45 43.5438L320.611 42.6898Z" fill="#FF9491"/>
<path d="M287.039 145.731L285.948 159.617L299.802 160.71L300.892 146.823L287.039 145.731Z" fill="#FF9491"/>
<path d="M276.995 88.452L274.104 125.281L293.98 126.849L296.872 90.02L276.995 88.452Z" fill="#FF9491"/>
<path d="M333.84 43.7343L332.465 61.243L354.751 63.0011L356.125 45.4924L333.84 43.7343Z" fill="#FF9491"/>
<path d="M329.923 132.106L328.169 154.445L336.601 155.11L338.355 132.771L329.923 132.106Z" fill="#FF9491"/>
<path d="M340.549 105.177L332.423 100.569L330.133 129.705L338.567 130.371L340.549 105.177Z" fill="#FF9491"/>
<path d="M302.171 161.621L315.487 177.252L317.161 156.019L302.703 154.88L302.171 161.621Z" fill="#FF9491"/>
<path d="M330.102 99.2543L315.602 91.018L315.56 91.4964L299.301 90.2125L297.736 110.137L329.057 112.608L330.102 99.2543Z" fill="#FF9491"/>
<path d="M327.535 131.933L296.214 129.456L295.078 143.949L303.513 144.615L302.89 152.464L325.783 154.268L327.535 131.933Z" fill="#FF9491"/>
<path d="M356.988 65.6124L346.149 64.7524L343.08 103.833L361.061 114.037L366.383 46.3054L358.553 45.6876L356.988 65.6124Z" fill="#FF9491"/>
<path d="M328.157 192.119L341.473 207.75L341.576 207.763L342.718 193.27L328.157 192.119Z" fill="#FF9491"/>
<path d="M279.177 60.6732L278.276 72.1444L298.153 73.7124L299.054 62.2412L279.177 60.6732Z" fill="#FF9491"/>
<path d="M284.837 143.137L292.667 143.755L293.809 129.269L273.931 127.7L270.089 176.604L289.967 178.172L291.199 162.475L283.369 161.857L284.837 143.137Z" fill="#FF9491"/>
<path d="M278.082 74.5615L277.182 86.0328L297.058 87.6008L297.959 76.1296L278.082 74.5615Z" fill="#FF9491"/>
<path d="M280.838 39.5476L279.368 58.2638L299.245 59.8319L300.714 41.1156L280.838 39.5476Z" fill="#FF9491"/>
<path d="M341.83 119.694L360.505 121.172L360.856 116.708L342.869 106.498L341.83 119.694Z" fill="#FF9491"/>
<path d="M269.878 179.006L268.076 201.948L287.953 203.516L289.754 180.574L269.878 179.006Z" fill="#FF9491"/>
<path d="M346.669 173.529L345.294 191.037L354.931 191.798L356.306 174.289L346.669 173.529Z" fill="#FF9491"/>
<path d="M345.105 193.448L343.968 207.938L353.605 208.698L354.743 194.208L345.105 193.448Z" fill="#FF9491"/>
<path d="M300.335 163.195L293.604 162.662L290.384 203.717L313.27 205.528L315.222 180.667L300.335 163.195Z" fill="#FF9491"/>
<path d="M317.439 183.271L315.681 205.716L338.066 207.484L317.439 183.271Z" fill="#FF9491"/>
<path d="M338.845 157.733L319.565 156.206L318.574 168.888L344.47 170.935L346.415 146.177L339.793 145.657L338.845 157.733Z" fill="#FF9491"/>
<path d="M303.127 41.3071L301.041 67.8721L316.099 69.06L318.185 42.495L303.127 41.3071Z" fill="#FF9491"/>
<path d="M342.905 190.854L344.283 173.345L318.382 171.304L317.711 179.862L325.94 189.515L342.905 190.854Z" fill="#FF9491"/>
<path d="M348.803 146.353L346.859 171.107L356.497 171.867L358.44 147.113L348.803 146.353Z" fill="#FF9491"/>
<path d="M300.847 70.2825L299.473 87.7912L314.531 88.9791L315.905 71.4704L300.847 70.2825Z" fill="#FF9491"/>
<path d="M341.619 122.097L339.96 143.228L358.632 144.701L360.291 123.57L341.619 122.097Z" fill="#FF9491"/>
<path d="M297.521 112.543L296.384 127.033L327.704 129.504L328.842 115.014L297.521 112.543Z" fill="#FF9491"/>
</g>
<path d="M283.593 134.992C283.593 140.382 293.332 153.493 293.332 153.493C293.332 153.493 303.072 140.388 303.072 134.992C303.072 129.596 298.709 125.229 293.332 125.229C287.955 125.229 283.593 129.602 283.593 134.992Z" fill="#FF9E30"/>
<path d="M294.393 139.484C296.874 138.899 298.413 136.408 297.829 133.92C297.245 131.433 294.76 129.891 292.278 130.476C289.797 131.061 288.258 133.552 288.842 136.04C289.426 138.527 291.911 140.069 294.393 139.484Z" fill="white"/>
<path d="M327.493 177.785C327.493 183.175 337.233 196.286 337.233 196.286C337.233 196.286 346.972 183.181 346.972 177.785C346.972 172.388 342.61 168.022 337.233 168.022C331.855 168.022 327.493 172.395 327.493 177.785Z" fill="#FF9E30"/>
<path d="M337.232 182.411C339.781 182.411 341.848 180.34 341.848 177.785C341.848 175.229 339.781 173.158 337.232 173.158C334.683 173.158 332.616 175.229 332.616 177.785C332.616 180.34 334.683 182.411 337.232 182.411Z" fill="white"/>
<path d="M340.386 65.9515C340.386 71.3415 350.125 84.4531 350.125 84.4531C350.125 84.4531 359.865 71.3476 359.865 65.9515C359.865 60.5555 355.502 56.189 350.125 56.189C344.748 56.189 340.386 60.5616 340.386 65.9515Z" fill="#FF9E30"/>
<path d="M351.181 70.4447C353.662 69.8594 355.201 67.3685 354.617 64.881C354.033 62.3936 351.548 60.8516 349.067 61.4368C346.585 62.0221 345.047 64.513 345.63 67.0005C346.214 69.4879 348.699 71.0299 351.181 70.4447Z" fill="white"/>
<path d="M180.536 49.4606C180.536 49.4606 164.676 44.107 158.954 54.8627C153.233 65.6185 167.238 79.0692 158.012 85.1072C148.786 91.1452 158.556 109.211 173.539 101.21C188.523 93.2164 190.239 84.0716 190.239 84.0716L180.536 49.4546V49.4606Z" fill="#213765"/>
<path d="M180.083 50.8233C180.083 50.8233 164.223 45.4696 158.501 56.2254C152.78 66.9811 166.785 80.4318 157.559 86.4698C148.333 92.5078 158.102 110.573 173.086 102.573C188.07 94.579 189.786 85.4342 189.786 85.4342L180.083 50.8172V50.8233Z" stroke="#213765" stroke-miterlimit="10"/>
<path d="M188.445 91.3632C184.886 89.0073 188.028 77.4037 188.028 77.4037L174.869 76.5922C174.869 76.5922 175.515 84.332 175.902 88.7712C175.986 89.722 174.476 89.7401 172.706 89.6554C172.724 89.8794 172.73 90.1035 172.718 90.3276C172.893 92.3867 172.663 94.3913 172.494 96.408C180.204 101.544 194.426 107.206 196.444 101.568C197.525 98.5397 192.009 93.713 188.451 91.3632H188.445Z" fill="#FF7469"/>
<path d="M191.732 70.3604C191.732 70.3604 194.825 56.9097 179.883 54.7416C160.61 51.9497 162.175 76.5256 169.6 82.715C177.026 88.9104 189.756 80.5106 191.732 70.3544V70.3604Z" fill="#FF938F"/>
<path d="M180.959 82.3274L180.639 71.4506C180.639 71.4506 173.878 68.8282 170.114 69.131C166.35 69.4339 164.525 71.9653 164.525 71.9653C164.525 71.9653 165.522 81.958 170.386 83.8838C175.25 85.8158 180.965 82.3274 180.965 82.3274H180.959Z" fill="white"/>
<path d="M179.37 71.8866L189.339 70.8873L189.194 75.2599L180.427 81.5522" stroke="white" stroke-width="1.1" stroke-miterlimit="10"/>
<path d="M165.763 65.7214C165.763 65.7214 165.781 65.8486 165.812 66.0666C165.824 66.1756 165.842 66.3089 165.86 66.4603C165.896 66.6056 165.938 66.7631 165.975 66.9327C166.017 67.1022 166.114 67.2718 166.174 67.4535C166.216 67.5383 166.283 67.617 166.331 67.7018C166.379 67.7866 166.44 67.8714 166.518 67.9319C166.645 68.0894 166.827 68.1863 166.996 68.2953L167.286 68.3982L167.594 68.4406C167.799 68.4406 168.017 68.4346 168.216 68.368C168.319 68.3498 168.416 68.3013 168.512 68.259C168.609 68.2166 168.712 68.1863 168.79 68.1197C168.875 68.0652 168.959 68.0046 169.05 67.9501C169.128 67.8835 169.201 67.8169 169.273 67.7502C169.431 67.6291 169.527 67.4595 169.648 67.3324C169.757 67.1931 169.829 67.0417 169.908 66.9205C169.992 66.7994 170.029 66.6722 170.077 66.5753C170.168 66.3755 170.222 66.2604 170.222 66.2604C170.222 66.2604 170.216 66.3815 170.192 66.6056C170.174 66.7146 170.18 66.86 170.119 67.0053C170.071 67.1507 170.035 67.3324 169.938 67.508C169.835 67.6776 169.763 67.8835 169.6 68.053C169.527 68.1439 169.449 68.2347 169.37 68.3256C169.28 68.4043 169.177 68.483 169.08 68.5618C168.983 68.6465 168.863 68.7011 168.748 68.7677C168.633 68.8343 168.512 68.8948 168.373 68.9251C168.113 69.016 167.829 69.0463 167.546 69.0463C167.401 69.022 167.262 69.0039 167.123 68.9796L166.724 68.8222C166.476 68.6768 166.259 68.5012 166.102 68.2832C166.011 68.1863 165.944 68.0773 165.896 67.9622C165.848 67.8471 165.787 67.7442 165.751 67.6352C165.703 67.4111 165.636 67.2052 165.624 67.0053C165.618 66.8055 165.618 66.6238 165.618 66.4724C165.636 66.321 165.667 66.1877 165.685 66.0848C165.727 65.8668 165.757 65.7456 165.757 65.7456L165.763 65.7214Z" fill="#0B172D"/>
<path d="M175.593 66.4784C175.593 66.4784 175.611 66.6056 175.642 66.8236C175.654 66.9327 175.672 67.0659 175.69 67.2173C175.726 67.3626 175.768 67.5201 175.805 67.6897C175.847 67.8592 175.944 68.0288 176.004 68.2105C176.046 68.2953 176.113 68.374 176.161 68.4588C176.21 68.5436 176.27 68.6284 176.348 68.6889C176.475 68.8464 176.657 68.9433 176.826 69.0523L177.116 69.1553L177.424 69.1977C177.629 69.1977 177.847 69.1916 178.046 69.125C178.149 69.1068 178.246 69.0584 178.342 69.016C178.439 68.9736 178.542 68.9433 178.62 68.8767C178.705 68.8222 178.789 68.7616 178.88 68.7071C178.959 68.6405 179.031 68.5739 179.104 68.5073C179.261 68.3861 179.357 68.2166 179.478 68.0894C179.587 67.9501 179.659 67.7987 179.738 67.6776C179.823 67.5564 179.859 67.4293 179.907 67.3324C179.998 67.1325 180.052 67.0174 180.052 67.0174C180.052 67.0174 180.046 67.1386 180.022 67.3626C180.004 67.4717 180.01 67.617 179.949 67.7623C179.901 67.9077 179.865 68.0894 179.768 68.265C179.665 68.4346 179.593 68.6405 179.43 68.8101C179.357 68.9009 179.279 68.9917 179.2 69.0826C179.11 69.1613 179.007 69.24 178.91 69.3188C178.814 69.4036 178.693 69.4581 178.578 69.5247C178.463 69.5913 178.342 69.6519 178.203 69.6821C177.944 69.773 177.66 69.8033 177.376 69.8033C177.231 69.779 177.092 69.7609 176.953 69.7367L176.554 69.5792C176.306 69.4338 176.089 69.2582 175.932 69.0402C175.841 68.9433 175.774 68.8343 175.726 68.7192C175.678 68.6042 175.617 68.5012 175.581 68.3922C175.533 68.1681 175.466 67.9622 175.454 67.7623C175.448 67.5625 175.448 67.3808 175.448 67.2294C175.466 67.078 175.497 66.9448 175.515 66.8418C175.557 66.6238 175.587 66.5027 175.587 66.5027L175.593 66.4784Z" fill="#0B172D"/>
<path d="M174.536 63.6018C174.536 63.6018 174.548 63.4746 174.627 63.2626C174.705 63.0567 174.844 62.76 175.098 62.4693C175.219 62.3118 175.382 62.1725 175.557 62.0211C175.745 61.8939 175.95 61.7486 176.186 61.6517C176.415 61.5306 176.681 61.4821 176.947 61.4216C177.213 61.3973 177.497 61.367 177.763 61.3973C178.029 61.4397 178.306 61.4579 178.542 61.5608C178.79 61.6396 179.031 61.7244 179.237 61.8515C179.442 61.9727 179.654 62.0756 179.817 62.2149C179.986 62.3481 180.137 62.4874 180.276 62.6146C180.554 62.8629 180.723 63.1354 180.85 63.305C180.971 63.4867 181.031 63.5957 181.031 63.5957C181.031 63.5957 180.904 63.5654 180.699 63.4988C180.494 63.4383 180.222 63.3111 179.895 63.2021C179.732 63.1476 179.557 63.0931 179.382 63.0204C179.207 62.9416 179.007 62.9114 178.82 62.8447C178.633 62.7721 178.433 62.7479 178.24 62.6994C178.047 62.6388 177.847 62.6388 177.654 62.6086C177.461 62.5783 177.267 62.6025 177.08 62.5904C176.893 62.6207 176.705 62.6146 176.524 62.6691C176.343 62.6933 176.174 62.76 175.998 62.8084C175.841 62.8811 175.666 62.9295 175.527 63.0083C175.231 63.1476 174.983 63.299 174.808 63.414C174.633 63.523 174.53 63.6018 174.53 63.6018H174.536Z" fill="#0B172D"/>
<path d="M171.207 63.7532C171.207 63.7532 170.797 63.5351 170.186 63.2081C169.89 63.0628 169.558 62.8871 169.201 62.7539C169.026 62.6752 168.845 62.6328 168.67 62.5722C168.579 62.5359 168.489 62.5419 168.404 62.5177C168.319 62.5056 168.229 62.4693 168.144 62.4814L167.884 62.4693C167.8 62.4693 167.721 62.4935 167.637 62.4995C167.467 62.4995 167.31 62.5783 167.147 62.6146C166.984 62.657 166.839 62.766 166.676 62.8266C166.519 62.8932 166.392 63.0083 166.247 63.087C166.114 63.1718 165.975 63.2505 165.878 63.3413C165.776 63.4261 165.673 63.4988 165.588 63.5594C165.419 63.6805 165.311 63.7471 165.311 63.7471C165.311 63.7471 165.329 63.626 165.389 63.4261C165.419 63.3232 165.456 63.196 165.51 63.0567C165.552 62.9114 165.637 62.76 165.74 62.6086C165.848 62.4571 165.939 62.2634 166.102 62.1119C166.271 61.9666 166.434 61.7789 166.658 61.6517C166.887 61.5366 167.123 61.3852 167.401 61.3428C167.54 61.3186 167.679 61.2762 167.818 61.2701H168.241C168.519 61.3004 168.791 61.3731 169.032 61.4579C169.274 61.5548 169.51 61.6638 169.703 61.8091C170.108 62.0696 170.41 62.3905 170.633 62.6812C171.087 63.2626 171.207 63.7532 171.207 63.7532Z" fill="#0B172D"/>
<path d="M160.875 96.2505C160.875 96.2505 169.002 105.607 168.887 106.752C168.772 107.896 149.68 121.698 145.408 124.012C141.137 126.325 98.0343 135.725 114.281 129.959C114.281 129.959 98.862 132.012 114.571 128.112C114.571 128.112 98.56 131.588 114.136 126.58C114.136 126.58 103.176 127.876 115.749 125.26C115.749 125.26 108.058 120.433 118.111 123.848L141.046 113.541L160.882 96.2505H160.875Z" fill="#FF938F"/>
<path d="M160.809 113.395C165.226 110.119 168.833 107.248 168.881 106.752C168.996 105.607 160.869 96.2505 160.869 96.2505L152.193 103.815C154.936 107.115 157.891 110.24 160.809 113.389V113.395Z" fill="#FF7469"/>
<path d="M153.124 100.829L163.588 112.112C163.588 112.112 170.911 96.093 173.473 89.3768C170.446 88.1655 165.153 90.4366 161.824 93.0165C158.791 95.3663 153.124 100.835 153.124 100.835V100.829Z" fill="white"/>
<path opacity="0.1" d="M164.295 99.3694C163.262 97.377 162.235 95.3542 161.522 93.2588C158.435 95.7176 153.13 100.829 153.13 100.829L163.594 112.112C163.594 112.112 165.135 108.744 167.044 104.451C166.09 102.779 165.177 101.083 164.289 99.3694H164.295Z" fill="#213765"/>
<path d="M190.487 87.7477C190.487 87.7477 201.549 89.722 199.791 100.441C198.033 111.161 187.623 123.709 187.623 123.709L189.417 127.621L159.25 132.448C159.25 132.448 158.12 105.062 161.063 98.3641C164.005 91.666 173.479 89.3768 173.479 89.3768C173.479 89.3768 172.875 94.9848 177.545 95.4632C183.52 96.0749 190.493 87.7537 190.493 87.7537L190.487 87.7477Z" fill="white"/>
<g opacity="0.1">
<path d="M196.976 108.975C191.955 112.408 185.363 114.334 180.071 115.255C173.684 116.369 165.866 116.611 159.111 114.607C158.882 123.515 159.25 132.448 159.25 132.448L189.417 127.621L187.623 123.709C187.623 123.709 193.296 116.866 196.976 108.975Z" fill="#213765"/>
</g>
<path d="M160.646 230.382C160.646 230.382 149.952 273.611 145.91 277.505C145.91 277.505 110.118 267.083 140.249 272.17L141.234 229.195L160.64 230.388L160.646 230.382Z" fill="#FF938F"/>
<path d="M147.698 261.729C148.973 262.335 150.278 262.861 151.601 263.334C155.945 249.393 160.646 230.388 160.646 230.388L141.239 229.195L140.587 257.465C142.901 258.87 145.124 260.512 147.692 261.729H147.698Z" fill="#FF7469"/>
<path d="M147.185 275.707L145.56 279.231C145.56 279.231 115.067 268.209 134.147 271.213C134.147 271.213 128.848 271.019 147.185 275.707Z" fill="#FFFEE3"/>
<path d="M128.806 270.704C123.066 271.098 145.56 279.225 145.56 279.225L145.904 278.474C142.998 277.408 129.567 272.4 128.806 270.704Z" fill="#213765"/>
<path d="M183.043 202.566C183.043 202.566 225.318 188.855 230.755 190.242C230.755 190.242 240.809 226.216 229.221 197.879L192.281 219.717L183.049 202.566H183.043Z" fill="#FF938F"/>
<path d="M216.158 192.774C202.002 196.419 183.043 202.566 183.043 202.566L192.275 219.717L221.952 202.173C220.128 198.981 218.134 195.88 216.158 192.774Z" fill="#FF7469"/>
<path d="M228.557 190.109L232.399 189.636C232.399 189.636 239.154 221.413 231.626 203.584C231.626 203.584 234.26 208.199 228.557 190.109Z" fill="#FFFEE3"/>
<path d="M234.018 208.398C237.377 213.08 232.399 189.636 232.399 189.636L231.577 189.739C232.205 192.774 235.051 206.854 234.018 208.398Z" fill="#213765"/>
<path d="M158.955 128.039L151.994 151.695C151.994 151.695 137.476 197.14 135.657 250.652C135.657 250.652 148.164 259.954 155.994 257.556C155.994 257.556 166.513 212.038 169.842 194.754C173.171 177.47 174.379 149.569 174.379 149.569L158.949 128.039H158.955Z" fill="#CF8530"/>
<path d="M158.954 128.039C158.954 128.039 170.277 132.067 189.423 127.627C189.423 127.627 199.797 140.17 200.703 155.334C201.61 170.499 190.42 215.375 186.789 218.409C183.158 221.443 172.27 230.237 169.243 206.279C166.216 182.321 170.15 166.859 170.15 166.859C170.15 166.859 158.954 162.614 152 151.695C152 151.695 156.537 136.227 158.96 128.039H158.954Z" fill="#FF9E30"/>
<path d="M169.262 205.328C169.262 205.328 170.718 224.326 180.633 224.914C190.547 225.501 217.959 208.253 217.959 208.253C217.959 208.253 218.545 198.024 211.833 193.349L169.256 205.334L169.262 205.328Z" fill="#FB931C"/>
<path d="M174.778 51.4168C174.778 51.4168 172.331 59.0718 181.617 63.523C190.897 67.9743 177.883 88.8499 187.883 93.0953C197.876 97.3406 199.972 98.7517 199.954 102.464C199.954 102.464 211.929 97.9583 209.651 86.7121C207.374 75.4658 196.329 77.9609 198.256 62.9356C200.462 45.7724 177.376 39.4014 174.784 51.4168H174.778Z" fill="#00438C"/>
<path d="M189.81 110.688C189.81 110.688 200.033 103.694 201.156 103.942C202.28 104.196 213.711 124.811 215.506 129.341C217.3 133.865 221.56 177.875 217.747 161.027C217.747 161.027 217.971 176.616 215.953 160.524C215.953 160.524 217.524 176.87 214.382 160.779C214.382 160.779 214.382 171.843 213.258 159.017C213.258 159.017 207.573 166.102 212.134 156.503L204.612 132.46L189.804 110.688H189.81Z" fill="#FF938F"/>
<path d="M206.787 112.766C204.056 107.981 201.639 104.057 201.156 103.948C200.032 103.694 189.81 110.695 189.81 110.695L196.286 120.221C199.875 117.877 203.319 115.303 206.787 112.766Z" fill="#FF7469"/>
<path d="M193.441 118.943L205.845 109.847C205.845 109.847 202.214 100.145 195.864 96.8077C189.514 93.4707 185.883 108.333 185.883 108.333L193.447 118.949L193.441 118.943Z" fill="white"/>
<path d="M161.287 14.3046C161.287 22.2079 175.558 41.412 175.558 41.412C175.558 41.412 189.829 22.2079 189.829 14.3046C189.829 6.40136 183.443 0 175.558 0C167.673 0 161.287 6.40741 161.287 14.3046Z" fill="#FF5547"/>
<path d="M182.75 20.6919C186.721 16.7115 186.721 10.258 182.75 6.27754C178.779 2.29712 172.341 2.29712 168.37 6.27754C164.399 10.258 164.399 16.7115 168.37 20.6919C172.341 24.6724 178.779 24.6724 182.75 20.6919Z" fill="white"/>
<path d="M63.5726 95.6509C63.7236 90.479 60.9383 75.4476 60.9383 75.4476L50.8545 74.7451C50.8545 74.7451 52.51 87.7355 52.6912 91.9264C55.2046 94.9908 60.4248 95.3905 63.5786 95.6509H63.5726Z" fill="#FF7469"/>
<path d="M50.57 72.1954C50.57 72.1954 46.5159 59.4109 58.7023 57.7091C63.9285 56.9824 66.4237 58.5812 67.9765 63.7895C72.23 78.0517 69.1728 84.011 64.5447 84.8952C56.8112 86.3729 52.1348 80.4803 50.57 72.1954Z" fill="#FF938F"/>
<path d="M52.9809 65.7214L52.993 60.8462C52.0324 60.1073 50.963 61.1308 50.2017 60.1618C49.8331 59.6955 49.4706 59.211 49.0719 58.7689C48.8725 58.5509 48.6731 58.3268 48.4556 58.127C48.4193 58.0967 48.3952 58.0725 48.371 58.0483C47.4164 57.376 48.5341 56.1345 48.2139 55.0928C47.3439 55.0262 46.0449 55.2685 44.7519 56.7886C40.8852 61.3428 47.0539 69.779 47.4587 72.3771C47.4587 72.3771 49.1927 66.5995 50.0809 69.7669C50.3286 70.6511 50.6125 72.1833 50.9992 73.982C51.9357 73.5762 52.0807 73.2916 53.0776 73.0857C52.2015 70.0031 52.0324 66.7752 52.0324 66.7752L52.987 65.7093L52.9809 65.7214Z" fill="#213765"/>
<path d="M52.7268 61.149C52.7268 61.149 67.7528 63.4201 68.8524 57.3639L67.0943 57.8181C67.0943 57.8181 71.535 55.0928 69.3177 50.3993C69.3177 50.3993 68.2785 52.8218 66.3572 52.9732C66.3572 52.9732 69.7648 51.9134 68.1335 48.4311C68.1335 48.4311 65.7651 51.762 60.4301 50.8535C55.0952 49.9451 44.7274 50.7021 47.3979 58.5751C50.0623 66.4481 52.7328 61.149 52.7328 61.149H52.7268Z" fill="#213765"/>
<path d="M69.8377 71.9956C69.8377 71.9956 65.1915 68.5981 61.5301 70.0637C57.8748 71.5293 57.1679 72.2802 57.1679 72.2802L56.6846 83.5447C56.6846 83.5447 60.3882 86.4698 65.699 84.7256C71.8738 82.7029 69.8377 71.9956 69.8377 71.9956Z" fill="white"/>
<path d="M69.8863 72.8737C68.4725 72.0198 65.2824 69.9486 62.618 71.0145C59.0835 72.4316 58.4008 73.1523 58.4008 73.1523L57.9355 84.0292C57.9355 84.0292 58.4129 84.4046 59.2647 84.7983C60.8477 85.301 63.0772 85.5795 65.6993 84.7196C71.149 82.933 70.1824 74.8541 69.8863 72.8737Z" fill="#D3EBFF"/>
<path d="M49.3682 68.9917L57.9294 72.9101L57.6455 81.0677L49.9301 74.8238" stroke="white" stroke-width="0.78" stroke-miterlimit="10"/>
<path d="M50.0144 69.1007C49.6821 68.6707 49.235 68.3801 48.649 68.4103C46.5827 68.5072 46.2201 71.9956 47.0902 74.085C47.9542 76.1562 50.4857 78.0881 51.3074 75.9139C51.2892 75.9563 51.3255 75.8715 51.3074 75.9139C51.3799 73.0736 50.1957 70.9903 50.0144 69.1068V69.1007Z" fill="#FF938F"/>
<path d="M60.8961 69.9001C60.8961 69.9001 60.8478 69.8032 60.7692 69.6276C60.733 69.5368 60.6846 69.4338 60.6303 69.3127C60.5698 69.2037 60.5034 69.0765 60.4248 68.9372C60.3644 68.7979 60.2496 68.6707 60.159 68.5254C60.0744 68.374 59.9234 68.2771 59.8086 68.1378C59.6696 68.0409 59.5246 67.938 59.3675 67.8895C59.2104 67.835 59.0473 67.8168 58.8902 67.8471C58.7331 67.8713 58.57 67.9319 58.431 68.0348C58.3525 68.0712 58.2981 68.1439 58.2316 68.2044C58.1652 68.2589 58.1048 68.3255 58.0564 68.4043C57.9416 68.5436 57.8631 68.701 57.7845 68.8524C57.712 69.0038 57.6698 69.1674 57.6093 69.3066C57.5731 69.458 57.5429 69.5973 57.5127 69.7245C57.4825 69.8517 57.4825 69.9607 57.4643 70.0576C57.4341 70.2453 57.422 70.3544 57.422 70.3544C57.422 70.3544 57.3918 70.2514 57.3495 70.0637C57.3314 69.9668 57.2891 69.8517 57.2891 69.7185C57.2831 69.5852 57.271 69.4278 57.277 69.2521C57.3012 69.0826 57.3072 68.8948 57.3677 68.701C57.4281 68.5072 57.4885 68.3013 57.6214 68.1075C57.6758 68.0046 57.7423 67.9077 57.8268 67.8229C57.9054 67.732 57.9839 67.6351 58.0927 67.5685C58.2921 67.4171 58.5337 67.296 58.7996 67.2536C59.0654 67.2112 59.3433 67.2536 59.579 67.3444C59.8267 67.4353 60.0079 67.6049 60.1832 67.7563C60.3161 67.938 60.4732 68.1015 60.5457 68.2892C60.6303 68.4709 60.7209 68.6344 60.7511 68.81C60.8538 69.1431 60.884 69.4096 60.8901 69.6034C60.9021 69.7972 60.9021 69.9062 60.9021 69.9062L60.8961 69.9001Z" fill="#0B172D"/>
<path d="M61.2824 65.4792C61.2824 65.4792 60.8776 65.2248 60.3036 65.0007C60.1646 64.9402 60.0015 64.9038 59.8444 64.8493C59.6813 64.819 59.5182 64.7706 59.3429 64.7585C59.1738 64.7221 58.9925 64.7403 58.8173 64.7282C58.6421 64.7524 58.4608 64.7464 58.2796 64.7888C58.0983 64.8311 57.9171 64.8493 57.7358 64.9159C57.5546 64.9765 57.3733 65.0128 57.2041 65.0976C57.035 65.1763 56.8537 65.2187 56.6966 65.3035C56.5395 65.3823 56.3764 65.4489 56.2254 65.5155C55.9293 65.6427 55.6876 65.782 55.5003 65.8546C55.313 65.9334 55.1982 65.9697 55.1982 65.9697C55.1982 65.9697 55.2466 65.8607 55.3493 65.6851C55.458 65.5155 55.597 65.249 55.8326 64.9947C55.9535 64.8675 56.0804 64.7282 56.2314 64.5889C56.3764 64.4436 56.5637 64.3345 56.751 64.2013C56.9322 64.0681 57.1558 63.9712 57.3793 63.8743C57.5969 63.7653 57.8506 63.7229 58.0983 63.6623C58.346 63.6139 58.6119 63.6199 58.8596 63.626C59.1134 63.6623 59.3611 63.6926 59.5907 63.7834C59.8202 63.85 60.0196 63.9712 60.2069 64.0802C60.3821 64.2074 60.5453 64.3285 60.6661 64.4617C60.9319 64.7161 61.077 64.9826 61.1676 65.1703C61.2582 65.358 61.2763 65.4792 61.2763 65.4792H61.2824Z" fill="#0B172D"/>
<path d="M65.4028 69.1734C65.4028 69.1734 65.3847 69.0644 65.3605 68.8767C65.3303 68.6889 65.3062 68.4164 65.3424 68.0712C65.3424 67.8956 65.3968 67.7139 65.4512 67.5201C65.4874 67.3202 65.6083 67.1325 65.7049 66.9266C65.8499 66.7449 65.9889 66.539 66.2185 66.4057C66.4299 66.2665 66.6958 66.1756 66.9677 66.1696C67.2335 66.1635 67.4994 66.2301 67.7229 66.3452C67.8437 66.3876 67.9344 66.4724 68.031 66.545C68.1337 66.6117 68.2123 66.6964 68.2848 66.7873C68.4479 66.9508 68.5506 67.1446 68.6473 67.3202C68.744 67.4959 68.7863 67.6836 68.8406 67.8471C68.8769 68.0167 68.895 68.1681 68.9131 68.3074C68.9373 68.4406 68.9131 68.5617 68.9131 68.6586C68.9071 68.8524 68.895 68.9614 68.895 68.9614C68.895 68.9614 68.8588 68.8585 68.7923 68.6768C68.7561 68.586 68.7379 68.4769 68.6836 68.3619C68.6292 68.2468 68.5748 68.1136 68.5083 67.9743C68.4238 67.8471 68.3513 67.6957 68.2485 67.5564C68.1398 67.4232 68.0371 67.2839 67.8981 67.1688C67.8377 67.1022 67.7652 67.0477 67.6866 67.0053C67.6081 66.9629 67.5416 66.9023 67.4571 66.8781C67.3 66.8054 67.1308 66.7691 66.9737 66.7812C66.8106 66.7812 66.6535 66.8297 66.5145 66.9145C66.3695 66.9932 66.2487 67.1204 66.1279 67.2415C66.0433 67.399 65.9164 67.5201 65.856 67.6896C65.7895 67.8471 65.7049 67.9925 65.6687 68.1439C65.6203 68.2953 65.578 68.4285 65.5358 68.5496C65.5055 68.6768 65.4814 68.7919 65.4633 68.8888C65.421 69.0765 65.3847 69.1795 65.3847 69.1795L65.4028 69.1734Z" fill="#0B172D"/>
<path d="M64.1519 64.7645C64.1519 64.7645 64.1398 64.6737 64.1519 64.5162C64.17 64.3588 64.2062 64.1286 64.3331 63.8743C64.3875 63.741 64.4781 63.6139 64.5808 63.4806C64.6956 63.3595 64.8165 63.2142 64.9917 63.1233C65.1488 63.0082 65.3481 62.9477 65.5415 62.8811C65.7409 62.8508 65.9584 62.8084 66.1517 62.8447L66.4538 62.8811L66.7257 62.9658C66.913 63.0143 67.0701 63.1051 67.2211 63.196C67.5292 63.3595 67.7467 63.5836 67.9401 63.7713C68.0368 63.8622 68.1032 63.9651 68.1697 64.0499C68.2361 64.1347 68.2845 64.2134 68.3268 64.28C68.4113 64.4133 68.4476 64.492 68.4476 64.492C68.4476 64.492 68.357 64.4678 68.212 64.4193C68.067 64.3709 67.8676 64.2921 67.644 64.2013C67.5292 64.165 67.4024 64.1226 67.2815 64.0681C67.1607 64.0075 67.0217 63.9772 66.8888 63.9348C66.7559 63.8864 66.623 63.844 66.484 63.8198C66.4175 63.8016 66.3511 63.7895 66.2846 63.7713L66.0913 63.7592C65.9584 63.7289 65.8436 63.7592 65.7167 63.7592C65.6019 63.7895 65.4811 63.7955 65.3723 63.85C65.1427 63.9227 64.9313 64.062 64.756 64.2074C64.5748 64.3527 64.4298 64.4981 64.3271 64.6071C64.2183 64.7161 64.1639 64.7827 64.1639 64.7827L64.1519 64.7645Z" fill="#0B172D"/>
<path d="M83.6738 233.416C84.2357 234.173 84.5741 235.1 84.5741 236.099C84.5741 236.117 84.5741 236.13 84.5741 236.148C88.9061 233.338 92.1566 230.643 83.6738 233.416Z" fill="white"/>
<path d="M85.3415 232.896C84.1391 233.247 82.6045 233.756 80.659 234.452L77.4508 219.475C74.2547 220.353 71.0767 221.304 67.9229 222.346C71.8923 231.139 75.9222 239.37 77.5112 240.405C77.5112 240.405 82.7677 237.438 86.1632 235.082C85.71 234.446 85.4381 233.683 85.3415 232.896Z" fill="#213765"/>
<path d="M88.3263 232.254C87.7221 233.816 78.1156 239.309 77.0039 239.939C77.1912 240.157 77.4389 240.49 77.59 240.587C77.59 240.587 92.175 232.139 88.3263 232.254Z" fill="white"/>
<path d="M80.6286 234.258C80.5259 234.513 80.4353 234.779 80.3809 235.052C80.3265 235.324 80.3145 235.591 80.3145 235.863C80.3145 235.972 80.4232 236.008 80.5138 235.996C80.5924 235.99 80.7555 235.93 80.7555 235.821C80.7555 235.554 80.7676 235.294 80.822 235.033C80.8764 234.773 80.9489 234.537 81.0455 234.301C81.1422 234.064 80.7011 234.083 80.6286 234.258Z" fill="white"/>
<path d="M81.7227 233.949V235.718C81.7227 235.821 81.8314 235.833 81.916 235.827C81.9825 235.821 82.1637 235.766 82.1637 235.669V233.901C82.1637 233.798 82.055 233.786 81.9704 233.792C81.9039 233.798 81.7227 233.852 81.7227 233.949Z" fill="white"/>
<path d="M82.9854 233.556C82.9854 234.083 83.064 234.603 83.1365 235.118C83.1485 235.209 83.5896 235.118 83.5715 235.003C83.499 234.482 83.4204 233.961 83.4204 233.441C83.4204 233.368 82.9794 233.428 82.9854 233.556Z" fill="white"/>
<path d="M31.8647 222.473C31.339 223.254 30.5717 223.878 29.6352 224.211C29.6171 224.211 29.605 224.217 29.5869 224.223C33.6591 227.397 37.2661 229.589 31.8647 222.473Z" fill="white"/>
<path d="M32.9037 223.878C32.1726 222.854 31.1939 221.571 29.8949 219.96L42.9513 211.996C41.0723 209.258 39.1328 206.563 37.1088 203.923C30.1305 210.573 23.702 217.095 23.2549 218.942C23.2549 218.942 27.7802 222.939 31.1153 225.38C31.5685 224.738 32.1968 224.235 32.9037 223.884V223.878Z" fill="#213765"/>
<path d="M34.4871 226.488C32.8135 226.428 24.4818 219.142 23.5272 218.3C23.3883 218.549 23.1526 218.894 23.1104 219.069C23.1104 219.069 35.8707 230.092 34.4932 226.488H34.4871Z" fill="white"/>
<path d="M30.1975 219.911C29.9135 219.899 29.6296 219.899 29.3456 219.941C29.0616 219.984 28.7837 220.057 28.5118 220.153C28.4333 220.184 28.3003 220.25 28.3306 220.353C28.3547 220.45 28.5058 220.468 28.5904 220.438C28.7233 220.396 28.8502 220.353 28.9891 220.317C29.0495 220.305 29.1039 220.287 29.1643 220.275C29.2368 220.256 29.2489 220.256 29.3093 220.25C29.5571 220.214 29.8048 220.208 30.0525 220.22C30.1552 220.22 30.2881 220.19 30.3364 220.087C30.3848 219.99 30.2942 219.917 30.2035 219.911H30.1975Z" fill="white"/>
<path d="M30.7295 220.898C30.1737 221.092 29.6178 221.286 29.068 221.48C29.0015 221.504 28.8928 221.595 28.9532 221.667C29.0197 221.746 29.1647 221.704 29.2432 221.68C29.7991 221.486 30.3549 221.292 30.9047 221.098C30.9712 221.074 31.0799 220.983 31.0195 220.91C30.953 220.832 30.808 220.874 30.7295 220.898Z" fill="white"/>
<path d="M31.557 221.994C31.0434 222.176 30.5661 222.424 30.0827 222.673C30.0465 222.691 29.9377 222.764 30.0284 222.788C30.119 222.812 30.2519 222.776 30.3365 222.733C30.7836 222.497 31.2367 222.267 31.708 222.097C31.7382 222.085 31.8953 222.025 31.8349 221.97C31.7745 221.916 31.6113 221.97 31.5509 221.994H31.557Z" fill="white"/>
<path d="M74.4902 133.126C74.4902 133.126 81.5349 181.152 75.0641 188.867C68.5933 196.583 34.0944 219.499 34.0944 219.499L26.6025 211.596L55.0656 180.189L64.9743 147.189L74.4902 133.132V133.126Z" fill="#DF6B23"/>
<path d="M52.2439 125.011C52.2439 125.011 39.3264 136.645 43.447 148.243C47.9058 160.779 53.5429 185.809 71.034 233.622L81.2205 228.88L69.3664 156.963L76.6469 151.695L74.4839 133.126L52.2378 125.011H52.2439Z" fill="#FF7F30"/>
<path d="M75.8369 118.731C80.3079 128.99 86.5068 142.09 91.4913 148.412C99.4968 158.574 92.5366 146.898 92.5366 146.898C92.5366 146.898 103.14 158.332 94.4579 146.389C94.4579 146.389 102.5 156.546 96.1012 146.45C97.5029 148.624 101.092 153.972 96.1919 143.973C92.9414 137.342 89.1713 127.597 86.241 119.597C82.779 119.228 79.311 118.919 75.8369 118.725V118.731Z" fill="#FF938F"/>
<path d="M94.4643 140.315C94.4643 140.315 101.847 143.888 94.567 142.217C87.2806 140.545 94.4643 140.315 94.4643 140.315Z" fill="#FF938F"/>
<path d="M94.8384 139.122L86.833 142.974C86.833 142.974 62.9254 99.1575 65.2455 94.2641C66.8164 90.9514 74.0001 84.1564 79.4015 100.671C82.2049 109.235 87.6063 121.359 94.8384 139.122Z" fill="#454975"/>
<path d="M85.7635 117.181C83.0144 110.531 80.8575 105.117 79.4075 100.678C74.006 84.1625 66.8223 90.9575 65.2514 94.2702C63.8558 97.2135 71.9458 114.237 78.616 127.337C81.0146 123.964 83.4192 120.59 85.7635 117.187V117.181Z" fill="#3E4169"/>
<path d="M74.4899 91.3268C73.0519 89.3949 64.9075 87.8324 64.9075 87.8324L64.829 87.8688L64.6175 85.6704L50.3165 86.0762L50.8783 88.6621C46.7518 89.5706 41.0724 91.0846 40.4985 92.6713C34.9944 107.872 42.9817 150.677 42.9817 150.677C61.9953 154.311 77.6679 145.772 77.6679 145.772C77.6679 145.772 77.837 95.8205 74.4838 91.3268H74.4899Z" fill="#454975"/>
<path d="M73.8193 133.847C65.3668 128.463 57.3795 122.177 50.4616 114.903C46.4921 110.731 42.3655 106.183 38.8552 101.307C37.2541 119.936 42.9939 150.677 42.9939 150.677C62.0075 154.311 77.6801 145.772 77.6801 145.772C77.6801 145.772 77.6922 141.878 77.6378 136.167C76.3569 135.416 75.0821 134.647 73.8193 133.841V133.847Z" fill="#3E4169"/>
<path d="M28.8677 115.115C23.5268 124.945 16.9955 137.887 15.0682 145.705C11.9687 158.272 16.8989 145.608 16.8989 145.608C16.8989 145.608 14.3855 161.015 18.4758 146.819C18.4758 146.819 15.4005 159.416 19.4364 148.158C18.5845 150.598 16.5666 156.721 21.4423 146.71C24.6747 140.073 30.0519 131.11 34.5592 123.891C32.7285 120.923 30.8495 117.986 28.8677 115.115Z" fill="#FF938F"/>
<path d="M23.2731 143.095C23.2731 143.095 24.983 151.137 21.8352 144.342C18.6874 137.547 23.2731 143.095 23.2731 143.095Z" fill="#FF938F"/>
<path d="M24.4392 142.665L16.4941 138.686C16.4941 138.686 36.3778 92.8954 41.6644 91.7326C45.2352 90.9453 54.9988 92.4715 45.2895 106.873C40.2567 114.34 34.0094 126.053 24.4392 142.665Z" fill="#454975"/>
<path d="M42.7939 23.1224C42.7939 30.3958 55.9289 48.0738 55.9289 48.0738C55.9289 48.0738 69.0639 30.3958 69.0639 23.1224C69.0639 15.849 63.1791 9.95631 55.9289 9.95631C48.6787 9.95631 42.7939 15.855 42.7939 23.1224Z" fill="#FF5547"/>
<path d="M55.9291 31.7403C61.0978 31.7403 65.2879 27.5403 65.2879 22.3593C65.2879 17.1783 61.0978 12.9783 55.9291 12.9783C50.7604 12.9783 46.5703 17.1783 46.5703 22.3593C46.5703 27.5403 50.7604 31.7403 55.9291 31.7403Z" fill="white"/>
<path d="M182.144 18.3623C181.66 18.3744 181.255 18.5682 180.893 18.8831C180.73 19.0284 180.537 19.1677 180.337 19.2404C179.793 19.4403 179.292 19.3252 178.875 18.9315C178.519 18.5984 178.108 18.3865 177.618 18.3623C177.038 18.332 176.549 18.5318 176.132 18.9315C175.637 19.4039 174.899 19.4645 174.35 19.0829C174.102 18.9073 173.872 18.7135 173.625 18.5137C173.776 18.2472 173.939 17.9626 174.102 17.684C174.193 17.5265 174.205 17.3691 174.126 17.2055C174.114 17.1813 174.096 17.1268 174.108 17.1207C174.235 17.0057 174.356 16.8301 174.507 16.7937C176.072 16.4243 177.636 16.073 179.201 15.7218C179.431 15.6673 179.63 15.5643 179.793 15.4008C180.011 15.1828 180.228 14.9587 180.452 14.7407C180.609 14.5832 180.663 14.4015 180.591 14.1956C180.512 13.9776 180.343 13.8807 180.12 13.8625C179.473 13.808 178.821 13.7475 178.174 13.6869C177.981 13.6687 177.787 13.6506 177.594 13.6263L177.582 13.59C177.618 13.5597 177.661 13.5355 177.697 13.5052C178.537 12.6695 179.37 11.8277 180.21 10.9859C180.518 10.677 180.766 10.3197 180.911 9.90787C180.947 9.80491 181.002 9.75646 181.11 9.74435C181.564 9.68379 181.987 9.55661 182.277 9.18113L182.367 9.07817C182.458 8.96916 182.494 8.84804 182.44 8.70875C182.379 8.54523 182.252 8.47861 182.083 8.4665C181.763 8.43622 181.443 8.40594 181.117 8.37566C181.02 8.3696 180.972 8.33326 180.941 8.23031C180.833 7.83666 180.645 7.47935 180.367 7.18865C179.751 6.55881 179.129 5.93503 178.506 5.31124C178.301 5.10533 177.999 5.11744 177.787 5.3173C177.697 5.40814 177.606 5.49898 177.516 5.58983C177.371 5.73517 177.328 5.90475 177.365 6.09854C177.528 6.92218 177.691 7.73976 177.86 8.5634C177.884 8.67847 177.86 8.75114 177.781 8.84198C175.733 10.889 173.691 12.942 171.643 14.989C171.607 15.0253 171.57 15.0617 171.522 15.104C171.492 15.0495 171.468 15.0071 171.444 14.9587C171.353 14.7891 171.22 14.6922 171.021 14.6922C170.821 14.6922 170.688 14.7891 170.598 14.9587C170.495 15.1525 170.392 15.3463 170.29 15.5401C170.229 15.6491 170.169 15.7642 170.108 15.8732C169.909 15.8308 169.728 15.7823 169.546 15.746C169.287 15.6976 169.045 15.8732 169.015 16.1397C169.003 16.2305 169.021 16.3274 169.039 16.4243C169.069 16.6363 169.111 16.8543 169.148 17.0602C169.117 17.0662 169.111 17.0723 169.099 17.0723C168.906 17.042 168.713 17.0117 168.519 16.9875C168.133 16.933 168.036 16.9754 167.849 17.3024V17.5326C168 17.8051 168.151 18.0716 168.308 18.3623C168.121 18.3623 167.933 18.3259 167.849 18.5318V18.6772C167.921 18.7983 168.024 18.8468 168.163 18.8528C168.495 18.8649 168.797 18.98 169.039 19.2162C169.365 19.5311 169.74 19.7491 170.193 19.8097C170.199 19.8097 170.205 19.8218 170.217 19.8279H170.676C170.761 19.8097 170.851 19.7855 170.936 19.7612C171.28 19.6704 171.564 19.4887 171.824 19.2404C172.271 18.8165 172.912 18.7256 173.449 19.0042C173.57 19.0648 173.685 19.1496 173.782 19.2404C174.096 19.5432 174.458 19.7431 174.893 19.7976C174.906 19.7976 174.918 19.8097 174.93 19.8157H175.389C175.473 19.7976 175.564 19.7733 175.649 19.7491C175.999 19.6583 176.283 19.4645 176.549 19.2222C176.996 18.7983 177.649 18.7196 178.186 19.0103C178.295 19.0708 178.404 19.1496 178.494 19.2343C178.809 19.5372 179.171 19.737 179.606 19.7915C179.618 19.7915 179.63 19.8036 179.642 19.8097H180.101C180.101 19.8097 180.126 19.7915 180.138 19.7915C180.573 19.731 180.935 19.5311 181.249 19.2283C181.503 18.98 181.817 18.8528 182.174 18.8407C182.361 18.8346 182.476 18.7377 182.47 18.5863C182.47 18.4349 182.349 18.3501 182.156 18.3562L182.144 18.3623ZM178.905 14.2562C179.262 14.2865 179.612 14.3228 179.969 14.3591C180.011 14.3591 180.053 14.3652 180.126 14.3773C179.999 14.5045 179.896 14.6074 179.787 14.7165C179.195 15.2978 179.425 15.1767 178.627 15.3584C177.213 15.6854 175.794 16.0004 174.38 16.3213C174.338 16.3334 174.289 16.3395 174.247 16.3456C174.247 16.3334 174.235 16.3274 174.229 16.3153C174.259 16.285 174.289 16.2487 174.319 16.2184C175.014 15.5219 175.709 14.8194 176.41 14.129C176.458 14.0806 176.543 14.0503 176.603 14.0563C177.371 14.1229 178.138 14.1956 178.905 14.2683V14.2562ZM180.512 8.80564C180.935 8.84198 181.358 8.88437 181.805 8.95705C181.727 9.01761 181.66 9.12056 181.576 9.13873C180.959 9.28408 180.337 9.41732 179.715 9.55055C179.715 9.53844 179.703 9.53238 179.697 9.52027C179.926 9.29014 180.15 9.06606 180.385 8.84198C180.416 8.8117 180.47 8.79959 180.512 8.80564ZM177.854 6.1046C177.83 6.00164 177.848 5.93503 177.926 5.86841C177.999 5.80179 178.059 5.72306 178.12 5.6625C178.597 6.14094 179.062 6.60726 179.521 7.06753C179.123 7.46118 178.718 7.873 178.301 8.29087C178.235 7.96989 178.168 7.64892 178.102 7.32189C178.023 6.91612 177.945 6.51036 177.86 6.1046H177.854ZM179.92 7.42484C180.15 7.66709 180.337 7.94567 180.446 8.30298C180.168 8.30298 180.029 8.49678 179.866 8.6603C179.6 8.92071 179.34 9.18718 179.08 9.4476C178.929 9.599 178.893 9.76857 178.972 9.92603C179.056 10.0895 179.219 10.1562 179.437 10.1077C179.703 10.0532 179.969 9.99265 180.228 9.93209C180.271 9.91998 180.313 9.91998 180.349 9.90787C180.361 9.91998 180.373 9.93209 180.385 9.9442C180.222 10.1562 180.083 10.3924 179.896 10.5862C178.935 11.5673 177.963 12.5302 176.99 13.4992C176.948 13.5355 176.875 13.5537 176.815 13.5537C176.724 13.5537 176.633 13.5416 176.543 13.5355C176.374 13.5173 176.229 13.5779 176.102 13.699C175.371 14.4379 174.634 15.1707 173.903 15.9035C173.685 16.1215 173.667 16.3395 173.836 16.6302C173.631 17.042 173.244 17.0178 172.857 17.0662C172.9 16.8179 172.942 16.5817 172.984 16.3456C173.057 15.9337 172.791 15.6673 172.392 15.7521C172.332 15.7642 172.271 15.7823 172.211 15.7944C172.108 15.8187 172.005 15.8429 171.897 15.8671C171.842 15.7642 171.794 15.6733 171.752 15.5885C174.47 12.8633 177.183 10.1441 179.902 7.41878L179.92 7.42484ZM173.184 18.2956C173.147 18.3683 173.105 18.3804 173.026 18.3683C172.434 18.3017 171.915 18.4652 171.48 18.877C170.839 19.4766 170.072 19.4887 169.426 18.9073C169.377 18.8649 169.335 18.8225 169.281 18.7922C169.045 18.6651 168.906 18.4531 168.785 18.223C168.652 17.9747 168.501 17.7324 168.338 17.4538C168.682 17.5083 168.991 17.5507 169.299 17.5992C169.601 17.6476 169.716 17.5386 169.667 17.2298C169.619 16.9391 169.565 16.6484 169.51 16.3577C169.504 16.3213 169.504 16.285 169.498 16.2305C169.703 16.2789 169.891 16.3213 170.078 16.3637C170.308 16.4182 170.374 16.388 170.489 16.176C170.658 15.8611 170.821 15.5461 171.002 15.2131C171.033 15.2555 171.057 15.2797 171.069 15.31C171.226 15.6067 171.389 15.9035 171.546 16.2063C171.637 16.3758 171.721 16.4122 171.909 16.3698C172.108 16.3213 172.308 16.2789 172.525 16.2244C172.483 16.4788 172.44 16.715 172.398 16.9512C172.38 17.0602 172.362 17.1692 172.344 17.2722C172.301 17.5023 172.422 17.6355 172.652 17.5992C172.918 17.5628 173.178 17.5144 173.437 17.4781C173.498 17.4659 173.558 17.4599 173.637 17.4538C173.619 17.5023 173.613 17.5326 173.6 17.5568C173.461 17.799 173.317 18.0413 173.184 18.2896V18.2956Z" fill="black" stroke="black" stroke-width="0.2" stroke-miterlimit="10"/>
<path d="M175.159 13.6748C175.057 13.8141 174.918 13.9292 174.791 14.0442C174.767 14.0685 174.718 14.0624 174.652 14.0806C174.598 14.0382 174.513 13.9958 174.483 13.9292C174.453 13.8625 174.459 13.7475 174.501 13.693C174.592 13.5718 174.706 13.4628 174.821 13.372C174.912 13.2993 175.02 13.3175 175.111 13.3902C175.202 13.4689 175.232 13.584 175.165 13.6748H175.159Z" fill="black" stroke="black" stroke-width="0.2" stroke-miterlimit="10"/>
<path d="M177.395 11.3674C177.359 11.4461 177.347 11.5067 177.31 11.543C177.22 11.6399 177.129 11.7368 177.026 11.8277C176.924 11.9125 176.797 11.9003 176.706 11.8156C176.615 11.7247 176.603 11.5915 176.688 11.4946C176.779 11.3916 176.869 11.2826 176.984 11.2099C177.044 11.1676 177.159 11.1554 177.232 11.1857C177.304 11.216 177.347 11.3068 177.395 11.3735V11.3674Z" fill="black" stroke="black" stroke-width="0.2" stroke-miterlimit="10"/>
<path d="M174.089 14.7407C173.981 14.88 173.842 15.0011 173.715 15.1222C173.697 15.1404 173.654 15.1404 173.582 15.1586C173.534 15.1162 173.437 15.0677 173.413 15.0011C173.389 14.9284 173.401 14.8194 173.443 14.7528C173.515 14.6438 173.618 14.5529 173.721 14.4682C173.811 14.3894 173.92 14.3834 174.023 14.4682C174.114 14.5408 174.162 14.6559 174.095 14.7467L174.089 14.7407Z" fill="black" stroke="black" stroke-width="0.2" stroke-miterlimit="10"/>
<path d="M176.271 12.5544C176.162 12.6937 176.023 12.8148 175.896 12.9359C175.878 12.9541 175.836 12.9541 175.763 12.9662C175.715 12.9238 175.618 12.8814 175.594 12.8148C175.564 12.7422 175.576 12.6271 175.618 12.5665C175.697 12.4575 175.799 12.3606 175.902 12.2698C175.993 12.191 176.107 12.191 176.204 12.2698C176.295 12.3424 176.337 12.4575 176.271 12.5484V12.5544Z" fill="black" stroke="black" stroke-width="0.2" stroke-miterlimit="10"/>
<path d="M178.458 10.3015C178.416 10.3802 178.404 10.4469 178.362 10.4893C178.283 10.5801 178.192 10.6709 178.102 10.7497C177.999 10.8405 177.86 10.8345 177.769 10.7436C177.679 10.6528 177.673 10.5135 177.769 10.4105C177.854 10.3197 177.933 10.2167 178.035 10.1562C178.102 10.1138 178.217 10.0956 178.295 10.1198C178.362 10.1441 178.41 10.241 178.464 10.3076L178.458 10.3015Z" fill="black" stroke="black" stroke-width="0.2" stroke-miterlimit="10"/>
<path d="M61.3671 18.1685C61.2825 18.0655 61.1798 18.0595 61.065 18.12C61.0348 18.1382 61.0046 18.1564 60.9743 18.1745C60.0197 18.7317 59.0591 19.2949 58.1045 19.8521C58.0561 19.8824 58.0078 19.9066 57.9232 19.955C57.9534 19.8642 57.9655 19.8157 57.9836 19.7673C58.2072 19.1677 58.4247 18.5682 58.6543 17.9747C58.7026 17.8414 58.7147 17.7264 58.5878 17.6355C58.4609 17.5447 58.3522 17.6053 58.2495 17.6961C57.8266 18.0716 57.3976 18.441 56.9686 18.8104C56.7753 18.98 56.5819 19.1435 56.3765 19.3191C56.3644 19.2586 56.3523 19.2222 56.3463 19.1859C56.2255 18.338 56.1046 17.4841 55.9838 16.6363C55.9234 16.2184 55.869 15.7945 55.8025 15.3766C55.7844 15.2434 55.6877 15.1525 55.5669 15.1586C55.44 15.1586 55.3615 15.2373 55.3373 15.3584C55.3373 15.3887 55.3252 15.4129 55.3192 15.4432C55.1379 16.4788 54.9627 17.5205 54.7815 18.5561C54.7331 18.8347 54.6848 19.1193 54.6304 19.416C54.576 19.3676 54.5398 19.3373 54.5035 19.307C54.1833 19.0163 53.8631 18.7256 53.5429 18.4289C53.4523 18.3441 53.3556 18.3017 53.2408 18.3562C53.126 18.4107 53.1018 18.5076 53.1139 18.6287C53.132 18.8952 53.1502 19.1617 53.1683 19.4342C53.1864 19.6825 53.1985 19.9308 53.2166 20.2094C52.9266 20.0641 52.6729 19.9308 52.4131 19.7976C51.8814 19.5251 51.3497 19.2525 50.818 18.9739C50.6972 18.9134 50.5884 18.9013 50.4857 19.0103C50.4011 19.1072 50.4132 19.2222 50.5159 19.3555C50.528 19.3676 50.5341 19.3797 50.5461 19.3918C51.1443 20.1367 51.7485 20.8816 52.3466 21.6205C52.3708 21.6508 52.3949 21.6871 52.4251 21.7295C52.0022 21.9112 51.5914 22.0929 51.1805 22.2685C51.0718 22.3169 50.9811 22.3775 50.9751 22.5047C50.9751 22.6379 51.0597 22.6985 51.1684 22.753C51.5612 22.9407 51.9539 23.1345 52.3466 23.3283C52.3829 23.3465 52.4191 23.3707 52.4614 23.3949C52.1472 23.7704 51.8451 24.1338 51.537 24.4911C51.4645 24.5759 51.4282 24.6667 51.4826 24.7757C51.537 24.8848 51.6337 24.9211 51.7485 24.909C51.8874 24.8969 52.0264 24.8787 52.1714 24.8666C52.4856 24.8363 52.7997 24.806 53.132 24.7757C53.1018 24.8363 53.0837 24.8787 53.0595 24.9211C52.8481 25.3026 52.6366 25.6781 52.4312 26.0596C52.1291 26.6108 51.821 27.1619 51.5189 27.7069C51.4584 27.8159 51.4343 27.9128 51.5189 28.0158C51.6095 28.1309 51.7485 28.1309 51.8874 28.0158C52.3768 27.5979 52.8662 27.1861 53.3616 26.7682C53.7906 26.4048 54.2196 26.0354 54.6727 25.6539C54.6908 25.7084 54.7029 25.7387 54.709 25.769C54.9325 26.532 55.15 27.2951 55.3675 28.0582C55.4038 28.1854 55.4702 28.2762 55.6032 28.2762C55.7482 28.2762 55.8146 28.1793 55.8448 28.0461C55.9657 27.4889 56.0925 26.9317 56.2194 26.3806C56.2738 26.1323 56.3342 25.884 56.3946 25.6175C56.455 25.666 56.4973 25.6963 56.5396 25.7326C57.1619 26.2413 57.7843 26.7561 58.4005 27.2648C58.6845 27.501 58.9685 27.7372 59.2585 27.9673C59.3793 28.0642 59.4941 28.0703 59.5908 27.9794C59.6874 27.8826 59.6935 27.7735 59.621 27.6585C59.6028 27.6282 59.5847 27.5979 59.5666 27.5676C59.041 26.6834 58.5093 25.8053 57.9836 24.9211C57.9595 24.8787 57.9353 24.8302 57.8991 24.7697C57.9413 24.7697 57.9716 24.7697 57.9957 24.7697C58.4368 24.8181 58.8778 24.8666 59.3128 24.915C59.4397 24.9332 59.5485 24.915 59.6149 24.8C59.6753 24.6788 59.621 24.5759 59.5424 24.479C59.2585 24.1398 58.9866 23.8007 58.7087 23.4616C58.6482 23.3889 58.5878 23.3102 58.5214 23.2314C58.5818 23.2011 58.6301 23.1709 58.6784 23.1466C59.0349 22.971 59.3914 22.7893 59.7539 22.6137C59.8566 22.5652 59.9352 22.4865 59.911 22.3775C59.8929 22.2927 59.8143 22.22 59.7479 22.1595C59.7116 22.1231 59.6451 22.111 59.5908 22.0868C59.2826 21.9475 58.9745 21.8082 58.6543 21.6629C58.6966 21.6144 58.7207 21.572 58.7509 21.5357C59.3974 20.7787 60.0379 20.0217 60.6843 19.2646C60.9079 18.9982 61.1314 18.7378 61.355 18.4713C61.4396 18.3744 61.4456 18.2654 61.361 18.1624L61.3671 18.1685ZM59.7539 19.6462C59.2222 20.27 58.6905 20.8937 58.1649 21.5175C57.9715 21.7477 58.0018 21.8809 58.2736 22.0081C58.5576 22.1353 58.8355 22.2624 59.1376 22.4017C58.7872 22.5774 58.4549 22.7409 58.1226 22.9044C57.8809 23.0255 57.8507 23.1527 58.0199 23.3647C58.2918 23.6977 58.5637 24.0248 58.8597 24.3881C58.6905 24.37 58.5637 24.3639 58.4307 24.3458C58.1286 24.3155 57.8326 24.2791 57.5305 24.2428C57.4157 24.2307 57.313 24.2428 57.2465 24.3397C57.174 24.4427 57.2042 24.5395 57.2647 24.6425C57.6453 25.2845 58.032 25.9204 58.4126 26.5623C58.4368 26.6047 58.4609 26.6532 58.467 26.7137C58.1347 26.4412 57.8024 26.1687 57.4701 25.8961C57.1317 25.6175 56.7934 25.339 56.4551 25.0604C56.2255 24.8726 56.0563 24.9332 55.9898 25.2178C55.8509 25.8235 55.7179 26.423 55.5548 27.0347C55.5427 26.9923 55.5246 26.956 55.5125 26.9136C55.3554 26.3685 55.1983 25.8174 55.0413 25.2723C54.9567 24.9695 54.7935 24.9211 54.5579 25.127C53.9477 25.6418 53.3435 26.1626 52.7333 26.6774C52.6849 26.7198 52.6306 26.7622 52.5822 26.8046C52.5762 26.8046 52.5701 26.7985 52.5641 26.7924C52.5883 26.744 52.6064 26.7016 52.6306 26.6531C52.9931 25.9991 53.3556 25.339 53.7241 24.6849C53.7785 24.5819 53.8329 24.485 53.7604 24.37C53.6879 24.2489 53.5731 24.2489 53.4523 24.261C53.1139 24.2973 52.7756 24.3276 52.4372 24.3639C52.3829 24.3639 52.3345 24.376 52.2439 24.3821C52.4191 24.1701 52.5701 23.9884 52.7272 23.8007C52.8118 23.6977 52.9024 23.5948 52.987 23.4858C53.12 23.3162 53.0897 23.1648 52.8964 23.0679C52.552 22.8983 52.2076 22.7348 51.8633 22.5652C51.8391 22.5531 51.8149 22.535 51.7787 22.5107C52.117 22.3654 52.4433 22.2261 52.7635 22.0868C53.0897 21.9475 53.12 21.8264 52.8964 21.5539C52.4916 21.0512 52.0808 20.5425 51.676 20.0398C51.6518 20.0095 51.6276 19.9732 51.6155 19.9187C51.6578 19.9369 51.7001 19.955 51.7424 19.9732C52.262 20.2397 52.7816 20.5062 53.3012 20.7726C53.5671 20.9119 53.7241 20.809 53.7121 20.5062C53.6879 20.058 53.6577 19.6098 53.6214 19.1375C53.6637 19.1677 53.6939 19.192 53.7241 19.2162C54.0081 19.4766 54.2981 19.731 54.576 19.9914C54.6606 20.0701 54.7452 20.1367 54.8721 20.0943C54.999 20.0519 55.0231 19.9429 55.0413 19.8279C55.1983 18.9134 55.3554 17.9928 55.5125 17.0784C55.5125 17.0481 55.5246 17.0239 55.5609 16.9936C55.5911 17.2116 55.6273 17.4296 55.6575 17.6416C55.7602 18.3441 55.8509 19.0527 55.9596 19.7552C55.9717 19.84 56.0442 19.9308 56.1107 19.9793C56.2073 20.0459 56.304 19.9793 56.3886 19.9126C56.878 19.4827 57.3734 19.0587 57.893 18.6045C57.8749 18.6651 57.8688 18.7014 57.8628 18.7317C57.6634 19.2707 57.464 19.8097 57.2647 20.3487C57.2224 20.4638 57.2163 20.5728 57.319 20.6576C57.4217 20.7423 57.5245 20.7242 57.6272 20.6576C57.6453 20.6454 57.6695 20.6333 57.6876 20.6212C58.4368 20.1852 59.1799 19.7491 59.9291 19.307C59.9654 19.2828 60.0016 19.2646 60.062 19.2586C59.9593 19.3797 59.8566 19.5069 59.7539 19.628V19.6462Z" fill="black"/>
</g>
<defs>
<clipPath id="clip0_280_2611">
<rect width="439" height="297" fill="white"/>
</clipPath>
</defs>
</svg>
