<svg width="55" height="55" viewBox="0 0 55 55" fill="none" xmlns="http://www.w3.org/2000/svg">
<g clip-path="url(#clip0_1126_3668)">
<path d="M42.766 47.0321C42.7645 47.2376 42.7645 47.4431 42.7645 47.6501C42.7645 48.5406 42.766 49.4617 42.5706 50.2924C41.989 52.7657 40.365 54.3165 37.7395 54.9053C37.6345 54.9286 37.5456 54.965 37.4669 54.9956C37.464 54.9971 37.461 54.9985 37.4581 55H5.29752C4.24644 54.7158 3.23619 54.3995 2.40524 53.7349C0.822065 52.4669 0.0173571 50.8725 0.0144414 48.9967C-0.00450999 34.5432 -0.0059678 20.0808 0.0115258 6.00763C0.0129836 4.42629 0.64567 2.92803 1.7915 1.78684C2.93734 0.645653 4.44179 0.016032 6.02788 0.0116596C9.27295 0.00437237 12.709 0 16.8404 0C20.0242 0 23.2081 0.00291491 26.3919 0.00437237L30.468 0.00728728C32.1284 0.00874473 33.5395 0.565493 34.6606 1.6615C36.8021 3.75586 38.862 5.83128 41.1405 8.13406C41.7557 8.75639 42.212 9.54342 42.4963 10.4762C42.8053 11.4891 42.3534 12.4481 41.419 12.7542C41.2353 12.8154 41.0487 12.846 40.865 12.846C40.1492 12.846 39.5063 12.3738 39.1885 11.6115C39.034 11.2414 38.757 10.705 38.3182 10.2547C37.2759 9.19071 36.2059 8.12094 35.1694 7.08615C34.3078 6.22479 33.4156 5.33574 32.5468 4.45253C31.9068 3.80396 31.1371 3.48769 30.1968 3.48769H30.1895C27.8935 3.49206 25.6076 3.49352 23.4647 3.49498C21.3232 3.49644 19.323 3.49644 17.597 3.49644C15.731 3.49644 13.865 3.49644 11.999 3.49498H6.40253C4.55404 3.49644 3.49422 4.54872 3.49422 6.38074C3.49276 20.4568 3.49276 34.5315 3.49422 48.6076C3.49422 50.4513 4.54967 51.5094 6.38796 51.5094H36.3939C38.2293 51.5094 39.2847 50.4527 39.2877 48.6076C39.2877 48.4502 39.2862 48.2928 39.2862 48.1354C39.2833 47.7754 39.2804 47.4023 39.292 47.0379C39.3183 46.0643 40.0807 45.3006 41.0283 45.3006H41.0589C42.0269 45.3167 42.7762 46.0775 42.766 47.0321Z" fill="#FF9E30"/>
<path d="M54.9155 19.7646C54.4432 17.2359 53.016 15.5962 50.6733 14.8864C50.0159 14.6868 49.3701 14.5862 48.7505 14.5862C47.1761 14.5862 45.7299 15.2333 44.4529 16.5071C41.3419 19.613 38.1814 22.7727 35.1259 25.829C32.8459 28.1099 30.5673 30.3894 28.2859 32.6674C26.5394 34.4149 25.3236 36.2338 24.5728 38.2305C24.2259 39.1531 23.9635 40.0975 23.6865 41.0988C23.5626 41.5448 23.4343 42.0068 23.2987 42.4673L23.2054 42.7807H22.8789C22.7695 42.7807 22.6514 42.7778 22.5261 42.7763C22.3934 42.7734 22.2535 42.7705 22.1106 42.7705C21.9167 42.7705 21.7505 42.7763 21.6018 42.7865C21.5537 42.7909 21.5071 42.7923 21.4633 42.7923C20.8234 42.7923 20.5639 42.3915 20.4108 42.0432C19.4428 39.8366 17.2561 38.4112 14.8362 38.4112C14.4367 38.4112 14.0358 38.452 13.6422 38.5307C10.8943 39.086 8.78482 41.5768 8.73671 44.3241C8.71776 45.4303 9.40438 46.229 10.4059 46.2669C10.4321 46.2669 10.4584 46.2669 10.4832 46.2669C11.4497 46.2669 12.1655 45.528 12.2252 44.4684C12.3069 43.0153 13.425 41.9135 14.826 41.9048H14.8405C16.2779 41.9048 17.38 42.9935 17.4631 44.4947C17.5229 45.6009 18.2197 46.264 19.3247 46.2669C19.7912 46.2684 20.2577 46.2713 20.7242 46.2727C21.4094 46.2771 22.1164 46.28 22.8118 46.28C23.7725 46.28 24.5685 46.2742 25.3148 46.2582C29.7451 46.1707 33.5194 44.6244 36.5341 41.6628C41.0883 37.1855 45.6702 32.5814 50.1019 28.1303C51.1617 27.0649 52.2215 25.9995 53.2813 24.9356C53.6939 24.5217 54.0161 24.0801 54.2129 23.656C54.4447 23.156 54.6123 22.6314 54.7887 22.0746C54.8572 21.8618 54.9272 21.6432 55.0001 21.426V19.9817C54.968 19.9263 54.933 19.8535 54.9155 19.7631V19.7646ZM43.8596 29.426C43.8217 29.4654 43.7838 29.5062 43.7444 29.5485C43.6642 29.6344 43.5826 29.7219 43.4937 29.8108C42.6394 30.6649 41.7837 31.5204 40.9294 32.3745C38.8243 34.4776 36.6464 36.6535 34.5092 38.796C32.6024 40.7067 30.3632 41.9456 27.8543 42.4775C27.796 42.4892 27.7465 42.4965 27.6721 42.5081C27.6298 42.514 27.5759 42.5213 27.5074 42.5315L26.8251 42.632L27.0249 41.9718C27.0963 41.7357 27.1633 41.501 27.2275 41.2751C27.3718 40.7709 27.5088 40.2957 27.6852 39.8235C28.3194 38.1285 29.2859 36.62 30.56 35.3433C33.0427 32.8496 35.5734 30.3209 38.0196 27.8753L39.8885 26.0083C39.957 25.9383 40.0299 25.8742 40.0999 25.813C40.1276 25.7882 40.1553 25.7634 40.183 25.7372L40.492 25.4574L44.1526 29.117L43.8596 29.426ZM50.6325 22.6693C49.8045 23.5102 48.9604 24.3526 48.144 25.1688L47.0376 26.275L46.7285 26.5854L46.4195 26.275L45.3859 25.2431L43.3522 23.2085L43.0709 22.9287L43.3231 22.6212C43.3377 22.6037 43.3537 22.5833 43.3712 22.5614C43.4295 22.4871 43.5024 22.3953 43.5928 22.3049C44.6788 21.2147 45.7999 20.0881 46.9078 18.9863C47.4866 18.412 48.2082 18.0958 48.9385 18.0958C49.6048 18.0958 50.2404 18.3625 50.7316 18.8478C51.8075 19.9103 51.7652 21.5179 50.6325 22.6693Z" fill="#FF9E30"/>
<path d="M23.9066 16.5523C23.7389 16.5873 23.5479 16.5873 23.3439 16.5873C21.7009 16.5902 20.0565 16.5902 18.4136 16.5902C17.9325 16.5888 17.4485 16.5888 16.9674 16.5888C16.3377 16.5888 15.7064 16.5888 15.0737 16.5902C14.4469 16.5902 13.8186 16.5902 13.1903 16.5902C12.1596 16.5902 11.2995 16.5902 10.4846 16.5829C9.56179 16.5771 8.82851 15.9169 8.74104 15.0132C8.65503 14.1271 9.26002 13.3182 10.1434 13.1317C10.2528 13.1098 10.3796 13.0996 10.5443 13.0996H13.1407C14.7603 13.0982 16.3785 13.0967 17.9966 13.0967C19.8364 13.0967 21.6776 13.0982 23.5173 13.1011C24.4693 13.1025 25.2244 13.7628 25.3119 14.6707C25.3979 15.5598 24.7929 16.3687 23.9066 16.5509V16.5523Z" fill="#FF9E30"/>
<path d="M25.3162 23.5933C25.306 24.6237 24.5276 25.3175 23.3788 25.3189C21.2621 25.3189 19.1454 25.3204 17.0286 25.3204C14.9119 25.3204 12.7952 25.3189 10.6784 25.3189C10.0793 25.3189 9.55594 25.1222 9.20315 24.7665C8.89264 24.4503 8.73082 24.032 8.73519 23.5525C8.7454 22.5235 9.52532 21.8312 10.6741 21.8298C11.7354 21.8298 12.7981 21.8298 13.8594 21.8298H20.2154C21.2694 21.8298 22.3205 21.8298 23.3745 21.8298C23.9751 21.8298 24.4984 22.0265 24.8498 22.3807C25.1603 22.694 25.3206 23.1138 25.3162 23.5933Z" fill="#FF9E30"/>
</g>
<defs>
<clipPath id="clip0_1126_3668">
<rect width="55" height="55" fill="white"/>
</clipPath>
</defs>
</svg>
