<svg width="25" height="23" viewBox="0 0 25 23" fill="none" xmlns="http://www.w3.org/2000/svg">
<path d="M20.3367 12.4107C19.0516 12.1359 17.8158 12.3045 16.6633 12.9229C15.1435 13.7377 14.249 15.0163 13.9076 16.6745H11.1048C10.5898 13.748 7.76316 11.922 4.97532 12.3499C2.3977 12.7448 0.47454 14.9313 0.443233 17.5267C0.412671 20.0928 2.32092 22.321 4.94551 22.7534C7.88913 23.2377 10.665 21.2205 11.1078 18.4566H13.9106C14.4987 21.3802 17.0905 23.0245 19.639 22.8017C22.2994 22.5687 24.3903 20.4621 24.5483 17.9722C24.7212 15.2559 22.8972 12.9573 20.3367 12.4107ZM5.76993 21.0644C3.81323 21.0534 2.20911 19.4524 2.22849 17.5289C2.24712 15.5849 3.86317 14.0308 5.85193 14.0447C7.79595 14.0579 9.38293 15.6472 9.37026 17.567C9.35759 19.5234 7.75868 21.0768 5.76993 21.0644ZM19.1225 21.0644C17.1896 21.0395 15.5929 19.4172 15.6257 17.5121C15.6593 15.563 17.2753 14.0242 19.2663 14.0447C21.2081 14.0652 22.7891 15.6634 22.7683 17.5839C22.7459 19.5505 21.1336 21.0908 19.1225 21.0644Z" fill="#FF9E30"/>
<path d="M24.052 8.78392C23.4303 8.77732 22.8087 8.78245 22.1661 8.78245C21.7062 6.53221 21.25 4.32299 20.8035 2.11158C20.5381 0.801436 19.5713 0.0012823 18.2154 0.000549556C14.4019 -0.000183185 10.5877 -0.000183185 6.77339 0.000549556C5.52036 0.0012823 4.53195 0.772859 4.27404 1.97529C3.80517 4.16399 3.34824 6.35488 2.8995 8.54725C2.85701 8.75315 2.77278 8.78905 2.58717 8.78539C2.02886 8.77586 1.47055 8.77293 0.912237 8.78539C0.283857 8.79858 -0.126864 9.33494 0.0356355 9.90721C0.151174 10.3132 0.48959 10.5374 0.996469 10.5374H23.9916C24.0662 10.5374 24.1414 10.5396 24.2152 10.533C24.6334 10.4934 24.9718 10.1476 24.9979 9.73429C25.0322 9.18986 24.6401 8.78978 24.052 8.78392ZM4.66612 8.76414C4.87782 7.71045 5.08504 6.67289 5.29599 5.63606C5.51216 4.57066 5.7328 3.50672 5.95046 2.44204C6.05109 1.94744 6.28291 1.7562 6.79576 1.7562C10.5981 1.75547 14.4012 1.75547 18.2043 1.7562C18.6724 1.7562 18.937 1.93206 19.0212 2.33946C19.4573 4.44023 19.8844 6.5432 20.3138 8.64616C20.3212 8.6806 20.3227 8.71724 20.3279 8.76414H4.66612Z" fill="#FFC481"/>
</svg>
