<svg width="35" height="34" viewBox="0 0 35 34" fill="none" xmlns="http://www.w3.org/2000/svg">
<path d="M29.3272 20.3167C27.1473 18.0844 24.922 15.8965 22.7101 13.6956C22.5981 13.5841 22.4328 13.4963 22.2774 13.4602C20.5834 13.0641 18.8894 12.6644 17.1876 12.3045C16.7947 12.2219 16.5113 12.0473 16.251 11.768C16.1282 11.6358 16.1039 11.5511 16.2113 11.3921C16.7307 10.6247 17.2362 9.84754 17.7453 9.07297C18.0013 8.68361 17.9874 8.55245 17.6564 8.22041C16.6564 7.21966 15.6557 6.21942 14.6546 5.21918C14.2514 4.81589 14.0201 4.84119 13.6979 5.32453C12.7153 6.79674 11.7369 8.27102 10.7477 9.73859C10.6362 9.90383 10.4844 10.0577 10.3191 10.1693C8.83629 11.169 7.3457 12.1573 5.85821 13.1503C5.43019 13.4359 5.4054 13.6879 5.76992 14.053C6.78241 15.0677 7.79644 16.0813 8.811 17.094C9.12698 17.41 9.26793 17.4219 9.64122 17.1709C10.5737 16.544 11.5051 15.9151 12.4391 15.2902C12.5047 15.2464 12.6307 15.1792 12.6534 15.2009C12.8455 15.3858 13.1274 15.5624 13.1826 15.7901C13.6251 17.6073 14.0195 19.4363 14.4414 21.2586C14.4811 21.4306 14.5766 21.6144 14.7006 21.7389C16.8804 23.932 19.0634 26.1219 21.2572 28.3011C22.3766 29.4129 23.7339 29.9866 25.2173 30C26.8731 29.9974 28.4009 29.3457 29.4149 28.2531C31.5499 25.9526 31.5354 22.578 29.3272 20.3167ZM14.2379 6.09239C15.1337 6.98832 16.0063 7.86101 16.9037 8.75797C16.0001 10.1279 15.0811 11.5222 14.1708 12.903C13.2724 12.005 12.3937 11.1261 11.4865 10.2193C12.3901 8.86383 13.3127 7.48043 14.2379 6.09239ZM9.34848 16.3132C8.45422 15.4204 7.57649 14.5446 6.68224 13.6518C8.04582 12.7434 9.42902 11.8222 10.79 10.9154C11.6801 11.8062 12.5517 12.6789 13.433 13.5609C12.0674 14.4816 10.6945 15.4064 9.34848 16.3132ZM13.4062 14.5993C14.4249 14.1764 15.0444 13.3115 15.5695 12.3303C15.7363 12.5095 15.8674 12.6505 15.9851 12.777C15.2484 13.5139 14.509 14.2528 13.748 15.0145C13.6576 14.905 13.5476 14.7713 13.4062 14.5993ZM14.7816 18.8368C14.5797 17.962 14.3846 17.0862 14.1775 16.2135C14.1368 16.0416 14.1574 15.9223 14.2901 15.7911C15.1307 14.9634 15.9583 14.1232 16.8004 13.297C16.8778 13.2211 17.0358 13.1627 17.1365 13.1855C18.4691 13.4798 19.7976 13.7901 21.1276 14.0974C21.1632 14.1057 21.1978 14.1206 21.2381 14.1346C19.1961 16.1764 17.166 18.2068 15.1152 20.2574C15.0047 19.7869 14.8911 19.3119 14.7816 18.8368ZM15.5107 21.2416C17.736 19.0165 19.9917 16.7609 22.2268 14.5255C24.3112 16.6075 26.4296 18.7237 28.5233 20.8156C26.2949 23.0443 24.0396 25.2993 21.8009 27.5379C19.7238 25.4584 17.6064 23.3391 15.5107 21.2416ZM28.7546 27.6768C26.9774 29.5058 24.2022 29.5167 22.5377 28.2164C24.7573 25.9975 26.979 23.7755 29.1986 21.5566C30.4083 23.0376 30.5792 25.7987 28.7546 27.6768Z" fill="#FF9E30" stroke="#FF9E30" stroke-width="0.8"/>
<path d="M11.3079 26.2415C11.1189 26.4372 10.8571 26.4212 10.6176 26.1821C9.14506 24.713 7.67563 23.2413 6.20518 21.7701C6.05132 21.6157 5.92534 21.434 6.05183 21.2228C6.05803 21.2119 6.06526 21.2016 6.07249 21.1918C6.24442 20.9589 6.59241 20.9357 6.801 21.1355C6.80307 21.1376 6.80513 21.1396 6.8072 21.1417C8.2885 22.6149 9.76618 24.0923 11.2413 25.5712C11.4721 25.8026 11.4901 26.0536 11.3079 26.2415Z" fill="#FFC481" stroke="#FFC481" stroke-width="0.3"/>
<path d="M27.3466 11.1881C27.4514 11.3507 27.4498 11.5661 27.3275 11.7158C27.2051 11.8656 27.011 11.9126 26.8334 11.8227C26.7518 11.7814 26.679 11.7168 26.6134 11.6518C25.6185 10.6603 24.6225 9.6699 23.6374 8.66863C23.5295 8.55864 23.4381 8.38565 23.4283 8.23641C23.4092 7.93226 23.7525 7.74068 24.0272 7.88011C24.1088 7.92142 24.1816 7.98596 24.2466 8.05155C25.2416 9.043 26.2365 10.035 27.2252 11.0326C27.2727 11.0807 27.313 11.1354 27.3466 11.1881Z" fill="#FFC481" stroke="#FFC481" stroke-width="0.3"/>
<path d="M21.3192 5.19234C21.347 5.27496 21.3491 5.36584 21.3217 5.44847C21.2303 5.7268 20.9154 5.87139 20.7001 5.69323C20.3284 5.38495 19.9938 5.02813 19.6685 4.66924C19.5312 4.51742 19.5678 4.31035 19.7114 4.1575C19.8626 3.99691 20.0738 3.93649 20.2406 4.08521C20.602 4.40795 20.9361 4.76116 21.2732 5.10972C21.2949 5.13244 21.3093 5.16239 21.3192 5.19234Z" fill="#FFC481" stroke="#FFC481" stroke-width="0.3"/>
<path d="M23.0622 6.96199C23.087 7.05287 23.0689 7.14995 23.0214 7.23102C22.9781 7.30538 22.9269 7.38336 22.8557 7.41589C22.7323 7.47269 22.5129 7.48715 22.4204 7.41331C22.1385 7.18713 21.8726 6.92946 21.6547 6.64286C21.5778 6.54217 21.6 6.27571 21.6837 6.16985C21.7508 6.08517 21.8716 5.98654 22.0177 6.00099C22.0761 6.00667 22.1303 6.03353 22.1752 6.07071C22.486 6.32787 22.7591 6.63202 23.0421 6.92223C23.0514 6.93152 23.0576 6.94495 23.0622 6.96199Z" fill="#FFC481" stroke="#FFC481" stroke-width="0.3"/>
<path d="M5.15551 19.5788C5.26135 19.7529 5.25206 19.979 5.11368 20.1283C5.08787 20.1562 5.05896 20.1794 5.02591 20.1933C4.90096 20.247 4.69702 20.2481 4.58808 20.1778C4.39653 20.0549 4.23337 19.8737 4.09035 19.6919C3.95508 19.5195 3.9747 19.316 4.13011 19.1554C4.29481 18.986 4.50495 18.953 4.68618 19.1084C4.84933 19.2484 5.03366 19.3775 5.15551 19.5788Z" fill="#FFC481" stroke="#FFC481" stroke-width="0.3"/>
</svg>
