<svg width="22" height="27" viewBox="0 0 22 27" fill="none" xmlns="http://www.w3.org/2000/svg">
<path d="M20.8945 6.73571C20.744 6.54401 20.5502 6.52685 20.3443 6.64098C20.2896 6.67082 20.2371 6.70587 20.1838 6.73869C18.4417 7.80684 16.6995 8.87499 14.9574 9.94313C14.8693 9.99759 14.7799 10.0505 14.6237 10.1445C14.6762 9.97745 14.7025 9.88346 14.7352 9.79171C15.1391 8.65121 15.5424 7.51071 15.9513 6.37245C16.04 6.12406 16.0656 5.89357 15.8334 5.72425C15.5999 5.55344 15.4053 5.66607 15.2165 5.83987C14.4427 6.54998 13.6646 7.25487 12.8879 7.9605C12.5358 8.2805 12.1823 8.599 11.8117 8.93391C11.789 8.82203 11.7705 8.75117 11.7606 8.67881C11.5412 7.05869 11.3226 5.43931 11.1039 3.81919C10.996 3.01883 10.8909 2.21697 10.7788 1.41735C10.7433 1.163 10.5672 0.990693 10.3542 1.00039C10.1221 1.01083 9.97939 1.14435 9.93253 1.38603C9.92188 1.44122 9.90981 1.49493 9.90058 1.55013C9.57544 3.52829 9.25029 5.50645 8.92515 7.48461C8.83712 8.02017 8.74767 8.55574 8.65254 9.12785C8.55386 9.03834 8.48641 8.98091 8.42252 8.91974C7.83825 8.36329 7.25256 7.80982 6.67256 7.2489C6.50785 7.08927 6.3325 7.00498 6.12023 7.10792C5.91507 7.20638 5.86963 7.39883 5.88525 7.62185C5.92145 8.13206 5.95056 8.64301 5.9818 9.15321C6.0102 9.62985 6.03646 10.1065 6.0677 10.6376C5.54378 10.3549 5.07381 10.102 4.60454 9.8484C3.63692 9.32552 2.66929 8.80338 1.70379 8.27826C1.48513 8.15966 1.28068 8.1343 1.10107 8.34315C0.947722 8.52217 0.970439 8.74669 1.15857 8.99582C1.1749 9.0182 1.19194 9.03909 1.20826 9.06147C2.29942 10.4787 3.39057 11.8967 4.48102 13.3154C4.52787 13.3766 4.56834 13.4444 4.62087 13.5213C3.84989 13.8719 3.10518 14.215 2.35621 14.5477C2.15388 14.6379 1.99202 14.755 1.98634 15.0034C1.98066 15.2518 2.13685 15.3771 2.33562 15.4763C3.05407 15.8358 3.76825 16.2043 4.48386 16.5698C4.55059 16.6041 4.61306 16.6474 4.69329 16.6959C4.1218 17.4112 3.57018 18.1019 3.01786 18.7919C2.88937 18.9523 2.81908 19.1231 2.91705 19.3289C3.01857 19.5408 3.19108 19.6042 3.40406 19.5811C3.65963 19.5535 3.9145 19.5251 4.17007 19.499C4.73943 19.4401 5.30879 19.3827 5.91507 19.3207C5.85969 19.4401 5.82562 19.5229 5.78444 19.6012C5.4025 20.3247 5.01914 21.0475 4.6372 21.7711C4.08346 22.8191 3.53185 23.8686 2.97527 24.9151C2.86736 25.1187 2.82121 25.3127 2.97243 25.5103C3.13926 25.7281 3.39554 25.7281 3.64899 25.5029C4.54207 24.7115 5.43303 23.9163 6.32469 23.1227C7.10774 22.4252 7.89079 21.7285 8.70649 21.0028C8.73915 21.1072 8.75902 21.1669 8.77606 21.2273C9.17859 22.6811 9.58183 24.1349 9.9801 25.5901C10.0454 25.8296 10.1625 26.0019 10.4131 25.9996C10.6772 25.9974 10.7944 25.8176 10.8483 25.561C11.0712 24.4996 11.3013 23.4397 11.5299 22.379C11.6321 21.9038 11.7357 21.4279 11.8451 20.9245C11.9544 21.014 12.0311 21.0751 12.1056 21.1393C13.2358 22.1119 14.3653 23.0854 15.4948 24.0588C16.0152 24.5071 16.5327 24.9591 17.0559 25.4044C17.276 25.5916 17.4868 25.5991 17.6551 25.4298C17.8354 25.2485 17.8404 25.0404 17.7133 24.8226C17.6807 24.7674 17.6501 24.7107 17.6182 24.6548C16.6591 22.972 15.6992 21.2892 14.7409 19.6064C14.6919 19.5214 14.6486 19.4326 14.5882 19.3185C14.6699 19.3185 14.7196 19.3133 14.7685 19.3185C15.5693 19.411 16.3701 19.4998 17.1695 19.6005C17.3988 19.6296 17.6018 19.6124 17.7176 19.3759C17.8312 19.1432 17.7332 18.9538 17.5862 18.7688C17.0751 18.1265 16.571 17.4783 16.0642 16.8316C15.9534 16.6907 15.8448 16.5482 15.7248 16.3938C15.8391 16.3311 15.9236 16.2826 16.0102 16.2371C16.6598 15.8992 17.3094 15.5606 17.9604 15.2257C18.1428 15.1317 18.2954 14.9833 18.2493 14.7774C18.2145 14.6208 18.0732 14.479 17.9547 14.3574C17.8837 14.2843 17.7651 14.262 17.6686 14.2165C17.1084 13.9487 16.5476 13.6816 15.9669 13.4042C16.0386 13.3072 16.089 13.2334 16.1451 13.164C17.3165 11.7192 18.4885 10.2751 19.6599 8.83023C20.0681 8.32749 20.477 7.82623 20.881 7.32051C21.0301 7.13403 21.0443 6.92666 20.8945 6.73571ZM17.9597 9.55153C16.9949 10.7413 16.0294 11.9302 15.0646 13.1192C14.7082 13.5586 14.7643 13.8159 15.2676 14.0553C15.7809 14.3 16.2935 14.5439 16.8422 14.8065C16.2012 15.1414 15.6006 15.4554 15 15.7695C14.5591 15.9999 14.5059 16.2491 14.814 16.6429C15.3081 17.274 15.8022 17.9043 16.3446 18.5957C16.0421 18.5659 15.8036 18.5457 15.5658 18.5189C15.0206 18.4555 14.4746 18.3936 13.9308 18.3212C13.7228 18.2936 13.5389 18.3123 13.4105 18.5062C13.2798 18.7031 13.338 18.8896 13.4459 19.0776C14.1438 20.2964 14.8381 21.5175 15.5331 22.7378C15.5814 22.8221 15.6254 22.9086 15.6375 23.0249C15.0333 22.5043 14.4285 21.9844 13.8236 21.4638C13.2074 20.9334 12.5926 20.4008 11.975 19.872C11.5632 19.5184 11.2516 19.6266 11.1337 20.1696C10.8831 21.319 10.6389 22.4692 10.3386 23.6366C10.313 23.5598 10.2832 23.4837 10.2619 23.4054C9.97442 22.3618 9.68903 21.3176 9.40222 20.2733C9.2439 19.6952 8.95709 19.6049 8.51836 19.9965C7.41017 20.9826 6.30339 21.9702 5.19591 22.9571C5.10362 23.0399 5.00991 23.1197 4.91691 23.2017C4.90555 23.1935 4.89419 23.1853 4.88284 23.1771C4.9233 23.0898 4.96022 23.0003 5.00494 22.9153C5.66588 21.6637 6.32611 20.412 6.98989 19.1619C7.09212 18.9687 7.1837 18.7792 7.05875 18.5614C6.926 18.3302 6.71302 18.3354 6.49507 18.3578C5.87886 18.4234 5.26194 18.4876 4.64572 18.5525C4.55059 18.5622 4.45475 18.5711 4.29715 18.5868C4.61377 18.1877 4.89419 17.8341 5.17532 17.4806C5.33435 17.2807 5.49834 17.0852 5.6531 16.8816C5.89661 16.5594 5.8391 16.2692 5.48982 16.0887C4.86367 15.7642 4.23325 15.448 3.60497 15.1272C3.55812 15.1034 3.51481 15.0713 3.44595 15.028C4.05932 14.7513 4.65069 14.485 5.24206 14.2165C5.83484 13.9464 5.8888 13.7212 5.4884 13.2005C4.74724 12.2391 4.00608 11.2776 3.26634 10.3153C3.21806 10.2527 3.17547 10.1856 3.15559 10.0849C3.23155 10.1214 3.30822 10.155 3.38205 10.1953C4.32696 10.704 5.26974 11.2149 6.21465 11.7229C6.69882 11.9832 6.98776 11.7893 6.95795 11.2119C6.91251 10.3586 6.85359 9.50603 6.7975 8.60795C6.87772 8.67061 6.9331 8.70716 6.98066 8.75191C7.49962 9.24496 8.01928 9.73726 8.5354 10.2333C8.69087 10.384 8.84776 10.5123 9.07778 10.431C9.31064 10.3489 9.35536 10.1386 9.39015 9.92374C9.67838 8.17532 9.96448 6.42541 10.252 4.67625C10.2605 4.62478 10.2747 4.57331 10.3358 4.5196C10.394 4.93209 10.455 5.34458 10.5111 5.75782C10.6929 7.10121 10.8654 8.44683 11.062 9.78798C11.0854 9.94612 11.2104 10.1266 11.3389 10.2191C11.5114 10.3437 11.691 10.2303 11.8408 10.0938C12.736 9.27778 13.6334 8.46324 14.5776 7.6047C14.5485 7.72106 14.5385 7.78521 14.5172 7.84563C14.1545 8.87275 13.7917 9.90062 13.4261 10.927C13.348 11.1455 13.3402 11.3507 13.5248 11.511C13.7086 11.6707 13.9017 11.6334 14.0899 11.5088C14.1275 11.4842 14.1665 11.4618 14.2049 11.4387C15.5644 10.6048 16.9246 9.77083 18.2848 8.9369C18.3522 8.89587 18.4218 8.85783 18.5219 8.84963C18.3345 9.08384 18.1485 9.31881 17.9597 9.55153Z" fill="#FF9E30" stroke="#FF9E30" stroke-width="0.5"/>
</svg>
