<svg width="311" height="286" viewBox="0 0 311 286" fill="none" xmlns="http://www.w3.org/2000/svg">
<g clip-path="url(#clip0_264_2564)">
<path d="M289.123 145.9C299.689 134.59 309.609 119.347 304.21 105.045C298.797 90.7055 281.044 85.2172 265.471 82.4694C249.899 79.7289 232.232 76.6991 223.609 63.9002C214.906 50.9857 219.058 32.8721 210.507 19.8708C201.42 6.05957 182.073 3.31902 165.167 1.94514C139.384 -0.159082 112.834 -2.19099 88.1306 5.228C63.4277 12.647 40.7176 31.9104 37.906 56.6982C35.0509 81.8982 52.6886 107.445 44.9277 131.669C36.877 156.804 4.10887 170.673 0.840758 196.791C-0.869387 210.465 6.2683 223.56 13.1813 235.614C22.0219 251.038 30.8625 267.438 39.7031 282.862H259.203C256.051 278.574 259.174 272.399 263.573 269.289C267.978 266.187 273.493 264.741 277.725 261.422C288.935 252.636 286.406 235.383 280.087 222.859C273.768 210.335 264.471 198.093 265.239 184.188C266.073 168.995 278.551 157.202 289.123 145.892V145.9Z" fill="#F3EDFF"/>
<path d="M18.8404 156.486C42.5215 133.73 40.7099 121.625 35.8549 91.3057C33.4853 76.5111 14.6302 91.0092 7.9056 113.433C0.847628 136.962 6.24618 168.583 18.8404 156.479V156.486Z" fill="#F3EDFF"/>
<path d="M96.0077 271.459C92.8773 277.019 49.6816 288.907 49.3627 272.529C49.0946 258.739 80.5004 262.846 92.0222 267.684C88.5874 264.329 85.2975 260.872 82.1381 257.43C79.1164 254.133 76.2106 250.742 73.4207 247.264C66.6454 251.573 25.0294 252.615 28.3627 237.162C31.0294 224.797 56.1671 233.178 68.1091 240.315C63.9135 234.609 60.0004 228.702 56.37 222.62C51.37 226.923 7.03666 225.433 11.5729 209.771C15.37 196.69 43.4714 209.417 53.3845 217.472C49.6743 210.877 46.2758 204.102 43.1888 197.182C36.87 200.508 -5.81117 193.248 0.65985 178.49C6.01492 166.284 31.2106 181.599 40.5149 190.956C38.899 187.051 37.3845 183.096 35.9497 179.119C29.2903 176.407 7.22507 139.341 22.6671 134.699C37.2613 130.31 41.2468 168.786 38.1816 177.528C39.783 182.033 41.5149 186.48 43.37 190.884C43.9135 178.591 54.1309 147.519 66.4714 154.382C80.37 162.112 52.6019 194.065 45.428 195.671C48.4642 202.489 51.8193 209.156 55.4714 215.657C54.7396 202.829 60.8193 172.228 73.6599 177.311C88.2541 183.089 65.7178 217.523 58.4859 220.863C62.8917 228.246 67.7106 235.383 72.9497 242.224C70.4569 231.435 73.9932 196.003 88.0149 200.45C103.471 205.353 81.5294 243.554 75.2685 245.224C78.1309 248.826 81.1019 252.347 84.2033 255.774C86.9859 258.84 89.8917 261.921 92.9207 264.914C88.457 252.723 85.2975 222.1 98.9787 223.148C114.624 224.341 103.363 263.859 97.4497 269.224C103.095 274.394 109.131 279.152 115.573 282.941C117.058 283.816 115.457 285.957 113.986 285.089C107.573 281.314 101.595 276.593 95.9932 271.466L96.0077 271.459Z" fill="#C8C1E8"/>
<path d="M161.992 284.684C163.514 274.734 165.608 264.871 168.253 255.153C170.89 245.456 174.093 235.918 177.803 226.576C181.528 217.219 185.767 208.064 190.506 199.178C195.231 190.305 200.456 181.7 206.151 173.414C211.832 165.149 217.977 157.209 224.557 149.638C225.39 148.676 226.231 147.722 227.079 146.775C228.188 145.538 226.195 143.897 225.093 145.126C218.318 152.711 211.97 160.68 206.108 168.981C200.26 177.268 194.869 185.88 189.977 194.759C185.093 203.625 180.702 212.757 176.84 222.107C172.948 231.522 169.593 241.153 166.774 250.937C163.977 260.655 161.724 270.533 160.05 280.512C159.84 281.763 159.637 283.021 159.448 284.272C159.195 285.906 161.745 286.311 161.999 284.669L161.992 284.684Z" fill="#DAD4F8"/>
<path d="M203.007 178.396C201.116 158.727 206.333 129.587 206.797 110.215C207.311 88.8399 210.304 65.8671 228.413 53.4804C233.138 50.2481 239.159 47.8402 245.84 48.7296C255.224 49.9806 263.42 57.6382 266.601 65.5272C269.782 73.4162 268.942 81.4426 267.427 88.9701C260.022 125.725 236.927 157.78 203.007 178.396Z" fill="#DAD4F8"/>
<path d="M174.543 231.71C161.543 218.116 148.478 193.32 137.478 178.584C125.34 162.321 114.173 143.419 120.869 123.679C122.616 118.53 125.847 113.237 131.521 110.034C139.492 105.529 150.304 106.505 157.384 110.555C164.463 114.604 168.529 121.09 171.768 127.591C187.616 159.342 188.608 196.668 174.543 231.717" fill="#DAD4F8"/>
<path d="M157 285.675C169.341 282.291 181.304 275.906 192.297 268.928C192.775 269.253 193.478 269.701 194.37 270.193C196.188 271.227 198.804 272.514 201.949 273.693C205.094 274.864 208.783 275.942 212.732 276.701C216.696 277.475 220.928 277.923 225.16 278.089C229.406 278.212 233.652 278.039 237.652 277.525C239.66 277.272 241.587 276.94 243.428 276.556C245.261 276.173 246.993 275.689 248.609 275.219C250.217 274.734 251.681 274.214 253.015 273.7C254.319 273.179 255.464 272.673 256.399 272.211C258.29 271.292 259.377 270.576 259.377 270.576C259.377 270.576 258.341 269.781 256.515 268.754C255.602 268.226 254.486 267.648 253.21 267.048C251.942 266.447 250.493 265.847 248.928 265.247C247.355 264.676 245.652 264.076 243.841 263.584C242.029 263.078 240.123 262.615 238.138 262.239C234.181 261.458 229.949 261.017 225.71 260.872C221.471 260.764 217.21 260.93 213.217 261.458C209.217 261.957 205.478 262.796 202.254 263.765C200.674 264.242 199.225 264.755 197.928 265.262C198.746 264.705 199.573 264.155 200.384 263.598C208.254 258.24 215.761 252.427 222.957 246.266C223.333 246.49 223.768 246.743 224.268 247.032C226.094 248.073 228.71 249.361 231.855 250.525C235 251.696 238.681 252.774 242.638 253.54C246.587 254.314 250.826 254.769 255.065 254.928C259.312 255.059 263.558 254.892 267.551 254.364C269.551 254.111 271.486 253.786 273.333 253.388C275.167 253.005 276.906 252.521 278.522 252.051C280.138 251.566 281.602 251.045 282.92 250.539C284.225 250.011 285.37 249.505 286.319 249.042C288.21 248.124 289.297 247.408 289.297 247.408C289.297 247.408 288.254 246.613 286.442 245.586C285.515 245.058 284.406 244.48 283.138 243.879C281.862 243.279 280.42 242.672 278.841 242.079C277.268 241.508 275.573 240.915 273.761 240.416C271.949 239.91 270.036 239.461 268.058 239.078C264.102 238.304 259.87 237.856 255.631 237.719C251.384 237.603 247.131 237.769 243.138 238.29C239.138 238.803 235.391 239.635 232.174 240.604C230.493 241.11 228.957 241.66 227.587 242.187C234.478 236.012 241.051 229.512 247.319 222.7C247.768 222.808 248.283 222.939 248.877 223.069C250.942 223.495 253.826 223.936 257.174 224.103C260.529 224.276 264.362 224.19 268.37 223.72C272.37 223.264 276.544 222.418 280.638 221.283C284.725 220.126 288.725 218.68 292.377 216.973C294.21 216.134 295.949 215.238 297.58 214.305C299.217 213.386 300.725 212.403 302.116 211.47C303.493 210.508 304.754 209.583 305.848 208.694C306.935 207.797 307.884 206.973 308.631 206.249C310.152 204.81 310.971 203.791 310.971 203.791C310.971 203.791 309.746 203.35 307.688 202.909C306.66 202.692 305.428 202.475 304.022 202.287C302.631 202.099 301.073 201.954 299.391 201.853C297.717 201.795 295.906 201.737 294.036 201.81C292.16 201.875 290.203 202.019 288.196 202.243C284.196 202.706 280.022 203.56 275.942 204.702C271.855 205.866 267.87 207.32 264.21 209.026C260.623 210.675 257.377 212.569 254.645 214.42C259.696 208.513 264.536 202.424 269.174 196.169C270.833 195.135 272.833 193.74 274.971 191.968C277.551 189.813 280.304 187.152 282.928 184.101C285.573 181.057 288.058 177.615 290.29 174.006C292.507 170.398 294.464 166.624 295.993 162.892C296.761 161.034 297.428 159.197 298 157.411C298.573 155.633 299.015 153.883 299.406 152.248C299.775 150.614 300.058 149.074 300.254 147.686C300.449 146.29 300.58 145.054 300.638 144.005C300.79 141.915 300.681 140.614 300.681 140.614C300.681 140.614 299.486 141.12 297.681 142.19C296.768 142.725 295.717 143.398 294.565 144.208C293.413 145.01 292.16 145.957 290.87 147.035C289.587 148.12 288.232 149.298 286.899 150.621C285.565 151.937 284.225 153.369 282.913 154.888C280.275 157.932 277.797 161.388 275.565 164.989C273.377 168.605 271.42 172.387 269.891 176.111C268.348 179.835 267.225 183.486 266.478 186.755C265.725 190.023 265.362 192.908 265.225 194.998C265.174 195.707 265.16 196.314 265.152 196.827C257.645 206.806 249.573 216.38 240.942 225.39C241.66 223.56 242.449 221.196 243.123 218.463C243.92 215.201 244.551 211.427 244.855 207.421C245.16 203.408 245.109 199.163 244.768 194.947C244.399 190.725 243.732 186.538 242.732 182.64C242.239 180.681 241.688 178.801 241.087 177.029C240.486 175.257 239.812 173.587 239.152 172.047C238.464 170.514 237.783 169.111 237.116 167.875C236.442 166.638 235.804 165.561 235.232 164.678C234.109 162.921 233.261 161.931 233.261 161.931C233.261 161.931 232.587 163.044 231.775 164.975C231.355 165.944 230.913 167.115 230.457 168.446C230.015 169.784 229.58 171.28 229.167 172.9C228.79 174.534 228.391 176.291 228.109 178.143C227.819 179.986 227.587 181.939 227.442 183.942C227.138 187.962 227.188 192.207 227.551 196.423C227.935 200.645 228.616 204.832 229.602 208.737C230.573 212.634 231.848 216.25 233.196 219.33C234.536 222.403 235.964 224.942 237.094 226.699C237.493 227.321 237.855 227.856 238.167 228.268C229.391 237.176 220.065 245.514 210.138 253.085C210.297 252.723 210.478 252.325 210.674 251.87C211.486 249.939 212.449 247.199 213.246 243.937C214.051 240.676 214.681 236.909 214.986 232.896C215.29 228.882 215.246 224.638 214.899 220.408C214.529 216.185 213.855 211.998 212.862 208.086C212.377 206.148 211.826 204.261 211.217 202.489C210.623 200.718 209.935 199.047 209.283 197.507C208.602 195.967 207.92 194.564 207.246 193.335C206.58 192.098 205.942 191.021 205.362 190.132C204.232 188.382 203.384 187.384 203.384 187.384C203.384 187.384 202.717 188.497 201.906 190.435C201.493 191.397 201.051 192.568 200.594 193.906C200.152 195.244 199.71 196.741 199.312 198.368C198.92 199.995 198.529 201.752 198.254 203.603C197.957 205.454 197.725 207.406 197.58 209.409C197.283 213.415 197.333 217.66 197.688 221.883C198.065 226.106 198.746 230.3 199.732 234.204C200.71 238.102 201.978 241.717 203.326 244.783C204.674 247.857 206.094 250.387 207.225 252.152C207.783 253.027 208.275 253.714 208.623 254.184C204.804 257.062 200.906 259.831 196.906 262.463C192.007 265.695 186.891 268.935 181.609 271.921C181.826 271.473 182.08 270.923 182.348 270.273C183.174 268.335 184.138 265.601 184.92 262.347C185.732 259.093 186.37 255.312 186.66 251.313C186.971 247.293 186.928 243.048 186.573 238.825C186.21 234.602 185.544 230.423 184.558 226.518C184.073 224.558 183.507 222.678 182.899 220.907C182.304 219.135 181.616 217.465 180.964 215.924C180.29 214.399 179.602 212.989 178.928 211.752C178.254 210.516 177.616 209.438 177.051 208.563C175.92 206.799 175.073 205.808 175.073 205.808C175.073 205.808 174.406 206.929 173.58 208.853C173.174 209.822 172.725 210.993 172.275 212.323C171.826 213.661 171.399 215.158 170.978 216.785C170.602 218.412 170.203 220.184 169.935 222.02C169.638 223.871 169.406 225.816 169.261 227.819C168.957 231.84 169.015 236.077 169.37 240.3C169.761 244.516 170.42 248.71 171.42 252.622C172.391 256.519 173.674 260.128 175.007 263.201C176.355 266.281 177.783 268.805 178.92 270.576C179.486 271.473 179.986 272.174 180.341 272.644C172.587 276.947 164.478 280.664 156.131 282.949C154.348 283.447 155.181 286.195 156.964 285.704L157 285.675Z" fill="#C8C1E8"/>
<path d="M103.036 31.9682C106.471 31.9682 109.261 34.7449 109.261 38.1796C109.261 39.3221 110.189 40.2477 111.333 40.2477C112.478 40.2477 113.406 39.3221 113.406 38.1796C113.406 32.4671 108.761 27.8321 103.036 27.8321C101.891 27.8321 100.964 28.7576 100.964 29.9001C100.964 31.0426 101.891 31.9682 103.036 31.9682Z" fill="#EA9A54"/>
<path d="M103.036 23.6887C111.057 23.6887 117.55 30.1749 117.55 38.1724C117.55 39.3149 118.478 40.2404 119.623 40.2404C120.768 40.2404 121.695 39.3149 121.695 38.1724C121.695 27.8827 113.34 19.5454 103.029 19.5454C101.884 19.5454 100.956 20.4709 100.956 21.6134C100.956 22.7559 101.884 23.6815 103.029 23.6815L103.036 23.6887Z" fill="#EA9A54"/>
<path d="M121.181 48.3392C120.949 47.6667 120.384 47.1533 119.688 46.9942L107.246 44.1596C106.558 44.0078 105.841 44.2103 105.341 44.6947C105.051 44.9623 105.029 44.984 103.681 47.551C99.2101 45.4974 95.6232 41.9036 93.5797 37.4276C96.2101 36.1043 96.2319 36.1043 96.5072 35.7934C97 35.2945 97.2029 34.5714 97.0434 33.8916L94.2029 21.6207C94.0435 20.9265 93.529 20.3625 92.855 20.1311C92.3695 19.9575 91.8695 19.8346 91.3623 19.7551C90.8406 19.6321 90.3043 19.5671 89.7681 19.5454C84.5 19.5454 80.2246 23.8044 80.2246 29.0686C80.2463 46.6616 94.5362 60.9211 112.167 60.9428C117.435 60.9428 121.71 56.6837 121.71 51.4196C121.71 50.8917 121.667 50.3638 121.587 49.8432C121.5 49.3298 121.37 48.8236 121.196 48.3319L121.181 48.3392Z" fill="#454975"/>
<path d="M222.812 37.7747H197.326C192.043 37.7747 187.725 33.465 187.725 28.1936C187.725 22.9222 192.043 18.6126 197.326 18.6126H222.812C228.094 18.6126 232.413 22.9222 232.413 28.1936C232.413 33.465 228.094 37.7747 222.812 37.7747Z" fill="#454975"/>
<path d="M225.202 40.7177C225.202 41.8891 224.253 42.8364 223.079 42.8364C221.905 42.8364 220.956 41.8891 220.956 40.7177C220.956 39.5463 221.905 38.599 223.079 38.599C224.253 38.599 225.202 39.5463 225.202 40.7177Z" fill="#454975"/>
<path d="M204.5 27.9333C204.5 29.4663 203.253 30.71 201.717 30.71C200.181 30.71 198.935 29.4663 198.935 27.9333C198.935 26.4003 200.181 25.1566 201.717 25.1566C203.253 25.1566 204.5 26.4003 204.5 27.9333Z" fill="white"/>
<path d="M212.855 27.9333C212.855 29.4663 211.609 30.71 210.073 30.71C208.536 30.71 207.29 29.4663 207.29 27.9333C207.29 26.4003 208.536 25.1566 210.073 25.1566C211.609 25.1566 212.855 26.4003 212.855 27.9333Z" fill="white"/>
<path d="M221.21 27.9333C221.21 29.4663 219.963 30.71 218.427 30.71C216.891 30.71 215.645 29.4663 215.645 27.9333C215.645 26.4003 216.891 25.1566 218.427 25.1566C219.963 25.1566 221.21 26.4003 221.21 27.9333Z" fill="white"/>
<path d="M185.667 60.0389H211.152C216.435 60.0389 220.754 55.7292 220.754 50.4578C220.754 45.1864 216.435 40.8768 211.152 40.8768H185.667C180.384 40.8768 176.065 45.1864 176.065 50.4578C176.065 55.7292 180.384 60.0389 185.667 60.0389Z" fill="#EA9A54"/>
<path d="M183.269 62.9819C183.269 64.1533 184.218 65.1006 185.392 65.1006C186.566 65.1006 187.515 64.1533 187.515 62.9819C187.515 61.8105 186.566 60.8632 185.392 60.8632C184.218 60.8632 183.269 61.8105 183.269 62.9819Z" fill="#EA9A54"/>
<path d="M192.834 50.2843C192.834 51.8173 191.587 53.061 190.051 53.061C188.515 53.061 187.269 51.8173 187.269 50.2843C187.269 48.7513 188.515 47.5076 190.051 47.5076C191.587 47.5076 192.834 48.7513 192.834 50.2843Z" fill="white"/>
<path d="M201.189 50.2843C201.189 51.8173 199.943 53.061 198.407 53.061C196.87 53.061 195.624 51.8173 195.624 50.2843C195.624 48.7513 196.87 47.5076 198.407 47.5076C199.943 47.5076 201.189 48.7513 201.189 50.2843Z" fill="white"/>
<path d="M209.544 50.2843C209.544 51.8173 208.297 53.061 206.761 53.061C205.225 53.061 203.979 51.8173 203.979 50.2843C203.979 48.7513 205.225 47.5076 206.761 47.5076C208.297 47.5076 209.544 48.7513 209.544 50.2843Z" fill="white"/>
<path d="M148.145 117.222C147.261 119.492 145.782 121.314 144.043 122.493C141.819 124.019 139.166 124.503 136.768 123.578C132.493 121.929 130.652 116.39 132.666 111.227C134.666 106.064 139.761 103.215 144.043 104.871C144.065 104.878 144.094 104.885 144.116 104.9C148.348 106.592 150.152 112.088 148.159 117.214L148.145 117.222Z" fill="#A6AFE2"/>
<path d="M43.2751 109.513C47.7534 116.325 60.7896 136.109 68.1012 146.832C62.5577 157.187 50.949 162.914 50.949 162.914C50.949 162.914 44.949 146.89 41.7896 138.213C38.6302 129.536 36.1809 122.782 36.2751 118.35C36.2896 117.735 36.7896 117.532 37.1302 117.46L36.6519 116.6C36.0722 115.551 36.4852 114.228 37.5649 113.693C38.2533 113.353 39.0287 113.447 39.6302 113.837L38.7461 112.406C38.0142 111.227 38.3041 109.68 39.42 108.848C40.6591 107.922 42.42 108.219 43.2678 109.513H43.2751Z" fill="#FFB8B8"/>
<path d="M47.4346 137.027C47.5723 131.64 52.4056 127.388 54.2534 126.202L54.8983 127.2C52.5288 128.719 48.7317 132.732 48.623 137.056L47.4346 137.027Z" fill="#F18B8B"/>
<path d="M39.7037 113.816L39.1904 114.115L46.1703 126.058L46.6835 125.76L39.7037 113.816Z" fill="#F18B8B"/>
<path d="M37.189 117.529L36.6533 117.786L42.2002 129.318L42.7359 129.061L37.189 117.529Z" fill="#F18B8B"/>
<path d="M165.405 127.142L165.434 127.598L165.702 141.496L166.383 176.79L124.035 165.431L144.434 152.039L144.231 146.724L143.542 128.263C143.296 122.269 147.948 117.193 153.955 116.889C159.977 116.607 165.064 121.213 165.419 127.142H165.405Z" fill="#FFB8B8"/>
<path d="M165.405 127.142L165.434 127.598L165.702 141.496C163.514 142.667 161.238 143.68 158.956 144.591C155.282 146.059 152.021 147.093 148.05 147.1C146.774 147.1 145.448 147.086 144.231 146.724L143.543 128.263C143.296 122.269 147.948 117.193 153.956 116.889C159.977 116.607 165.064 121.213 165.419 127.142H165.405Z" fill="#F18B8B"/>
<path d="M174.427 119.911C171.289 127.49 168.927 130.44 166.347 129.63C158.919 142.32 148.702 147.1 139.586 144.634C132.188 142.653 132.572 131.9 134.644 122.16C135.137 119.911 135.709 117.699 136.289 115.674C137.253 112.377 138.84 107.843 141.057 102.76C135.202 84.6459 152.782 80.6761 164.383 93.8727C164.999 93.4171 165.666 93.0773 166.354 92.9037C169.419 92.036 172.861 94.3138 175.441 102.745C180.745 108.552 177.572 112.326 174.419 119.904L174.427 119.911Z" fill="#454975"/>
<path d="M170.289 102.261C169.325 100.482 167.543 98.2763 164.391 93.8727C165.007 93.4171 165.673 93.0773 166.362 92.9037C167.883 95.7527 170.05 100.193 170.289 102.261Z" fill="#3B3E63"/>
<path d="M171.999 122.522C168.441 129.673 162.927 126.456 162.434 123.585C159.55 127.779 157.68 128.856 156.398 128.986C155.115 129.124 151.543 126.868 150.006 126.376C148.456 125.863 140.724 128.104 134.673 122.175L134.651 122.16C135.144 119.911 135.717 117.699 136.296 115.674C137.26 112.377 138.847 107.843 141.064 102.76C144.347 98.6017 154.369 90.5898 166.101 111.213C165.159 115.19 164.492 118.248 163.644 120.287C169.369 113.389 175.564 115.385 172.006 122.515L171.999 122.522Z" fill="#FFB8B8"/>
<path d="M164.52 121.546C164.781 120.859 165.173 120.222 165.68 119.68C166.165 119.123 166.767 118.653 167.441 118.306C168.115 117.959 168.883 117.72 169.694 117.764C170.093 117.771 170.513 117.88 170.868 118.111C171.223 118.335 171.484 118.747 171.426 119.131C171.209 118.812 170.919 118.682 170.629 118.646C170.339 118.595 170.042 118.632 169.738 118.689C169.136 118.827 168.549 119.065 167.977 119.362C167.404 119.651 166.839 120.005 166.274 120.374C165.702 120.743 165.158 121.162 164.506 121.546H164.52Z" fill="#F18B8B"/>
<path d="M165.245 120.75C165.513 120.425 165.919 120.201 166.339 120.092C166.76 119.984 167.216 119.977 167.658 120.092C168.093 120.208 168.52 120.447 168.789 120.837C169.064 121.22 169.122 121.705 169.013 122.11C168.767 121.285 168.216 120.837 167.506 120.671C167.158 120.577 166.789 120.548 166.405 120.562C166.028 120.584 165.644 120.627 165.245 120.757V120.75Z" fill="#F18B8B"/>
<path d="M144.528 113.44C140.977 118.082 136.76 120.042 136.224 121.278C135.688 122.515 137.535 124.944 142.122 125.776C144.84 124.062 142.637 121.249 144.528 113.44Z" fill="#F18B8B"/>
<path d="M153.158 115.334C153.223 116.419 152.556 117.344 151.672 117.402C150.788 117.453 150.013 116.614 149.948 115.529C149.883 114.445 150.549 113.519 151.433 113.461C152.317 113.411 153.093 114.25 153.158 115.334Z" fill="#454975"/>
<path d="M141.666 114.257C141.463 115.327 140.586 116.057 139.716 115.891C138.847 115.725 138.303 114.72 138.506 113.649C138.709 112.579 139.586 111.849 140.456 112.015C141.325 112.182 141.869 113.187 141.666 114.257Z" fill="#454975"/>
<path d="M153.535 105.522C156.738 105.616 158.252 109.39 158.738 111.444C158.977 112.456 158.303 112.731 157.767 111.784C157.1 110.62 155.296 108.515 153.26 107.713C151.818 107.142 152.296 105.486 153.542 105.522H153.535Z" fill="#454975"/>
<path d="M144.383 103.953C141.68 102.846 139.419 104.763 138.274 106.361C137.672 107.207 138.122 108.045 139.035 107.452C140.158 106.722 141.448 105.818 143.636 106.028C145.18 106.173 145.535 104.423 144.383 103.953Z" fill="#454975"/>
<path d="M115.239 262.933C124.949 266.339 134.963 268.393 151.594 266.831C161.311 235.513 162.869 160.289 163.188 156.095C155.572 159.017 146.166 160.716 142.188 151.467C123.13 172.907 115.123 205.664 115.232 262.933H115.239Z" fill="white"/>
<path d="M165.826 148.076C155.528 154.006 149.043 172.018 147.333 199.532C145.623 227.046 143.507 252.188 144.202 260.395C144.905 268.602 147.355 281.857 162.094 283.035C176.833 284.214 198.572 284.973 198.572 284.973C198.572 284.973 181.239 178.801 180.652 172.445C180.065 166.089 177.934 156.124 165.818 148.076H165.826Z" fill="#EA9A54"/>
<path d="M288.398 266.541C281.615 262.015 261.898 248.833 251.216 241.443C240.796 246.88 234.948 258.414 234.948 258.414C234.948 258.414 250.955 264.546 259.622 267.778C268.289 271.01 275.035 273.512 279.477 273.454C280.093 273.447 280.303 272.948 280.376 272.608L281.238 273.093C282.289 273.686 283.615 273.281 284.158 272.203C284.499 271.524 284.419 270.743 284.035 270.135L285.463 271.032C286.644 271.769 288.187 271.495 289.035 270.388C289.977 269.159 289.687 267.402 288.405 266.541H288.398Z" fill="#FFB8B8"/>
<path d="M256.745 245.839L281.006 252.079C282.412 252.441 283.267 253.844 282.948 255.254C282.615 256.729 281.122 257.633 279.658 257.25L265.158 253.482C265.158 253.482 253.673 251.515 256.738 245.839H256.745Z" fill="#FFB8B8"/>
<path d="M263.767 261.653C262.847 261.95 261.876 262.131 260.862 262.145L260.84 260.959C265.173 260.887 269.231 257.134 270.767 254.791L271.76 255.442C270.782 256.931 267.753 260.373 263.753 261.66L263.767 261.653Z" fill="#F18B8B"/>
<path d="M272.139 262.989L271.835 263.499L283.742 270.568L284.046 270.058L272.139 262.989Z" fill="#F18B8B"/>
<path d="M268.794 266.898L268.532 267.431L280.04 273.066L280.302 272.534L268.794 266.898Z" fill="#F18B8B"/>
<path d="M165.826 148.076C179.137 157.484 183.268 164.245 187.268 172.459C191.275 180.673 206.326 207.609 210.797 213.314C215.275 219.027 251.217 241.435 251.217 241.435L232.021 262.579C232.021 262.579 195.224 246.403 188.159 238.789C181.086 231.167 165.463 202.836 165.826 148.069V148.076Z" fill="#EA9A54"/>
<path d="M144.333 149.79L144.471 153.311C136.434 162.133 130.203 177.673 126.768 197.616C122.862 220.198 121.362 244.212 121.21 264.09C121.123 277.764 108.456 277.59 102.195 272.926C103.529 254.928 108.746 211.492 111.572 198.223C114.282 185.511 119.775 148.575 144.34 149.797L144.333 149.79Z" fill="#EA9A54"/>
<path d="M144.347 150.014L144.391 151.019C131.673 155.987 124.891 179.994 124.891 179.994C124.891 179.994 116.97 204.803 109.702 210.53C95.6007 221.659 85.0862 218.708 77.1442 210.292C72.9486 205.845 46.4775 163.688 46.4775 163.688L68.1297 146.55L92.6515 179.415C92.6515 179.415 113.456 164.599 121.296 158.836C128.376 153.615 134.398 149.92 144.34 150.007L144.347 150.014Z" fill="#EA9A54"/>
<path d="M169.667 196.917L168.56 197.348L181.897 231.5L183.004 231.07L169.667 196.917Z" fill="#BB4344"/>
<path d="M116.098 182.835L110.303 201.142L111.436 201.499L117.231 183.192L116.098 182.835Z" fill="#BB4344"/>
<path d="M45.3256 123.187L23.0938 101.002V120.005C23.0938 123.679 26.0793 126.658 29.7604 126.658H60.8836C64.5648 126.658 67.5503 123.679 67.5503 120.005V101.002L45.3184 123.187H45.3256Z" fill="#3E4169"/>
<path d="M67.5581 101.002V97.8208C67.5581 94.1475 64.5726 91.1683 60.8914 91.1683H29.7682C26.0871 91.1683 23.1016 94.1475 23.1016 97.8208V101.002L45.3334 123.187L67.5653 101.002H67.5581Z" fill="#454975"/>
<path d="M63.2968 103.642C67.8191 103.642 71.4852 99.9835 71.4852 95.4707C71.4852 90.958 67.8191 87.2997 63.2968 87.2997C58.7745 87.2997 55.1084 90.958 55.1084 95.4707C55.1084 99.9835 58.7745 103.642 63.2968 103.642Z" fill="#EA9A54"/>
<path d="M42.7749 111.914H28.1807V115.168H42.7749V111.914Z" fill="#A6AFE2"/>
<path d="M63.7384 141.279L57.7022 117.012C57.3543 115.609 55.9485 114.734 54.5355 115.045C53.0572 115.363 52.1369 116.846 52.5065 118.306L56.1587 132.804C56.1587 132.804 58.0283 144.28 63.7456 141.279H63.7384Z" fill="#FFB8B8"/>
<path d="M144.949 128.372C144.942 128.408 144.949 128.451 144.935 128.487C144.05 135.501 135.674 136.217 135.058 127.649C135.014 127.208 135 126.73 135.014 126.239C137.326 126.325 142.891 127.735 144.949 128.372Z" fill="#F18B8B"/>
<path d="M144.949 128.372C144.942 128.408 144.949 128.451 144.935 128.488C143.985 128.726 142.956 128.878 141.862 128.936C139.116 129.073 136.63 128.56 135.058 127.656C135.014 127.215 135 126.738 135.014 126.246C137.326 126.333 142.891 127.743 144.949 128.379V128.372Z" fill="#F3EDFF"/>
<path d="M175.819 123.679C174.935 125.949 173.456 127.772 171.717 128.95C169.492 130.476 166.84 130.96 164.442 130.035C160.166 128.386 158.326 122.847 160.34 117.684C162.34 112.521 167.435 109.672 171.717 111.328C171.739 111.336 171.768 111.343 171.79 111.357C176.021 113.049 177.826 118.545 175.833 123.672L175.819 123.679Z" fill="#A6AFE2"/>
<path d="M169.065 111.451C172.326 106.874 168.63 98.0233 164.384 93.8727C164.384 93.8727 162.848 92.2023 162.333 91.7974C163.29 91.8118 163.637 91.9782 164.608 92.7229C165.579 93.4605 178.478 101.248 173.543 113.187C173.543 113.187 169.319 112.492 169.065 111.458V111.451Z" fill="#A6AFE2"/>
<path d="M175.819 123.679C174.935 125.949 173.457 127.772 171.717 128.95C165.739 130.295 161.043 124.315 165.138 117.258C166.935 114.17 169.319 112.276 171.775 111.357C176.007 113.049 177.812 118.545 175.819 123.672V123.679Z" fill="#BBC3ED"/>
<path d="M163.689 125.754C160.073 129.362 152.971 129.753 147.355 129.84C146.812 129.847 146.37 130.266 146.334 130.809C146.29 131.43 146.805 131.944 147.428 131.915C155.964 131.445 161.268 130.903 164.892 127.027L163.689 125.754Z" fill="#A6AFE2"/>
<path d="M147.384 133.028C148.597 133.028 149.58 132.048 149.58 130.837C149.58 129.627 148.597 128.646 147.384 128.646C146.172 128.646 145.188 129.627 145.188 130.837C145.188 132.048 146.172 133.028 147.384 133.028Z" fill="#EA9A54"/>
<path d="M78.2903 65.6357C82.7686 65.6357 86.399 62.013 86.399 57.5442C86.399 53.0754 82.7686 49.4527 78.2903 49.4527C73.812 49.4527 70.1816 53.0754 70.1816 57.5442C70.1816 62.013 73.812 65.6357 78.2903 65.6357Z" fill="#DAD4F8"/>
<path d="M163.558 32.0984C163.558 33.9278 162.073 35.4174 160.232 35.4174C158.392 35.4174 156.906 33.935 156.906 32.0984C156.906 30.2617 158.392 28.7793 160.232 28.7793C162.073 28.7793 163.558 30.2617 163.558 32.0984Z" fill="#DAD4F8"/>
<path d="M126.58 81.2474C127.893 81.2474 128.957 80.1855 128.957 78.8756C128.957 77.5657 127.893 76.5038 126.58 76.5038C125.267 76.5038 124.203 77.5657 124.203 78.8756C124.203 80.1855 125.267 81.2474 126.58 81.2474Z" fill="#DAD4F8"/>
<path d="M195.283 153.738C195.283 155.177 194.116 156.348 192.667 156.348C191.217 156.348 190.051 155.184 190.051 153.738C190.051 152.292 191.217 151.128 192.667 151.128C194.116 151.128 195.283 152.292 195.283 153.738Z" fill="#DAD4F8"/>
<path d="M208.486 202.468V252.672C208.486 257.633 204.457 261.661 199.478 261.661H110.196C105.225 261.661 101.203 257.633 101.203 252.672V202.468C101.203 197.507 105.232 193.48 110.196 193.48H199.478C204.457 193.48 208.486 197.507 208.486 202.468Z" fill="#454975"/>
<path d="M178.37 261.661H146.03L144.885 223.908H164.798L178.37 261.661Z" fill="#393C61"/>
<path d="M188.66 277.576H171.776L164.798 223.908H144.884L137.906 277.576H121.022C119.624 277.576 118.493 278.704 118.493 280.1V282.58H191.174V280.1C191.174 278.704 190.044 277.576 188.645 277.576H188.66ZM162.138 250.807C162.138 254.827 158.87 258.088 154.841 258.088C150.812 258.088 147.544 254.827 147.544 250.807V247.77C147.544 243.749 150.812 240.488 154.841 240.488C158.87 240.488 162.138 243.749 162.138 247.77V250.807Z" fill="#A6AFE2"/>
<path d="M154.754 249.715C137.935 249.715 143.804 270.461 143.804 282.088" stroke="#F3EDFF" stroke-width="2.17" stroke-miterlimit="10"/>
<path d="M238.007 90.2212C234.181 90.2212 230.565 90.6985 227.355 91.5445C225.71 91.9784 224.558 93.4535 224.558 95.1528V123.072C224.558 125.443 226.753 127.193 229.079 126.702C231.84 126.116 234.855 125.79 238.014 125.79C242.992 125.79 247.63 126.593 251.478 127.974V92.4122C247.63 91.0311 242.992 90.2285 238.014 90.2285L238.007 90.2212Z" fill="#454975"/>
<path d="M264.928 90.221C259.949 90.221 255.312 91.0237 251.464 92.4048V127.967C255.312 126.586 259.949 125.783 264.928 125.783C268.08 125.783 271.094 126.108 273.862 126.694C276.189 127.186 278.384 125.443 278.384 123.064V95.1453C278.384 93.4461 277.232 91.9709 275.587 91.5371C272.37 90.691 268.754 90.2138 264.935 90.2138L264.928 90.221Z" fill="#3E4169"/>
<path d="M277.645 286H22.0149C21.0512 286 20.2686 285.212 20.2686 284.257C20.2686 283.296 21.0584 282.507 22.0149 282.507H277.645C278.609 282.507 279.392 283.296 279.392 284.257C279.392 285.219 278.602 286 277.645 286Z" fill="#454975"/>
</g>
<defs>
<clipPath id="clip0_264_2564">
<rect width="311" height="286" fill="white"/>
</clipPath>
</defs>
</svg>
