<svg width="27" height="23" viewBox="0 0 27 23" fill="none" xmlns="http://www.w3.org/2000/svg">
<path d="M25.9735 6.92825C25.4231 5.6029 24.5617 4.46929 23.6126 3.39803C22.9801 2.68324 22.2978 2.0215 21.4552 1.5487C20.5268 1.0275 19.5287 0.733388 18.4891 1.10288C18.0085 1.2732 17.6918 1.22388 17.2761 0.966998C16.1235 0.25593 14.8285 0.0176661 13.4816 0.000913166C11.8379 -0.0195626 10.2932 0.301535 8.919 1.24435C8.8502 1.29089 8.71825 1.27879 8.62494 1.25459C8.28093 1.16803 7.94634 1.0126 7.59762 0.976306C6.47321 0.862758 5.50056 1.27972 4.62592 1.93215C3.34129 2.89079 2.35826 4.12213 1.49022 5.44654C0.944514 6.27768 0.510964 7.16 0.293247 8.14004C-0.032858 9.60778 0.682499 11.0904 2.06892 11.7019C2.49775 11.8908 2.96712 11.9886 3.42894 12.131C3.42611 12.1459 3.41763 12.1868 3.40821 12.2278C3.07173 13.6545 2.95958 15.0944 3.18295 16.5472C3.4346 18.1778 4.16032 19.5544 5.47888 20.5968C6.91619 21.7322 8.61552 22.1985 10.3959 22.4387C11.985 22.6527 13.5834 22.6481 15.18 22.5448C16.7502 22.4442 18.2799 22.1613 19.7163 21.4968C21.2893 20.7699 22.4533 19.6502 23.0895 18.0308C23.6484 16.6077 23.6795 15.1316 23.5127 13.6424C23.4542 13.1194 23.3421 12.6028 23.2525 12.076C23.3666 12.0565 23.475 12.037 23.5843 12.0193C24.4646 11.8815 25.1931 11.4841 25.7577 10.7982C26.1272 10.3505 26.3439 9.83488 26.4636 9.27552V8.56631C26.3034 8.01905 26.1912 7.45224 25.9726 6.92732L25.9735 6.92825ZM2.03499 9.62454C1.73621 9.16569 1.7758 8.68079 1.93885 8.21357C2.1217 7.69144 2.33282 7.16744 2.61368 6.69278C3.37993 5.39629 4.30641 4.218 5.49773 3.26959C6.03589 2.84053 6.63815 2.52502 7.36388 2.5455C7.39498 2.5455 7.42702 2.55294 7.50902 2.56318C6.07831 4.32037 5.44778 6.39588 4.72017 8.42763C4.47323 9.1173 4.20933 9.8023 3.95109 10.4929C3.16316 10.4985 2.48644 10.317 2.03593 9.62454H2.03499ZM13.0811 16.2578C12.4722 15.9776 12.0161 15.5327 11.7352 14.9287C11.5627 14.5583 11.6259 14.4187 12.0358 14.3479C12.1216 14.333 12.2074 14.3209 12.2931 14.3098C12.9651 14.2241 13.6447 14.2158 14.3167 14.2986C14.4703 14.3172 14.6136 14.3405 14.7559 14.3777C14.9896 14.4401 15.0697 14.562 14.9878 14.7816C14.7154 15.5113 14.1961 16.0093 13.475 16.2978C13.3657 16.3415 13.1961 16.3108 13.0811 16.2578ZM21.9443 15.9981C21.7238 18.1145 20.5476 19.5097 18.5598 20.2664C17.3676 20.7206 16.1197 20.8955 14.8539 20.9765C14.6324 20.9914 14.4109 20.9979 14.1433 21.01V20.5605C14.1433 19.7079 14.1499 18.8554 14.1386 18.0038C14.1357 17.8121 14.2055 17.7264 14.3714 17.6445C15.3261 17.1773 16.0283 16.4569 16.443 15.4909C16.9604 14.2874 16.41 13.1427 15.1254 12.8337C13.9425 12.5489 12.7258 12.5461 11.5439 12.8337C10.165 13.1706 9.65509 14.4596 10.3441 15.7459C10.7946 16.5872 11.4487 17.2369 12.3205 17.6669C12.4081 17.7097 12.5184 17.8232 12.5193 17.9051C12.5325 18.901 12.5278 19.8969 12.5259 20.8927C12.5259 20.9244 12.5137 20.956 12.4977 21.037C11.7748 20.9663 11.0528 20.9188 10.3375 20.8211C9.24982 20.6703 8.20176 20.3892 7.23193 19.8531C5.81064 19.0676 5.00763 17.8744 4.77389 16.2959C4.55146 14.791 4.68906 13.3074 5.18388 11.8769C5.85682 9.9326 6.57595 8.00323 7.30638 6.07943C7.63343 5.21759 8.08583 4.41159 8.65887 3.67818C9.62682 2.43939 10.9096 1.77579 12.4798 1.62781C13.459 1.53567 14.427 1.58034 15.3742 1.85397C16.7314 2.2458 17.7022 3.12347 18.4392 4.28222C19.0226 5.20083 19.4467 6.19298 19.8096 7.21305C20.3911 8.85018 21.0094 10.4752 21.5607 12.1226C21.9811 13.3781 22.081 14.6849 21.9443 15.999V15.9981ZM22.8454 10.4882C22.7794 10.4864 22.6861 10.3821 22.6588 10.3068C22.1941 9.04935 21.7398 7.7873 21.2771 6.5299C20.7738 5.16268 20.179 3.84106 19.2629 2.6851C19.2375 2.65439 19.2215 2.61716 19.18 2.54922C19.9811 2.50268 20.6032 2.82471 21.1696 3.26401C22.0914 3.9788 22.8265 4.86764 23.4938 5.81045C24.0131 6.54479 24.4608 7.31356 24.737 8.17727C25.2035 9.6385 24.1045 10.5134 22.8454 10.4882Z" fill="#FF9E30"/>
<path d="M17.065 9.48681C17.0622 10.0629 16.589 10.5385 16.0122 10.5432C15.426 10.5478 14.9359 10.0639 14.9387 9.48122C14.9397 8.91069 15.4194 8.42672 15.9924 8.42113C16.574 8.41369 17.0678 8.90604 17.065 9.48681Z" fill="#FFC481"/>
<path d="M11.7088 9.48401C11.7088 10.0648 11.2385 10.5385 10.6617 10.5385C10.0849 10.5385 9.60705 10.0564 9.60611 9.48401C9.60517 8.91348 10.0896 8.42764 10.6608 8.42764C11.2319 8.42764 11.7088 8.90417 11.7088 9.48401Z" fill="#FFC481"/>
</svg>
