<svg width="17" height="17" viewBox="0 0 17 17" fill="none" xmlns="http://www.w3.org/2000/svg">
<path d="M7.7915 1.41667H6.37484C2.83317 1.41667 1.4165 2.83334 1.4165 6.37501V10.625C1.4165 14.1667 2.83317 15.5833 6.37484 15.5833H10.6248C14.1665 15.5833 15.5832 14.1667 15.5832 10.625V9.20834" stroke="#999999" stroke-width="1.33333" stroke-linecap="round" stroke-linejoin="round"/>
<path d="M11.3618 2.13916L5.78016 7.72083C5.56766 7.93333 5.35516 8.35125 5.31266 8.65583L5.00808 10.7879C4.89474 11.56 5.44016 12.0983 6.21224 11.9921L8.34432 11.6875C8.64182 11.645 9.05974 11.4325 9.27933 11.22L14.861 5.63833C15.8243 4.675 16.2777 3.55583 14.861 2.13916C13.4443 0.722496 12.3252 1.17583 11.3618 2.13916Z" stroke="#999999" stroke-width="1.33333" stroke-miterlimit="10" stroke-linecap="round" stroke-linejoin="round"/>
<path d="M10.561 2.93958C11.0356 4.63249 12.3602 5.95708 14.0602 6.43874" stroke="#999999" stroke-width="1.33333" stroke-miterlimit="10" stroke-linecap="round" stroke-linejoin="round"/>
</svg>
