<svg width="45" height="45" viewBox="0 0 45 45" fill="none" xmlns="http://www.w3.org/2000/svg">
<g clip-path="url(#clip0_283_2395)">
<path d="M26.8758 45.0003V28.8456H31.273C31.6056 26.7196 31.9322 24.6336 32.2673 22.4954H25.6084C25.5975 22.323 25.5817 22.1919 25.5817 22.062C25.5793 20.7737 25.5756 19.4867 25.5817 18.1984C25.589 16.3128 26.6537 15.0707 28.5196 14.925C29.8599 14.8194 31.2123 14.8643 32.5599 14.8424C32.7553 14.84 32.952 14.8424 33.1814 14.8424V9.25963C30.5227 8.95245 27.8653 8.50441 25.1993 9.17707C21.987 9.98814 19.8479 12.3218 19.4145 15.6049C19.236 16.9636 19.2627 18.3514 19.2214 19.7271C19.1947 20.6183 19.2166 21.5119 19.2166 22.4602H14.1262V28.8213H19.1862V44.9857C9.63435 43.729 0.0751711 35.4884 -9.80043e-05 22.6484C-0.0717251 10.2322 9.7254 0.509027 21.5208 0.0209256C34.1599 -0.501173 44.076 9.20378 44.9283 20.73C45.9626 34.7198 35.5269 43.3988 26.8758 45.0003Z" fill="#006FFF"/>
</g>
<defs>
<clipPath id="clip0_283_2395">
<rect width="45" height="45" fill="white"/>
</clipPath>
</defs>
</svg>
