<svg width="29" height="29" viewBox="0 0 29 29" fill="none" xmlns="http://www.w3.org/2000/svg">
<g clip-path="url(#clip0_26_560)">
<path d="M20.2361 11.9944C20.0855 11.9015 20.0269 11.8108 19.9878 11.6078C19.7051 10.1568 18.9651 9.12109 17.7894 8.52693C17.6171 8.43976 17.4309 8.41109 17.2505 8.38241C17.0758 8.35488 16.9115 8.32965 16.8172 8.25624C16.7138 8.1748 16.6437 8.01078 16.569 7.83643C16.5035 7.68503 16.4357 7.52788 16.3334 7.38795C15.8105 6.67909 14.9165 6.23864 14.0006 6.23864C13.4754 6.23864 12.9583 6.37284 12.4595 6.64009C12.4204 6.59192 12.3802 6.5426 12.3377 6.49442C11.7677 5.85095 11.0828 5.52405 10.3025 5.52405C10.1588 5.52405 10.0117 5.53552 9.86349 5.55731C8.4925 5.76263 7.61682 6.74103 7.46168 8.24248C7.45479 8.30671 7.44904 8.37094 7.44329 8.43517C7.40307 8.89972 7.36745 9.30117 6.96293 9.54778C6.8618 9.60972 6.80205 9.70492 6.75493 9.78062C6.73884 9.80471 6.72505 9.8288 6.71126 9.846C6.48027 10.1523 6.25044 10.4597 6.02175 10.7671C5.5253 11.4323 5.01161 12.1205 4.48873 12.7801C3.13498 14.4834 2.93273 16.4173 3.88885 18.5243C4.46459 19.7929 5.08056 21.1028 5.72066 22.4161C6.02404 23.0413 6.10104 23.6618 5.95509 24.3145C5.80455 24.9843 5.64711 25.6645 5.49542 26.3217C5.37935 26.823 5.26443 27.3231 5.15066 27.8243C5.14606 27.8438 5.14032 27.8633 5.13572 27.884C5.10354 28.0159 5.06677 28.1661 5.0932 28.3233C5.15411 28.7064 5.43451 28.9645 5.82179 28.9966C5.85052 28.9989 5.8781 29 5.90568 29C6.29755 29 6.58945 28.7649 6.68713 28.3703C6.83078 27.7922 6.97098 27.2049 7.10658 26.636C7.24219 26.0694 7.38354 25.4821 7.52489 24.9063C7.82023 23.7123 7.649 22.5228 6.99971 21.268C6.45959 20.2253 5.91142 19.0611 5.32304 17.7088C4.69558 16.2647 4.82889 15.0064 5.72985 13.864C6.25848 13.1941 6.77791 12.4991 7.28011 11.8269C7.49846 11.5356 7.7168 11.2442 7.9363 10.954C8.22589 10.5698 8.3523 10.5055 8.52583 10.5055C8.635 10.5055 8.77865 10.5342 8.9924 10.5996C9.11881 10.6386 9.24407 10.6787 9.36934 10.7189C10.0336 10.9311 10.7208 11.1502 11.4643 11.1502C11.4861 11.1502 11.5068 11.1502 11.5275 11.149H11.5448C11.7413 11.149 11.9562 11.2029 12.1642 11.2545L12.2251 11.2694C12.3952 11.3119 12.5089 11.391 12.5457 11.492C12.5825 11.5941 12.5457 11.7294 12.4411 11.8716C11.9585 12.5289 11.3103 12.9189 10.5128 13.0301C10.3266 13.0565 10.1749 13.0691 10.0485 13.0691C9.59458 13.0691 9.39232 12.9418 9.09583 12.1859C8.93954 11.789 8.65109 11.5608 8.30519 11.5608C8.219 11.5608 8.13166 11.5746 8.04317 11.6032C7.83287 11.6698 7.67198 11.804 7.57775 11.9909C7.46973 12.2043 7.46168 12.4715 7.55477 12.7457C7.83287 13.5566 8.28105 14.129 8.9223 14.4845C8.91885 14.488 8.91426 14.4903 8.91081 14.4914L8.78555 14.5579C8.30978 14.808 7.81793 15.0672 7.32493 15.292C6.85146 15.5077 6.64576 15.8759 6.76068 16.3037C6.85836 16.673 7.15255 16.8933 7.54557 16.8933C7.60878 16.8933 7.67428 16.8875 7.74093 16.8761C7.81678 16.8623 7.88688 16.8417 7.94894 16.8222L7.99031 16.8107C8.89817 16.548 9.69341 16.0628 10.4117 15.3322C10.9276 15.7841 11.5183 16.0135 12.1722 16.0135C12.2952 16.0135 12.4227 16.0055 12.5514 15.9894C12.6273 16.6685 12.8962 17.1961 13.3685 17.5964C13.8075 17.968 14.3499 18.1653 14.936 18.1653C14.9935 18.1653 15.0521 18.163 15.1107 18.1596C15.144 18.2227 15.1762 18.2846 15.2072 18.3465C15.3256 18.5782 15.4371 18.7973 15.5933 18.9946C16.0059 19.5176 16.6529 19.8296 17.3217 19.8296C17.6607 19.8296 17.9917 19.747 18.2813 19.591C19.6396 18.8558 20.4774 17.687 20.7727 16.119C20.8187 15.8736 20.7773 15.6476 20.6521 15.4641C20.5326 15.2909 20.3441 15.1727 20.1212 15.1315C20.074 15.1234 20.0269 15.1188 19.9809 15.1188C19.6098 15.1188 19.296 15.3792 19.18 15.7807C19.1593 15.8495 19.1455 15.916 19.1306 15.9814C19.1179 16.041 19.1053 16.0984 19.0892 16.1523C18.8467 16.9598 18.3629 17.6056 17.6538 18.0713C17.5378 18.147 17.424 18.186 17.3148 18.186C17.1953 18.186 17.0746 18.1389 16.9551 18.0472C16.7115 17.8602 16.6391 17.6423 16.7402 17.3991L16.7942 17.2706C17.2792 16.1087 17.7803 14.9078 18.3135 13.7459C18.4376 13.4763 18.6927 13.3157 18.9949 13.3157C19.1673 13.3157 19.3397 13.3673 19.4925 13.466C20.7187 14.2528 21.2933 15.791 20.8589 17.1238C19.943 19.9317 18.5077 22.126 16.4713 23.8316C15.9806 24.2422 15.5623 24.7847 15.3233 25.3204C15.0245 25.9925 14.8245 26.7129 14.6315 27.4091C14.5867 27.572 14.5407 27.736 14.4947 27.8977C14.4235 28.1443 14.4465 28.3783 14.5591 28.5745C14.6682 28.7626 14.8556 28.9002 15.0877 28.9587C15.1567 28.9759 15.2256 28.9851 15.2923 28.9851C15.6657 28.9851 15.9599 28.7201 16.0795 28.2774C16.1174 28.1375 16.1542 27.9975 16.1909 27.8587C16.2978 27.4515 16.4081 27.0306 16.538 26.628C16.7023 26.1233 16.9172 25.5521 17.3907 25.1747C19.6144 23.4026 21.2278 21.0351 22.3241 17.9359C23.1309 15.6545 22.292 13.2664 20.2361 11.9944ZM10.7461 9.31838C10.7369 9.34705 10.7277 9.37573 10.7185 9.40555L10.0922 9.21973C9.74857 9.11879 9.40151 9.01556 9.04641 8.91004C9.05101 8.8676 9.05676 8.82516 9.06135 8.78272C9.08893 8.54758 9.11651 8.32621 9.15099 8.10483C9.22569 7.62997 9.60377 7.2526 10.0715 7.18607C10.1312 7.17804 10.1933 7.17346 10.2531 7.17346C10.6909 7.17346 11.054 7.39598 11.2253 7.7699C11.2609 7.8502 11.2678 7.94884 11.2529 7.99472C11.208 8.13466 11.146 8.27115 11.0805 8.41453C11.0299 8.52579 10.9782 8.63934 10.9322 8.75749C10.8644 8.93871 10.807 9.12224 10.7461 9.31838ZM12.4905 14.3045C12.3607 14.3446 12.2389 14.3641 12.1274 14.3641C12.0446 14.3641 11.9665 14.3538 11.893 14.332C12.1837 14.1599 12.4756 13.9879 12.7744 13.8112L12.8077 13.7917C12.7721 14.0911 12.7388 14.2299 12.4905 14.3045ZM12.3515 9.60857C12.3848 9.53287 12.417 9.45946 12.448 9.38605C12.5963 9.04195 12.7365 8.71734 12.9203 8.42829C13.149 8.06813 13.4995 7.87772 13.9316 7.87772C14.027 7.87772 14.127 7.8869 14.2281 7.90525C14.6866 7.98669 15.0084 8.2333 15.2061 8.6577C14.5407 9.12568 14.4315 9.26905 13.8443 10.4631C13.4478 9.92171 12.8801 9.70951 12.3515 9.60857ZM16.5621 13.5841C16.3265 14.1852 16.0622 14.7885 15.8048 15.3723C15.7014 15.6075 15.5979 15.8437 15.4957 16.08C15.3727 16.3656 15.175 16.5102 14.9084 16.5102C14.8544 16.5102 14.7981 16.5044 14.7395 16.4918C14.4051 16.4253 14.1925 16.1362 14.2109 15.7738C14.2798 14.4192 14.5809 13.0519 15.1084 11.7099C15.2773 11.2763 15.4405 10.9047 15.6094 10.5721C15.8209 10.1546 16.2036 9.90565 16.6322 9.90565C16.9253 9.90565 17.2091 10.0192 17.4527 10.2348C17.9273 10.6524 18.256 11.2201 18.3422 11.7558C17.5205 12.0001 16.9517 12.5862 16.5621 13.5841Z" fill="#FF9E30"/>
<path d="M27.6955 8.60033C26.2762 10.0467 25.6028 11.789 25.6936 13.778C25.7487 14.9674 26.1303 16.0995 26.8267 17.1456C26.8485 17.1777 26.8715 17.2098 26.8933 17.2408C26.9313 17.2936 26.9703 17.3475 27.006 17.4083C27.2496 17.8235 27.1726 18.2628 26.8094 18.5266C26.6646 18.6333 26.4992 18.6895 26.3325 18.6895C26.0705 18.6895 25.828 18.5564 25.6488 18.3167C24.9592 17.3933 24.4881 16.3759 24.2467 15.292C23.6974 12.8099 24.1812 10.4975 25.6867 8.41451C25.6947 8.40419 25.7016 8.39501 25.7097 8.38354C24.5214 7.94308 23.5297 7.31567 22.6816 6.47376C21.8335 5.6307 21.206 4.65459 20.7705 3.4984C19.6695 4.39766 18.3192 4.88973 16.9322 4.88973C14.9291 4.88973 13.1008 3.90444 11.9895 2.23898C10.4611 3.55001 8.75912 4.21528 6.92616 4.21528C5.90683 4.21528 4.82659 4.00767 3.70958 3.60048C3.72452 3.69798 3.73946 3.79662 3.7544 3.89297C3.83025 4.39192 3.90839 4.90693 3.93942 5.42309C4.1095 8.25393 3.30277 10.8473 1.53991 13.131C1.33651 13.396 1.07679 13.5417 0.810178 13.5417C0.637799 13.5417 0.468868 13.4809 0.319474 13.3662C-0.0758474 13.0611 -0.106876 12.6 0.237881 12.1343C2.48799 9.10386 2.92698 5.77637 1.54106 2.24471C1.36868 1.8054 1.43649 1.459 1.74217 1.21813C1.89961 1.09196 2.07199 1.02773 2.25356 1.02773C2.44433 1.02773 2.63854 1.09884 2.8339 1.23992C3.86242 1.98778 4.99093 2.42709 6.18838 2.54638C6.42512 2.56932 6.66185 2.58079 6.88939 2.58079C8.39483 2.58079 9.73478 2.06348 10.8713 1.04264C11.0483 0.884349 11.2103 0.713444 11.3827 0.532215C11.4425 0.469129 11.5022 0.407191 11.5631 0.344105C11.7826 0.11929 12.024 0 12.2596 0C12.4492 0 12.7997 0.0791441 13.0226 0.610212C13.3869 1.47965 13.9374 2.13689 14.7062 2.61634C15.3968 3.04762 16.1794 3.27588 16.9689 3.27588C18.3215 3.27588 19.5638 2.63125 20.3774 1.50833L20.3924 1.48768C20.4073 1.46589 20.4234 1.44409 20.4383 1.42115C20.6337 1.12178 20.8808 0.970375 21.1727 0.970375C21.2313 0.970375 21.2933 0.976111 21.3542 0.989875C21.7174 1.06558 21.9392 1.32136 22.015 1.74805C22.2161 2.8813 22.6632 3.88265 23.3446 4.728C24.3306 5.95072 25.6005 6.73528 27.1209 7.06218C27.1496 7.06906 27.1772 7.07709 27.2059 7.08512C27.2266 7.092 27.2461 7.09773 27.2588 7.10003C27.8575 7.20555 27.992 7.51984 27.9989 7.7653C28.0069 8.06581 27.8828 8.40992 27.6955 8.60033Z" fill="#FFC481"/>
</g>
<defs>
<clipPath id="clip0_26_560">
<rect width="28.3544" height="29" fill="white" transform="translate(0.215179)"/>
</clipPath>
</defs>
</svg>
