<svg width="32" height="32" viewBox="0 0 32 32" fill="none" xmlns="http://www.w3.org/2000/svg">
<path d="M21.3333 5.66669C21.3333 7.32002 19.9866 8.66669 18.3333 8.66669H13.6666C12.84 8.66669 12.0933 8.33335 11.5466 7.78669C11 7.24002 10.6666 6.49335 10.6666 5.66669C10.6666 4.01335 12.0133 2.66669 13.6666 2.66669H18.3333C19.16 2.66669 19.9066 3.00002 20.4533 3.54669C21 4.09335 21.3333 4.84002 21.3333 5.66669Z" fill="#FF9E30"/>
<path d="M25.1067 6.70668C24.8 6.45335 24.4534 6.25334 24.08 6.10668C23.6934 5.96001 23.3067 6.26668 23.2267 6.66668C22.7734 8.94668 20.76 10.6667 18.3334 10.6667H13.6667C12.3334 10.6667 11.08 10.1467 10.1334 9.20001C9.44004 8.50668 8.96004 7.62668 8.77337 6.68001C8.69337 6.28001 8.29337 5.96001 7.90671 6.12001C6.36004 6.74668 5.33337 8.16001 5.33337 11V24C5.33337 28 7.72004 29.3333 10.6667 29.3333H21.3334C24.28 29.3333 26.6667 28 26.6667 24V11C26.6667 8.82668 26.0667 7.49335 25.1067 6.70668ZM10.6667 16.3333H16C16.5467 16.3333 17 16.7867 17 17.3333C17 17.88 16.5467 18.3333 16 18.3333H10.6667C10.12 18.3333 9.66671 17.88 9.66671 17.3333C9.66671 16.7867 10.12 16.3333 10.6667 16.3333ZM21.3334 23.6667H10.6667C10.12 23.6667 9.66671 23.2133 9.66671 22.6667C9.66671 22.12 10.12 21.6667 10.6667 21.6667H21.3334C21.88 21.6667 22.3334 22.12 22.3334 22.6667C22.3334 23.2133 21.88 23.6667 21.3334 23.6667Z" fill="#FF9E30"/>
</svg>
