<svg width="28" height="26" viewBox="0 0 28 26" fill="none" xmlns="http://www.w3.org/2000/svg">
<path d="M28 3.63135V3.74042C27.7954 3.92772 27.5997 4.12603 27.3817 4.2968C27.2783 4.37833 27.1337 4.44884 27.0058 4.45215C26.3241 4.46757 25.6424 4.45986 24.8906 4.45986C25.2732 5.16938 25.6324 5.83814 26.0038 6.53003C25.5256 6.78454 25.063 7.03023 24.5815 7.28583C24.537 7.22303 24.4914 7.17125 24.4591 7.11175C23.8608 6.00781 23.2681 4.90166 22.6631 3.80212C22.5819 3.65449 22.6186 3.58177 22.7132 3.45728C23.0957 2.95709 23.5706 2.74555 24.2145 2.82267C24.6626 2.87666 25.123 2.83039 25.579 2.82818C25.5935 2.82818 25.6079 2.81276 25.648 2.79183C25.2899 2.12637 24.9318 1.46202 24.5603 0.772333C25.0385 0.51783 25.5089 0.266633 25.9971 0.00662231C26.0516 0.102474 26.1017 0.185104 26.1473 0.269939C26.71 1.30998 27.2716 2.35113 27.8365 3.39007C27.8821 3.47491 27.9433 3.55203 27.9978 3.63245L28 3.63135Z" fill="#FFC481"/>
<path d="M25.2232 25.8281C24.8651 24.8156 24.5192 23.7976 24.1433 22.7928C23.545 21.1909 22.404 20.1575 20.7392 19.7058C19.6149 19.4006 18.4873 19.1108 17.3641 18.8056C17.2695 18.7803 17.1372 18.6944 17.1216 18.6172C17.0282 18.1578 16.9548 17.694 16.897 17.229C16.8859 17.1409 16.9526 17.0087 17.026 16.9492C18.0135 16.1581 18.653 15.1578 18.8987 13.9216C18.931 13.7597 18.9877 13.6759 19.1412 13.612C19.6739 13.3939 20.0931 13.0303 20.3422 12.5169C20.6358 11.912 20.8894 11.2884 21.1541 10.6704C21.2063 10.547 21.2408 10.4137 21.2686 10.2804C21.5789 8.81614 21.3553 7.40591 20.7782 6.04526C19.0344 1.92805 14.1268 0.282048 10.2779 2.55714C8.07041 3.86161 6.8916 5.85906 6.61914 8.37544C6.49459 9.53007 6.62692 10.6483 7.32865 11.6366C7.36312 11.684 7.36979 11.7534 7.38425 11.814C7.57664 12.6645 8.07152 13.2694 8.87333 13.6341C8.96007 13.6726 9.0546 13.7828 9.07239 13.8731C9.32261 15.1313 9.96206 16.1482 10.9685 16.9492C11.0463 17.012 11.1031 17.1596 11.0908 17.2588C11.0386 17.6885 10.9496 18.1126 10.894 18.5423C10.8729 18.7043 10.8095 18.7704 10.6538 18.8111C9.54392 19.0954 8.43628 19.3884 7.32865 19.6826C5.61159 20.1376 4.4339 21.1854 3.8267 22.8457C3.51643 23.693 3.22062 24.5468 2.91924 25.3973C2.85029 25.5902 2.78357 25.7852 2.70795 26.0011H25.271C25.251 25.9306 25.2387 25.8788 25.2209 25.8292L25.2232 25.8281ZM8.28837 9.4232C8.02481 8.00305 8.74655 5.76211 10.4881 4.38163C12.3263 2.92402 14.8497 2.73893 16.857 3.93652C18.9977 5.21454 19.9519 7.59651 19.7317 9.40667C19.4882 9.28217 19.2568 9.17641 19.04 9.0464C18.9677 9.00343 18.9076 8.90538 18.8854 8.82054C18.3505 6.76359 16.6434 5.5054 14.4938 5.57592C14.3014 5.58253 14.258 5.68168 14.198 5.8194C13.5207 7.38718 12.3975 8.44265 10.6805 8.80732C10.4858 8.84809 10.2834 8.88224 10.0844 8.88004C9.42715 8.87122 8.82106 9.01225 8.28837 9.4232ZM10.6983 13.5514C10.6271 13.1228 10.6871 12.6722 10.6871 12.193C10.3746 12.193 10.1044 12.1985 9.83528 12.1919C9.35153 12.1798 8.97898 11.8041 8.98565 11.3457C8.99232 10.8951 9.35375 10.5315 9.82861 10.5194C12.2296 10.4555 14.0223 9.36701 15.2667 7.35302C15.28 7.33099 15.3001 7.31116 15.3334 7.26929C16.0652 7.43455 16.6123 7.83228 17.0004 8.45477C17.3919 9.08276 17.3452 9.78457 17.3374 10.5194C17.5943 10.5194 17.8356 10.5194 18.0769 10.5194C18.6263 10.5227 19.0155 10.8786 19.0088 11.3678C19.0011 11.8492 18.6196 12.1919 18.0836 12.1952C17.8478 12.1963 17.611 12.1952 17.3385 12.1952C17.3385 12.4585 17.3274 12.7075 17.3407 12.9565C17.4252 14.5309 16.0952 16.1482 14.3959 16.3091C12.5721 16.481 10.993 15.3065 10.6994 13.5547L10.6983 13.5514ZM15.5125 19.037C15.518 19.0833 15.4435 19.1549 15.3901 19.1934C14.6128 19.7575 13.3572 19.7553 12.5966 19.1879C12.5443 19.1494 12.4743 19.0767 12.4809 19.0282C12.5376 18.6194 12.611 18.214 12.6822 17.792C13.5619 18.0102 14.4159 18.0069 15.3101 17.792C15.3801 18.2118 15.4535 18.6238 15.5113 19.037H15.5125ZM20.2421 24.3694V22.8942H18.6152V24.3694H9.36376V22.9008H7.71899V24.3716H5.06C5.42365 22.7675 6.21545 21.5446 7.97922 21.192C8.22832 21.1424 8.47298 21.0642 8.71875 20.9992C9.53613 20.7844 10.3524 20.5651 11.1742 20.3635C11.2777 20.3382 11.4278 20.3668 11.5145 20.4274C13.0392 21.5203 14.9431 21.5203 16.4844 20.4274C16.5712 20.3646 16.7224 20.3337 16.8247 20.3591C18.0146 20.6621 19.2023 20.9728 20.3856 21.2967C21.461 21.5908 22.1916 22.2728 22.5875 23.304C22.7199 23.6478 22.8366 23.9981 22.969 24.3694H20.2433H20.2421Z" fill="#FF9E30"/>
<path d="M6.74921 15.3164C6.50677 15.5478 6.27657 15.778 6.0308 15.9907C5.96519 16.0469 5.85065 16.0678 5.75723 16.0689C5.16449 16.0755 4.57286 16.0722 3.98012 16.0722H3.63093C4.01794 16.7883 4.37269 17.4472 4.74524 18.1369C4.26704 18.3914 3.79886 18.6392 3.30064 18.9037C2.63228 17.6697 1.9717 16.4512 1.29333 15.1974C1.53466 14.9705 1.76375 14.738 2.01285 14.5287C2.08403 14.4681 2.21191 14.4515 2.31311 14.4493C2.90585 14.4416 3.49748 14.446 4.09022 14.4449C4.17919 14.4449 4.26704 14.4372 4.40605 14.4295C4.03128 13.7332 3.67541 13.071 3.30287 12.3803C3.78329 12.1236 4.25036 11.8735 4.74524 11.6101C5.4136 12.8463 6.07418 14.067 6.74921 15.3153V15.3164Z" fill="#FFC481"/>
<path d="M5.43919 3.58176C4.76416 4.83114 4.10803 6.04526 3.43411 7.29243C2.95258 7.03793 2.48439 6.79113 1.98729 6.52892C2.3565 5.84364 2.71793 5.17268 3.10382 4.45434H1.64477C1.01014 4.45434 0.461885 4.1947 0 3.67541C0.655016 2.46349 1.31559 1.24276 1.98729 0C2.46993 0.256706 2.94034 0.506801 3.43189 0.767914C3.0649 1.44879 2.70792 2.11204 2.32203 2.82817C3.04377 2.82817 3.71769 2.81825 4.3905 2.83588C4.53396 2.83919 4.69632 2.91741 4.81309 3.00886C5.03439 3.17963 5.22901 3.38455 5.4403 3.58066L5.43919 3.58176Z" fill="#FFC481"/>
<path d="M26.3163 15.9003C25.8237 16.8148 25.3288 17.7281 24.835 18.6426C24.7928 18.7219 24.7461 18.7979 24.6894 18.8993C24.1967 18.6382 23.733 18.3925 23.2503 18.1369C23.6184 17.4538 23.9765 16.7884 24.358 16.0799C24.2401 16.0744 24.1556 16.0667 24.071 16.0667C23.4694 16.0667 22.8678 16.0766 22.2672 16.059C22.1316 16.0546 21.9781 15.9797 21.868 15.8937C21.6478 15.7208 21.4532 15.5169 21.2508 15.3285C21.2897 15.2426 21.3097 15.1941 21.3353 15.1468C21.967 13.98 22.5986 12.8122 23.2492 11.6113C23.7296 11.8658 24.1967 12.1148 24.6927 12.3781C24.3268 13.0568 23.9709 13.72 23.5917 14.424C23.7274 14.4317 23.8219 14.4394 23.9165 14.4405C24.4714 14.4416 25.0285 14.4505 25.5835 14.4361C25.8103 14.4306 25.9849 14.4791 26.1328 14.6587C26.2985 14.8592 26.5977 15.0223 26.6344 15.236C26.6677 15.4343 26.4364 15.68 26.3163 15.9026V15.9003Z" fill="#FFC481"/>
</svg>
