<svg width="45" height="45" viewBox="0 0 45 45" fill="none" xmlns="http://www.w3.org/2000/svg">
<path d="M22.4717 1.54772e-05C34.8851 -0.0144084 44.9856 10.0546 45 22.4591C45.0144 34.8973 34.9368 44.9964 22.5066 45C10.0932 45.0036 0.00841904 34.9285 3.8147e-06 22.5168C-0.00720978 10.1003 10.0584 0.0144393 22.4717 1.54772e-05ZM8.66748 28.7696C8.8466 31.6303 10.0319 33.9658 12.7223 35.3132C14.0339 35.9695 15.4476 36.2399 16.8974 36.2495C20.6313 36.2748 24.3651 36.2724 28.0978 36.2507C29.4562 36.2435 30.7846 35.9971 32.03 35.431C34.5653 34.2771 35.8444 32.2048 36.2592 29.5328C36.3577 28.8994 36.389 28.2503 36.3914 27.6072C36.4046 24.1131 36.3998 20.6201 36.3962 17.1259C36.3962 15.9167 36.2171 14.734 35.7867 13.6017C34.7373 10.8395 32.6359 9.39234 29.8 8.91996C29.0643 8.79736 28.3094 8.75288 27.5628 8.74928C24.0393 8.73125 20.5159 8.73245 16.9924 8.74567C15.7565 8.75048 14.5412 8.944 13.3847 9.39595C10.5933 10.4861 9.17118 12.6329 8.73721 15.5105C8.63984 16.1595 8.61459 16.823 8.60738 17.4817C8.59055 19.1609 8.60257 20.8401 8.60257 22.5192H8.64224C8.64224 24.6035 8.53765 26.6937 8.66748 28.7696Z" fill="url(#paint0_linear_283_2413)"/>
<path d="M11.1647 17.4252C11.1659 16.9324 11.1959 16.436 11.2572 15.9468C11.5385 13.6822 12.9667 12.0728 15.1738 11.5691C15.7689 11.4333 16.3892 11.3648 16.9999 11.3552C18.8296 11.3287 20.6592 11.3456 22.4889 11.3456V11.3011C22.8484 11.3011 23.209 11.2939 23.5684 11.3023C25.3969 11.342 27.2314 11.3095 29.0526 11.4465C31.1552 11.6052 32.7168 12.6593 33.4116 14.7147C33.6713 15.4816 33.8119 16.3242 33.8228 17.1331C33.866 20.5985 33.8444 24.0626 33.8384 27.5279C33.8372 27.9919 33.8059 28.4571 33.7542 28.9174C33.4525 31.5702 31.6757 33.3648 29.0298 33.5571C27.2975 33.6833 25.5532 33.6917 23.8149 33.6869C21.1918 33.6785 18.5639 33.6917 15.9468 33.5475C13.8407 33.4297 12.2803 32.3371 11.5878 30.2841C11.3198 29.4896 11.1899 28.6157 11.1791 27.7755C11.1346 24.3258 11.1563 20.8749 11.1647 17.4252ZM22.5286 29.8129C26.6231 29.7744 29.8581 26.493 29.8124 22.4255C29.7679 18.3495 26.4656 15.133 22.3819 15.1871C18.3607 15.2388 15.1558 18.5298 15.1871 22.5745C15.2171 26.6 18.5146 29.8514 22.5286 29.8129ZM15.1173 16.6764C15.9336 16.6872 16.5816 16.0706 16.6056 15.2604C16.6296 14.4431 15.9709 13.7676 15.1486 13.7664C14.3444 13.7652 13.6928 14.4046 13.682 15.2076C13.6712 16.0069 14.3167 16.6668 15.1173 16.6764Z" fill="url(#paint1_linear_283_2413)"/>
<path d="M17.7837 22.5637C17.8402 25.1984 19.9668 27.2671 22.5634 27.2154C25.1913 27.1637 27.2735 25.0241 27.2182 22.4363C27.1605 19.8027 25.0327 17.7329 22.436 17.7834C19.8045 17.8351 17.7272 19.9686 17.7837 22.5637Z" fill="url(#paint2_linear_283_2413)"/>
<defs>
<linearGradient id="paint0_linear_283_2413" x1="0.921828" y1="3.55909e-06" x2="45.5625" y2="50.0625" gradientUnits="userSpaceOnUse">
<stop stop-color="#FFBB00"/>
<stop offset="0.504808" stop-color="#E22395"/>
<stop offset="1" stop-color="#370A9F"/>
</linearGradient>
<linearGradient id="paint1_linear_283_2413" x1="11.6169" y1="11.2982" x2="33.7912" y2="36.5072" gradientUnits="userSpaceOnUse">
<stop stop-color="#FFBB00"/>
<stop offset="0.504808" stop-color="#E22395"/>
<stop offset="1" stop-color="#370A9F"/>
</linearGradient>
<linearGradient id="paint2_linear_283_2413" x1="17.9759" y1="17.7825" x2="27.3341" y2="28.2804" gradientUnits="userSpaceOnUse">
<stop stop-color="#FFBB00"/>
<stop offset="0.504808" stop-color="#E22395"/>
<stop offset="1" stop-color="#370A9F"/>
</linearGradient>
</defs>
</svg>
