<svg width="25" height="24" viewBox="0 0 25 24" fill="none" xmlns="http://www.w3.org/2000/svg">
<path d="M24.5506 22.8078C24.3899 20.0976 23.1318 18.0371 20.7763 16.6294C20.6507 16.5547 20.5326 16.4328 20.4634 16.3045C19.9185 15.3016 19.4054 14.2808 18.8477 13.2852C17.4214 10.7411 15.2874 9.05586 12.4413 8.30208C10.2465 7.72072 8.52332 6.5254 7.30781 4.63727C6.20832 2.93207 4.73523 1.6537 2.91197 0.752738C2.56605 0.581377 2.22438 0.402657 1.87953 0.228142C1.31967 -0.0546558 0.949271 -0.076733 0.631025 0.20186C0.381962 0.419478 0.253174 0.742225 0.253174 1.07128V23.0171C0.253174 23.2483 0.323422 23.4786 0.473498 23.6552C0.51288 23.7014 0.555455 23.7435 0.602287 23.7824C0.781101 23.9306 1.0142 24 1.24729 24H23.4873C23.7598 24 24.029 23.9212 24.243 23.754C24.5048 23.549 24.5783 23.2904 24.5506 22.8089V22.8078ZM2.16372 2.4695C2.54582 2.69553 2.9109 2.89107 3.25469 3.1192C4.24136 3.77206 5.02793 4.61835 5.66868 5.60236C6.66387 7.12884 7.94856 8.34834 9.57704 9.20515C10.3413 9.60674 11.1491 9.89059 11.9804 10.1187C14.3263 10.7642 16.0697 12.1593 17.2299 14.2692C17.4885 14.7402 17.7344 15.2196 18.0047 15.7316C15.4098 15.4919 13.0809 16.0953 10.9692 17.483C9.76437 12.9646 6.84481 10.3374 2.16159 9.59202V2.4695H2.16372ZM22.557 22.1171H2.16797V11.5106C2.48835 11.5716 2.80447 11.6168 3.1142 11.6915C6.46377 12.4936 8.93736 15.3826 9.18642 18.7803C9.20132 18.9906 9.2109 19.2009 9.22155 19.4111C9.24177 19.8117 9.444 20.0945 9.81546 20.2374C10.1944 20.3825 10.5477 20.3173 10.8426 20.0272C11.9708 18.9117 13.3098 18.159 14.8606 17.7963C16.307 17.4578 17.7652 17.379 19.1723 17.9551C21.0158 18.7088 22.127 20.086 22.557 22.0057C22.5634 22.0351 22.557 22.0677 22.557 22.1161V22.1171Z" fill="#FF9E30"/>
<path d="M13.3502 1.80768e-05C11.2864 -0.00628969 9.60577 1.63899 9.593 3.6785C9.58023 5.72852 11.2566 7.40113 13.3257 7.40534C15.397 7.40954 17.0904 5.74324 17.0904 3.70163C17.0915 1.67052 15.4098 0.00527455 13.3502 1.80768e-05ZM13.346 5.52983C12.322 5.53298 11.4929 4.71718 11.4929 3.70478C11.4929 2.69133 12.3178 1.87448 13.3417 1.87553C14.3592 1.87553 15.199 2.71026 15.1905 3.71214C15.182 4.71087 14.3539 5.52667 13.346 5.52983Z" fill="#FFC481"/>
<path d="M21.7481 5.53083C20.1973 5.52663 18.918 6.78923 18.9222 8.31676C18.9265 9.83588 20.1941 11.0901 21.7343 11.0964C23.2787 11.1027 24.5591 9.83799 24.557 8.30625C24.5549 6.78398 23.2904 5.53399 21.7481 5.53083ZM21.746 9.21983C21.2468 9.22403 20.82 8.80456 20.8221 8.31046C20.8232 7.81214 21.2425 7.40319 21.7492 7.40634C22.2548 7.4095 22.6656 7.82476 22.6592 8.32412C22.6528 8.81192 22.2409 9.21562 21.7471 9.21877L21.746 9.21983Z" fill="#FF9E30"/>
<path d="M23.6405 15.6832C23.6437 16.192 23.2095 16.623 22.6932 16.6262C22.1717 16.6293 21.7481 16.2109 21.7459 15.6905C21.7449 15.1659 22.1557 14.7559 22.6868 14.7549C23.2137 14.7528 23.6384 15.167 23.6416 15.6832H23.6405Z" fill="#FFC481"/>
</svg>
