<svg width="340" height="337" viewBox="0 0 340 337" fill="none" xmlns="http://www.w3.org/2000/svg">
<g clip-path="url(#clip0_313_2692)">
<path d="M286.513 214.376C285.477 217.772 285.255 221.428 285.777 224.935C286.884 232.336 292.459 238.204 293.669 245.494C293.519 246.37 293.337 247.255 293.1 248.132C293.1 248.147 293.1 248.163 293.084 248.179C293.084 248.179 293.084 248.195 293.084 248.203C293.084 248.203 293.084 248.219 293.084 248.226C293.084 248.266 293.123 248.29 293.147 248.305C293.203 248.203 293.242 248.1 293.29 248.005C293.377 247.824 293.463 247.642 293.535 247.452C293.653 247.192 293.748 246.931 293.851 246.663C293.883 246.678 293.914 246.544 293.914 246.513C296.634 239.025 294.136 230.724 292.87 223.127C292.143 218.783 292.451 214.399 291.803 210.071C291.645 209.037 291.653 207.078 290.166 207.473C288.49 207.923 286.94 212.985 286.521 214.376H286.513Z" fill="#EBEBEB"/>
<path d="M287.612 220.757C287.137 229.761 295.456 237.643 293.527 246.639C293.464 246.892 293.408 247.144 293.337 247.397C293.29 247.571 293.242 247.745 293.187 247.918C293.163 247.997 293.139 248.061 293.116 248.14C293.116 248.155 293.116 248.171 293.1 248.187C293.1 248.187 293.1 248.203 293.1 248.211C293.1 248.211 293.1 248.226 293.1 248.234C293.1 248.274 293.139 248.297 293.163 248.313C293.179 248.313 293.187 248.313 293.195 248.313C293.226 248.313 293.25 248.297 293.266 248.258C293.369 247.989 293.464 247.721 293.543 247.452C293.756 246.789 293.906 246.126 294.001 245.462C294.871 241.505 294.658 237.564 293.819 233.402C292.791 228.292 291.487 223.34 290.554 218.167C290.435 217.527 290.435 215.015 289.407 215.347C288.11 215.773 287.667 219.722 287.612 220.765V220.757ZM288.055 219.414C288.134 218.909 288.79 215.521 289.628 215.876C290.127 216.081 290.19 218.648 290.269 219.012C290.569 220.41 290.87 221.792 291.17 223.182C291.811 226.112 292.467 229.034 293.1 231.956C293.875 235.574 294.365 239.191 294.104 242.785C293.638 234.902 286.742 227.589 288.055 219.414Z" fill="white"/>
<path d="M284.354 300.835C284.354 300.953 284.457 301.119 284.615 301.017C291.447 296.625 299.964 300.203 307.041 296.278C309.88 294.698 312.339 292.487 314.633 290.22C316.325 288.546 318.025 286.769 319.259 284.723C319.425 284.447 320.295 283.333 320.152 282.78C319.069 278.571 308.125 285.687 306.298 286.698C299.141 290.599 292.594 294.153 286.331 299.153C285.675 299.666 285.026 300.203 284.378 300.756C284.354 300.772 284.354 300.803 284.362 300.843L284.354 300.835Z" fill="#EBEBEB"/>
<path d="M284.354 300.835C284.607 300.677 284.852 300.519 285.097 300.369C289.794 298.118 295.021 297.32 300.066 296.041C305.159 294.738 309.516 292.613 313.296 288.925C313.96 288.269 316.736 285.773 315.921 284.518C315.186 283.388 312.395 285.568 311.715 285.955C306.63 288.798 301.664 291.681 296.366 294.13C292.973 295.693 289.549 297.257 286.323 299.153C285.667 299.666 285.018 300.203 284.37 300.756C284.346 300.772 284.346 300.803 284.354 300.843V300.835ZM287.541 298.932C291.281 296.846 295.203 295.101 299.094 293.261C301.767 291.997 304.376 290.631 306.938 289.154C308.338 288.34 309.73 287.511 311.137 286.705C311.849 286.303 312.553 285.908 313.264 285.529C313.62 285.331 314.791 284.66 315.091 285.197C315.898 286.658 308.053 294.098 298.319 296.017C294.666 296.736 290.973 297.549 287.541 298.924V298.932Z" fill="white"/>
<path d="M295.717 287.922C295.717 287.922 295.701 287.993 295.725 288.017C295.748 288.04 295.788 288.048 295.827 288.017C295.97 287.874 296.112 287.74 296.254 287.606C296.768 287.1 297.267 286.579 297.757 286.058C297.844 285.955 297.939 285.868 298.026 285.774C298.057 285.774 298.081 285.766 298.105 285.742C303.561 280.166 311.833 278.468 316.482 272.007C318.554 269.132 319.867 265.799 320.863 262.419C321.29 260.958 323.394 256.496 321.551 255.342C320.12 254.442 317.874 256.401 316.941 257.23C313.968 259.868 311.864 263.549 309.792 266.897C307.76 270.167 305.918 273.54 303.988 276.857C302.193 279.937 300.105 282.685 297.883 285.379C297.18 286.232 296.46 287.085 295.725 287.938L295.717 287.922Z" fill="#EBEBEB"/>
<path d="M295.717 287.922C295.717 287.922 295.701 287.993 295.725 288.017C296.176 287.551 296.618 287.085 297.069 286.619C296.792 286.942 296.516 287.274 296.247 287.598C296.761 287.093 297.259 286.571 297.749 286.05C297.986 285.774 298.232 285.497 298.477 285.221C301.6 282.188 304.977 279.431 308.535 276.896C310.307 275.632 311.809 274.203 313.066 272.402C315.352 269.125 318.902 261.424 318.214 260.255C317.487 259.015 316.103 261.55 315.708 262.087C312.529 266.416 309.951 271.115 306.535 275.277C304.234 278.073 301.909 280.853 299.584 283.625C298.999 284.194 298.421 284.77 297.868 285.363C297.164 286.216 296.444 287.069 295.709 287.922H295.717ZM317.7 260.532C318.301 260.784 317.384 262.854 317.147 263.398C315.992 266.029 314.727 268.69 313.312 271.202C311.809 273.863 309.658 275.625 307.191 277.354C305.167 278.776 303.182 280.348 301.292 282.038C303.601 279.424 305.886 276.793 308.021 274.053C309.793 271.77 311.327 269.346 312.892 266.921C313.675 265.713 314.45 264.504 315.281 263.327C315.502 263.004 317.155 260.31 317.7 260.539" fill="white"/>
<path d="M255.048 322.31C255.048 322.31 255.071 322.373 255.103 322.373C255.135 322.373 255.166 322.365 255.174 322.318C255.206 322.144 255.245 321.978 255.277 321.796C255.404 321.164 255.506 320.533 255.601 319.901C255.617 319.782 255.641 319.672 255.649 319.553C255.672 319.53 255.68 319.514 255.688 319.49C256.89 312.643 262.117 307.224 262.275 300.124C262.347 296.965 261.635 293.853 260.654 290.86C260.227 289.572 259.523 285.229 257.586 285.308C256.076 285.371 255.411 287.938 255.143 289.02C254.289 292.455 254.597 296.23 254.763 299.729C254.921 303.157 255.261 306.569 255.514 309.981C255.752 313.148 255.601 316.22 255.324 319.332C255.238 320.312 255.135 321.307 255.032 322.302L255.048 322.31Z" fill="#EBEBEB"/>
<path d="M255.048 322.31C255.048 322.31 255.072 322.373 255.103 322.373C255.198 321.804 255.293 321.236 255.388 320.667C255.348 321.046 255.309 321.425 255.277 321.796C255.404 321.164 255.507 320.533 255.601 319.901C255.641 319.577 255.673 319.253 255.712 318.921C256.487 315.115 257.578 311.387 258.907 307.73C259.571 305.906 259.959 304.097 259.974 302.138C260.006 298.576 258.725 291.12 257.634 290.607C256.471 290.054 256.732 292.621 256.716 293.213C256.566 298 257.041 302.754 256.629 307.54C256.353 310.755 256.036 313.969 255.728 317.192C255.586 317.903 255.451 318.621 255.34 319.332C255.253 320.312 255.151 321.307 255.048 322.302V322.31ZM256.179 315.17C256.558 312.082 256.906 308.994 257.096 305.906C257.246 303.339 257.151 300.772 257.08 298.205C257.041 296.918 257.009 295.638 257.025 294.359C257.025 294.011 256.882 291.192 257.396 291.089C257.966 290.97 258.337 292.953 258.44 293.474C258.915 295.994 259.334 298.584 259.555 301.151C259.792 303.868 259.097 306.245 258.156 308.757C257.381 310.818 256.716 312.982 256.179 315.17Z" fill="white"/>
<path d="M254.257 327.988C254.375 327.988 254.557 327.941 254.786 327.807C261.769 325.137 269.416 325.019 276.438 322.349C279.506 321.18 282.408 319.466 284.599 316.979C285.532 315.92 288.782 312.256 288.062 310.565C285.927 305.463 262.346 321.536 254.597 327.317C254.439 327.396 254.32 327.475 254.241 327.562C254.004 327.783 254.043 327.98 254.257 327.996V327.988Z" fill="#EBEBEB"/>
<path d="M254.257 327.988C254.778 327.704 255.292 327.412 255.822 327.135C257.522 326.456 259.231 325.809 260.978 325.256C263.746 324.387 266.593 323.866 269.408 323.163C273.804 322.057 277.861 319.964 281.19 316.876C281.918 316.212 284.069 314.435 283.602 313.195C283.175 312.066 281.412 313.18 280.787 313.472C271.922 317.697 263.295 322.555 254.699 327.325C254.541 327.404 254.391 327.475 254.249 327.554C254.011 327.775 254.051 327.973 254.264 327.988H254.257ZM258.369 325.737C261.737 323.905 265.106 322.089 268.475 320.288C271.124 318.874 273.765 317.476 276.422 316.086C277.735 315.399 279.039 314.696 280.36 314.033C280.882 313.772 282.898 312.745 283.088 313.472C283.27 314.143 281.886 315.557 281.633 315.818C277.648 319.909 272.539 322.017 267.067 323.234C264.11 323.889 261.184 324.679 258.361 325.737H258.369Z" fill="white"/>
<path d="M287.73 269.03C287.675 269.125 287.667 269.219 287.699 269.298C287.738 269.417 287.865 269.504 287.999 269.512C288.062 269.527 288.134 269.512 288.205 269.496C288.244 269.496 288.284 269.496 288.323 269.456C291.621 266.234 296.658 263.233 300.051 260.144C302.652 257.767 304.795 254.932 306.598 251.899C308.591 248.55 310.307 244.917 311.422 241.173C311.952 239.389 313.494 235.171 312.039 233.41C309.057 229.792 303.024 242.943 302.162 244.412C297.314 252.602 292.483 260.792 287.722 269.03H287.73Z" fill="#EBEBEB"/>
<path d="M287.699 269.298C287.738 269.417 287.865 269.504 287.999 269.512C288.197 269.235 288.387 268.951 288.584 268.674C289.873 267.158 291.162 265.649 292.546 264.204C294.784 261.85 297.346 259.813 299.505 257.388C303.269 253.163 310.331 239.704 308.298 238.362C307.239 237.659 305.934 240.431 305.546 241.087C304.028 243.677 302.85 246.441 301.292 249.024C299.671 251.733 297.892 254.339 296.113 256.946C293.376 260.958 290.617 264.962 287.928 269.006C287.849 269.101 287.778 269.196 287.699 269.29V269.298ZM290.403 266.036C292.839 262.49 295.243 258.92 297.655 255.358C299.315 252.894 300.96 250.406 302.447 247.832C303.269 246.386 304.012 244.901 304.756 243.409C305.119 242.69 305.483 241.955 305.894 241.252C306.25 240.652 307.571 238.133 308.164 239.057C308.733 239.941 306.97 243.922 306.551 244.846C305.863 246.347 305.159 247.832 304.392 249.293C302.889 252.168 301.158 254.948 298.975 257.372C296.793 259.781 294.246 261.819 292.04 264.212C291.487 264.812 290.933 265.42 290.395 266.044L290.403 266.036Z" fill="white"/>
<path d="M248.176 275.585C254.241 282.172 264.039 284.004 267.605 295.543C267.613 295.591 267.668 295.591 267.692 295.559C267.708 295.559 267.716 295.535 267.708 295.52C267.487 294.359 267.226 293.198 266.909 292.045C265.264 285.845 262.362 279.818 258.519 274.74C256.194 271.691 253.45 268.935 250.327 266.724C248.729 265.594 245.266 262.711 243.273 263.154C238.963 264.117 247.069 274.392 248.176 275.593V275.585Z" fill="#EBEBEB"/>
<path d="M248.54 271.526C250.983 276.312 255.831 279.416 259.539 283.143C262.094 285.71 264.418 288.522 266.253 291.626C266.759 292.921 267.234 294.224 267.692 295.559C267.708 295.559 267.716 295.535 267.708 295.52C267.487 294.359 267.226 293.198 266.909 292.045C266.87 291.981 266.838 291.918 266.807 291.863C265.518 288.317 263.73 284.913 261.769 281.793C259.01 277.402 255.633 273.389 251.766 269.938C251.102 269.338 248.896 266.724 247.749 267.395C246.65 268.035 248.2 270.87 248.54 271.533V271.526ZM248.129 267.806C248.967 267.49 252.857 271.352 254.384 272.931C257.673 276.32 260.52 280.134 262.837 284.241C263.857 286.042 264.719 287.874 265.502 289.746C264.197 287.803 262.718 285.979 261.113 284.257C257.768 280.679 253.585 277.812 250.548 273.966C249.757 272.963 249.062 271.873 248.54 270.696C248.334 270.23 247.369 268.09 248.129 267.806Z" fill="white"/>
<path d="M255.704 239.641C255.308 242.848 255.269 246.118 255.641 249.332C256.352 255.619 258.559 261.503 261.983 266.803C262.046 266.897 262.101 266.992 262.164 267.087C262.22 267.395 262.275 267.703 262.354 268.003C262.37 268.074 262.378 268.137 262.402 268.208C262.402 268.224 262.41 268.232 262.418 268.256C262.465 268.303 262.56 268.287 262.552 268.193C262.552 267.813 262.552 267.434 262.568 267.055C262.686 259.252 264.134 251.615 263.09 243.804C262.852 242.098 261.745 230.93 257.839 232.841C256.02 233.726 255.902 238.006 255.704 239.641Z" fill="#EBEBEB"/>
<path d="M257.262 241.213C256.993 246.023 258.258 251.18 259.247 255.864C260.014 259.505 260.836 263.225 261.983 266.803C262.07 267.095 262.172 267.395 262.267 267.679C262.291 267.782 262.323 267.892 262.354 268.003C262.37 268.09 262.386 268.169 262.418 268.256C262.465 268.303 262.56 268.287 262.552 268.193C262.552 267.813 262.552 267.434 262.568 267.055C262.489 266.771 262.41 266.487 262.331 266.194C261.761 261.953 261.817 257.688 261.848 253.384C261.864 251.062 261.832 248.748 261.627 246.434C261.429 244.206 261.326 241.813 260.63 239.673C260.33 238.741 259.697 236.893 258.385 237.58C257.278 238.156 257.309 240.186 257.246 241.205L257.262 241.213ZM260.132 239.594C260.955 242.121 261.081 245.091 261.263 247.729C261.445 250.256 261.413 252.799 261.39 255.335C261.366 258.02 261.334 260.753 261.579 263.438C260.654 260.058 259.761 256.669 259.104 253.194C258.59 250.477 258.132 247.753 257.815 245.004C257.649 243.59 257.546 242.169 257.673 240.739C257.713 240.234 257.768 239.728 257.879 239.238C258.219 237.675 259.761 238.449 260.132 239.586V239.594Z" fill="white"/>
<path d="M303.664 219.375C303.633 219.501 303.617 219.62 303.585 219.746C303.546 219.944 303.727 220.038 303.878 220.007C303.957 219.983 304.02 219.928 304.044 219.833C304.099 219.612 304.147 219.383 304.202 219.154C304.241 218.964 304.289 218.783 304.328 218.601C304.494 218.301 304.676 218.001 304.874 217.716C306.946 214.589 310.536 211.935 312.972 209.266C315.194 206.841 317.289 204.29 318.989 201.462C320.705 198.603 322.05 195.484 322.477 192.151C322.587 191.258 323.014 188.991 321.891 188.431C320.476 187.72 318.317 190.429 317.55 191.132C314.917 193.588 312.679 196.447 310.797 199.512C307.009 205.664 305.072 212.369 303.664 219.383V219.375Z" fill="#EBEBEB"/>
<path d="M304.297 217.827C304.06 218.332 303.838 218.854 303.664 219.383C303.633 219.509 303.617 219.628 303.585 219.754C303.546 219.952 303.727 220.046 303.878 220.015C303.901 219.928 303.933 219.833 303.965 219.746C304.044 219.549 304.123 219.351 304.202 219.154C304.407 218.664 304.637 218.19 304.874 217.716C305.712 216.05 306.724 214.486 307.911 212.891C309.895 210.237 311.983 207.662 313.873 204.937C314.822 203.571 322.097 193.051 319.234 192.048C318.697 191.85 318.175 192.577 317.89 192.869C316.878 193.92 316.056 195.168 315.273 196.392C313.446 199.243 311.73 202.165 310.101 205.135C307.871 209.226 305.886 213.444 304.289 217.819L304.297 217.827ZM309.5 206.967C310.892 204.337 312.363 201.755 313.905 199.211C314.656 197.971 315.407 196.724 316.222 195.523C316.625 194.931 318.673 192.261 319.234 192.609C320.057 193.122 318.104 197.276 317.511 198.398C316.83 199.677 316.095 200.917 315.32 202.134C313.762 204.59 312.046 206.944 310.275 209.25C308.717 211.295 306.851 213.467 305.396 215.821C306.598 212.796 307.982 209.85 309.492 206.959L309.5 206.967Z" fill="white"/>
<path d="M278.644 255.982C278.684 256.109 278.724 256.219 278.763 256.346C278.826 256.535 279.032 256.527 279.143 256.425C279.206 256.369 279.23 256.282 279.198 256.188C279.127 255.966 279.064 255.745 278.992 255.524C278.937 255.335 278.882 255.161 278.826 254.979C278.826 254.632 278.826 254.284 278.85 253.937C279.064 250.193 280.843 246.102 281.61 242.571C282.314 239.357 282.843 236.103 282.891 232.802C282.938 229.469 282.535 226.088 281.23 223C280.874 222.171 280.107 219.999 278.858 220.078C277.276 220.173 276.77 223.6 276.462 224.596C275.426 228.039 274.92 231.633 274.825 235.226C274.635 242.445 276.328 249.222 278.637 255.99L278.644 255.982Z" fill="#EBEBEB"/>
<path d="M278.415 254.324C278.463 254.884 278.534 255.445 278.652 255.982C278.692 256.109 278.731 256.219 278.771 256.346C278.834 256.535 279.04 256.527 279.151 256.425C279.127 256.33 279.103 256.243 279.087 256.148C279.064 255.935 279.024 255.729 279 255.516C278.937 254.987 278.89 254.466 278.858 253.937C278.747 252.081 278.834 250.217 279.064 248.242C279.451 244.957 279.957 241.679 280.226 238.37C280.36 236.711 281.373 223.964 278.391 224.532C277.83 224.635 277.743 225.52 277.64 225.922C277.292 227.336 277.205 228.829 277.15 230.282C277.008 233.662 276.984 237.059 277.071 240.439C277.197 245.099 277.601 249.743 278.415 254.324ZM277.458 242.319C277.34 239.341 277.316 236.371 277.371 233.402C277.395 231.956 277.419 230.495 277.522 229.05C277.569 228.331 278.004 224.998 278.66 225.022C279.633 225.054 280.028 229.627 280.084 230.89C280.139 232.336 280.123 233.781 280.068 235.218C279.957 238.125 279.649 241.016 279.285 243.898C278.969 246.449 278.447 249.261 278.368 252.025C277.893 248.803 277.601 245.565 277.458 242.311V242.319Z" fill="white"/>
<path d="M261.603 261.219C262.647 267.995 263.928 274.622 265.715 281.24C267.099 286.342 268.491 291.523 268.689 296.831C268.926 303.181 267.083 310.226 263.857 316.315C265.723 314.238 267.566 312.129 269.392 309.981C273.109 305.629 276.802 301.151 279.443 296.041C279.704 295.535 279.941 295.022 280.178 294.509C280.155 294.477 280.147 294.438 280.155 294.382C281.673 287.456 282.045 280.679 281.491 273.824C280.329 270.207 278.897 266.96 277.007 263.533C275.141 260.152 273.354 256.859 272.366 253.099C272.31 252.886 272.611 252.76 272.698 252.973C274.596 257.949 278.502 262.79 280.795 267.948C280.661 267.095 280.526 266.25 280.368 265.389C278.874 257.222 276.043 249.024 279.032 240.858C279.135 240.581 279.522 240.771 279.435 241.039C276.62 250.13 281.048 260.145 282.361 269.18C283.342 275.901 283.666 283.136 282.037 289.833C283.294 286.153 284.18 282.338 285.034 278.539C290.174 255.627 296.128 232.841 307.278 212.014C307.389 211.809 307.713 211.951 307.61 212.164C296.192 234.76 291.668 259.323 285.722 283.673C285.651 283.949 285.579 284.226 285.508 284.502C287.485 281.287 290.103 278.349 292.681 275.846C292.815 275.719 293.021 275.877 292.902 276.027C289.636 280.213 287.137 284.794 284.188 289.162C283.104 292.566 281.752 295.859 279.925 298.971C277.743 302.675 275.094 306.056 272.334 309.341C276.992 305.44 281.689 301.593 286.07 297.344C292.681 290.931 298.991 284.123 304.7 276.88C304.779 276.778 304.937 276.904 304.858 277.015C299.228 284.849 293.179 292.289 286.323 299.097C280.526 304.855 274.311 310.723 267.352 315.146C260.702 322.791 253.593 330.476 245.179 336.076C244.776 336.344 244.404 335.792 244.752 335.476C246.294 334.109 247.804 332.711 249.299 331.306C250.754 328.067 252.762 325.098 254.051 321.741C255.57 317.792 256.59 313.74 257.135 309.554C257.175 309.246 257.626 309.325 257.61 309.626C257.262 315.328 255.981 322.349 252.928 327.799C255.056 325.698 257.143 323.565 259.183 321.386C264.648 313.053 268.206 303.149 267.012 293.174C266.395 288.048 264.924 283.096 263.722 278.097C262.378 272.521 261.69 266.953 261.208 261.25C261.184 261.005 261.548 260.966 261.587 261.211L261.603 261.219Z" fill="#EBEBEB"/>
<path d="M76.0484 228.908C77.2267 232.154 76.9894 236.15 76.8392 239.539C76.681 243.417 76.1828 247.263 75.487 251.078C74.8464 254.632 74.024 258.146 73.1463 261.645C73.1384 261.677 73.1305 261.708 73.1146 261.74C73.0593 261.969 73.0039 262.198 72.9407 262.427C72.909 262.711 72.8695 262.996 72.8221 263.288C72.8062 263.375 72.743 263.422 72.6718 263.43C72.5769 263.446 72.482 263.391 72.4899 263.272C72.5058 263.114 72.5216 262.956 72.5374 262.806C73.1067 256.243 69.3189 250.256 69.0896 243.756C68.9631 240.194 69.825 236.624 70.4893 233.141C70.853 231.214 70.9479 228.718 71.6992 226.91C71.8969 226.428 71.9443 225.907 72.482 225.654C74.1427 224.872 75.6372 227.778 76.0484 228.908Z" fill="#EBEBEB"/>
<path d="M74.4907 231.34C73.4548 230.495 72.8538 232.849 72.6482 233.489C71.296 237.825 70.5369 242.982 71.3118 247.468C72.1501 252.397 73.0515 257.333 72.6799 262.324C72.6324 262.49 72.585 262.648 72.5375 262.814C72.5296 262.964 72.5059 263.122 72.4901 263.28C72.4743 263.406 72.5771 263.454 72.672 263.438C72.6878 263.335 72.7036 263.241 72.7194 263.146C72.8618 262.68 72.9962 262.214 73.1148 261.748C73.1227 261.716 73.1306 261.685 73.1464 261.653C74.0084 258.312 74.3958 254.805 74.8782 251.425C75.5504 246.639 76.0327 241.782 75.6453 236.956C75.5583 235.787 75.4159 234.626 75.2103 233.473C75.1075 232.896 74.9968 231.759 74.4907 231.348V231.34ZM75.068 234.263C75.2578 235.479 75.3764 236.711 75.4397 237.943C75.669 242.192 75.2736 246.449 74.6963 250.659C74.2061 254.253 73.8107 257.996 72.8855 261.55C73.1148 258.715 72.925 255.864 72.5217 253.02C72.2212 250.888 71.7784 248.795 71.4621 246.663C71.0983 244.262 71.3593 241.892 71.7151 239.499C72.0394 237.311 72.3319 234.934 73.1543 232.865C73.3204 232.446 73.8028 231.506 74.1665 231.57C74.815 231.688 74.9889 233.773 75.0601 234.255L75.068 234.263Z" fill="white"/>
<path d="M46.5443 279.028C46.5443 279.028 46.5443 279.005 46.5288 279.013L46.5443 279.028Z" fill="#EBEBEB"/>
<path d="M72.8458 324.355C72.9249 324.411 72.9407 324.482 72.917 324.545C72.9012 324.616 72.8537 324.671 72.7826 324.687C72.743 324.687 72.6877 324.687 72.6481 324.671C68.631 322.641 64.7879 319.411 60.1302 319.174C56.4848 318.985 53.3533 319.435 49.8977 317.942C46.4103 316.441 43.1998 314.104 40.6377 311.308C39.4595 310.028 38.4077 308.622 37.4825 307.146C37.0397 306.435 35.6005 304.666 35.8061 303.749C36.7471 299.484 49.4232 307.074 51.1075 308.101C58.5645 312.635 66.1559 317.729 72.3793 323.881C72.3951 323.905 72.403 323.929 72.3951 323.952C72.3951 323.984 72.3793 324.008 72.3476 324.024C72.5137 324.134 72.6798 324.245 72.8379 324.363L72.8458 324.355Z" fill="#EBEBEB"/>
<path d="M72.8456 324.355C72.6796 324.237 72.5135 324.126 72.3553 324.016C72.3791 324 72.3949 323.968 72.4028 323.945C68.2829 320.825 63.9099 317.982 59.5211 315.257C54.8081 312.335 49.9765 309.333 44.9077 307.051C44.2118 306.735 41.3334 305.013 40.7324 306.135C40.1472 307.209 43.1284 309.807 43.7611 310.376C47.5251 313.732 52.4279 315.273 57.1725 316.663C60.2565 317.571 63.2773 318.432 66.0371 320.13C68.354 321.559 70.497 323.242 72.7982 324.687C72.8614 324.671 72.9168 324.616 72.9326 324.561C71.7544 323.81 70.6156 322.989 69.4848 322.183C70.6394 322.973 71.786 323.763 72.9326 324.553C72.9563 324.482 72.9326 324.411 72.8614 324.363L72.8456 324.355ZM62.4549 318.013C57.8368 316.212 52.8866 315.423 48.4424 313.156C46.3152 312.074 44.3067 310.684 42.7014 308.899C42.393 308.559 40.8906 307.051 41.2306 306.451C41.4599 306.048 42.654 306.419 42.8279 306.482C44.1406 306.964 45.4138 307.556 46.6632 308.188C51.0124 310.4 55.2272 312.903 59.3709 315.47C61.672 316.892 63.9257 318.377 66.1557 319.901C64.9854 319.174 63.7597 318.511 62.4549 318.005V318.013Z" fill="white"/>
<path d="M54.508 236.008C55.0062 239.862 54.2312 243.875 53.1795 247.587C50.7439 256.156 46.0388 264.117 44.5443 272.955C44.481 273.303 44.4336 273.65 44.3861 273.998C44.4652 274.456 44.4019 274.345 44.2596 273.808C43.6112 271.462 41.3733 261.1 42.4013 253.66C43.0418 249.024 44.6471 244.641 46.2523 240.265C47.1696 237.769 48.0632 235.266 49.0042 232.778C49.3047 231.98 49.7317 229.698 50.9416 229.524C53.2823 229.176 54.3261 234.508 54.5238 236.016L54.508 236.008Z" fill="#EBEBEB"/>
<path d="M50.4513 236.782C50.0242 236.569 49.7 236.719 49.4153 237.059C49.0911 237.454 49.0279 238.117 48.9092 238.575C48.672 239.491 48.4348 240.392 48.2055 241.3C46.5765 247.571 44.3939 253.984 43.793 260.46C43.3897 264.749 43.619 269.093 44.2595 273.382C44.2595 273.524 44.2595 273.666 44.2595 273.8C44.4019 274.337 44.4651 274.448 44.386 273.99C44.4335 273.642 44.4888 273.295 44.5442 272.947C44.5442 272.465 44.56 271.984 44.5916 271.502C44.7972 268.153 45.7541 264.939 46.7821 261.764C48.7353 255.73 50.4592 249.585 51.2104 243.274C51.3685 241.876 51.5109 240.423 51.3527 239.025C51.2816 238.386 51.1234 237.122 50.4433 236.782H50.4513ZM51.0206 238.812C51.076 239.128 51.0997 239.428 51.1155 239.744C51.1471 240.407 51.1155 241.087 51.0681 241.75C50.9573 243.361 50.6964 244.957 50.4196 246.552C49.4153 252.239 47.7389 257.672 46.0229 263.169C45.1768 265.886 44.473 268.651 44.2991 271.494C44.0618 269.109 43.9353 266.724 43.9432 264.346C43.9669 258.233 45.675 252.444 47.1854 246.568C47.557 245.115 47.9366 243.654 48.3162 242.208C48.498 241.482 48.6878 240.755 48.8776 240.028L49.1544 238.938C49.3363 238.212 49.2335 237.904 50.048 237.675C51.0522 237.398 50.8941 237.967 51.0364 238.82L51.0206 238.812Z" fill="white"/>
<path d="M60.6205 271.841C61.6801 274.685 62.463 277.639 62.9612 280.632C63.9576 286.642 63.0324 293.593 64.6139 299.587C64.7562 299.974 64.8828 300.377 64.9935 300.78C65.0409 300.93 65.0805 301.08 65.1121 301.23C65.1279 301.317 65.0014 301.356 64.9698 301.277C64.8432 301.025 64.7246 300.772 64.5902 300.519C64.5902 300.519 64.5902 300.511 64.5902 300.503C64.5269 300.369 64.4557 300.235 64.3925 300.101C61.4113 294.272 57.576 288.941 56.3108 282.385C55.5279 278.357 54.2785 267.245 56.9434 266.4C58.1296 266.021 59.98 270.104 60.6363 271.834L60.6205 271.841Z" fill="#EBEBEB"/>
<path d="M58.2009 272.426C57.5604 272.726 57.5841 273.966 57.5445 274.487C57.4417 275.83 57.5683 277.283 57.6948 278.626C57.9241 281.193 58.5014 283.704 59.1973 286.176C60.5337 290.899 62.1943 295.662 64.3847 300.093C64.448 300.227 64.5192 300.361 64.5824 300.495C64.5824 300.495 64.5824 300.503 64.5824 300.511C64.7168 300.764 64.8434 301.017 64.962 301.269C65.0015 301.348 65.128 301.301 65.1043 301.222C65.0648 301.072 65.0332 300.922 64.9857 300.772C63.0246 295.63 62.2022 290.236 61.5221 284.763C61.3719 283.538 60.3755 271.383 58.193 272.418L58.2009 272.426ZM60.1857 277.354C60.3755 278.499 60.5337 279.645 60.6918 280.806C61.0556 283.491 61.3561 286.192 61.7515 288.87C62.1785 291.784 62.732 294.714 63.5781 297.549C62.2259 294.303 60.9528 291.034 59.9248 287.637C59.2605 285.41 58.6595 283.167 58.28 280.877C58.0744 279.637 57.932 278.381 57.8925 277.117C57.8688 276.517 57.6157 273.034 58.3353 272.734C59.2289 272.363 60.1146 276.849 60.1936 277.346L60.1857 277.354Z" fill="white"/>
<path d="M86.0596 259.971C87.5304 261.779 86.8345 265.381 86.0437 267.276C84.905 270.001 82.8253 272.126 80.54 273.927C77.2266 276.549 73.5258 278.563 70.7344 281.801C67.9588 285 68.8524 284.036 66.915 288.143C66.8755 288.222 66.7964 288.222 66.7331 288.159C66.6382 288.064 66.5591 287.835 66.6145 287.503C66.6145 287.472 66.6224 287.432 66.6303 287.393C68.4175 280.648 71.881 275.332 76.4754 270.064C79.085 267.079 80.6586 263.296 83.3709 260.421C84.3752 259.355 85.0474 258.723 86.0596 259.971Z" fill="#EBEBEB"/>
<path d="M84.5019 263.525C83.5055 263.051 82.2561 265.073 81.75 265.8C80.2791 267.908 78.8399 270.009 77.0053 271.826C75.3843 273.421 73.7711 274.977 72.3714 276.77C70.2443 279.51 68.5362 282.559 67.3421 285.805C67.0733 286.35 66.836 286.919 66.6225 287.503C66.5751 287.835 66.6462 288.064 66.7411 288.159C66.7649 288.08 66.7886 288.009 66.8123 287.938C68.4334 283.602 71.1932 280.277 74.9968 277.394C78.7846 274.527 82.351 271.344 84.3753 266.953C84.7312 266.171 85.4271 263.967 84.5098 263.525H84.5019ZM84.3437 266.392C84.0195 267.15 83.6399 267.885 83.2208 268.595C82.4538 269.875 81.5444 271.075 80.548 272.189C78.7688 274.163 76.689 275.767 74.5777 277.362C72.0947 279.25 69.9279 281.445 68.3385 283.996C69.5721 281.264 71.122 278.673 73.0357 276.328C74.7437 274.242 76.8314 272.552 78.579 270.522C79.3856 269.583 80.1052 268.58 80.8169 267.577C81.1964 267.032 81.5839 266.479 81.9635 265.942C82.3035 265.46 83.3869 263.738 84.1144 263.88C85.0554 264.054 84.4781 266.1 84.3516 266.4L84.3437 266.392Z" fill="white"/>
<path d="M24.1658 242.943C30.1362 249.68 35.6953 256.764 40.9776 264.046C41.0488 264.141 41.0409 264.252 40.9776 264.323C40.9776 264.346 40.9618 264.362 40.9539 264.37C40.9855 264.417 41.0251 264.465 41.0488 264.512C41.0804 264.567 41.0646 264.623 41.0172 264.654C41.0014 264.654 40.9935 264.662 40.9855 264.67H40.9697C40.9381 264.67 40.8986 264.67 40.8669 264.639C37.1424 260.99 33.6393 257.578 28.95 255.169C24.664 252.965 20.4334 251.133 16.7089 248.005C13.53 245.32 4.51517 232.099 5.9781 228.94C6.96656 226.815 19.3975 237.588 24.1579 242.943H24.1658Z" fill="#EBEBEB"/>
<path d="M16.7722 238.441C15.9972 237.691 13.704 234.729 12.249 235.329C10.786 235.937 13.1188 238.923 13.5458 239.554C15.1432 241.869 16.8354 244.143 18.8598 246.118C20.8763 248.076 23.2644 249.38 25.5972 250.912C31.3224 254.695 36.3754 259.615 40.9777 264.662C40.9777 264.662 40.9856 264.662 40.9935 264.662C41.0093 264.662 41.0172 264.654 41.0251 264.646C41.0647 264.615 41.0884 264.56 41.0568 264.504C41.033 264.457 40.9935 264.409 40.9619 264.362C40.9777 264.346 40.9856 264.33 40.9856 264.315C33.7738 254.948 25.2334 246.647 16.7722 238.433V238.441ZM40.4795 264.03C37.3481 260.516 33.9319 257.175 30.3181 254.158C26.1033 250.635 21.0186 248.369 17.3732 244.183C15.6414 242.192 13.7673 239.941 12.5969 237.564C12.4388 237.24 11.8457 236.166 12.249 235.748C12.6048 235.368 13.6328 235.842 14.9218 237.019C15.9893 237.999 17.0015 239.033 18.0295 240.052C22.102 244.025 26.1507 248.021 30.0651 252.152C33.6868 255.982 37.1583 259.947 40.4795 264.038V264.03Z" fill="white"/>
<path d="M49.02 292.321C49.02 292.321 49.02 292.384 48.9963 292.416C48.9647 292.495 48.8856 292.55 48.7986 292.518C48.6088 292.455 48.419 292.4 48.2293 292.337C48.2134 292.345 48.2055 292.353 48.1818 292.353C43.9117 291.808 40.4402 292.526 36.3282 293.577C33.2679 294.359 30.1443 294.311 27.084 293.561C23.7628 292.755 20.6393 291.184 17.7608 289.359C16.5905 288.609 12.8343 286.927 13.4432 284.873C14.4475 281.493 25.8346 285.892 27.8115 286.532C31.3384 287.669 34.8336 288.688 38.4791 289.383C42.0454 290.07 45.6197 290.662 48.941 292.21C48.9963 292.234 49.02 292.274 49.0121 292.321H49.02Z" fill="#EBEBEB"/>
<path d="M46.7582 291.8V291.792C44.6943 291.318 42.6383 290.765 40.5586 290.402C38.2258 289.991 35.8456 290.046 33.5049 289.644C29.124 288.885 24.9567 287.298 20.6312 286.334C20.0697 286.208 18.9547 285.995 19.2473 286.95C19.3659 287.369 19.9748 287.709 20.2911 287.93C21.248 288.617 22.276 289.209 23.3435 289.715C26.9494 291.436 31.1326 292.692 35.1655 292.511C39.839 292.297 44.3859 291.421 48.9961 292.408C49.0119 292.376 49.0199 292.345 49.0199 292.313C48.2765 292.076 47.5174 291.91 46.7582 291.8ZM36.6364 292.084C31.5913 292.487 26.3326 291.168 21.9359 288.625C21.5247 288.38 20.4335 287.685 20.0539 287.369C19.6901 287.069 19.1682 286.421 20.5442 286.595C20.8684 286.634 21.1847 286.745 21.501 286.824C22.616 287.1 23.731 287.416 24.846 287.732C27.2183 288.404 29.5748 289.114 31.9945 289.62C34.1454 290.078 36.2884 290.26 38.4789 290.394C41.12 290.56 43.7138 291.176 46.2996 291.729C43.1128 291.334 39.8232 291.831 36.6364 292.076V292.084Z" fill="white"/>
<path d="M36.7076 283.072C36.7234 283.136 36.7313 283.207 36.7076 283.27C36.7076 283.309 36.6918 283.333 36.676 283.365C36.6602 283.404 36.6285 283.444 36.5969 283.467C36.589 283.483 36.5811 283.491 36.5653 283.499C36.4862 283.554 36.3834 283.578 36.2648 283.531C35.6243 283.294 35.0154 283.017 34.446 282.709C27.3686 280.016 20.1172 277.165 14.3604 272.173C11.4187 269.622 8.87247 266.652 6.66621 263.454C5.58286 261.89 2.59374 258.597 3.58221 256.401C4.53904 254.268 6.50015 255.619 7.82865 256.511C11.2606 258.818 14.6214 261.266 17.737 263.983C20.8447 266.684 23.5966 269.67 26.0243 272.979C28.9185 276.928 31.6941 281.019 36.4704 282.812C36.6048 282.859 36.676 282.954 36.7076 283.065V283.072Z" fill="#EBEBEB"/>
<path d="M23.6442 273.081C19.6746 268.848 15.2542 264.986 10.7072 261.385C10.122 260.911 8.41398 259.702 8.15303 261.061C7.84463 262.656 10.209 264.544 11.1105 265.491C14.5425 269.101 18.1958 272.529 22.1813 275.53C26.6254 278.886 31.4175 281.596 36.6841 283.373C36.6999 283.341 36.7157 283.309 36.7157 283.278C28.1516 280.103 20.7184 274.543 14.2341 268.2C12.6762 266.668 11.0947 265.128 9.6634 263.47C9.43408 263.201 8.1214 261.416 8.6354 260.934C9.08614 260.508 10.9286 261.969 11.1501 262.151C12.1781 263.004 13.2061 263.857 14.2341 264.725C18.093 267.995 21.6436 271.478 25.1309 275.127C28.4917 278.642 32.2636 281.382 36.7157 283.278C36.7315 283.215 36.7315 283.144 36.7157 283.08C31.5282 280.798 27.519 277.204 23.6442 273.089V273.081Z" fill="white"/>
<path d="M23.6992 209.558C26.0794 212.82 28.1591 216.247 29.2899 220.149C31.0138 226.12 30.911 232.359 31.773 238.472C31.773 238.496 31.773 238.52 31.7809 238.543C32.0102 240.194 32.3186 241.845 32.7535 243.472C32.8405 243.819 32.9354 244.167 33.0461 244.514C33.0698 244.601 33.054 244.68 33.0145 244.728C32.9749 244.767 32.9275 244.791 32.8721 244.799C32.8247 244.807 32.7693 244.814 32.7219 244.799C32.6507 244.767 32.5875 244.72 32.5558 244.633C32.3819 244.143 32.2316 243.653 32.0814 243.156C32.0497 243.148 32.026 243.132 32.0023 243.093C28.3489 235.471 24.2053 227.763 20.0537 220.22C18.2191 216.879 16.5111 213.428 15.3328 209.795C14.629 207.646 13.7829 204.329 15.3486 202.347C15.4435 202.221 15.5938 202.094 15.7678 202.118C19.2234 202.702 21.8092 206.991 23.6992 209.566V209.558Z" fill="#EBEBEB"/>
<path d="M19.8877 210.04C18.235 209.51 18.575 211.461 18.8439 212.448C19.5556 215.063 20.7338 217.63 21.7618 220.149C22.9163 222.992 24.1183 225.82 25.3598 228.631C27.7084 233.931 30.9822 239.207 32.714 244.759C32.714 244.767 32.714 244.775 32.714 244.783C32.7614 244.807 32.8168 244.807 32.8642 244.791C32.9196 244.783 32.967 244.751 33.0066 244.72C32.9196 244.301 32.8326 243.89 32.7535 243.472C32.4214 241.829 32.1051 240.186 31.7809 238.543C31.7809 238.52 31.773 238.496 31.773 238.472C30.2072 230.559 28.4913 222.724 24.3239 215.465C23.3513 213.783 21.9121 210.695 19.8877 210.04ZM24.83 216.958C27.2972 221.555 28.942 226.436 30.0807 231.451C30.9901 235.447 31.599 239.507 32.4372 243.519C31.2906 240.297 29.5984 237.232 28.1512 234.113C25.8738 229.216 23.715 224.256 21.6986 219.249C21.2083 218.048 20.7338 216.84 20.2673 215.623C19.8481 214.549 18.9625 212.875 18.9546 211.698C18.9467 209.424 20.8445 210.964 21.4692 211.643C22.007 212.227 22.434 212.914 22.861 213.586C23.5648 214.684 24.2211 215.813 24.8379 216.966L24.83 216.958Z" fill="white"/>
<path d="M74.1824 250.683C73.1386 258.178 71.7073 265.412 69.6671 272.702C67.8088 279.337 65.8793 285.971 64.9778 292.819C63.7759 301.909 64.5983 311.876 69.2401 319.782C61.4826 310.81 55.4174 300.432 50.9654 289.264C43.4847 270.507 36.7157 251.228 27.6376 233.165C27.4874 232.865 27.0683 233.102 27.1869 233.394C30.9114 243.259 35.2765 252.878 39.088 262.719C42.8679 272.489 46.3789 282.377 50.3328 292.076C50.7598 293.127 51.2105 294.161 51.6692 295.188C45.8728 288.017 37.372 282.725 29.0294 279.66C28.9266 279.621 28.8791 279.779 28.9819 279.826C34.9127 282.433 40.3137 286.129 45.0662 290.504C49.2178 294.327 52.3809 298.758 55.7258 303.236C63.2856 316.671 73.8345 327.815 87.2855 336.131C87.4278 336.218 87.5544 336.005 87.4199 335.918C82.0664 332.324 77.2111 328.217 72.8223 323.684C65.3653 313.819 65.0095 300.653 67.2394 288.688C68.4098 282.409 70.0704 276.256 71.5571 270.049C73.0674 263.762 74.7122 257.206 74.5541 250.699C74.5541 250.469 74.2299 250.462 74.1982 250.683H74.1824Z" fill="#EBEBEB"/>
<path d="M258.179 310.423C255.237 305.534 251.869 300.124 252.818 294.209C253.695 288.743 256.258 282.875 261.659 280.553C263.201 279.89 264.284 279.732 264.529 281.635C264.901 284.541 263.287 287.827 262.362 290.497C261.152 293.956 260.172 297.415 259.626 301.048C259.247 303.576 259.128 306.143 258.812 308.678C258.78 308.994 258.733 309.318 258.685 309.633C258.669 309.752 258.654 309.878 258.638 309.997C258.661 310.044 258.685 310.092 258.709 310.139C258.756 310.234 258.756 310.328 258.709 310.407C258.693 310.439 258.669 310.471 258.646 310.494C258.519 310.605 258.298 310.621 258.179 310.431V310.423Z" fill="#455A64"/>
<path d="M258.646 310.486C256.289 306.064 253.466 301.435 254.502 296.286C254.985 293.901 255.997 291.579 257.199 289.478C257.744 288.514 259.365 285.631 260.694 285.718C263.098 285.876 258.764 295.101 258.48 296.207C257.396 300.361 257.744 304.594 258.812 308.678C258.78 308.994 258.733 309.318 258.685 309.633C257.823 306.782 257.349 303.797 257.452 300.819C257.586 296.681 259.373 293.427 260.583 289.572C260.852 288.735 261.833 286.121 260.338 286.168C259.357 286.2 257.76 288.996 257.412 289.604C256.273 291.602 255.325 293.806 254.842 296.057C253.727 301.246 256.44 305.898 258.709 310.415C258.693 310.447 258.67 310.479 258.646 310.502V310.486Z" fill="white"/>
<path d="M256.661 314.854C256.447 314.917 256.234 314.988 256.012 315.051C256.012 315.051 255.996 315.051 255.989 315.051C255.933 315.067 255.878 315.051 255.838 315.02C255.743 314.949 255.72 314.791 255.791 314.704C255.815 314.672 255.854 314.649 255.91 314.633C255.941 314.633 255.965 314.617 256.004 314.617C256.068 314.601 256.139 314.593 256.202 314.578C256.202 314.578 256.202 314.57 256.21 314.562C256.226 314.546 256.242 314.53 256.257 314.514C259.073 311.805 262.315 309.554 265.106 306.798C267.771 304.168 270.246 301.348 273.117 298.924C274.92 297.399 284.33 290.346 285.548 295.535C286.085 297.834 283.958 300.788 282.653 302.494C280.906 304.784 278.684 306.672 276.248 308.196C270.215 311.963 263.303 312.816 256.653 314.854H256.661Z" fill="#455A64"/>
<path d="M270.143 309.278C272.492 308.046 274.738 306.585 276.659 304.737C277.331 304.105 280.534 301.056 279.743 299.84C279.237 299.05 277.537 299.808 276.968 300.029C274.54 301.001 272.634 303.015 270.673 304.673C266.68 308.07 262.409 311.079 257.981 313.851C257.673 313.969 257.356 314.088 257.048 314.214C256.787 314.309 256.534 314.42 256.273 314.522C256.186 314.562 256.099 314.585 256.012 314.625C255.949 314.649 255.878 314.68 255.807 314.712C255.735 314.799 255.759 314.957 255.854 315.028C256.052 314.949 256.257 314.878 256.455 314.799C256.305 314.893 256.154 314.972 256.004 315.067H256.02C256.202 315.012 256.368 314.957 256.542 314.901C256.581 314.886 256.621 314.878 256.661 314.862C256.914 314.72 257.167 314.57 257.412 314.427C261.698 312.8 266.079 311.403 270.143 309.286V309.278ZM259.017 313.456C261.619 311.853 264.133 310.115 266.577 308.275C268.546 306.79 270.436 305.218 272.294 303.607C273.346 302.691 274.39 301.767 275.584 301.04C276.493 300.488 280.004 298.718 278.858 301.664C278.019 303.797 274.896 305.929 273.085 307.13C271.076 308.472 268.91 309.547 266.695 310.502C264.181 311.584 261.595 312.5 259.025 313.456H259.017Z" fill="white"/>
<path d="M244.451 325.121C244.388 325.042 244.333 324.956 244.325 324.948C242.024 320.256 238.228 314.42 239.145 308.954C239.825 304.918 242.704 299.729 246.934 298.545C251.71 297.218 249.805 305.708 249.417 307.888C248.429 313.44 244.878 325.003 244.728 325.082C244.712 325.114 244.696 325.153 244.681 325.185L244.673 325.2C244.625 325.279 244.53 325.2 244.451 325.121Z" fill="#455A64"/>
<path d="M244.673 325.208C244.689 324.853 244.704 324.505 244.728 324.142C244.949 320.098 245.353 316.054 245.954 312.058C246.104 311.047 247.828 303.386 245.764 303.512C244.515 303.599 243.439 306.403 243.06 307.319C242.387 308.962 241.984 310.723 241.881 312.492C241.668 316.584 243.305 320.493 244.301 324.442C244.356 324.624 244.404 324.813 244.451 324.995C244.451 325.042 244.443 325.074 244.451 325.114C244.53 325.208 244.617 325.279 244.665 325.2L244.673 325.208ZM242.269 314.743C242.119 312.935 242.292 311.095 242.751 309.333C243.052 308.164 244.293 303.955 245.811 304.057C246.618 304.105 246.476 304.602 246.523 305.526C246.547 305.953 246.531 306.379 246.499 306.798C246.42 307.841 246.223 308.867 246.049 309.894C245.74 311.703 245.471 313.503 245.25 315.328C244.878 318.305 244.633 321.291 244.483 324.284C243.811 321.078 242.538 318.005 242.269 314.751V314.743Z" fill="white"/>
<path d="M258.472 328.249C252.604 329.979 246.286 329.837 240.466 327.996C240.426 327.981 240.395 327.965 240.371 327.941C240.292 327.87 240.284 327.751 240.332 327.657C240.371 327.562 240.474 327.499 240.608 327.53C240.727 327.57 240.846 327.601 240.972 327.633C247.599 324.956 254.233 322.373 260.813 319.569C262.362 318.906 272.334 314.886 272.405 318.598C272.445 320.888 268.689 323.123 267.052 324.221C264.426 325.99 261.516 327.357 258.48 328.249H258.472Z" fill="#455A64"/>
<path d="M265.882 321.994C266.317 321.551 266.696 320.983 266.016 320.604C264.703 319.877 260.069 321.86 258.749 322.349C253.316 324.355 247.844 325.832 242.277 327.341C241.811 327.467 241.336 327.601 240.862 327.728C240.688 327.704 240.514 327.68 240.332 327.657C240.284 327.751 240.3 327.87 240.371 327.933C240.419 327.933 240.466 327.909 240.514 327.902C240.743 327.933 240.988 327.973 241.225 327.996C244.982 328.478 248.864 328.32 252.541 327.633C254.906 327.183 257.199 326.488 259.421 325.564C261.461 324.719 264.316 323.605 265.874 321.986L265.882 321.994ZM241.565 327.799C241.447 327.799 241.336 327.775 241.225 327.767C241.423 327.728 241.621 327.688 241.811 327.641C246.184 326.733 250.533 325.603 254.755 324.126C256.898 323.376 258.986 322.491 261.153 321.82C262.07 321.536 264.632 320.643 265.391 321.109C266.135 321.559 265.225 322.073 264.735 322.428C264.379 322.681 263.691 323.068 263.343 323.273C256.622 327.135 249.117 328.557 241.565 327.799Z" fill="white"/>
<path d="M227.505 336.155L226.999 335.239C227.798 334.781 228.588 334.315 229.379 333.857C232.566 331.953 235.729 330.026 238.869 328.044C240.656 326.914 242.419 325.769 244.135 324.569C244.19 324.529 244.254 324.482 244.309 324.45C244.443 324.347 244.578 324.253 244.728 324.15C244.87 324.047 245.021 323.937 245.171 323.826C248.982 321.07 252.501 317.997 255.356 314.104C256.297 312.824 257.175 311.513 258.029 310.17C258.108 310.044 258.187 309.91 258.274 309.783C258.298 309.752 258.321 309.72 258.337 309.681C258.424 309.547 258.503 309.42 258.59 309.278C258.654 309.175 258.709 309.081 258.772 308.97C261.318 304.8 263.533 300.424 265.842 296.159C266.498 294.935 267.162 293.711 267.834 292.503C267.874 292.424 267.914 292.353 267.953 292.282C267.993 292.187 268.048 292.1 268.095 292.013C271.045 286.627 274.058 281.256 276.857 275.806C276.952 275.601 277.253 275.79 277.15 275.988C275.315 279.645 273.56 283.341 271.78 287.029C271.551 287.519 271.306 288.009 271.069 288.506C270.602 289.486 270.136 290.449 269.661 291.421C268.712 293.356 267.755 295.283 266.767 297.194C263.991 302.565 261.247 308.093 257.823 313.116C257.562 313.488 257.301 313.859 257.033 314.23C256.866 314.459 256.7 314.696 256.534 314.909C256.345 315.178 256.147 315.438 255.949 315.699C252.422 320.296 248.026 323.668 243.273 326.725C242.949 326.938 242.609 327.151 242.269 327.357C242.119 327.451 241.968 327.554 241.802 327.657C241.715 327.704 241.636 327.759 241.557 327.815C241.446 327.878 241.344 327.941 241.233 328.012C241.154 328.059 241.075 328.115 240.988 328.162C240.703 328.344 240.411 328.51 240.118 328.691C236.947 330.618 233.752 332.498 230.557 334.354C229.537 334.947 228.525 335.563 227.513 336.171L227.505 336.155Z" fill="#455A64"/>
<path d="M271.164 276.43C273.14 272.07 278.304 265.041 283.95 266.724C286.22 267.403 287.509 269.377 287.232 271.723C286.9 274.448 284.725 276.793 282.875 278.642C277.933 283.578 272.555 288.017 267.961 293.308C267.945 293.364 267.565 293.758 267.471 293.877C267.376 293.987 267.218 293.822 267.312 293.719C267.463 293.545 267.613 293.371 267.763 293.198C268.443 287.622 268.831 281.595 271.179 276.43H271.164Z" fill="#455A64"/>
<path d="M267.961 293.348C267.977 293.308 268.008 293.269 268.024 293.229C268.949 291.579 269.97 290.007 271.077 288.49C273.386 285.339 276.027 282.441 278.715 279.574C279.751 278.476 284.939 273.263 281.254 272.418C279.704 272.063 277.941 273.208 276.754 274.061C274.833 275.419 273.275 277.196 272.026 279.179C269.558 283.136 268.562 287.701 267.953 292.266C267.921 292.479 267.89 292.684 267.866 292.89C267.827 292.953 267.803 293.008 267.763 293.071C267.74 293.103 267.716 293.15 267.7 293.19C267.684 293.221 267.676 293.245 267.684 293.269C267.684 293.364 267.787 293.443 267.874 293.411C267.906 293.403 267.937 293.387 267.961 293.348ZM268.103 291.997C268.72 288.254 269.55 284.47 271.266 281.066C272.16 279.297 273.291 277.623 274.675 276.193C275.284 275.561 275.956 274.969 276.667 274.44C277.189 274.053 277.759 273.674 278.344 273.382C279.633 272.718 281.309 272.473 281.863 273.153C282.551 273.99 282.179 274.598 281.452 275.798C281.214 276.201 280.93 276.588 280.645 276.967C279.917 277.907 279.103 278.768 278.296 279.621C276.952 281.043 275.616 282.464 274.335 283.949C273.465 284.944 272.611 285.971 271.812 287.021C270.42 288.83 269.139 290.718 268.001 292.708C268.032 292.479 268.08 292.242 268.119 292.005L268.103 291.997Z" fill="white"/>
<path d="M52.5309 299.721C55.354 302.32 58.0031 305.1 60.6047 307.912C62.0834 309.499 63.5464 311.11 65.0409 312.706C66.6778 314.459 68.2198 316.418 70.521 317.279C70.521 317.279 70.5289 317.271 70.5289 317.279C70.5605 317.279 70.8057 317.445 70.8136 317.452C70.8215 317.468 70.8294 317.484 70.8294 317.5C70.8847 317.681 70.7108 317.926 70.4735 317.847C70.4182 317.832 70.3707 317.808 70.3233 317.792C70.2996 317.792 70.2837 317.792 70.26 317.792C69.5879 317.8 68.5915 317.405 68.1724 317.31C66.2824 316.876 64.4162 316.299 62.5895 315.652C58.8492 314.317 55.2512 312.556 51.9537 310.328C49.0041 308.338 46.3076 305.977 43.9906 303.283C42.1323 301.127 39.3409 297.944 38.819 295.038C38.3524 292.408 41.7527 292.921 43.3263 293.387C46.9006 294.446 49.8581 297.281 52.5309 299.737V299.721Z" fill="#455A64"/>
<path d="M43.9669 297.794C43.1604 298.924 46.2206 302.351 47.5096 303.876C49.534 306.293 51.8747 308.417 54.4209 310.265C59.0074 313.606 64.187 315.944 69.5958 317.571C69.8093 317.634 70.0308 317.705 70.2522 317.768C70.268 317.768 70.2996 317.768 70.3154 317.768C70.3629 317.776 70.4103 317.8 70.4657 317.824C70.7029 317.903 70.8848 317.658 70.8294 317.476C70.3945 317.279 69.9833 317.065 69.5721 316.836C69.1925 316.631 68.8288 316.426 68.4809 316.205C64.5507 313.867 61.1425 310.629 57.7975 307.533C53.8674 303.899 45.0582 296.309 43.9828 297.794H43.9669ZM69.0502 316.931C69.5958 317.231 70.1494 317.508 70.7029 317.768C70.2601 317.626 69.8173 317.484 69.3823 317.334C64.6614 315.754 60.0908 313.74 55.9471 310.952C53.6223 309.396 51.4476 307.604 49.4944 305.598C48.4427 304.508 47.4622 303.378 46.5607 302.178C46.1811 301.672 43.7218 298.671 44.3702 298.079C44.8289 297.668 47.6598 299.516 47.7231 299.548C48.2925 299.911 48.846 300.306 49.3916 300.709C50.5224 301.538 51.5979 302.423 52.6654 303.323C54.9666 305.289 57.157 307.39 59.3949 309.436C62.3761 312.161 65.4996 314.965 69.0502 316.931Z" fill="white"/>
<path d="M73.8028 288.056C76.3649 293.016 76.9659 298.718 77.045 304.223C77.0845 307.169 76.9817 310.123 76.958 313.061C76.9343 315.525 76.7287 318.384 77.2347 320.951C77.2506 321.062 77.2743 321.18 77.3059 321.299C77.472 322.025 77.7013 322.736 78.0097 323.392C78.0334 323.447 78.0255 323.494 78.0097 323.534C78.0571 323.597 78.0967 323.66 78.1362 323.731C78.1679 323.779 78.1125 323.842 78.0651 323.795C78.0018 323.747 77.9385 323.676 77.8832 323.629C77.8832 323.629 77.8753 323.621 77.8674 323.613C77.7962 323.613 77.7408 323.589 77.7013 323.51C77.6855 323.487 77.6776 323.455 77.6618 323.431C77.6064 323.376 77.5431 323.321 77.4799 323.265C73.1702 319.301 70.7583 312.579 69.1135 307.185C67.4766 301.814 66.7175 296.041 68.1409 290.544C68.5046 289.162 69.1135 285.876 70.79 285.402C72.3161 284.968 73.2651 287.006 73.8107 288.064L73.8028 288.056Z" fill="#455A64"/>
<path d="M71.5331 291.271C69.8409 291.555 70.2046 296.183 70.2521 297.32C70.3944 300.756 71.0666 304.144 71.7941 307.485C73.004 312.982 74.5934 318.242 77.4086 323.06C77.4244 323.131 77.4481 323.194 77.4639 323.257C77.5272 323.321 77.5825 323.376 77.6458 323.431C77.6537 323.463 77.6695 323.494 77.6853 323.51C77.717 323.589 77.7881 323.613 77.8514 323.605C77.8277 323.51 77.8039 323.431 77.7881 323.344C77.5983 322.665 77.4402 321.978 77.2899 321.283C77.2662 321.164 77.2425 321.054 77.2188 320.943C76.2382 316.157 76.0722 311.213 75.7084 306.316C75.4554 302.92 75.0521 299.492 74.1743 296.199C73.9529 295.354 72.9407 291.026 71.5173 291.263L71.5331 291.271ZM73.0514 293.727C75.3605 299.074 75.2972 305.424 75.6847 311.126C75.9377 314.988 76.3094 318.858 77.2899 322.578C74.9176 318.155 73.4784 313.211 72.3793 308.37C71.7466 305.582 71.1615 302.762 70.8452 299.919C70.6633 298.387 70.5368 296.823 70.5921 295.275C70.6158 294.572 70.7028 293.206 70.94 292.503C71.5173 290.844 72.6481 292.803 73.0514 293.719V293.727Z" fill="white"/>
<path d="M87.1745 330.926C87.2219 331.013 87.1982 331.132 87.1428 331.219C87.1824 331.219 87.214 331.219 87.2535 331.219C87.3089 331.219 87.3405 331.258 87.3484 331.306C87.3563 331.353 87.3326 331.4 87.2773 331.408C80.6348 332.451 73.249 332.759 66.7172 330.974C63.9653 330.224 61.3083 329.078 58.936 327.483C57.3149 326.393 54.049 324.182 53.8593 321.994C53.4876 317.595 65.1673 322.16 66.9228 322.855C70.1254 324.118 73.2173 325.651 76.3962 326.97C79.8756 328.415 83.4578 329.607 87.0242 330.8C87.1033 330.824 87.1507 330.871 87.1824 330.919L87.1745 330.926Z" fill="#455A64"/>
<path d="M87.1743 330.926C86.8106 330.895 86.4626 330.863 86.0989 330.816C80.2314 330.184 74.8067 328.652 69.2792 326.259C66.6143 325.106 63.894 323.826 61.0631 323.139C60.3593 322.973 57.7576 322.152 58.1768 323.818C58.3982 324.679 62.6683 327.143 63.8308 327.696C66.4957 328.944 69.3424 329.765 72.2129 330.326C76.9971 331.266 82.0106 331.621 86.9134 331.337C87.0557 331.337 87.206 331.329 87.3404 331.313C87.3404 331.266 87.3088 331.227 87.2534 331.227C87.2218 331.227 87.1822 331.227 87.1427 331.227C87.1981 331.132 87.2139 331.021 87.1664 330.934L87.1743 330.926ZM74.696 330.413C71.8255 329.994 68.9471 329.355 66.2189 328.336C65.1355 327.933 64.068 327.467 63.0321 326.93C62.2255 326.504 61.4189 326.069 60.6914 325.54C58.8964 324.237 58.5326 323.755 58.6829 323.408C58.7777 323.194 59.1573 323.076 60.6202 323.313C61.5454 323.463 62.4944 323.779 63.3642 324.11C64.6294 324.592 65.8789 325.114 67.1204 325.651C69.6034 326.717 72.0864 327.83 74.6485 328.707C78.294 329.979 82.145 330.816 86.0198 331.077C82.2399 331.148 78.4759 330.966 74.696 330.405V330.413Z" fill="white"/>
<path d="M86.4865 311.876C88.1392 313.606 89.1593 315.881 89.9184 318.124C91.4367 322.641 91.9665 327.412 93.1606 332.016C93.3424 332.703 93.5322 333.391 93.7457 334.07C93.7695 334.141 94.2202 334.899 94.1727 334.852C94.1569 334.844 93.9434 334.623 93.5797 334.236C91.7846 332.348 86.4311 326.551 84.383 322.626C83.1257 320.209 81.9316 317.603 81.299 314.941C81.0064 313.669 80.4687 310.787 81.7339 309.807C83.1019 308.757 85.6324 310.968 86.4944 311.869L86.4865 311.876Z" fill="#455A64"/>
<path d="M83.7581 312.99C81.9789 313.733 85.656 321.536 86.1226 322.562C87.8385 326.361 90.0369 329.923 92.6701 333.154C92.9627 333.525 93.2632 333.88 93.5637 334.244C93.9354 334.623 94.141 334.852 94.1568 334.86C94.1726 334.836 93.7614 334.149 93.7298 334.07C93.6902 333.959 93.6586 333.833 93.6191 333.722C93.4451 333.154 93.2869 332.585 93.1446 332.024C91.9822 328.944 90.8672 325.832 89.6336 322.768C88.7479 320.556 87.7515 318.408 86.5179 316.363C86.2412 315.904 84.5252 312.666 83.7502 312.998L83.7581 312.99ZM85.2132 314.601C89.1908 320.304 90.6379 327.167 93.2632 333.493C93.3028 333.604 93.3502 333.691 93.3897 333.801C93.2869 333.659 93.1683 333.525 93.0576 333.383C90.9384 330.658 89.0721 327.767 87.5064 324.695C86.5575 322.831 85.7193 320.896 84.9997 318.929C84.6201 317.887 84.1219 316.75 83.8926 315.66C83.7819 315.17 83.5446 313.819 83.8768 313.646C84.3354 313.401 84.9522 314.23 85.2132 314.601Z" fill="white"/>
<path d="M52.0171 267.079C58.28 277.52 55.0932 290.915 60.6365 301.664C60.6444 301.688 60.6603 301.704 60.6682 301.72C60.8342 302.051 61.0161 302.375 61.198 302.699C61.285 302.857 61.1584 303.015 61.0319 303.031C60.9687 303.031 60.9133 303.015 60.8659 302.944C60.8184 302.873 60.7789 302.786 60.7314 302.707C55.7654 298.102 51.7404 291.847 48.7908 285.797C46.2287 280.537 44.5285 274.629 45.4063 268.745C45.6198 267.292 45.9519 264.402 47.6995 263.857C49.5578 263.28 51.2343 265.799 52.0092 267.087L52.0171 267.079Z" fill="#455A64"/>
<path d="M49.8582 270.917C49.1228 271.154 49.0279 272.236 48.9488 272.829C48.7274 274.298 48.7195 275.822 48.8539 277.291C49.107 280.34 49.9847 283.301 51.1235 286.137C53.045 290.899 55.4332 295.733 58.5251 299.943C59.221 300.898 59.9564 301.822 60.7392 302.707C60.8341 302.817 60.9369 302.92 61.0318 303.031C61.1663 303.015 61.2849 302.857 61.2058 302.699C61.016 302.391 60.8579 302.083 60.6839 301.759C60.6681 301.735 60.6523 301.704 60.6364 301.672C59.387 299.595 58.3037 297.455 57.4734 295.156C56.1844 291.618 55.5043 287.882 54.6819 284.226C54.3656 282.78 52.3887 270.096 49.8661 270.925L49.8582 270.917ZM51.5109 273.05C52.792 275.775 53.1953 278.886 53.8516 281.801C54.5159 284.755 55.1406 287.709 55.8444 290.647C56.4058 292.969 57.1491 295.267 58.0981 297.478C58.8809 299.319 59.8219 301.104 60.929 302.77C59.6717 301.254 58.533 299.635 57.4892 297.976C57.4733 297.952 57.4654 297.936 57.4575 297.913C55.5913 294.943 54.0098 291.768 52.5548 288.625C52.5389 288.593 52.5152 288.546 52.4994 288.506C51.2184 285.71 50.0955 282.804 49.5182 279.771C49.2098 278.128 49.0279 276.446 49.0991 274.764C49.1861 272.86 49.4549 271.336 50.1034 271.312C50.5462 271.304 51.1551 272.244 51.5188 273.05H51.5109Z" fill="white"/>
<path d="M52.7918 288.49C54.5078 291.507 56.287 294.501 58.0899 297.478C58.9361 298.884 59.7822 300.282 60.6283 301.672C60.6441 301.704 60.66 301.735 60.6758 301.759C60.9842 302.257 61.2847 302.77 61.5931 303.275C64.3529 307.833 67.0889 312.635 70.5683 316.694C72.3871 318.819 74.4984 320.738 76.7205 322.523C76.9498 322.697 77.1792 322.886 77.4085 323.068C77.535 323.163 77.6615 323.265 77.7881 323.36C77.8513 323.415 77.9304 323.471 78.0016 323.518C79.9469 325.011 81.9633 326.417 83.9324 327.767C86.6842 329.655 89.5389 331.345 92.4094 333.004C92.4885 333.059 92.5755 333.106 92.6625 333.154C92.789 333.233 92.9234 333.304 93.0499 333.391C93.1211 333.43 93.1844 333.462 93.2555 333.501C93.3742 333.58 93.5007 333.643 93.6193 333.722C94.5445 334.251 95.4618 334.789 96.387 335.341L95.7939 336.171C92.7969 334.86 89.871 333.217 87.0717 331.456C87.0084 331.424 86.961 331.385 86.8977 331.345C86.621 331.179 86.3442 331.005 86.0832 330.832C85.7432 330.618 85.419 330.413 85.0869 330.184C84.2882 329.655 83.5053 329.126 82.7304 328.597C78.2388 325.508 73.6523 322.16 70.0069 318.076C69.9041 317.958 69.8092 317.847 69.7064 317.737C69.6589 317.697 69.6194 317.642 69.5799 317.595C69.5008 317.516 69.4296 317.437 69.3584 317.35L69.0263 316.947C68.8286 316.71 68.6309 316.457 68.449 316.22C68.3937 316.149 68.3383 316.078 68.283 315.999C65.3018 312.153 62.9136 307.73 60.5176 303.552C60.0748 302.786 59.6478 302.02 59.2207 301.246C58.9835 300.819 58.7463 300.385 58.5091 299.958C58.1611 299.303 57.8053 298.639 57.4573 297.992C57.4415 297.968 57.4336 297.952 57.4257 297.929C55.773 294.84 54.1914 291.721 52.5229 288.64C52.4517 288.498 52.689 288.364 52.7681 288.514L52.7918 288.49Z" fill="#455A64"/>
<path d="M266.094 158.11C266.094 180.73 258.796 201.644 246.412 218.633C246.412 218.633 246.412 218.641 246.404 218.649C227.663 244.357 197.297 261.061 163.025 261.061C106.098 261.061 59.9482 214.968 59.9482 158.11C59.9482 124.062 76.4912 93.8838 101.994 75.1418C119.074 62.584 140.188 55.1599 163.025 55.1599C165.848 55.1599 168.656 55.2704 171.423 55.4995C187.848 56.8263 203.181 61.9916 216.521 70.095C227.101 76.524 236.425 84.7932 244.048 94.4682C246.349 97.3905 248.5 100.439 250.477 103.598C260.369 119.41 266.094 138.089 266.094 158.102V158.11Z" fill="#455A64"/>
<path opacity="0.4" d="M266.094 158.11C266.094 180.73 258.796 201.644 246.412 218.633C246.412 218.633 246.412 218.641 246.404 218.649C227.663 244.357 197.297 261.061 163.025 261.061C106.098 261.061 59.9482 214.968 59.9482 158.11C59.9482 124.062 76.4912 93.8838 101.994 75.1418C119.074 62.584 140.188 55.1599 163.025 55.1599C165.848 55.1599 168.656 55.2704 171.423 55.4995C187.848 56.8263 203.181 61.9916 216.521 70.095C227.101 76.524 236.425 84.7932 244.048 94.4682C246.349 97.3905 248.5 100.439 250.477 103.598C260.369 119.41 266.094 138.089 266.094 158.102V158.11Z" fill="white"/>
<g opacity="0.2">
<path d="M185.278 206.699C183.981 210.158 186.148 210.3 186.29 211.746C186.432 213.191 186.29 215.924 182.107 220.11C177.924 224.288 170.989 223.427 169.549 225.156C168.102 226.886 165.651 234.239 162.187 236.695C158.724 239.144 158.146 237.706 153.236 238.717C148.325 239.728 144.577 246.07 143.13 249.095C141.683 252.12 143.422 257.167 139.951 257.317C136.487 257.459 134.898 249.964 131.719 245.928C128.54 241.892 127.536 238.283 126.523 233.528C125.511 228.774 127.101 218.822 126.523 214.928C125.946 211.035 115.555 204.116 111.799 199.354C108.043 194.599 102.848 185.082 103.14 181.907C103.425 178.732 105.742 175.273 107.474 173.977C109.206 172.682 108.486 171.955 108.771 170.802C109.063 169.649 110.502 169.357 110.795 167.92C111.088 166.474 109.925 162.154 108.486 161.427C107.039 160.709 106.035 163.157 105.165 162.723C104.295 162.288 101.701 159.263 100.689 158.971C99.6768 158.679 99.9694 160.843 98.5223 158.102C97.0752 155.362 96.3556 148.443 95.201 147.29C94.0465 146.137 93.1767 149.312 90.4406 147.29C87.6966 145.268 86.5421 141.374 85.3876 140.798C84.233 140.221 82.6436 140.94 81.4574 138.634C80.2713 136.327 82.5012 132.142 81.4574 132.576C80.4136 133.01 78.1678 136.327 77.5906 133.152C77.0133 129.977 80.4769 119.307 79.8996 113.542C79.3223 107.776 81.3467 101.718 85.3876 96.8138C85.3876 96.8138 85.9648 93.6388 86.5421 91.6248C87.1193 89.6029 99.5345 81.5311 100.982 79.2249C101.583 78.2613 101.788 76.7528 102.002 75.1258C119.082 62.568 140.196 55.1439 163.033 55.1439C165.856 55.1439 168.664 55.2544 171.431 55.4835C171.526 55.6178 171.621 55.7441 171.716 55.8705C172.965 57.458 174.318 58.4689 177.971 59.8116C181.624 61.1543 182.494 62.8839 181.727 64.3293C180.96 65.7746 179.703 66.0589 178.264 66.1537C176.817 66.2485 175.472 65.4824 173.93 66.4459C172.388 67.4095 170.846 72.5985 168.83 72.8828C166.805 73.175 163.247 68.2704 162.48 66.825C161.713 65.3797 164.212 62.3074 163.033 60.862C161.855 59.4167 159.791 59.7089 156.517 59.4167C153.244 59.1245 145.644 60.3803 145.929 61.6281C146.222 62.876 157.095 61.4386 157.379 63.9344C157.672 66.438 149.393 70.6635 147.953 70.2765C146.506 69.8895 144.585 67.3937 142.465 67.1015C140.346 66.8092 138.614 68.5468 137.286 68.7363C135.957 68.9259 134.384 67.291 132.359 67.678C130.335 68.065 129.853 69.7947 128.793 70.466C127.733 71.1373 125.235 71.1373 124.942 72.6774C124.649 74.2176 128.121 75.0863 128.983 76.042C129.853 77.0056 127.923 80.2753 128.793 80.9467C129.663 81.618 135.048 76.9108 136.4 75.7577C137.745 74.6046 138.899 69.6051 141.785 69.6999C144.672 69.7947 145.636 74.6993 146.601 75.1811C147.566 75.6629 149.685 74.028 152.856 74.6993C156.035 75.3707 158.241 82.2972 158.819 84.406C159.396 86.5227 160.748 88.6393 159.586 89.5002C158.431 90.369 153.236 88.9236 152.564 87.5731C151.891 86.2225 156.027 84.2085 155.742 83.7268C155.45 83.245 153.046 82.5737 151.797 83.324C150.547 84.0743 149.97 85.646 148.618 86.033C147.265 86.42 143.707 82.3762 142.75 83.5293C141.785 84.6824 143.715 88.3392 144.672 89.2001C145.636 90.0689 149.195 90.5427 149.487 91.5063C149.78 92.4699 147.084 94.5786 143.81 94.3891C140.536 94.1995 137.847 91.6958 136.59 92.7542C135.341 93.8125 136.013 96.6005 135.143 97.5641C134.273 98.5276 129.56 97.8563 127.251 100.352C124.942 102.856 123.882 106.599 121.573 108.716C119.264 110.833 118.205 108.139 115.128 111.125C112.044 114.102 111.57 120.737 111.467 123.043C111.372 125.349 111.467 127.174 110.7 126.889C109.933 126.597 108.873 124.583 108.581 123.335C108.288 122.087 109.253 119.971 109.253 119.205C109.253 118.438 104.825 114.489 102.223 114.11C99.6214 113.723 97.3124 115.84 95.3908 117.38C93.4613 118.92 89.9978 118.628 88.7483 119.884C87.4989 121.132 86.5342 132.189 87.4989 134.787C88.4637 137.386 89.7131 137.386 92.7971 136.035C95.8732 134.685 94.1414 132.094 95.976 132.671C97.8027 133.247 98.7674 135.174 98.7674 136.707C98.7674 138.239 95.114 141.896 95.5885 142.954C96.0709 144.012 99.2498 142.764 100.784 143.246C102.326 143.728 103.093 144.691 102.611 148.633C102.128 152.574 102.421 155.646 104.73 156.949C107.039 158.244 108.336 155.077 109.348 155.504C110.36 155.938 111.799 158.244 113.246 158.102C114.694 157.96 113.966 156.657 116.71 155.796C119.454 154.927 118.442 154.351 119.019 152.621C119.596 150.891 121.328 149.446 123.202 150.315C125.076 151.184 123.78 152.479 123.922 153.916C124.064 155.362 127.385 155.504 129.987 156.365C132.589 157.234 134.028 156.365 139.223 158.094C144.419 159.824 144.711 165.013 146.878 165.882C149.045 166.751 156.264 165.305 161.46 169.057C166.655 172.808 165.216 179.727 167.81 181.749C170.411 183.771 180.082 186.503 183.831 187.23C187.587 187.949 188.164 185.358 191.193 186.077C194.221 186.796 195.953 187.665 196.965 191.843C197.851 195.523 186.575 203.231 185.27 206.691L185.278 206.699Z" fill="black"/>
<path d="M107.703 132.971C107.798 133.784 110.202 134.124 113.096 135.759C115.983 137.394 117.042 142.196 118.584 142.101C120.126 142.006 119.644 139.795 120.221 139.218C120.798 138.642 121.763 137.394 120.221 136.146C118.679 134.898 117.185 132.205 114.369 131.818C111.554 131.431 111.08 130.278 109.823 130.372C108.573 130.467 107.513 131.336 107.703 132.971Z" fill="black"/>
<path d="M123.582 141.05C123.155 142.227 123.582 143.072 126.658 143.838C129.734 144.605 132.628 143.072 131.664 142.448C130.699 141.824 129.26 142.109 129.837 141.058C130.414 140 130.216 138.46 127.718 138.752C125.219 139.044 123.969 140 123.582 141.058V141.05Z" fill="black"/>
<path d="M134.36 141.374C133.308 141.524 132.723 143.357 133.783 144.51C134.842 145.663 134.842 145.473 136.092 144.51C137.341 143.546 139.27 143.072 138.788 142.109C138.306 141.145 135.419 141.224 134.36 141.374Z" fill="black"/>
<path d="M142.734 145.3C143.209 143.854 145.621 145.276 146.68 146.808C147.74 148.348 147.258 150.56 146.68 152.195C146.103 153.829 145.716 155.749 144.371 154.983C143.027 154.216 144.466 151.91 144.276 150.56C144.087 149.217 142.355 146.476 142.734 145.3Z" fill="black"/>
<path d="M184.218 65.1112C183.712 66.3196 186.045 66.7461 187.397 67.5122C188.741 68.2783 189.801 68.76 190.576 67.5122C191.343 66.2643 190.283 64.8189 189.232 64.5346C188.172 64.2424 184.708 63.9581 184.226 65.1112H184.218Z" fill="black"/>
<path d="M202.406 76.3579C203.292 77.2899 204.81 77.124 205.87 78.4746C206.929 79.8172 206.542 82.1314 207.894 82.8027C209.238 83.474 210.203 82.8027 210.298 81.8391C210.393 80.8756 208.376 78.4746 208.566 77.9928C208.756 77.511 211.358 78.6641 211.935 80.1095C212.512 81.5548 211.358 83.5688 212.702 83.9558C214.046 84.3428 213.762 82.6131 214.339 82.2261C214.916 81.8391 216.165 82.0366 216.071 80.8835C215.976 79.7304 214.434 77.2346 213.184 76.3658C211.935 75.497 210.97 74.5414 208.851 74.0596C206.732 73.5778 204.715 73.9648 203.655 74.8257C202.596 75.6945 201.86 75.7893 202.406 76.3658V76.3579Z" fill="black"/>
<path d="M244.048 94.468C243.929 94.9498 243.755 95.2973 243.502 95.479C241.478 96.9243 239.074 91.9249 236.283 90.9613C233.491 89.9978 232.242 86.4437 231.665 87.2098C231.087 87.9759 231.277 89.0342 230.415 90.2821C229.545 91.53 228.296 91.2457 227.719 93.6467C227.141 96.0476 230.415 100.471 229.648 101.916C228.881 103.361 227.916 102.879 226.374 102.785C224.832 102.69 225.125 104.033 223.108 103.456C221.084 102.879 222.816 100.376 219.637 97.3982C216.458 94.4207 215.398 93.8441 216.078 92.4935C216.759 91.143 215.786 89.2238 217.233 89.0342C218.68 88.8447 219.835 90.9613 220.791 91.5379C221.756 92.1144 223.006 90.3848 223.101 88.8447C223.195 87.3046 219.732 85.1958 218.482 84.0032C217.233 82.8027 217.13 78.4667 217.613 77.5979C218.095 76.7291 219.542 77.0213 219.922 74.9047C220.143 73.6647 218.174 71.5875 216.513 70.0869C227.094 76.5159 236.417 84.7851 244.04 94.4601L244.048 94.468Z" fill="black"/>
<path d="M258.424 180.651C258.717 177.571 257.175 177.381 258.717 171.711C260.259 166.04 257.08 159.982 255.925 158.734C254.771 157.486 252.264 157.865 250.248 159.121C248.223 160.369 249.67 161.333 248.318 161.814C246.974 162.296 245.622 161.522 244.372 161.625C243.123 161.72 241.968 164.895 239.272 164.8C236.575 164.705 234.843 160.859 232.827 158.118C230.803 155.377 226.667 153.648 225.323 150.283C223.97 146.919 226.572 141.73 225.995 137.789C225.417 133.848 222.816 134.708 222.333 132.505C221.851 130.293 222.721 131.352 223.393 129.235C224.065 127.118 222.626 125.965 223.97 122.316C225.323 118.668 227.726 116.835 227.149 115.208C226.572 113.573 224.745 110.88 224.642 108.969C224.548 107.057 226.469 107.136 230.13 104.443C233.792 101.75 234.749 101.947 237.54 102.903C240.331 103.867 242.063 104.348 243.7 104.633C245.337 104.925 247.551 109.15 248.223 108.961C248.895 108.771 248.99 107.516 249.283 105.691C249.402 104.917 249.923 104.198 250.485 103.622C260.377 119.434 266.103 138.112 266.103 158.126C266.103 180.746 258.804 201.66 246.42 218.648C256.234 203.682 258.14 183.747 258.432 180.667L258.424 180.651Z" fill="black"/>
</g>
<path opacity="0.1" d="M242.87 223.206C223.97 246.307 195.218 261.061 163.017 261.061C106.082 261.061 59.9404 214.976 59.9404 158.11C59.9404 124.062 76.4834 93.8838 101.986 75.1418C119.074 62.584 140.18 55.1599 163.017 55.1599C165.848 55.1599 168.648 55.2704 171.415 55.4916C172.183 55.5548 172.95 55.6259 173.709 55.7048C156.715 57.5214 141.074 63.8477 128.002 73.4596C104.635 90.6377 89.4757 118.289 89.4757 149.486C89.4757 201.589 131.758 243.82 183.925 243.82C206.217 243.82 226.706 236.103 242.862 223.198L242.87 223.206Z" fill="black"/>
<path opacity="0.3" d="M266.094 158.11C266.094 180.73 258.796 201.644 246.404 218.633V218.648C236.781 231.846 224.089 242.674 209.38 250.082C222.175 242.777 233.254 232.841 241.889 220.994C241.889 220.994 241.889 220.978 241.905 220.978C254.359 203.895 261.706 182.855 261.706 160.108C261.706 139.976 255.949 121.187 246.001 105.288C244.008 102.105 241.849 99.041 239.532 96.1029C231.862 86.3726 222.483 78.0481 211.848 71.5875C198.42 63.4289 183 58.232 166.481 56.9051C163.697 56.6761 160.874 56.5655 158.036 56.5655C149.456 56.5655 141.121 57.6081 133.142 59.5668C142.6 56.7077 152.635 55.1676 163.025 55.1676C165.856 55.1676 168.656 55.2781 171.423 55.4993C187.848 56.8262 203.181 61.9836 216.521 70.0948C227.102 76.5238 236.433 84.793 244.056 94.476C246.365 97.3982 248.508 100.447 250.485 103.606C260.385 119.41 266.102 138.097 266.102 158.11H266.094Z" fill="white"/>
<path d="M187.271 87.2414C212.425 98.5434 217.866 133.966 216.197 184.363C215.944 192.024 151.046 205.332 119.668 181.702C114.599 177.879 121.787 116.235 134.242 98.4802C149.701 76.4448 171.693 80.2437 187.271 87.2414Z" fill="#263238"/>
<path d="M187.951 87.7468C201.117 94.4285 209.57 107.721 213.374 121.685C216.142 131.857 217.407 142.756 218.585 153.213C219.716 163.252 220.444 173.598 219.068 183.644C219.02 184 218.506 183.96 218.514 183.597C218.775 164.571 216.49 145.434 212.591 126.81C209.317 111.157 201.267 97.1613 187.453 88.7262C186.931 88.4103 187.397 87.4704 187.959 87.7547L187.951 87.7468Z" fill="#263238"/>
<path d="M124.673 115.785C129.292 99.7597 139.627 88.2997 155.134 83.1344C155.229 83.1028 155.284 83.2766 155.189 83.3082C138.409 89.9109 128.951 103.164 124.658 120.729C119.984 139.842 118.07 159.24 116.489 178.803C116.449 179.245 115.825 179.182 115.833 178.748C116.125 157.952 118.901 135.783 124.666 115.777L124.673 115.785Z" fill="#263238"/>
<path d="M193.644 195.484C233.349 231.404 261.587 262.356 261.208 276.43C260.362 307.959 243.716 314.767 240.758 313.764C209.444 303.149 189.54 243.614 176.374 207.646C163.302 171.94 182.265 185.2 193.644 195.484Z" fill="#FDD0B5"/>
<path d="M250.011 246.655L199.979 273.334C199.979 273.334 179.6 228.924 172.665 202.378C165.73 175.833 176.382 176.678 199.678 197.458C222.974 218.238 250.011 246.655 250.011 246.655Z" fill="#FF9E30"/>
<path d="M239.81 238.954C220.499 251.788 201.813 260.089 198.065 262.206C197.891 262.309 197.748 262.008 197.93 261.922C201.71 260.034 222.262 247.476 239.659 238.638C239.857 238.536 239.991 238.828 239.81 238.954Z" fill="#263238"/>
<path opacity="0.1" d="M239.066 253.06L199.978 273.342C199.978 273.342 179.6 228.932 172.657 202.378C170.103 192.593 169.937 186.535 171.914 183.818L239.066 253.06Z" fill="black"/>
<path d="M238.505 312.106C230.225 300.59 222.088 273.453 230.202 217.835C231.325 210.142 286.062 211.88 285.287 220.165C284.314 230.598 279.562 273.153 278.747 276.043C271.875 300.409 244.127 319.917 238.513 312.106H238.505Z" fill="#FDD0B5"/>
<path d="M232.716 302.478C230.755 298.663 229.34 294.588 228.217 290.449C227.679 288.372 227.173 286.287 226.793 284.17C226.39 282.03 226.184 279.882 226.05 277.741C225.765 273.461 225.726 269.18 225.876 264.899C226.026 260.626 226.358 256.346 227.07 252.136C226.904 256.401 226.944 260.658 227.015 264.907C227.11 269.156 227.26 273.405 227.568 277.631C227.742 279.739 227.924 281.848 228.28 283.902C228.652 285.987 229.039 288.072 229.49 290.141C230.391 294.28 231.396 298.41 232.708 302.478H232.716Z" fill="#263238"/>
<path d="M232.843 200.894C225.821 211.035 231.269 227.707 231.269 227.707L283.31 227.297C283.31 227.297 286.078 210.6 291.392 203.342C292.934 201.233 300.572 189.868 308.678 179.316C317.882 167.335 326.004 153.6 325.846 151.792C325.537 148.301 319.82 147.013 311.714 153.616C303.601 160.211 290.039 175.817 288.972 176.536C288.837 176.623 288.426 176.797 287.786 177.034H287.77C287.201 177.073 273.939 170.407 267.977 173.495C261.896 176.639 237.682 193.888 232.835 200.902L232.843 200.894Z" fill="#FDD0B5"/>
<path d="M279.23 194.362C279.23 194.362 301.949 182.863 304.455 178.195C306.962 173.527 326.273 147.811 326.043 144.312C325.806 140.814 320.01 139.534 311.904 146.137C303.799 152.732 290.237 168.338 289.17 169.065C288.102 169.791 266.712 176.528 264.925 177.745C263.138 178.961 279.23 194.362 279.23 194.362Z" fill="#FDD0B5"/>
<path d="M292.942 189.694C295.093 187.917 297.165 186.053 299.252 184.197C300.28 183.257 301.292 182.294 302.297 181.322C302.795 180.833 303.293 180.343 303.783 179.83C304.028 179.585 304.266 179.301 304.503 179.032C304.748 178.74 304.985 178.408 305.159 178.14C308.322 173.582 311.478 168.978 314.601 164.373C317.709 159.737 320.817 155.156 323.821 150.41C324.541 149.185 325.182 147.89 325.601 146.5C325.806 145.805 325.949 145.078 325.957 144.328C325.957 143.586 325.83 142.772 325.332 142.117C324.842 141.461 324.059 141.114 323.323 141.035C322.58 140.94 321.86 141.027 321.165 141.169C319.765 141.461 318.484 142.054 317.25 142.693C318.547 142.196 319.876 141.738 321.236 141.556C321.908 141.469 322.596 141.453 323.228 141.588C323.861 141.714 324.422 142.046 324.739 142.543C325.387 143.554 325.134 144.992 324.707 146.224C324.264 147.487 323.6 148.68 322.857 149.817C319.678 154.343 316.499 158.955 313.383 163.56C310.283 168.196 307.168 172.793 304.21 177.547C303.57 178.669 302.55 179.656 301.64 180.691C300.699 181.709 299.727 182.697 298.762 183.7L292.95 189.71L292.942 189.694Z" fill="#263238"/>
<path d="M273.694 192.782C273.694 192.782 298.548 180.075 301.055 175.415C303.561 170.747 322.872 145.031 322.643 141.532C322.405 138.033 316.617 136.754 308.504 143.357C300.398 149.952 286.837 165.558 285.769 166.285C284.701 167.011 264.727 175.66 262.939 176.876C261.152 178.092 273.694 192.79 273.694 192.79V192.782Z" fill="#FDD0B5"/>
<path d="M287.722 189.829C290.261 187.53 292.704 185.137 295.148 182.744C296.35 181.528 297.544 180.296 298.714 179.04C299.299 178.408 299.877 177.776 300.438 177.113C300.999 176.465 301.561 175.699 302.004 175.004C305.831 169.349 309.635 163.67 313.399 157.976L318.997 149.383L320.373 147.219C320.824 146.508 321.314 145.742 321.694 144.936C322.081 144.131 322.398 143.278 322.572 142.369C322.722 141.469 322.785 140.458 322.311 139.495C322.081 139.021 321.678 138.602 321.219 138.349C320.761 138.081 320.255 137.994 319.78 137.947C318.823 137.875 317.93 138.049 317.076 138.286C315.376 138.776 313.802 139.518 312.292 140.355C309.255 142.03 306.59 144.289 304.336 146.863C306.819 144.526 309.548 142.417 312.616 140.995C314.134 140.253 315.7 139.581 317.305 139.194C318.104 139.005 318.918 138.894 319.67 138.981C320.429 139.06 321.038 139.408 321.291 140.008C321.567 140.608 321.528 141.398 321.362 142.156C321.18 142.914 320.903 143.681 320.531 144.399C319.796 145.821 318.744 147.227 317.827 148.656L312.157 157.194C308.401 162.904 304.645 168.607 300.999 174.404C300.541 175.17 300.122 175.794 299.592 176.465C299.07 177.129 298.524 177.776 297.979 178.424C296.872 179.711 295.733 180.991 294.586 182.254L287.707 189.86L287.722 189.829Z" fill="#263238"/>
<path d="M274.271 193.462C274.271 193.462 293.274 177.389 295.599 173.045C297.931 168.701 312.221 151.966 311.999 148.704C311.778 145.45 306.385 144.257 298.841 150.402C291.297 156.546 282.361 163.86 281.365 164.539C280.368 165.218 264.592 175.731 262.932 176.868C261.271 177.997 274.264 193.462 274.264 193.462H274.271Z" fill="#FDD0B5"/>
<path d="M280.661 190.745C283.84 187.696 286.963 184.592 290.095 181.504C291.668 179.964 293.218 178.4 294.76 176.828L295.915 175.644C296.302 175.257 296.69 174.791 297.022 174.356C297.702 173.472 298.342 172.579 298.983 171.671C301.506 168.046 303.941 164.373 306.25 160.622C307.405 158.742 308.543 156.854 309.643 154.935C310.196 153.98 310.734 153.008 311.248 152.029C311.762 151.026 312.276 150.078 312.663 148.893C312.829 148.277 312.908 147.479 312.497 146.761C312.102 146.05 311.398 145.679 310.789 145.497C309.532 145.134 308.338 145.221 307.191 145.394C304.906 145.789 302.7 146.666 300.857 148.088C297.338 150.781 293.922 153.537 290.482 156.294C287.066 159.042 283.587 161.846 280.265 164.602C278.526 165.906 276.707 167.177 274.92 168.449C273.141 169.752 271.353 171.039 269.614 172.398C273.481 170.257 277.245 168.006 280.985 165.621L291.336 157.368C294.792 154.651 298.248 151.902 301.743 149.272C303.388 148.001 305.38 147.179 307.428 146.808C308.441 146.642 309.508 146.587 310.378 146.848C311.279 147.124 311.572 147.622 311.335 148.522C311.05 149.438 310.536 150.449 310.046 151.405C309.548 152.368 309.026 153.332 308.488 154.288C307.413 156.199 306.298 158.086 305.159 159.966C302.866 163.71 300.588 167.469 298.153 171.118C297.544 172.026 296.927 172.935 296.286 173.811C295.67 174.688 294.911 175.438 294.159 176.26L289.652 181.085L280.661 190.753V190.745Z" fill="#263238"/>
<path d="M132.391 195.484C92.6864 231.404 64.4479 262.356 64.8275 276.43C65.6736 307.959 82.3194 314.767 85.2768 313.764C116.591 303.149 136.495 243.614 149.661 207.646C162.733 171.94 143.77 185.2 132.391 195.484Z" fill="#FDD0B5"/>
<path d="M76.0249 246.655L126.057 273.334C126.057 273.334 146.435 228.924 153.37 202.378C160.305 175.833 149.654 176.678 126.357 197.458C103.061 218.238 76.0249 246.655 76.0249 246.655Z" fill="#FF9E30"/>
<path d="M86.226 238.954C105.537 251.788 124.223 260.089 127.971 262.206C128.145 262.309 128.287 262.008 128.105 261.922C124.325 260.034 103.773 247.476 86.3762 238.638C86.1785 238.536 86.0441 238.828 86.226 238.954Z" fill="#263238"/>
<path opacity="0.1" d="M86.9692 253.06L126.057 273.342C126.057 273.342 146.435 228.932 153.378 202.378C155.932 192.593 156.098 186.535 154.122 183.818L86.9692 253.06Z" fill="black"/>
<path d="M226.541 336.155H99.2422L109.332 292.329C109.332 292.329 97.5974 275.577 102.714 261.898C111.278 239.002 129.624 205.783 141.287 192.877C149.749 183.51 154.81 180.643 162.891 180.643C170.973 180.643 175.283 183.51 183.744 192.877C195.408 205.783 214.505 239.002 223.069 261.898C228.193 275.577 217.81 290.939 217.81 290.939L226.541 336.155Z" fill="#FF9E30"/>
<path d="M171.005 278.468C163.832 278.634 156.613 279.076 149.512 280.434C145.977 281.114 142.49 281.967 139.002 282.907C137.263 283.373 135.523 283.775 133.767 284.17C131.972 284.573 130.043 284.928 128.216 284.826C128.05 284.818 128.026 285.094 128.192 285.11C129.964 285.331 131.656 285.529 133.443 285.481C135.143 285.434 136.851 285.181 138.536 284.881C142.126 284.233 145.692 283.396 149.274 282.709C156.502 281.319 163.73 279.929 171.029 279.131C171.361 279.092 171.345 278.452 171.005 278.46V278.468Z" fill="#263238"/>
<path d="M187.919 287.179C182.147 285.971 176.232 285.063 170.364 284.605C167.407 284.376 164.465 284.336 161.5 284.383C160.084 284.407 158.669 284.462 157.253 284.534C155.696 284.613 154.138 284.928 152.58 284.984C152.414 284.984 152.39 285.268 152.556 285.268C154.027 285.268 155.498 285.537 156.961 285.631C158.432 285.726 159.902 285.813 161.373 285.908C164.323 286.097 167.265 286.326 170.214 286.484C176.121 286.8 181.989 287.187 187.88 287.732C188.196 287.764 188.22 287.25 187.919 287.187V287.179Z" fill="#263238"/>
<path d="M189.88 224.651C189.619 229.366 174.144 235.519 163.018 235.519C151.892 235.519 136.416 229.374 136.155 224.651C135.973 221.026 145.985 195.594 150.666 183.96C159.254 179.245 167.652 179.83 175.251 183.605C179.869 195.073 190.086 220.978 189.88 224.651Z" fill="#FDD0B5"/>
<path d="M176.2 191.108C174.919 194.804 163.034 206.051 151.496 203.832C145.566 202.694 148.744 181.804 148.744 181.804L148.689 180.225L147.97 158.094L179.988 145.394C179.988 145.394 176.572 190.058 176.208 191.116L176.2 191.108Z" fill="#FDD0B5"/>
<path d="M179.98 145.394C179.98 145.394 179.197 155.528 178.359 166.253C168.807 177.863 155.616 180.398 148.737 181.567L147.97 158.094L179.988 145.394H179.98Z" fill="#263238"/>
<path d="M127.22 120.626C113.413 156.949 133.34 169.167 141.082 172.074C148.104 174.72 172.373 182.815 189.809 148.08C207.246 113.352 194.934 95.5659 179.197 88.663C163.453 81.7602 141.035 84.2954 127.22 120.618V120.626Z" fill="#FDD0B5"/>
<path d="M139.319 113.534C140.22 113.708 141.082 113.715 141.992 113.787C143.02 113.873 143.826 114.047 144.767 113.526C145.273 113.249 145.495 112.428 145.273 111.915C144.752 110.714 143.518 110.296 142.284 110.138C140.948 109.972 139.872 110.185 138.734 110.896C137.627 111.583 138.133 113.305 139.319 113.526V113.534Z" fill="#263238"/>
<path d="M164.948 122.198C164.109 121.827 163.398 121.337 162.607 120.887C161.713 120.373 160.946 120.058 160.472 119.094C160.219 118.581 160.504 117.775 160.978 117.483C162.093 116.796 163.342 117.151 164.449 117.728C165.644 118.352 166.403 119.134 166.933 120.373C167.447 121.574 166.055 122.696 164.948 122.206V122.198Z" fill="#263238"/>
<path d="M149.868 150.204C149.196 150.781 148.508 151.594 147.543 151.618C146.618 151.642 145.566 151.152 144.744 150.773C144.665 150.733 144.57 150.82 144.617 150.899C145.242 151.958 146.642 152.676 147.883 152.542C149.093 152.408 149.749 151.413 150.105 150.339C150.153 150.188 149.955 150.117 149.86 150.204H149.868Z" fill="#263238"/>
<path d="M141.098 137.733C141.098 137.733 139.406 141.351 138.86 143.128C138.813 143.293 143.961 146.184 149.093 143.128C149.283 143.017 149.093 142.741 148.903 142.796C146.017 143.791 143.281 143.436 140.482 142.622C140.505 142.093 143.581 136.525 143.305 136.422C142.356 136.035 140.228 136.106 138.971 136.091C142.269 128.461 146.768 121.424 149.947 113.771C150.058 113.494 149.678 113.289 149.52 113.51C144.285 120.555 140.292 129.251 136.678 137.046C136.219 138.018 140.3 137.812 141.106 137.725L141.098 137.733Z" fill="#263238"/>
<path d="M141.636 123.699C141.651 123.596 141.39 123.746 141.359 123.857C140.536 126.463 139.153 129.314 136.519 129.354C136.44 129.354 136.401 129.488 136.488 129.504C139.477 130.096 141.272 126.305 141.636 123.699Z" fill="#263238"/>
<path d="M140.276 120.192C136.235 118.423 132.993 126.629 136.741 128.264C140.426 129.875 143.668 121.669 140.276 120.192Z" fill="#263238"/>
<path d="M138.489 119.994C137.587 120.176 136.559 120.721 135.666 120.46C134.622 120.168 134.211 119.007 133.878 117.925C133.847 117.815 133.744 117.854 133.704 117.965C133.056 119.528 133.024 121.377 134.622 122.277C136.077 123.098 137.729 122.143 138.75 120.713C138.939 120.452 138.852 119.915 138.489 119.986V119.994Z" fill="#263238"/>
<path d="M156.629 129.093C156.684 129.006 156.779 129.29 156.739 129.393C155.688 131.912 154.905 134.985 156.898 136.707C156.961 136.762 156.898 136.888 156.819 136.841C154.146 135.372 155.221 131.312 156.621 129.093H156.629Z" fill="#263238"/>
<path d="M159.926 127.292C164.157 128.54 161.35 136.904 157.427 135.743C153.568 134.606 156.376 126.242 159.926 127.292Z" fill="#263238"/>
<path d="M161.429 128.287C161.998 129.006 162.433 130.08 163.287 130.459C164.275 130.902 165.335 130.285 166.284 129.669C166.379 129.606 166.426 129.701 166.395 129.812C165.881 131.423 164.71 132.86 162.907 132.521C161.262 132.213 160.614 130.42 160.756 128.674C160.78 128.35 161.191 127.995 161.421 128.287H161.429Z" fill="#263238"/>
<path d="M140.876 143.491C140.876 143.491 141.786 146.16 143.731 147.637C144.443 148.182 145.281 148.577 146.27 148.625C148.302 148.735 148.895 147.029 149.021 145.45C149.132 144.154 148.903 142.93 148.903 142.93C148.903 142.93 145.352 144.612 140.876 143.483V143.491Z" fill="#263238"/>
<path d="M143.723 147.637C144.435 148.182 145.273 148.577 146.262 148.625C148.294 148.735 148.887 147.029 149.013 145.45C146.942 145.015 144.522 145.742 143.723 147.629V147.637Z" fill="#FF9ABB"/>
<path d="M185.128 152.345C178.834 145.521 181.799 137.236 181.799 137.236C173.804 129.18 171.63 119.536 171.393 118.557C171.337 119.378 170.91 125.31 170.792 128.335C150.129 115.106 150.152 95.2104 150.152 95.2104C139.967 99.4991 136.638 103.535 134.653 105.415C134.653 105.415 140.054 91.6484 150.833 85.33C164.023 77.5979 174.935 84.5007 174.935 84.5007C174.935 84.5007 194.404 86.3726 201.94 106.489C210.045 128.177 185.12 152.337 185.12 152.337L185.128 152.345Z" fill="#263238"/>
<path d="M155.3 117.751C158.044 121.195 161.46 124.157 165.058 126.605C165.09 126.629 165.114 126.581 165.09 126.558C159.515 122.222 155.197 116.638 152.707 109.996C151.655 107.192 150.943 104.285 150.619 101.308C150.279 98.1959 150.168 94.6023 151.109 91.5932C151.18 91.3641 150.824 91.2535 150.753 91.4826C149.757 94.6734 148.879 97.6193 148.95 101C149.022 104.206 149.694 107.437 150.911 110.406C152.003 113.06 153.513 115.508 155.3 117.751Z" fill="#263238"/>
<path d="M153.078 144.984C147.202 141.43 145.312 133.761 148.871 127.892C152.429 122.024 160.1 120.137 165.983 123.691C171.859 127.245 173.749 134.906 170.19 140.782C167.185 145.75 161.231 147.859 155.909 146.247C154.936 145.955 153.987 145.537 153.078 144.984ZM150.294 128.753C147.218 133.84 148.847 140.482 153.94 143.562C159.024 146.642 165.683 145.007 168.759 139.921C171.835 134.835 170.206 128.193 165.113 125.112C164.331 124.638 163.508 124.275 162.662 124.022C158.052 122.624 152.896 124.457 150.286 128.753H150.294Z" fill="#FF9E30"/>
<path d="M128.991 134.392C124.31 132.347 122.728 125.57 125.48 119.284C126.793 116.282 128.888 113.826 131.379 112.365C133.957 110.856 136.646 110.572 138.971 111.591C141.288 112.602 142.917 114.766 143.557 117.68C144.182 120.5 143.794 123.706 142.482 126.708C139.88 132.655 134.321 136.067 129.758 134.685C129.497 134.606 129.244 134.511 128.991 134.4V134.392ZM132.225 113.794C130.035 115.082 128.184 117.262 127.006 119.947C124.626 125.397 125.812 131.194 129.663 132.868C133.522 134.558 138.575 131.478 140.963 126.028C142.134 123.343 142.482 120.5 141.936 118.028C141.406 115.65 140.125 113.897 138.306 113.107C138.109 113.02 137.911 112.949 137.713 112.886C136.029 112.373 134.107 112.689 132.225 113.787V113.794Z" fill="#FF9E30"/>
<path d="M148.673 129.377L150.168 128.635C149.069 126.431 145.921 122.727 141.833 124.488L142.497 126.013C146.159 124.425 148.578 129.172 148.681 129.369L148.673 129.377Z" fill="#FF9E30"/>
<path d="M198.263 154.509L199.923 154.398C199.868 153.624 199.338 146.777 196.167 144.739C193.202 142.843 171.906 135.83 170.997 135.53L170.475 137.109C176.588 139.115 192.973 144.66 195.258 146.137C197.353 147.479 198.128 152.637 198.255 154.509H198.263Z" fill="#FF9E30"/>
<path d="M183.159 147.645C183.159 147.645 194.04 138.089 198.097 142.362C202.161 146.634 191.652 161.956 185.247 162.659C178.841 163.37 178.391 157.076 178.391 157.076L183.159 147.637V147.645Z" fill="#FDD0B5"/>
<path d="M194.989 146.674C195.084 146.69 195.06 146.84 194.973 146.848C190.442 147.487 187.16 150.931 184.479 154.706C186.14 153.427 188.022 153 189.58 155.101C189.659 155.212 189.509 155.362 189.406 155.306C187.864 154.461 186.583 154.438 185.065 155.559C183.989 156.349 183.08 157.478 182.178 158.489C181.878 158.829 181.285 158.434 181.554 158.023C181.569 157.992 181.593 157.96 181.617 157.929C183.103 152.345 189.319 145.687 194.997 146.674H194.989Z" fill="#263238"/>
<path d="M184.985 161.096C184.527 161.893 183.57 162.17 182.842 161.72C182.115 161.269 181.901 160.258 182.36 159.461C182.819 158.663 183.776 158.387 184.503 158.837C185.231 159.287 185.444 160.298 184.985 161.096Z" fill="#455A64"/>
<path d="M184.298 160.661C184.084 161.04 183.626 161.167 183.285 160.953C182.945 160.74 182.843 160.258 183.056 159.887C183.27 159.508 183.728 159.382 184.068 159.595C184.408 159.808 184.511 160.29 184.298 160.661Z" fill="#263238"/>
<path d="M188.141 159.864C187.817 160.424 187.137 160.622 186.623 160.306C186.109 159.99 185.958 159.271 186.283 158.71C186.607 158.15 187.287 157.952 187.801 158.268C188.315 158.584 188.465 159.303 188.141 159.864Z" fill="#455A64"/>
<path d="M87.5309 312.106C95.8103 300.59 103.947 273.453 95.834 217.835C94.7111 210.142 39.9739 211.88 40.7489 220.165C41.7215 230.598 46.4741 273.153 47.2886 276.043C54.1604 300.409 81.9085 319.917 87.523 312.106H87.5309Z" fill="#FDD0B5"/>
<path d="M93.3271 302.478C95.2883 298.663 96.7037 294.588 97.8266 290.449C98.3644 288.372 98.8705 286.287 99.25 284.17C99.6533 282.03 99.8589 279.882 99.9934 277.741C100.278 273.461 100.318 269.18 100.167 264.899C100.017 260.626 99.685 256.346 98.9733 252.136C99.1393 256.401 99.0998 260.658 99.0286 264.907C98.9337 269.156 98.7835 273.405 98.4751 277.631C98.3011 279.739 98.1192 281.848 97.7634 283.902C97.3917 285.987 97.0042 288.072 96.5535 290.141C95.652 294.28 94.6477 298.41 93.3351 302.478H93.3271Z" fill="#263238"/>
<path d="M93.2003 200.894C100.222 211.035 94.7739 227.707 94.7739 227.707L42.7333 227.297C42.7333 227.297 39.9656 210.6 34.6516 203.342C33.1096 201.233 25.4707 189.868 17.3653 179.316C8.15284 167.335 0.0316179 153.6 0.189772 151.784C0.498173 148.293 6.21545 147.006 14.3209 153.608C22.4342 160.203 35.9959 175.81 37.0634 176.528C37.1979 176.615 37.6091 176.789 38.2496 177.026H38.2654C38.8348 177.065 52.096 170.399 58.0584 173.488C64.1394 176.631 88.3529 193.88 93.2003 200.894Z" fill="#FDD0B5"/>
<path d="M46.8139 194.362C46.8139 194.362 24.095 182.863 21.5883 178.195C19.0815 173.527 -0.237018 147.811 0.000213453 144.312C0.237445 140.814 6.0338 139.534 14.1392 146.137C22.2446 152.732 35.8063 168.338 36.8739 169.065C37.9414 169.791 59.3318 176.528 61.1189 177.745C62.9061 178.961 46.8139 194.362 46.8139 194.362Z" fill="#FDD0B5"/>
<path d="M33.0938 189.694C30.9429 187.917 28.8711 186.053 26.7834 184.197C25.7554 183.257 24.7433 182.294 23.739 181.322C23.2408 180.833 22.7426 180.343 22.2523 179.83C22.0072 179.585 21.77 179.301 21.5327 179.032C21.2876 178.74 21.0504 178.408 20.8764 178.14C17.7133 173.582 14.5581 168.978 11.4346 164.373C8.32685 159.737 5.21911 155.156 2.21418 150.41C1.49458 149.185 0.854057 147.89 0.434949 146.5C0.229348 145.805 0.0870093 145.078 0.0791016 144.328C0.0791016 143.586 0.205625 142.772 0.703811 142.117C1.19409 141.461 1.97695 141.114 2.71237 141.035C3.45569 140.94 4.1753 141.027 4.87117 141.169C6.27084 141.461 7.55189 142.054 8.78549 142.693C7.48863 142.196 6.16013 141.738 4.80001 141.556C4.12785 141.469 3.43988 141.453 2.80726 141.588C2.17465 141.714 1.6132 142.046 1.29689 142.543C0.648457 143.554 0.901504 144.992 1.32852 146.224C1.77135 147.487 2.4356 148.68 3.17892 149.817C6.35782 154.343 9.53673 158.955 12.6524 163.56C15.7522 168.196 18.8678 172.793 21.8253 177.547C22.4658 178.669 23.4859 179.656 24.3953 180.691C25.3363 181.709 26.309 182.697 27.2737 183.7L33.0859 189.71L33.0938 189.694Z" fill="#263238"/>
<path d="M52.3414 192.782C52.3414 192.782 27.4875 180.075 24.9807 175.415C22.474 170.747 3.16333 145.031 3.39265 141.532C3.62988 138.033 9.41833 136.754 17.5316 143.357C25.637 149.952 39.1988 165.558 40.2663 166.285C41.3339 167.011 61.3087 175.66 63.0959 176.876C64.883 178.092 52.3414 192.79 52.3414 192.79V192.782Z" fill="#FDD0B5"/>
<path d="M38.3132 189.829C35.7748 187.53 33.3313 185.137 30.8878 182.744C29.6859 181.528 28.4918 180.296 27.3215 179.04C26.7363 178.408 26.159 177.776 25.5976 177.113C25.0361 176.465 24.4747 175.699 24.0319 175.004C20.2045 169.349 16.4009 163.67 12.6368 157.976L7.03819 149.383L5.66225 147.219C5.21151 146.508 4.72123 145.742 4.34166 144.936C3.95418 144.131 3.63787 143.278 3.4639 142.369C3.31366 141.469 3.25039 140.458 3.72486 139.495C3.95418 139.021 4.35747 138.602 4.81612 138.349C5.27477 138.081 5.78086 137.994 6.25532 137.947C7.21216 137.875 8.10573 138.049 8.95976 138.286C10.6599 138.776 12.2336 139.518 13.7439 140.355C16.7805 142.03 19.4454 144.289 21.6991 146.863C19.2161 144.526 16.4879 142.417 13.4197 140.995C11.9014 140.253 10.3357 139.581 8.73044 139.194C7.93176 139.005 7.11727 138.894 6.36603 138.981C5.60689 139.06 4.998 139.408 4.74495 140.008C4.46818 140.608 4.50772 141.398 4.67378 142.156C4.85566 142.914 5.13243 143.681 5.50409 144.399C6.23951 145.821 7.29124 147.227 8.20853 148.656L13.8784 157.194C17.6345 162.904 21.3907 168.607 25.0361 174.404C25.4948 175.17 25.9139 175.794 26.4437 176.465C26.9656 177.129 27.5113 177.776 28.0569 178.424C29.164 179.711 30.3027 180.991 31.4493 182.254L38.329 189.86L38.3132 189.829Z" fill="#263238"/>
<path d="M51.7639 193.462C51.7639 193.462 32.7617 177.389 30.4368 173.045C28.1041 168.701 13.8148 151.966 14.0362 148.704C14.2577 145.45 19.6507 144.257 27.1947 150.402C34.7386 156.546 43.6743 163.86 44.6707 164.539C45.6671 165.218 61.443 175.731 63.1036 176.868C64.7642 177.997 51.7718 193.462 51.7718 193.462H51.7639Z" fill="#FDD0B5"/>
<path d="M45.3745 190.745C42.1956 187.696 39.0721 184.592 35.9406 181.504C34.367 179.964 32.8171 178.4 31.2751 176.828L30.1205 175.644C29.7331 175.257 29.3456 174.791 29.0135 174.356C28.3334 173.472 27.6929 172.579 27.0523 171.671C24.5298 168.046 22.0942 164.373 19.7852 160.622C18.6306 158.742 17.4919 156.854 16.3927 154.935C15.8392 153.98 15.3015 153.008 14.7875 152.029C14.2735 151.026 13.7595 150.078 13.372 148.893C13.2059 148.277 13.1269 147.479 13.5381 146.761C13.9334 146.05 14.6372 145.679 15.2461 145.497C16.5035 145.134 17.6975 145.221 18.8441 145.394C21.1295 145.789 23.3357 146.666 25.1782 148.088C28.6971 150.781 32.1133 153.537 35.5531 156.294C38.9693 159.042 42.4487 161.846 45.7699 164.602C47.5096 165.906 49.3284 167.177 51.1155 168.449C52.8947 169.752 54.6819 171.039 56.4216 172.398C52.5547 170.257 48.7906 168.006 45.0503 165.621L34.6991 157.368C31.2434 154.651 27.7878 151.902 24.2925 149.272C22.6477 148.001 20.655 147.179 18.6069 146.808C17.5947 146.642 16.5272 146.587 15.6573 146.848C14.7558 147.124 14.4633 147.622 14.7005 148.522C14.9852 149.438 15.4992 150.449 15.9895 151.405C16.4876 152.368 17.0095 153.332 17.5473 154.288C18.6227 156.199 19.7377 158.086 20.8764 159.966C23.1697 163.71 25.4471 167.469 27.8826 171.118C28.4915 172.026 29.1083 172.935 29.7489 173.811C30.3657 174.688 31.1248 175.438 31.876 176.26L36.3834 181.085L45.3745 190.753V190.745Z" fill="#263238"/>
<path d="M13.5698 336.637C109.316 336.155 216.719 336.147 312.466 336.637C216.719 337.126 109.316 337.119 13.5698 336.637Z" fill="#263238"/>
<path d="M316.577 73.5699V135.561L210.203 135.53V121.613H195.154L210.203 106.576V73.5699H316.577Z" fill="#455A64"/>
<path d="M9.46533 59.3298V121.321L115.84 121.29V107.373H130.888L115.84 92.3356V59.3298H9.46533Z" fill="#FF9E30"/>
<path d="M31.243 91.1746L30.0647 97.8879C29.9224 98.7251 29.1158 99.428 28.246 99.428C27.3761 99.428 26.8147 98.7251 26.9886 97.8879L29.875 81.3811C30.041 80.5439 30.8555 79.8409 31.7254 79.8409C32.5952 79.8409 33.1567 80.5439 32.9827 81.3811L31.8044 88.0944H39.0637L40.242 81.3811C40.408 80.5439 41.2225 79.8409 42.0607 79.8409C42.899 79.8409 43.492 80.5439 43.3497 81.3811L40.4397 97.8879C40.2973 98.7251 39.4591 99.428 38.6209 99.428C37.7827 99.428 37.1896 98.7251 37.3319 97.8879L38.5102 91.1746H31.2509H31.243Z" fill="white"/>
<path d="M47.5172 92.4383C48.221 88.6314 51.7478 85.4406 55.5831 85.4406C59.4183 85.4406 61.6325 88.1575 61.158 91.9328C61.158 91.9881 61.158 92.0434 61.1264 92.075C61.1264 92.1302 61.0948 92.2724 61.071 92.3277C60.8733 92.999 60.1775 93.4492 59.4183 93.4492H50.4826C50.4826 94.0889 50.704 94.8235 51.0994 95.2973C51.5502 95.9687 52.6098 96.4741 53.5666 96.5531C54.6342 96.64 55.9785 96.332 56.9037 95.4869C57.9712 94.4759 58.8648 95.3763 58.9201 95.4316C59.3946 95.9608 59.3393 96.7427 58.8094 97.2797C57.1251 98.8435 55.5594 99.4359 53.0368 99.4359C49.2016 99.4043 46.8134 96.2451 47.5172 92.4383ZM50.7673 91.064H58.6987C58.6434 89.9425 57.5205 88.2918 55.1086 88.0944C52.6968 88.2049 51.218 89.9109 50.7673 91.064Z" fill="white"/>
<path d="M69.959 79.8725C70.7972 79.8725 71.3587 80.5439 71.2163 81.4126L68.3063 97.8958C68.1639 98.7646 67.3494 99.4596 66.4875 99.4596C65.6256 99.4596 65.0562 98.7567 65.1985 97.8958L68.1165 81.4126C68.2826 80.5439 69.0971 79.8725 69.9669 79.8725H69.959Z" fill="white"/>
<path d="M76.9338 79.8725C77.772 79.8725 78.3335 80.5439 78.1912 81.4126L75.2811 97.8958C75.1388 98.7646 74.3322 99.4596 73.4623 99.4596C72.5925 99.4596 72.031 98.7567 72.1734 97.8958L75.0834 81.4126C75.2495 80.5439 76.064 79.8725 76.9338 79.8725Z" fill="white"/>
<path d="M90.8593 87.5415C91.8083 88.8289 92.2353 90.5664 91.8952 92.4699C91.5552 94.397 90.5193 96.1345 89.0959 97.3982C87.6962 98.6856 85.8458 99.4991 83.9717 99.4991C82.0976 99.4991 80.5556 98.6856 79.5434 97.3982C78.5945 96.1424 78.1674 94.4049 78.5075 92.4699C78.8475 90.5664 79.8834 88.8289 81.2831 87.5415C82.7144 86.2857 84.5648 85.4406 86.4389 85.4406C88.313 85.4406 89.855 86.2778 90.8672 87.5415H90.8593ZM88.2814 89.6108C87.7516 88.8526 86.9055 88.434 85.9249 88.434C84.889 88.434 83.9322 88.8526 83.094 89.6108C82.3111 90.3137 81.6943 91.3483 81.4729 92.462C81.2752 93.6072 81.5282 94.6418 82.0897 95.3447C82.6511 96.0713 83.4893 96.5215 84.4699 96.5215C85.4504 96.5215 86.4626 96.0713 87.3009 95.3447C88.0837 94.6418 88.7005 93.6072 88.9219 92.462C89.1196 91.3404 88.8666 90.3058 88.2814 89.6108Z" fill="white"/>
<path d="M99.6841 97.2481L99.5734 97.8642C99.431 98.7014 98.6165 99.4043 97.7546 99.4043C96.8927 99.4043 96.3233 98.7014 96.4656 97.8642L96.5763 97.2481C96.7187 96.411 97.5569 95.708 98.3951 95.708C99.2333 95.708 99.8264 96.411 99.6841 97.2481ZM102.483 81.3811L100.665 91.7353C100.499 92.6041 99.6841 93.2991 98.8142 93.2991C97.9444 93.2991 97.3829 92.5962 97.5569 91.7353L99.3757 81.3811C99.518 80.5123 100.356 79.8172 101.194 79.8172C102.033 79.8172 102.649 80.5202 102.483 81.3811Z" fill="white"/>
<path d="M249.765 104.578C249.504 104.751 249.37 105.02 249.37 105.391C249.37 105.825 249.567 106.141 249.97 106.355C250.287 106.307 250.611 106.291 250.959 106.291C252.541 106.291 253.766 106.67 254.644 107.429C255.514 108.187 256.028 109.198 256.178 110.446H252.817C252.73 110.075 252.509 109.751 252.169 109.474C251.829 109.198 251.394 109.064 250.872 109.064C250.279 109.064 249.781 109.261 249.393 109.664C249.006 110.067 248.808 110.604 248.808 111.275C248.808 111.946 248.998 112.507 249.377 112.91C249.757 113.313 250.255 113.51 250.864 113.51C251.354 113.51 251.781 113.376 252.129 113.115C252.477 112.855 252.707 112.539 252.809 112.167H256.17C256.052 113.447 255.514 114.474 254.549 115.24C253.584 116.006 252.359 116.393 250.864 116.393C249.741 116.393 248.769 116.18 247.946 115.753C247.116 115.327 246.483 114.726 246.032 113.945C245.582 113.163 245.36 112.246 245.36 111.204C245.36 110.343 245.534 109.569 245.89 108.898C246.238 108.226 246.736 107.681 247.377 107.263C246.38 106.655 245.874 105.794 245.874 104.688C245.874 103.811 246.199 103.108 246.847 102.595C247.495 102.082 248.381 101.821 249.504 101.821H251.291V100.257H243.66V97.3271H257.522V100.257H254.66V104.301H250.761C250.358 104.301 250.026 104.388 249.765 104.562V104.578Z" fill="white"/>
<path d="M251.995 97.4535C251.386 96.4978 250.888 95.8107 250.516 95.4C250.144 94.9814 249.757 94.705 249.361 94.5628C248.966 94.4207 248.42 94.3496 247.717 94.3496H246.554V91.53H247.653C248.903 91.5458 249.899 91.6801 250.627 91.9407C251.362 92.2013 252.074 92.7384 252.762 93.5519C253.458 94.3654 254.296 95.6686 255.284 97.4535H251.995Z" fill="white"/>
<path d="M273.646 100.273V102.642C274.5 103.03 275.172 103.638 275.671 104.475C276.169 105.312 276.422 106.339 276.422 107.563C276.422 108.669 276.2 109.64 275.75 110.493C275.299 111.346 274.643 112.01 273.765 112.491C272.895 112.973 271.843 113.218 270.618 113.218C270.317 113.218 270.064 113.218 269.858 113.194V110.13L270.459 110.177C271.187 110.177 271.772 109.948 272.207 109.482C272.642 109.024 272.855 108.392 272.855 107.602C272.855 106.9 272.682 106.339 272.326 105.904C271.978 105.47 271.48 105.257 270.839 105.257C270.151 105.257 269.645 105.502 269.313 105.991C268.981 106.481 268.823 107.121 268.823 107.895V108.432H265.912V107.895C265.912 107.136 265.746 106.505 265.422 106.007C265.09 105.509 264.6 105.257 263.943 105.257C263.287 105.257 262.781 105.47 262.425 105.896C262.069 106.323 261.887 106.892 261.887 107.61C261.887 108.4 262.101 109.024 262.536 109.49C262.971 109.956 263.548 110.185 264.284 110.185L264.884 110.138V113.202C264.679 113.218 264.426 113.226 264.125 113.226C262.9 113.226 261.856 112.981 260.978 112.499C260.108 112.017 259.444 111.346 258.993 110.501C258.543 109.648 258.321 108.677 258.321 107.571C258.321 106.394 258.55 105.399 259.017 104.593C259.484 103.788 260.092 103.187 260.867 102.785C261.634 102.382 262.488 102.184 263.429 102.184C264.426 102.184 265.248 102.421 265.881 102.887C266.513 103.353 266.996 103.969 267.328 104.735H267.391C267.976 103.424 268.91 102.619 270.191 102.319V100.281H256.755V97.3508H277.98V100.281H273.638L273.646 100.273Z" fill="white"/>
<path d="M285.128 97.3429V100.273H282.938V113.889H279.419V100.273H277.229V97.3429H279.553C278.96 96.4347 278.478 95.7791 278.106 95.3763C277.735 94.9735 277.363 94.705 276.968 94.5628C276.572 94.4207 276.034 94.3496 275.347 94.3496H274.184V91.53H275.283C276.533 91.5458 277.529 91.6801 278.249 91.9328C278.976 92.1855 279.68 92.7147 280.368 93.5203C281.056 94.3259 281.886 95.5975 282.851 97.3429H285.136H285.128Z" fill="white"/>
</g>
<defs>
<clipPath id="clip0_313_2692">
<rect width="340" height="337" fill="white"/>
</clipPath>
</defs>
</svg>
