<svg width="26" height="19" viewBox="0 0 26 19" fill="none" xmlns="http://www.w3.org/2000/svg">
<path d="M25.8511 18.588C24.1557 14.0849 22.4597 9.58181 20.7706 5.07665C20.7035 4.89708 20.6205 4.83216 20.4268 4.8363C19.8084 4.84873 19.1901 4.85081 18.5724 4.83561C18.3642 4.83009 18.2846 4.90468 18.2141 5.09254C16.6529 9.25858 15.0835 13.4219 13.5154 17.5858C13.3439 18.0417 13.1758 18.4982 12.998 18.9748C13.0935 18.981 13.1585 18.9893 13.2235 18.9893C13.8585 18.99 14.4935 18.983 15.1285 18.9941C15.3028 18.9969 15.3775 18.9402 15.437 18.7786C15.8174 17.7419 16.2144 16.7122 16.5955 15.6762C16.6578 15.5083 16.7339 15.4462 16.9192 15.4469C18.6381 15.4552 20.3576 15.4559 22.0765 15.4462C22.2681 15.4455 22.3359 15.5187 22.3954 15.681C22.7751 16.7087 23.1708 17.7302 23.5457 18.76C23.6134 18.9458 23.7041 18.9962 23.8929 18.9941C24.5949 18.9865 25.2977 18.9962 25.9998 18.9996V18.8981C25.95 18.7952 25.8919 18.695 25.8511 18.588ZM17.5812 13.0759C17.7396 12.6539 17.898 12.2332 18.0557 11.814C18.1346 11.6048 18.2134 11.3955 18.2916 11.1862C18.5274 10.5591 18.7619 9.93336 18.9971 9.30969C19.1534 8.89323 19.3097 8.47745 19.4661 8.06168H19.5248C19.6812 8.47745 19.8375 8.89323 19.9938 9.30969C20.229 9.93336 20.4635 10.5591 20.6993 11.1862C20.7782 11.3955 20.857 11.6048 20.9352 11.814C21.0929 12.2332 21.2513 12.6539 21.4097 13.0759H17.5812Z" fill="#FFD8AC"/>
<path d="M16.8814 0.0922707V2.16355H14.2814V10.6469L12.9339 14.2321L12.7873 14.1264C12.6178 14.0056 12.4179 13.8626 12.2132 13.721C12.041 13.6029 11.9676 13.462 11.9683 13.2514C11.9732 11.9965 11.9732 10.7201 11.9725 9.4866V8.35599C10.9184 8.66334 9.8656 8.56941 8.83567 8.07559C8.84259 8.09423 8.8502 8.11219 8.85711 8.13084C8.97262 8.43611 9.09298 8.75105 9.1414 9.08187C9.2327 9.69518 9.2327 10.2125 9.1414 10.6635C8.90691 11.8231 8.09902 12.578 6.80417 12.848C5.33363 13.1547 3.98829 12.7983 2.80689 11.7893C1.41313 10.5999 0.681316 8.98864 0.0511852 7.44018L0 7.31517L1.30799 6.74676L1.41589 6.98366C1.44702 7.05065 1.47607 7.11557 1.50512 7.1798C1.98446 8.26344 2.45758 9.02869 3.04068 9.66134C3.77318 10.457 4.68552 10.8044 5.75349 10.6932C6.26465 10.64 6.69558 10.3962 6.96534 10.0067C7.26968 9.5681 7.34992 8.99278 7.19152 8.38638C7.0684 7.91535 6.85121 7.4754 6.54617 7.07828C6.4936 7.01059 6.48599 7.00783 6.40507 7.03891C6.05438 7.1729 5.69262 7.29998 5.34332 7.4236C5.20083 7.47333 5.05765 7.52375 4.91447 7.57486L4.79965 7.61561L4.60528 7.23367C4.33345 6.69703 4.07061 6.17904 3.7967 5.63894L3.7213 5.49114L3.88039 5.44418C3.9461 5.42415 4.00974 5.40619 4.07268 5.38893C4.19857 5.3537 4.31754 5.32055 4.43029 5.27773C4.56447 5.228 4.69797 5.17828 4.83147 5.12855C5.36684 4.92964 5.92019 4.72382 6.4521 4.49591C6.64647 4.41234 6.84913 4.26592 7.07186 4.04698C7.4094 3.71408 7.50486 3.29209 7.34784 2.82659C7.2178 2.44327 6.91761 2.22157 6.42997 2.14905C5.70715 2.04131 5.01131 2.24712 4.36042 2.46675C4.11003 2.5517 3.86448 2.6484 3.60371 2.75061C3.4799 2.79965 3.35332 2.84938 3.2219 2.8998L3.10639 2.944L3.04967 2.83349C2.72942 2.21052 2.40432 1.57719 2.04672 0.882383L1.9727 0.738036L2.12695 0.687618C2.28189 0.6372 2.43406 0.58471 2.58485 0.53291C2.92101 0.418261 3.2385 0.309137 3.57051 0.222114C4.58177 -0.0430982 5.40972 -0.0700339 6.1775 0.137163C7.97936 0.621315 9.31086 2.56206 9.08537 4.37504C8.99822 5.07261 8.65514 5.66519 8.06513 6.1376C8.00633 6.18526 7.94754 6.22877 7.87906 6.2778C7.91434 6.28816 7.94961 6.29852 7.9842 6.30888C8.23736 6.38347 8.47668 6.45461 8.7167 6.5002C9.5405 6.65767 10.2813 6.63695 10.9813 6.43735C11.0518 6.41801 11.1169 6.40005 11.1784 6.37657C11.958 6.09202 11.9725 6.0713 11.9725 5.25218V2.14422C11.8694 2.14352 11.7664 2.14283 11.6647 2.14214C11.3057 2.14007 10.9661 2.138 10.6223 2.14974C10.3505 2.1601 10.1741 2.06479 10.0358 1.82997C9.81372 1.45563 9.32954 0.720079 9.3247 0.712482L9.31916 0.704194L8.99199 0.115062L9.2161 0.106084C9.22855 0.105393 9.52874 0.0929614 9.60898 0.0929614C11.9331 0.0922707 16.7431 0.0922707 16.7431 0.0922707H16.8814Z" fill="#FF9E30"/>
</svg>
