<svg width="14" height="14" viewBox="0 0 14 14" fill="none" xmlns="http://www.w3.org/2000/svg">
<path d="M12.0283 4.92915C11.4158 2.23415 9.06493 1.02081 6.99993 1.02081C6.99993 1.02081 6.99993 1.02081 6.9941 1.02081C4.93493 1.02081 2.57827 2.22831 1.96577 4.92331C1.28327 7.93331 3.1266 10.4825 4.79493 12.0866C5.41327 12.6816 6.2066 12.9791 6.99993 12.9791C7.79327 12.9791 8.5866 12.6816 9.1991 12.0866C10.8674 10.4825 12.7108 7.93915 12.0283 4.92915ZM6.99993 7.85165C5.98493 7.85165 5.16243 7.02915 5.16243 6.01415C5.16243 4.99915 5.98493 4.17665 6.99993 4.17665C8.01493 4.17665 8.83743 4.99915 8.83743 6.01415C8.83743 7.02915 8.01493 7.85165 6.99993 7.85165Z" fill="white"/>
</svg>
