<svg width="31" height="42" viewBox="0 0 31 42" fill="none" xmlns="http://www.w3.org/2000/svg">
<g clip-path="url(#clip0_50_437)">
<ellipse cx="14.5884" cy="16.4348" rx="9.11765" ry="9.13043" fill="white"/>
<path d="M30.7863 13.0573C29.7535 6.91052 25.0016 1.76844 19.0118 0.417458C18.2024 0.234478 17.3736 0.136961 16.5533 0H14.4531C14.3636 0.0219138 14.2751 0.0580716 14.1833 0.0657414C11.8533 0.259679 9.69262 0.986121 7.66689 2.16508C1.93722 5.49927 -1.09219 12.4985 0.361538 19.0398C1.07491 22.248 2.44339 25.1713 4.10217 27.9664C7.08411 32.9934 10.7697 37.4551 14.8471 41.5957C15.377 42.1348 15.6295 42.1348 16.1616 41.5979C19.069 38.6647 21.7509 35.531 24.162 32.1651C26.328 29.141 28.2533 25.9744 29.6045 22.4792C30.7788 19.4419 31.3378 16.3335 30.7863 13.0573ZM15.5766 22.9635C11.6352 22.9854 8.40725 19.7695 8.39538 15.8108C8.38351 11.7852 11.5392 8.54748 15.4914 8.53104C19.4068 8.51571 22.5971 11.7469 22.6122 15.744C22.6273 19.6786 19.4468 22.9416 15.5766 22.9635Z" fill="#FF0000"/>
</g>
<defs>
<clipPath id="clip0_50_437">
<rect width="31" height="42" fill="white"/>
</clipPath>
</defs>
</svg>
