<svg width="36" height="37" viewBox="0 0 36 37" fill="none" xmlns="http://www.w3.org/2000/svg">
<path d="M17.9762 34.8196C16.9467 34.8196 15.9768 34.2974 15.2905 33.3873L13.0524 30.4031C13.0076 30.3435 12.8286 30.2689 12.754 30.2539H12.008C5.78605 30.2539 1.93652 28.5679 1.93652 20.1825V12.7222C1.93652 6.12726 5.41303 2.65076 12.008 2.65076H23.9445C30.5394 2.65076 34.0159 6.12726 34.0159 12.7222V20.1825C34.0159 26.7774 30.5394 30.2539 23.9445 30.2539H23.1984C23.0791 30.2539 22.9746 30.3136 22.9 30.4031L20.6619 33.3873C19.9756 34.2974 19.0057 34.8196 17.9762 34.8196ZM12.008 4.88885C6.66637 4.88885 4.17462 7.3806 4.17462 12.7222V20.1825C4.17462 26.9266 6.48732 28.0158 12.008 28.0158H12.754C13.5149 28.0158 14.3803 28.4485 14.8429 29.0603L17.081 32.0444C17.6032 32.7308 18.3492 32.7308 18.8714 32.0444L21.1095 29.0603C21.6019 28.4038 22.3778 28.0158 23.1984 28.0158H23.9445C29.286 28.0158 31.7778 25.5241 31.7778 20.1825V12.7222C31.7778 7.3806 29.286 4.88885 23.9445 4.88885H12.008Z" fill="white" stroke="white" stroke-width="0.3"/>
<path d="M17.9762 18.6905C17.1406 18.6905 16.4841 18.0191 16.4841 17.1984C16.4841 16.3778 17.1556 15.7064 17.9762 15.7064C18.7968 15.7064 19.4683 16.3778 19.4683 17.1984C19.4683 18.0191 18.8117 18.6905 17.9762 18.6905Z" fill="white"/>
<path d="M23.9445 18.6905C23.1089 18.6905 22.4524 18.0191 22.4524 17.1984C22.4524 16.3778 23.1238 15.7064 23.9445 15.7064C24.7651 15.7064 25.4365 16.3778 25.4365 17.1984C25.4365 18.0191 24.78 18.6905 23.9445 18.6905Z" fill="white"/>
<path d="M12.0079 18.6905C11.1724 18.6905 10.5159 18.0191 10.5159 17.1984C10.5159 16.3778 11.1873 15.7064 12.0079 15.7064C12.8286 15.7064 13.5 16.3778 13.5 17.1984C13.5 18.0191 12.8435 18.6905 12.0079 18.6905Z" fill="white"/>
</svg>
