<svg width="34" height="34" viewBox="0 0 34 34" fill="none" xmlns="http://www.w3.org/2000/svg">
<path d="M28.0519 13.7329C28.6097 13.1759 29.1433 12.5763 29.3896 11.8331C29.6117 11.1642 30.0175 10.9179 30.6588 10.862C31.7619 10.7659 32.4299 10.0411 33.0003 9.18852V8.81358C32.8274 8.371 32.4934 8.20316 32.03 8.17643C31.3561 8.13802 30.6847 8.04951 30.0117 7.99105C29.8363 7.97602 29.737 7.92174 29.686 7.73386C29.4138 6.72846 28.8894 5.86668 28.1554 5.13184C26.9146 3.88761 25.6762 2.64088 24.4253 1.40667C24.2533 1.23799 24.0179 1.13444 23.8124 1H23.3123C22.8137 1.16868 22.519 1.58955 22.1607 1.93108C21.8393 2.23838 21.7466 2.62 21.8317 3.04671C22.1908 4.84207 22.5474 6.63743 22.919 8.43029C22.9707 8.68248 22.9223 8.84615 22.7378 9.03069C18.2536 13.5032 13.777 17.9833 9.29878 22.4608C9.21861 22.541 9.13511 22.6162 9.03992 22.7072C8.99566 22.6354 8.95976 22.5869 8.93387 22.5326C8.72511 22.0984 8.42367 21.7978 7.90344 21.8103C7.39741 21.822 7.12937 22.141 6.91811 22.5552C6.60581 23.1648 6.27263 23.7643 5.94363 24.3789C5.52277 24.2846 5.12029 24.181 4.71363 24.105C4.14748 23.9998 3.61473 24.3881 3.54876 24.9626C3.52622 25.1639 3.56463 25.376 3.59636 25.5797C3.66901 26.0465 3.75501 26.5117 3.84269 27.0227C3.27487 26.9325 2.76383 26.8524 2.25196 26.7714C1.65909 26.6778 1.13636 26.9726 1.04451 27.5313C1.00108 27.7943 1.07707 28.1108 1.19481 28.358C1.42695 28.8506 1.72589 29.3116 2.01231 29.811C1.86701 29.811 1.77432 29.8118 1.6808 29.811C1.25326 29.8059 1.0086 29.9897 1.00025 30.3228C0.991064 30.6519 1.23573 30.8598 1.65241 30.8773C2.434 30.909 3.12624 31.1788 3.67485 31.7332C5.34324 33.4184 8.02369 33.4192 9.70544 31.7349C9.99018 31.4502 10.3735 31.2214 10.7534 31.0819C11.9659 30.6385 13.0756 30.8782 14.0159 31.7633C14.815 32.5165 15.741 32.9591 16.8383 32.9975C18.0299 33.0384 19.0628 32.6334 19.9237 31.8034C20.5859 31.1646 21.3708 30.8389 22.2952 30.879C23.1118 30.9149 23.8007 31.2422 24.3853 31.8084C25.1669 32.565 26.1063 32.97 27.1918 32.9983C28.36 33.0284 29.3771 32.6326 30.2196 31.8184C30.805 31.2539 31.4872 30.909 32.3047 30.884C32.6178 30.8748 32.8433 30.7671 33.0003 30.5032V30.1909C32.8575 29.8878 32.617 29.7909 32.288 29.8068C31.21 29.8602 30.2964 30.2719 29.5215 31.0151C28.7408 31.7633 27.8164 32.0664 26.7451 31.8802C26.1004 31.7692 25.5551 31.4635 25.0859 31.0101C24.331 30.2803 23.4317 29.8686 22.3779 29.816C21.1228 29.7542 20.0631 30.1926 19.1563 31.0569C18.115 32.0497 16.5986 32.2401 15.4154 31.4919C14.7975 31.1011 14.2422 30.6118 13.6476 30.1592C13.9866 29.5696 14.3257 28.9734 14.6722 28.3813C14.8818 28.0239 14.9336 27.6649 14.7398 27.2841C14.7106 27.2273 14.6839 27.1154 14.7106 27.0929C15.0054 26.8449 15.1807 26.4632 15.6141 26.3664C19.0336 25.6023 22.4522 24.8366 25.8649 24.0407C26.2733 23.9456 26.6925 23.7293 27.0131 23.4579C27.5993 22.9619 28.1212 22.3882 28.6589 21.8362C28.9704 21.5172 29.0422 21.1247 28.8928 20.7089C28.7416 20.2864 28.4176 20.0542 27.9784 20.0091C27.0465 19.9148 26.1129 19.8363 25.1802 19.7519C24.2416 19.6659 23.3022 19.5807 22.3127 19.4906C22.4154 19.3787 22.4806 19.3027 22.5507 19.2325C24.3836 17.3987 26.2165 15.5641 28.0519 13.7329ZM28.7642 8.93884C29.6844 9.02067 30.6029 9.11169 31.5699 9.27119C31.392 9.40897 31.2333 9.62525 31.0338 9.67201C29.6919 9.99184 28.3416 10.2758 26.9947 10.5714C26.983 10.553 26.9714 10.5355 26.9605 10.5171C27.4649 10.0102 27.9659 9.49999 28.4794 9.00314C28.5404 8.94468 28.6706 8.93049 28.7642 8.93884ZM22.9139 3.03335C22.8647 2.80705 22.9106 2.66676 23.0726 2.51645C23.2304 2.37032 23.3565 2.18911 23.5001 2.0196C24.5823 3.10016 25.5894 4.10639 26.5764 5.09175C25.6829 5.98359 24.7811 6.88294 23.8734 7.78814C23.7348 7.1084 23.5886 6.40028 23.4467 5.69132C23.2697 4.80533 23.1068 3.916 22.9139 3.03335ZM13.1775 28.8415C12.9963 29.1571 12.8819 29.5838 12.6097 29.7533C12.35 29.9137 11.9216 29.7951 11.5692 29.816C10.5163 29.8778 9.63195 30.3086 8.87208 31.0335C7.86837 31.9913 6.5056 32.2134 5.29982 31.5996C4.97165 31.4326 4.71196 31.1345 4.38964 30.9516C3.60554 30.5082 3.19304 29.7709 2.77719 29.026C2.56593 28.6469 2.34047 28.2761 2.08078 27.831C2.84984 27.9505 3.53707 28.0523 4.22347 28.1651C4.83471 28.2644 5.09858 28.0173 4.99837 27.4085C4.87896 26.682 4.74452 25.958 4.60674 25.1739C5.05349 25.2758 5.46098 25.3668 5.86847 25.462C6.4079 25.5881 6.54067 25.5305 6.79703 25.0512C7.16444 24.3647 7.53102 23.6783 7.93016 22.9293C8.03621 23.1264 8.11805 23.2767 8.19821 23.427C8.49798 23.9856 8.79609 24.546 9.0967 25.1038C9.31548 25.5088 9.48415 25.5831 9.93591 25.477C10.3584 25.3777 10.7818 25.2783 11.2527 25.1681C11.1576 25.725 11.069 26.2419 10.9797 26.7597C10.9371 27.0052 10.8895 27.2499 10.8486 27.4962C10.7693 27.9697 11.0515 28.2511 11.5425 28.1776C12.1287 28.0907 12.7132 27.9922 13.2994 27.9012C13.4205 27.8828 13.5432 27.8745 13.7378 27.8528C13.5307 28.2185 13.3554 28.5308 13.1775 28.8415ZM25.2236 20.845C26.0829 20.9252 26.9413 21.0062 27.8005 21.0872C27.8172 21.1114 27.8348 21.1356 27.8515 21.1598C27.2778 21.7118 26.7292 22.2938 26.1171 22.799C25.8808 22.9944 25.505 23.0387 25.1844 23.1122C21.891 23.8604 18.5952 24.6011 15.301 25.3426C15.2116 25.3626 15.1206 25.3735 14.9352 25.4044C15.0371 25.2733 15.0814 25.2023 15.1381 25.1455C16.6829 23.599 18.2261 22.0517 19.7801 20.5143C19.8728 20.4233 20.0556 20.3699 20.1892 20.3816C21.8685 20.5269 23.5452 20.6872 25.2236 20.845ZM21.056 19.2066C20.9675 19.291 20.808 19.3302 20.6786 19.3361C20.4723 19.3453 20.2644 19.3077 20.0565 19.2926C19.7049 19.2668 19.4001 19.3736 19.1496 19.625C17.5222 21.2525 15.8913 22.8775 14.268 24.51C13.823 24.9576 13.8029 25.4503 14.1578 26.0516C13.7127 26.935 12.8627 26.9016 12.0168 27.0077C12.112 26.4691 12.2038 25.9547 12.2949 25.4395C12.4544 24.5409 11.8723 23.9506 11.0031 24.1293C10.8703 24.1568 10.74 24.1919 10.6081 24.222C10.386 24.2737 10.1639 24.3247 9.9192 24.3806C9.7998 24.1568 9.68373 23.9405 9.58018 23.746C15.5306 17.7954 21.4652 11.8598 27.4206 5.90426C27.9517 6.44537 28.3533 7.06498 28.6005 7.84158C27.9433 7.85912 27.6193 8.35096 27.226 8.73759C26.6758 9.27703 26.1338 9.82566 25.591 10.3726C25.2762 10.6899 25.2003 11.0565 25.3723 11.3914C25.5535 11.7429 25.9033 11.8974 26.3559 11.8039C26.9471 11.682 27.535 11.5467 28.1245 11.4181C28.213 11.3989 28.3032 11.3847 28.4418 11.3588C28.1596 11.9851 27.7863 12.4886 27.3371 12.9379C25.7322 14.5437 24.1256 16.1487 22.5198 17.7536C22.0338 18.2396 21.5537 18.7323 21.056 19.2066Z" fill="#FF9E30" stroke="#FF9E30" stroke-width="0.376468"/>
<path d="M16.9579 19.6926C16.7658 19.9114 16.5604 20.1202 16.3424 20.3122C16.1162 20.511 15.8072 20.4843 15.6126 20.2763C15.4298 20.0801 15.4147 19.777 15.6043 19.5657C15.798 19.3486 15.9926 19.119 16.2306 18.9603C16.3692 18.8676 16.6172 18.8375 16.7717 18.8968C17.1188 19.0285 17.1879 19.4326 16.9579 19.6926Z" fill="#FFC481"/>
<path d="M21.7985 14.7909C21.5622 15.0982 21.2591 15.3545 20.976 15.6242C20.7695 15.8195 20.3984 15.5769 20.3139 15.362C20.2529 15.2084 20.2771 14.957 20.3698 14.8209C20.536 14.5763 20.7706 14.3725 20.9994 14.1779C21.204 14.0042 21.4428 14.0101 21.6549 14.1838C21.8528 14.3458 21.9505 14.593 21.7985 14.7909Z" fill="#FFC481"/>
<path d="M14.5989 22.0558C14.4052 22.2729 14.2006 22.4825 13.9802 22.6721C13.7647 22.8566 13.4633 22.8249 13.2737 22.6295C13.0825 22.4324 13.0608 22.1385 13.2512 21.9222C13.4432 21.7043 13.6378 21.4746 13.8758 21.316C14.0144 21.2241 14.2641 21.1982 14.4177 21.2584C14.7677 21.398 14.8324 21.7923 14.5989 22.0558Z" fill="#FFC481"/>
<path d="M19.3828 17.2668C19.1907 17.4847 18.9862 17.6927 18.7699 17.8847C18.5578 18.0726 18.2597 18.0543 18.0634 17.8689C17.8555 17.6718 17.8288 17.3662 18.0275 17.1407C18.2196 16.9236 18.4142 16.6956 18.6513 16.537C18.7908 16.4443 19.0396 16.4134 19.1941 16.4727C19.5387 16.6041 19.6115 17.0079 19.3828 17.2668Z" fill="#FFC481"/>
<path d="M24.0306 12.6281C23.8602 12.8227 23.6749 13.0055 23.482 13.1776C23.2565 13.3788 22.9534 13.3696 22.7521 13.175C22.5484 12.978 22.5259 12.669 22.7238 12.4452C22.9091 12.2364 23.0937 12.0102 23.3241 11.8649C23.4736 11.7705 23.7291 11.7446 23.8928 11.8064C24.2793 11.9497 24.2574 12.3698 24.0306 12.6281Z" fill="#FFC481"/>
</svg>
