<svg width="50" height="55" viewBox="0 0 50 55" fill="none" xmlns="http://www.w3.org/2000/svg">
<g clip-path="url(#clip0_1086_3298)">
<path d="M49.935 16.9833C49.9336 16.2431 49.5493 15.8657 48.7892 15.7883C44.5181 15.3564 40.4094 14.2848 36.4562 12.579C36.0578 12.4068 35.9589 12.1945 35.9632 11.7842C35.9829 9.63651 35.9872 7.48742 35.966 5.33975C35.9448 2.98406 34.4641 0.964082 32.2727 0.248194C31.993 0.157811 31.7062 0.0832094 31.4222 0H4.54944C4.52259 0.0229543 4.49999 0.0573858 4.4689 0.0659937C1.43406 0.850745 0 2.71291 0 5.87774C0 20.3404 0 34.8031 0.00141287 49.2657C0.00141287 52.716 2.23516 54.9928 5.61898 54.9943C11.1207 54.9957 16.621 54.9943 22.1227 54.9943C24.9795 54.9943 27.8349 55.01 30.6917 54.9885C33.3267 54.9684 35.5124 53.1048 35.8685 50.4708C36.0324 49.2571 35.9815 48.0075 35.9561 46.7752C35.9448 46.2372 36.1285 46.0378 36.6004 45.8226C44.7978 42.104 49.2893 35.6825 49.8926 26.594C50.1045 23.4034 49.9378 20.1883 49.935 16.9833ZM19.9214 26.4247C20.245 33.8175 23.5101 39.6005 29.4781 43.827C29.6363 43.9375 29.7974 44.0422 30.0856 44.2359H2.1518V10.7742H33.8552C33.8552 11.2261 33.8891 11.6708 33.8382 12.107C33.8198 12.2605 33.6234 12.4513 33.4638 12.5216C30.4657 13.8472 27.356 14.8027 24.1318 15.3564C23.0905 15.5343 22.0393 15.6563 20.991 15.7897C20.2577 15.8815 19.8932 16.266 19.8932 17.0307C19.8904 20.1625 19.7844 23.2986 19.9214 26.4247ZM2.13908 5.08725C2.22668 3.4991 3.56608 2.228 5.13295 2.15484C5.30956 2.14623 5.48617 2.1491 5.66136 2.1491H30.3089C32.5723 2.1491 33.8552 3.44458 33.8566 5.72997V8.55479H2.12637C2.12637 7.37408 2.0755 6.2278 2.13908 5.08725ZM33.8325 49.9056C33.7351 51.5827 32.3391 52.8366 30.6282 52.8423C27.5425 52.8538 24.4568 52.8466 21.3725 52.8466C16.118 52.8466 10.865 52.8466 5.61191 52.8466C3.42055 52.8466 2.1193 51.531 2.11648 49.3202C2.11506 48.3734 2.11648 47.4265 2.11648 46.4409H33.8453C33.8453 47.6216 33.899 48.7679 33.8325 49.907V49.9056ZM47.8143 26.0446C47.7309 34.0269 42.6842 41.2834 35.3132 44.0293C35.0759 44.1168 34.7467 44.1211 34.5164 44.0264C27.8406 41.2977 23.7461 36.3582 22.3375 29.1879C22.0916 27.934 22.0478 26.6299 22.021 25.3459C21.9715 23.0562 22.0068 20.7636 22.0068 18.4725V17.8456C26.4291 17.3176 30.6056 16.1527 34.6209 14.3766C34.7876 14.302 35.0434 14.2977 35.2101 14.3723C39.2198 16.1613 43.4033 17.3076 47.7846 17.8413C47.7973 17.9847 47.8199 18.1224 47.8199 18.2587C47.8214 20.854 47.8411 23.4493 47.8143 26.0446Z" fill="#FF9E30"/>
<path d="M41.4648 26.9111C41.4591 25.9929 40.8403 25.3 39.9445 25.1077C39.7948 25.0747 39.6478 25.0374 39.4656 24.993C39.5546 23.5698 39.443 22.2126 38.5373 21.0563C37.6274 19.8928 36.442 19.2702 34.9825 19.24C33.8113 19.2171 32.7728 19.6173 31.8884 20.4078C30.5165 21.6344 30.2113 23.2398 30.3695 24.9886C30.2537 25.0231 30.1887 25.0489 30.1209 25.0632C28.8563 25.3258 28.3548 25.9456 28.3548 27.254C28.3534 29.6512 28.3505 32.0485 28.3548 34.4444C28.3576 35.6725 29.1078 36.4515 30.3243 36.4888C30.905 36.506 31.4871 36.4931 32.0678 36.4931C34.5177 36.4931 36.9662 36.5002 39.4147 36.4888C40.6142 36.4845 41.4521 35.7442 41.462 34.6381C41.486 32.0629 41.4817 29.4863 41.4634 26.9111H41.4648ZM36.288 30.9754C36.1736 31.1548 36.1058 31.3915 36.0945 31.6067C36.0676 32.1561 36.086 32.707 36.086 33.2996H33.7576C33.7576 32.72 33.776 32.1533 33.7491 31.588C33.7392 31.3728 33.6672 31.1361 33.5541 30.9539C33.0497 30.1433 33.1529 29.2223 33.8424 28.6298C34.4697 28.0889 35.4008 28.0961 36.0238 28.6484C36.7048 29.251 36.7981 30.172 36.288 30.9754ZM37.3449 25.0346H32.5524C32.1695 23.1365 32.8915 21.7937 34.4386 21.4379C35.7907 21.1266 37.1993 22.1437 37.3378 23.5425C37.3844 24.016 37.3449 24.498 37.3449 25.0346Z" fill="#FFD8AC"/>
<path d="M19.0399 49.6244C19.0385 50.1954 18.5736 50.6788 18.0113 50.6932C17.4292 50.709 16.9319 50.214 16.9319 49.6215C16.9333 49.0505 17.3981 48.5671 17.9619 48.5541C18.544 48.5384 19.0413 49.0333 19.0399 49.6244Z" fill="#FFD8AC"/>
<path d="M22.5748 5.34693C22.5875 6.01547 22.1213 6.44013 21.3541 6.443C20.2266 6.44874 19.0977 6.443 17.9688 6.443C16.8583 6.44443 15.7478 6.4473 14.6373 6.443C13.863 6.43869 13.3954 6.02839 13.3982 5.36558C13.3996 4.70564 13.8673 4.2982 14.6444 4.29677C16.8838 4.2939 19.1217 4.29246 21.3611 4.29677C22.1043 4.2982 22.5621 4.70421 22.5748 5.34549V5.34693Z" fill="#FFD8AC"/>
</g>
<defs>
<clipPath id="clip0_1086_3298">
<rect width="50" height="55" fill="white"/>
</clipPath>
</defs>
</svg>
