<svg width="26" height="25" viewBox="0 0 26 25" fill="none" xmlns="http://www.w3.org/2000/svg">
<g clip-path="url(#clip0_26_564)">
<path d="M5.75862 0C2.58654 0 0.0115 2.57632 0 5.73752C0 8.91022 2.57504 11.498 5.74616 11.498C8.91728 11.498 11.4923 8.92172 11.4923 5.74902C11.5048 2.58783 8.92878 0 5.75862 0ZM5.74712 9.70891C3.57745 9.70891 1.78921 7.93127 1.78921 5.76053C1.78921 3.58978 3.56499 1.78914 5.74616 1.78914C7.92732 1.78914 9.71557 3.56677 9.71557 5.76149C9.70407 7.94374 7.92732 9.70986 5.74616 9.70986L5.74712 9.70891Z" fill="#FF9E30"/>
<path d="M5.75862 13.502C2.5875 13.502 0 16.0783 0 19.251C0 22.4237 2.57504 25 5.74616 25C8.91728 25 11.4923 22.4237 11.4923 19.251C11.5038 16.0783 8.92878 13.502 5.75862 13.502ZM5.73466 23.2109C3.56499 23.2109 1.78825 21.4332 1.78825 19.251C1.78825 17.0687 3.57649 15.2911 5.77012 15.2911C7.96374 15.2911 9.71653 17.0687 9.71653 19.251C9.71653 21.4332 7.92828 23.2224 5.73466 23.2109Z" fill="#FF9E30"/>
<path d="M19.2529 13.502C16.0818 13.502 13.5067 16.0783 13.5067 19.251C13.5067 22.4237 16.0818 25 19.2529 25C22.424 25 24.999 22.4237 24.999 19.251C24.999 16.0783 22.4125 13.502 19.2529 13.502ZM19.2289 23.2109C17.0477 23.2109 15.2825 21.4217 15.295 19.2155C15.295 17.0448 17.0832 15.2911 19.2644 15.2911C21.4455 15.2911 23.2108 17.0802 23.2108 19.251C23.2108 21.4217 21.4225 23.2224 19.2289 23.2109Z" fill="#FF9E30"/>
<path d="M24.6061 6.47676C24.4394 6.57264 24.2132 6.63209 24.0216 6.63209C22.8409 6.64359 21.6612 6.64359 20.4805 6.64359H20.147V10.5795C20.1355 11.0091 19.8969 11.3427 19.503 11.4626C19.1331 11.57 18.7277 11.4386 18.5255 11.1049C18.4297 10.9381 18.3703 10.7233 18.3703 10.5325C18.3463 9.35127 18.3588 8.17097 18.3588 6.98972V6.64359H14.4842C13.9121 6.64359 13.5067 6.27349 13.5067 5.76053C13.4952 5.22359 13.8997 4.85445 14.4842 4.85445H18.3588V0.99045C18.3588 0.394071 18.7287 0 19.2644 0C19.8001 0 20.147 0.405576 20.147 0.977986V4.85445H24.0934C24.5228 4.85445 24.8448 5.1047 24.9636 5.51028C25.0709 5.86791 24.9396 6.28596 24.6061 6.47676Z" fill="#FFC481"/>
</g>
<defs>
<clipPath id="clip0_26_564">
<rect width="25.3165" height="25" fill="white" transform="translate(0.253174)"/>
</clipPath>
</defs>
</svg>
