<svg width="24" height="25" viewBox="0 0 24 25" fill="none" xmlns="http://www.w3.org/2000/svg">
<g clip-path="url(#clip0_421_2786)">
<path d="M20.2118 7.49355C20.2105 5.43789 18.7713 3.94604 16.7913 3.94534C12.3362 3.94324 7.88106 3.94464 3.42593 3.94534C3.23336 3.94534 3.03812 3.94604 2.84891 3.97826C1.14536 4.27312 0.00876135 5.66131 0.00339372 7.46484C-0.00264485 9.78946 0.00205182 12.1141 0.00205182 14.4387C0.00205182 16.7633 -0.00398676 19.1061 0.00406468 21.4392C0.0107742 23.4717 1.46205 24.9916 3.40513 24.9944C7.87703 25.0014 12.3489 25.0014 16.8208 24.9944C18.7827 24.9916 20.2105 23.4892 20.2118 21.442C20.2145 16.7927 20.2145 12.1435 20.2118 7.49355ZM18.7626 15.5439C18.7626 15.5873 18.7565 15.6301 18.7498 15.7211C18.674 15.6567 18.6183 15.6154 18.5707 15.5663C17.9125 14.8919 17.2563 14.2167 16.5988 13.5422C15.3528 12.2633 13.5063 12.4867 12.575 14.0332C11.7645 15.3793 10.9594 16.729 10.1516 18.0766C9.91069 18.4793 9.78925 18.5129 9.39808 18.286C8.73988 17.9036 8.08167 17.5197 7.42414 17.1359C6.09162 16.3585 4.74435 16.6884 3.88955 18.0044C3.14748 19.1475 2.40742 20.2912 1.66602 21.435C1.61569 21.5127 1.56001 21.587 1.46808 21.7186C1.45735 21.5659 1.44594 21.4756 1.44594 21.3852C1.44594 16.7626 1.44326 12.1407 1.44661 7.51807C1.44729 6.28117 2.23364 5.4568 3.41519 5.4561C7.8777 5.45259 12.3409 5.45259 16.8034 5.4561C17.9568 5.4575 18.7552 6.26015 18.7599 7.44383C18.77 10.1439 18.7632 12.8439 18.7626 15.5439Z" fill="#FF9E30"/>
<path d="M23.9959 17.5022C23.9939 19.0928 23.125 20.3704 21.7328 20.8663C21.6402 20.8999 21.5443 20.9223 21.4201 20.958V20.6162C21.4201 16.2303 21.4242 11.8437 21.4188 7.45714C21.4161 5.23127 20.0521 3.37592 18.011 2.83941C17.6017 2.73225 17.1663 2.69373 16.7422 2.69233C12.5649 2.68182 8.38686 2.68603 4.2095 2.68603H3.87939C3.92435 2.52633 3.95454 2.39256 3.9995 2.26439C4.4591 0.955343 5.62924 0.0630358 6.96712 0.0105059C7.37774 -0.00560323 7.78904 0.00140075 8.20033 0.00140075C12.3274 0.000700354 16.4551 -0.000700442 20.5821 0.00140075C22.1461 0.00210115 23.4189 0.946938 23.8463 2.44649C23.9449 2.79249 23.9905 3.1672 23.9912 3.5293C24.0013 8.18625 24.0013 12.8439 23.9959 17.5015V17.5022Z" fill="#FF9E30"/>
<path d="M9.21486 10.8155C9.22359 12.1505 8.17824 13.2445 6.88598 13.2536C5.60849 13.2627 4.55778 12.1876 4.54637 10.8597C4.53429 9.49319 5.56286 8.40337 6.86854 8.39777C8.16012 8.39286 9.20614 9.47078 9.21486 10.8155Z" fill="#FF9E30"/>
</g>
<defs>
<clipPath id="clip0_421_2786">
<rect width="24" height="25" fill="white"/>
</clipPath>
</defs>
</svg>
