<svg width="20" height="17" viewBox="0 0 20 17" fill="none" xmlns="http://www.w3.org/2000/svg">
<g clip-path="url(#clip0_218_2074)">
<path d="M17.5666 1.44981C15.8041 1.25793 14.0428 1.05081 12.2809 0.851594C10.6697 0.669308 9.05786 0.48928 7.44607 0.306994C6.61252 0.212747 5.77784 0.121886 4.94542 0.0174807C3.8122 -0.125301 2.8861 0.606101 2.76646 1.74158C2.70833 2.29352 2.63609 2.84432 2.56837 3.3957C2.56216 3.45044 2.5458 3.50405 2.52943 3.5825C2.21734 3.5825 1.90469 3.54976 1.60107 3.58871C0.796866 3.69198 0.145039 4.37598 0.0332968 5.18977C0.0276533 5.23154 0.0112871 5.27217 0 5.31393V15.3955C0.108356 15.6738 0.174385 15.9808 0.334097 16.2251C0.693025 16.7737 1.23875 17.0005 1.88945 16.9994C4.11865 16.9972 6.34784 16.9994 8.57703 16.9994C10.5912 16.9994 12.6059 16.9972 14.6201 17.0005C15.2793 17.0022 15.8453 16.7996 16.29 16.2979C16.6078 15.9401 16.7534 15.5197 16.7274 15.0456C16.7173 14.8605 16.7618 14.777 16.9577 14.7223C17.8646 14.47 18.2421 13.8001 18.3398 12.9163C18.5238 11.2543 18.7151 9.59285 18.9036 7.9314C19.0684 6.4765 19.2388 5.02216 19.3951 3.5667C19.5119 2.48032 18.7117 1.57453 17.5666 1.45037V1.44981ZM15.7917 11.0116C15.7917 12.3384 15.7923 13.6658 15.7917 14.9931C15.7917 15.6168 15.4435 15.9954 14.8233 16.0485C14.7415 16.0558 14.6591 16.0581 14.5772 16.0581C10.3779 16.0586 6.17797 16.0586 1.97862 16.0575C1.84656 16.0575 1.71112 16.0564 1.58301 16.0282C1.22408 15.9486 0.955449 15.6241 0.948677 15.2499C0.939083 14.6754 0.943034 14.1009 0.948677 13.5264C0.948677 13.4987 0.943033 13.4891 0.957142 13.4598C0.957142 13.4175 0.954885 13.0727 0.953192 12.953C0.949241 12.712 0.954885 12.4705 0.955449 12.2295C0.951499 12.2318 0.948677 12.234 0.944727 12.2368V12.0591C0.944727 9.90551 0.945855 7.75194 0.944162 5.59837C0.943598 5.28289 1.02035 4.99959 1.2427 4.76651C1.39339 4.60849 1.57737 4.52271 1.79633 4.5165C1.84713 4.51481 1.89735 4.51481 1.94815 4.51481C6.17289 4.51424 10.3982 4.51424 14.6235 4.51481C15.1845 4.51481 15.5852 4.78513 15.7358 5.27668C15.7737 5.40141 15.7889 5.53742 15.7895 5.66778C15.7934 6.88058 15.8081 11.0015 15.7917 11.0116ZM18.4493 3.49051C18.2427 5.28346 18.0311 7.07584 17.8223 8.86879C17.6569 10.2921 17.4955 11.7154 17.3268 13.1381C17.2867 13.4784 17.0728 13.6827 16.7314 13.8153V13.5727C16.7314 10.9388 16.7331 8.30557 16.7302 5.67173C16.7291 4.81956 16.3555 4.18297 15.597 3.78454C15.2962 3.62652 14.97 3.56782 14.6292 3.56839C10.9975 3.57065 7.36593 3.56952 3.73432 3.56952H3.48826C3.55937 2.95268 3.61299 2.3618 3.69933 1.77544C3.78681 1.18174 4.24111 0.870218 4.84384 0.940762C6.65541 1.15183 8.46755 1.35669 10.2797 1.56606C11.9722 1.76133 13.6647 1.95998 15.3572 2.15751C16.1219 2.24667 16.8883 2.32343 17.6501 2.43065C18.1851 2.50628 18.5108 2.9555 18.4493 3.49051Z" fill="white"/>
<path d="M15.7889 5.66777C15.7883 5.5374 15.7731 5.4014 15.7353 5.27667C15.5846 4.78512 15.1839 4.5148 14.623 4.5148C10.3976 4.51423 6.17234 4.51423 1.94759 4.5148C1.8968 4.5148 1.84657 4.5148 1.79578 4.51649C1.57681 4.5227 1.39283 4.60848 1.24215 4.7665C1.01979 4.99958 0.943042 5.28288 0.943607 5.59835C0.9453 7.75192 0.944735 9.9055 0.944171 12.0591V12.2368C0.948121 12.234 0.950943 12.2318 0.954894 12.2295C0.954894 12.2295 3.04131 10.7131 3.977 10.0359C4.90311 9.36541 5.92233 9.41677 6.78127 10.1724C7.57757 10.8734 8.37275 11.576 9.16905 12.2763C9.66342 12.7109 10.1634 12.7611 10.734 12.4293C12.3531 11.4868 15.5914 9.60244 15.5914 9.60244C15.5914 9.60244 15.8239 9.47828 15.8239 9.45796C15.8194 8.24517 15.7929 6.88056 15.7889 5.66777ZM9.83047 9.95177C8.74804 9.95516 7.84903 9.06122 7.84677 7.97992C7.84508 6.90088 8.74296 5.99905 9.822 5.99679C10.9039 5.99397 11.8001 6.88734 11.8029 7.97146C11.8063 9.0584 10.9197 9.94895 9.83047 9.95177Z" fill="white"/>
<path d="M15.9188 10.5184C15.9188 11.8452 15.7918 13.6664 15.7912 14.9937C15.7912 15.6173 15.443 15.996 14.8228 16.0491C14.741 16.0564 14.6586 16.0587 14.5767 16.0587C10.3774 16.0592 6.17748 16.0592 1.97813 16.0581C1.84608 16.0581 1.71063 16.057 1.58252 16.0288C1.22359 15.9492 0.954962 15.6247 0.94819 15.2505C0.938596 14.676 0.942546 14.1015 0.94819 13.527C0.94819 13.4993 0.971893 13.4384 0.971893 13.4384L1.16264 13.2629C1.16264 13.2629 3.46125 11.5613 4.62043 10.7227C5.10465 10.3722 5.62329 10.4264 6.10637 10.8491C6.91453 11.5557 7.71365 12.2724 8.52463 12.9762C9.20298 13.5654 9.97106 13.7459 10.8289 13.4277C10.9813 13.3707 11.1257 13.2883 11.2674 13.2064C12.7042 12.3774 14.1055 11.5659 15.5418 10.7351C15.5474 10.7317 15.8618 10.5528 15.9182 10.5184H15.9188Z" fill="white"/>
<path d="M10.8634 7.96868C10.8718 8.52851 10.4023 9.00426 9.83455 9.01104C9.26963 9.01781 8.79614 8.55109 8.79275 7.98335C8.7888 7.41505 9.251 6.94607 9.81931 6.94268C10.3876 6.93873 10.8549 7.39755 10.8634 7.96868Z" fill="white"/>
</g>
<defs>
<clipPath id="clip0_218_2074">
<rect width="19.4064" height="17" fill="white"/>
</clipPath>
</defs>
</svg>
