<svg width="39" height="37" viewBox="0 0 39 37" fill="none" xmlns="http://www.w3.org/2000/svg">
<mask id="path-1-outside-1_310_2536" maskUnits="userSpaceOnUse" x="3.99994" y="3.02512" width="31" height="31" fill="black">
<rect fill="white" x="3.99994" y="3.02512" width="31" height="31"/>
<path d="M33.5738 30.1245C31.5827 27.8021 29.5893 25.482 27.5965 23.1607C27.0817 22.5617 26.5686 21.9609 26.0674 21.3761C26.4311 20.9551 26.7925 20.5683 27.1169 20.153C27.4982 19.6646 27.7721 19.1166 27.8602 18.4932C27.9653 17.7467 27.6664 17.4386 26.9255 17.522C26.1305 17.6122 25.4918 18.0241 24.8946 18.5147C24.6485 18.7167 24.4195 18.9391 24.1678 19.1654C23.7479 18.6753 23.3393 18.1982 22.9177 17.7064C23.0393 17.6156 23.1347 17.5407 23.233 17.4704C24.7838 16.3597 26.3311 15.245 27.8869 14.1417C28.6154 13.6243 29.1586 12.9663 29.4996 12.1426C29.9172 11.1323 30.0002 10.0766 29.9007 9.00276C29.8536 8.49902 29.4797 8.16093 28.97 8.14164C28.4995 8.12349 28.0233 8.1008 27.5556 8.14618C26.0151 8.29537 24.7343 8.91653 23.8365 10.2326C23.1722 11.2072 22.4801 12.1625 21.7926 13.1211C21.3147 13.7871 20.8243 14.4434 20.3271 15.1208C19.8253 14.6902 19.348 14.2818 18.8877 13.8875C19.2588 13.419 19.6372 12.9861 19.964 12.5176C20.3021 12.0326 20.5248 11.4908 20.5157 10.8816C20.5078 10.375 20.3134 10.1798 19.81 10.1719C19.2099 10.1623 18.6707 10.3722 18.1968 10.708C17.6598 11.0892 17.1631 11.5254 16.6318 11.9509C16.5943 11.9208 16.5199 11.8646 16.4494 11.8039C15.2152 10.7477 13.9816 9.69086 12.7474 8.6346C11.0608 7.19203 9.37601 5.74719 7.68721 4.30746C7.22125 3.90981 6.70586 3.93533 6.27059 4.36419C5.94783 4.68186 5.63019 5.00577 5.30743 5.32401C5.05058 5.57701 4.93239 5.89412 5.03922 6.22654C5.1165 6.46593 5.28527 6.69113 5.45801 6.8823C7.96962 9.66533 10.4886 12.4416 13.0059 15.22C13.0724 15.2938 13.1366 15.3709 13.2173 15.4651C12.9116 15.7624 12.6212 16.0329 12.3445 16.3166C11.9336 16.7381 11.9331 17.2826 12.3377 17.7058C12.5201 17.897 12.7099 18.0808 12.8979 18.2669C13.4054 18.7695 13.923 18.7683 14.4322 18.2646C14.6635 18.036 14.893 17.8051 15.1328 17.5663C15.6726 18.163 16.1841 18.7275 16.7068 19.305C15.8249 20.1837 14.955 21.0363 14.106 21.9082C13.923 22.0965 13.7764 22.109 13.5452 22.0301C12.2064 21.574 10.8597 21.1395 9.52034 20.6846C9.06518 20.5303 8.68844 20.6131 8.36114 20.9591C8.21794 21.1094 8.06736 21.253 7.92075 21.3999C7.26103 22.0602 7.38206 22.7619 8.22305 23.1533C9.53114 23.7631 10.8415 24.3695 12.1473 24.9845C12.5417 25.1705 12.8423 25.4684 13.0286 25.8637C13.6594 27.2019 14.2805 28.5452 14.9118 29.8834C15.2436 30.5874 15.9772 30.7156 16.5392 30.1767C16.6887 30.0326 16.8262 29.8749 16.9824 29.7388C17.4126 29.3638 17.5007 28.9304 17.3114 28.3898C16.8506 27.0737 16.425 25.7457 15.9721 24.4268C15.8994 24.2164 15.938 24.0916 16.0937 23.9396C16.8375 23.214 17.5689 22.476 18.3024 21.7403C18.44 21.6024 18.5672 21.4543 18.707 21.3018C19.3145 21.8509 19.8804 22.3625 20.4828 22.9071C20.2021 23.1737 19.9253 23.4171 19.6725 23.682C19.2895 24.0825 19.2946 24.6265 19.6736 25.0299C19.8611 25.2295 20.0589 25.419 20.2538 25.6119C20.747 26.0997 21.2777 26.106 21.767 25.6209C22.0341 25.356 22.2898 25.0798 22.5603 24.799C22.6642 24.8863 22.7364 24.9442 22.8052 25.0066C25.5321 27.4685 28.2574 29.9328 30.9878 32.3908C31.2361 32.6143 31.5202 32.7981 31.7879 33C32.4649 33.5108 34.4784 31.3034 34 30.6782C33.8585 30.4932 33.7256 30.3015 33.5738 30.1245ZM26.8647 18.5096C26.6027 19.4025 26.072 20.0413 25.4003 20.6017C25.2071 20.3754 25.0184 20.1547 24.823 19.9256C25.3656 19.2698 26.0004 18.7768 26.8647 18.5096ZM19.5105 11.1754C19.2542 12.0382 18.7587 12.6605 18.0985 13.213C17.8768 13.0236 17.653 12.8324 17.4222 12.6344C17.9882 11.9673 18.6184 11.4392 19.5105 11.1754ZM13.6554 17.6179C13.4611 17.4307 13.2463 17.2236 13.0332 17.0177C13.3145 16.7432 13.5884 16.4765 13.8816 16.1912C14.0714 16.3983 14.2708 16.6155 14.4657 16.8283C14.181 17.1056 13.914 17.366 13.6554 17.6179ZM5.97852 6.03934C6.33707 5.69217 6.67461 5.36599 7.03316 5.01882C11.2461 8.62382 15.476 12.2436 19.7458 15.8979C18.9673 16.8061 18.1979 17.7047 17.4035 18.631C13.573 14.4094 9.7823 10.2315 5.97852 6.03934ZM17.2785 21.4067C16.5415 22.0976 15.8511 22.8379 15.1249 23.5408C14.876 23.7819 14.8129 24.0144 14.9277 24.3474C15.413 25.7548 15.871 27.1719 16.3545 28.5798C16.4369 28.8198 16.4182 28.9843 16.2187 29.1448C16.0812 29.2555 15.9704 29.399 15.8261 29.551C15.4652 28.7812 15.122 28.0489 14.7788 27.3171C14.535 26.7963 14.2731 26.283 14.052 25.7526C13.6992 24.9079 13.1065 24.3349 12.2655 23.9668C11.0046 23.4143 9.76298 22.8164 8.4708 22.2185C8.6748 22.0125 8.85209 21.8123 9.05495 21.6421C9.1095 21.5967 9.24815 21.6206 9.33623 21.6495C10.7608 22.1186 12.1859 22.5855 13.6043 23.0733C13.9719 23.1998 14.2367 23.155 14.514 22.8663C16.0835 21.2314 17.7149 19.6533 19.2361 17.9758C21.072 15.9524 22.5904 13.6759 24.1667 11.45C24.3195 11.2338 24.4786 11.0222 24.6235 10.8016C25.3315 9.72263 26.3794 9.23307 27.6204 9.10714C28.0477 9.06402 28.4836 9.10033 28.9427 9.10033C29.0473 10.801 28.7739 12.319 27.2732 13.3946C25.2241 14.8627 23.1512 16.3041 21.1743 17.8652C19.7998 18.9504 18.5593 20.2064 17.2785 21.4067ZM20.9652 24.9334C20.8146 24.7785 20.6072 24.5653 20.4049 24.3576C20.6646 24.1029 20.93 23.8426 21.2107 23.5663C21.4113 23.7473 21.6255 23.9401 21.8443 24.1375C21.5494 24.4042 21.2613 24.6657 20.9652 24.9334ZM31.9634 31.9727C27.8244 28.2338 23.6285 24.4439 19.3974 20.6216C20.3134 19.8376 21.2073 19.0729 22.1329 18.2816C25.789 22.5407 29.4098 26.7583 33.0283 30.9737C32.6743 31.3056 32.3277 31.6312 31.9634 31.9727Z"/>
</mask>
<path d="M33.5738 30.1245C31.5827 27.8021 29.5893 25.482 27.5965 23.1607C27.0817 22.5617 26.5686 21.9609 26.0674 21.3761C26.4311 20.9551 26.7925 20.5683 27.1169 20.153C27.4982 19.6646 27.7721 19.1166 27.8602 18.4932C27.9653 17.7467 27.6664 17.4386 26.9255 17.522C26.1305 17.6122 25.4918 18.0241 24.8946 18.5147C24.6485 18.7167 24.4195 18.9391 24.1678 19.1654C23.7479 18.6753 23.3393 18.1982 22.9177 17.7064C23.0393 17.6156 23.1347 17.5407 23.233 17.4704C24.7838 16.3597 26.3311 15.245 27.8869 14.1417C28.6154 13.6243 29.1586 12.9663 29.4996 12.1426C29.9172 11.1323 30.0002 10.0766 29.9007 9.00276C29.8536 8.49902 29.4797 8.16093 28.97 8.14164C28.4995 8.12349 28.0233 8.1008 27.5556 8.14618C26.0151 8.29537 24.7343 8.91653 23.8365 10.2326C23.1722 11.2072 22.4801 12.1625 21.7926 13.1211C21.3147 13.7871 20.8243 14.4434 20.3271 15.1208C19.8253 14.6902 19.348 14.2818 18.8877 13.8875C19.2588 13.419 19.6372 12.9861 19.964 12.5176C20.3021 12.0326 20.5248 11.4908 20.5157 10.8816C20.5078 10.375 20.3134 10.1798 19.81 10.1719C19.2099 10.1623 18.6707 10.3722 18.1968 10.708C17.6598 11.0892 17.1631 11.5254 16.6318 11.9509C16.5943 11.9208 16.5199 11.8646 16.4494 11.8039C15.2152 10.7477 13.9816 9.69086 12.7474 8.6346C11.0608 7.19203 9.37601 5.74719 7.68721 4.30746C7.22125 3.90981 6.70586 3.93533 6.27059 4.36419C5.94783 4.68186 5.63019 5.00577 5.30743 5.32401C5.05058 5.57701 4.93239 5.89412 5.03922 6.22654C5.1165 6.46593 5.28527 6.69113 5.45801 6.8823C7.96962 9.66533 10.4886 12.4416 13.0059 15.22C13.0724 15.2938 13.1366 15.3709 13.2173 15.4651C12.9116 15.7624 12.6212 16.0329 12.3445 16.3166C11.9336 16.7381 11.9331 17.2826 12.3377 17.7058C12.5201 17.897 12.7099 18.0808 12.8979 18.2669C13.4054 18.7695 13.923 18.7683 14.4322 18.2646C14.6635 18.036 14.893 17.8051 15.1328 17.5663C15.6726 18.163 16.1841 18.7275 16.7068 19.305C15.8249 20.1837 14.955 21.0363 14.106 21.9082C13.923 22.0965 13.7764 22.109 13.5452 22.0301C12.2064 21.574 10.8597 21.1395 9.52034 20.6846C9.06518 20.5303 8.68844 20.6131 8.36114 20.9591C8.21794 21.1094 8.06736 21.253 7.92075 21.3999C7.26103 22.0602 7.38206 22.7619 8.22305 23.1533C9.53114 23.7631 10.8415 24.3695 12.1473 24.9845C12.5417 25.1705 12.8423 25.4684 13.0286 25.8637C13.6594 27.2019 14.2805 28.5452 14.9118 29.8834C15.2436 30.5874 15.9772 30.7156 16.5392 30.1767C16.6887 30.0326 16.8262 29.8749 16.9824 29.7388C17.4126 29.3638 17.5007 28.9304 17.3114 28.3898C16.8506 27.0737 16.425 25.7457 15.9721 24.4268C15.8994 24.2164 15.938 24.0916 16.0937 23.9396C16.8375 23.214 17.5689 22.476 18.3024 21.7403C18.44 21.6024 18.5672 21.4543 18.707 21.3018C19.3145 21.8509 19.8804 22.3625 20.4828 22.9071C20.2021 23.1737 19.9253 23.4171 19.6725 23.682C19.2895 24.0825 19.2946 24.6265 19.6736 25.0299C19.8611 25.2295 20.0589 25.419 20.2538 25.6119C20.747 26.0997 21.2777 26.106 21.767 25.6209C22.0341 25.356 22.2898 25.0798 22.5603 24.799C22.6642 24.8863 22.7364 24.9442 22.8052 25.0066C25.5321 27.4685 28.2574 29.9328 30.9878 32.3908C31.2361 32.6143 31.5202 32.7981 31.7879 33C32.4649 33.5108 34.4784 31.3034 34 30.6782C33.8585 30.4932 33.7256 30.3015 33.5738 30.1245ZM26.8647 18.5096C26.6027 19.4025 26.072 20.0413 25.4003 20.6017C25.2071 20.3754 25.0184 20.1547 24.823 19.9256C25.3656 19.2698 26.0004 18.7768 26.8647 18.5096ZM19.5105 11.1754C19.2542 12.0382 18.7587 12.6605 18.0985 13.213C17.8768 13.0236 17.653 12.8324 17.4222 12.6344C17.9882 11.9673 18.6184 11.4392 19.5105 11.1754ZM13.6554 17.6179C13.4611 17.4307 13.2463 17.2236 13.0332 17.0177C13.3145 16.7432 13.5884 16.4765 13.8816 16.1912C14.0714 16.3983 14.2708 16.6155 14.4657 16.8283C14.181 17.1056 13.914 17.366 13.6554 17.6179ZM5.97852 6.03934C6.33707 5.69217 6.67461 5.36599 7.03316 5.01882C11.2461 8.62382 15.476 12.2436 19.7458 15.8979C18.9673 16.8061 18.1979 17.7047 17.4035 18.631C13.573 14.4094 9.7823 10.2315 5.97852 6.03934ZM17.2785 21.4067C16.5415 22.0976 15.8511 22.8379 15.1249 23.5408C14.876 23.7819 14.8129 24.0144 14.9277 24.3474C15.413 25.7548 15.871 27.1719 16.3545 28.5798C16.4369 28.8198 16.4182 28.9843 16.2187 29.1448C16.0812 29.2555 15.9704 29.399 15.8261 29.551C15.4652 28.7812 15.122 28.0489 14.7788 27.3171C14.535 26.7963 14.2731 26.283 14.052 25.7526C13.6992 24.9079 13.1065 24.3349 12.2655 23.9668C11.0046 23.4143 9.76298 22.8164 8.4708 22.2185C8.6748 22.0125 8.85209 21.8123 9.05495 21.6421C9.1095 21.5967 9.24815 21.6206 9.33623 21.6495C10.7608 22.1186 12.1859 22.5855 13.6043 23.0733C13.9719 23.1998 14.2367 23.155 14.514 22.8663C16.0835 21.2314 17.7149 19.6533 19.2361 17.9758C21.072 15.9524 22.5904 13.6759 24.1667 11.45C24.3195 11.2338 24.4786 11.0222 24.6235 10.8016C25.3315 9.72263 26.3794 9.23307 27.6204 9.10714C28.0477 9.06402 28.4836 9.10033 28.9427 9.10033C29.0473 10.801 28.7739 12.319 27.2732 13.3946C25.2241 14.8627 23.1512 16.3041 21.1743 17.8652C19.7998 18.9504 18.5593 20.2064 17.2785 21.4067ZM20.9652 24.9334C20.8146 24.7785 20.6072 24.5653 20.4049 24.3576C20.6646 24.1029 20.93 23.8426 21.2107 23.5663C21.4113 23.7473 21.6255 23.9401 21.8443 24.1375C21.5494 24.4042 21.2613 24.6657 20.9652 24.9334ZM31.9634 31.9727C27.8244 28.2338 23.6285 24.4439 19.3974 20.6216C20.3134 19.8376 21.2073 19.0729 22.1329 18.2816C25.789 22.5407 29.4098 26.7583 33.0283 30.9737C32.6743 31.3056 32.3277 31.6312 31.9634 31.9727Z" fill="#FF9E30"/>
<path d="M33.5738 30.1245C31.5827 27.8021 29.5893 25.482 27.5965 23.1607C27.0817 22.5617 26.5686 21.9609 26.0674 21.3761C26.4311 20.9551 26.7925 20.5683 27.1169 20.153C27.4982 19.6646 27.7721 19.1166 27.8602 18.4932C27.9653 17.7467 27.6664 17.4386 26.9255 17.522C26.1305 17.6122 25.4918 18.0241 24.8946 18.5147C24.6485 18.7167 24.4195 18.9391 24.1678 19.1654C23.7479 18.6753 23.3393 18.1982 22.9177 17.7064C23.0393 17.6156 23.1347 17.5407 23.233 17.4704C24.7838 16.3597 26.3311 15.245 27.8869 14.1417C28.6154 13.6243 29.1586 12.9663 29.4996 12.1426C29.9172 11.1323 30.0002 10.0766 29.9007 9.00276C29.8536 8.49902 29.4797 8.16093 28.97 8.14164C28.4995 8.12349 28.0233 8.1008 27.5556 8.14618C26.0151 8.29537 24.7343 8.91653 23.8365 10.2326C23.1722 11.2072 22.4801 12.1625 21.7926 13.1211C21.3147 13.7871 20.8243 14.4434 20.3271 15.1208C19.8253 14.6902 19.348 14.2818 18.8877 13.8875C19.2588 13.419 19.6372 12.9861 19.964 12.5176C20.3021 12.0326 20.5248 11.4908 20.5157 10.8816C20.5078 10.375 20.3134 10.1798 19.81 10.1719C19.2099 10.1623 18.6707 10.3722 18.1968 10.708C17.6598 11.0892 17.1631 11.5254 16.6318 11.9509C16.5943 11.9208 16.5199 11.8646 16.4494 11.8039C15.2152 10.7477 13.9816 9.69086 12.7474 8.6346C11.0608 7.19203 9.37601 5.74719 7.68721 4.30746C7.22125 3.90981 6.70586 3.93533 6.27059 4.36419C5.94783 4.68186 5.63019 5.00577 5.30743 5.32401C5.05058 5.57701 4.93239 5.89412 5.03922 6.22654C5.1165 6.46593 5.28527 6.69113 5.45801 6.8823C7.96962 9.66533 10.4886 12.4416 13.0059 15.22C13.0724 15.2938 13.1366 15.3709 13.2173 15.4651C12.9116 15.7624 12.6212 16.0329 12.3445 16.3166C11.9336 16.7381 11.9331 17.2826 12.3377 17.7058C12.5201 17.897 12.7099 18.0808 12.8979 18.2669C13.4054 18.7695 13.923 18.7683 14.4322 18.2646C14.6635 18.036 14.893 17.8051 15.1328 17.5663C15.6726 18.163 16.1841 18.7275 16.7068 19.305C15.8249 20.1837 14.955 21.0363 14.106 21.9082C13.923 22.0965 13.7764 22.109 13.5452 22.0301C12.2064 21.574 10.8597 21.1395 9.52034 20.6846C9.06518 20.5303 8.68844 20.6131 8.36114 20.9591C8.21794 21.1094 8.06736 21.253 7.92075 21.3999C7.26103 22.0602 7.38206 22.7619 8.22305 23.1533C9.53114 23.7631 10.8415 24.3695 12.1473 24.9845C12.5417 25.1705 12.8423 25.4684 13.0286 25.8637C13.6594 27.2019 14.2805 28.5452 14.9118 29.8834C15.2436 30.5874 15.9772 30.7156 16.5392 30.1767C16.6887 30.0326 16.8262 29.8749 16.9824 29.7388C17.4126 29.3638 17.5007 28.9304 17.3114 28.3898C16.8506 27.0737 16.425 25.7457 15.9721 24.4268C15.8994 24.2164 15.938 24.0916 16.0937 23.9396C16.8375 23.214 17.5689 22.476 18.3024 21.7403C18.44 21.6024 18.5672 21.4543 18.707 21.3018C19.3145 21.8509 19.8804 22.3625 20.4828 22.9071C20.2021 23.1737 19.9253 23.4171 19.6725 23.682C19.2895 24.0825 19.2946 24.6265 19.6736 25.0299C19.8611 25.2295 20.0589 25.419 20.2538 25.6119C20.747 26.0997 21.2777 26.106 21.767 25.6209C22.0341 25.356 22.2898 25.0798 22.5603 24.799C22.6642 24.8863 22.7364 24.9442 22.8052 25.0066C25.5321 27.4685 28.2574 29.9328 30.9878 32.3908C31.2361 32.6143 31.5202 32.7981 31.7879 33C32.4649 33.5108 34.4784 31.3034 34 30.6782C33.8585 30.4932 33.7256 30.3015 33.5738 30.1245ZM26.8647 18.5096C26.6027 19.4025 26.072 20.0413 25.4003 20.6017C25.2071 20.3754 25.0184 20.1547 24.823 19.9256C25.3656 19.2698 26.0004 18.7768 26.8647 18.5096ZM19.5105 11.1754C19.2542 12.0382 18.7587 12.6605 18.0985 13.213C17.8768 13.0236 17.653 12.8324 17.4222 12.6344C17.9882 11.9673 18.6184 11.4392 19.5105 11.1754ZM13.6554 17.6179C13.4611 17.4307 13.2463 17.2236 13.0332 17.0177C13.3145 16.7432 13.5884 16.4765 13.8816 16.1912C14.0714 16.3983 14.2708 16.6155 14.4657 16.8283C14.181 17.1056 13.914 17.366 13.6554 17.6179ZM5.97852 6.03934C6.33707 5.69217 6.67461 5.36599 7.03316 5.01882C11.2461 8.62382 15.476 12.2436 19.7458 15.8979C18.9673 16.8061 18.1979 17.7047 17.4035 18.631C13.573 14.4094 9.7823 10.2315 5.97852 6.03934ZM17.2785 21.4067C16.5415 22.0976 15.8511 22.8379 15.1249 23.5408C14.876 23.7819 14.8129 24.0144 14.9277 24.3474C15.413 25.7548 15.871 27.1719 16.3545 28.5798C16.4369 28.8198 16.4182 28.9843 16.2187 29.1448C16.0812 29.2555 15.9704 29.399 15.8261 29.551C15.4652 28.7812 15.122 28.0489 14.7788 27.3171C14.535 26.7963 14.2731 26.283 14.052 25.7526C13.6992 24.9079 13.1065 24.3349 12.2655 23.9668C11.0046 23.4143 9.76298 22.8164 8.4708 22.2185C8.6748 22.0125 8.85209 21.8123 9.05495 21.6421C9.1095 21.5967 9.24815 21.6206 9.33623 21.6495C10.7608 22.1186 12.1859 22.5855 13.6043 23.0733C13.9719 23.1998 14.2367 23.155 14.514 22.8663C16.0835 21.2314 17.7149 19.6533 19.2361 17.9758C21.072 15.9524 22.5904 13.6759 24.1667 11.45C24.3195 11.2338 24.4786 11.0222 24.6235 10.8016C25.3315 9.72263 26.3794 9.23307 27.6204 9.10714C28.0477 9.06402 28.4836 9.10033 28.9427 9.10033C29.0473 10.801 28.7739 12.319 27.2732 13.3946C25.2241 14.8627 23.1512 16.3041 21.1743 17.8652C19.7998 18.9504 18.5593 20.2064 17.2785 21.4067ZM20.9652 24.9334C20.8146 24.7785 20.6072 24.5653 20.4049 24.3576C20.6646 24.1029 20.93 23.8426 21.2107 23.5663C21.4113 23.7473 21.6255 23.9401 21.8443 24.1375C21.5494 24.4042 21.2613 24.6657 20.9652 24.9334ZM31.9634 31.9727C27.8244 28.2338 23.6285 24.4439 19.3974 20.6216C20.3134 19.8376 21.2073 19.0729 22.1329 18.2816C25.789 22.5407 29.4098 26.7583 33.0283 30.9737C32.6743 31.3056 32.3277 31.6312 31.9634 31.9727Z" stroke="#FF9E30" stroke-width="0.4" mask="url(#path-1-outside-1_310_2536)"/>
<path d="M34.9842 9.77928C34.8421 10.2127 34.5989 10.3653 34.2898 10.2501C33.9983 10.1412 33.9256 9.87628 34.0744 9.46274C34.7222 7.66052 34.0676 5.6694 32.468 4.64038C31.3418 3.9154 30.1303 3.78096 28.8609 4.20925C28.4063 4.36298 28.1284 4.29491 28.0284 3.98688C27.9289 3.68226 28.0898 3.46102 28.5262 3.30105C31.4463 2.23345 34.6932 4.11735 35.2177 7.18345C35.2985 7.65534 35.2594 8.93988 34.9842 9.77928Z" fill="#FFC481"/>
<path d="M33.0175 9.12012C32.9175 9.36858 32.7544 9.50983 32.4794 9.4775C32.243 9.45027 32.1026 9.30051 32.0714 9.07304C32.0572 8.96809 32.0924 8.85067 32.1259 8.74515C32.3822 7.94644 32.2424 7.226 31.6469 6.63434C31.0508 6.04211 30.3263 5.91164 29.5297 6.17372C29.191 6.2849 28.9222 6.18336 28.8268 5.90994C28.7302 5.63254 28.8688 5.37046 29.2103 5.26835C29.5416 5.16965 29.8182 5.05708 30.2235 5.03974C32.153 4.95719 33.7892 7.20728 33.0175 9.12012Z" fill="#FFC481"/>
</svg>
