<svg width="22" height="22" viewBox="0 0 22 22" fill="none" xmlns="http://www.w3.org/2000/svg">
<path opacity="0.4" d="M10.9726 20.1667C16.0352 20.1667 20.1392 16.0626 20.1392 11C20.1392 5.9374 16.0352 1.83334 10.9726 1.83334C5.90996 1.83334 1.80591 5.9374 1.80591 11C1.80591 16.0626 5.90996 20.1667 10.9726 20.1667Z" fill="white"/>
<path d="M13.7226 9.3775L11.0642 7.84667C10.4042 7.46167 9.60675 7.46167 8.94675 7.84667C8.28675 8.23167 7.89258 8.91001 7.89258 9.68001V12.7508C7.89258 13.5117 8.28675 14.1992 8.94675 14.5842C9.27675 14.7767 9.64341 14.8683 10.0009 14.8683C10.3676 14.8683 10.7251 14.7767 11.0551 14.5842L13.7134 13.0533C14.3734 12.6683 14.7676 11.99 14.7676 11.22C14.7859 10.45 14.3917 9.7625 13.7226 9.3775Z" fill="white"/>
</svg>
