<svg width="31" height="31" viewBox="0 0 31 31" fill="none" xmlns="http://www.w3.org/2000/svg">
<path d="M15.5002 2.58331C12.116 2.58331 9.36475 5.33456 9.36475 8.71873C9.36475 12.0383 11.961 14.725 15.3452 14.8412C15.4485 14.8283 15.5518 14.8283 15.6293 14.8412C15.6552 14.8412 15.6681 14.8412 15.6939 14.8412C15.7068 14.8412 15.7068 14.8412 15.7197 14.8412C19.0264 14.725 21.6227 12.0383 21.6356 8.71873C21.6356 5.33456 18.8843 2.58331 15.5002 2.58331Z" fill="#FF9E30"/>
<path d="M22.0617 18.2771C18.458 15.8746 12.5809 15.8746 8.95132 18.2771C7.3109 19.375 6.40674 20.8604 6.40674 22.4492C6.40674 24.0379 7.3109 25.5104 8.9384 26.5954C10.7467 27.8096 13.1234 28.4167 15.5001 28.4167C17.8767 28.4167 20.2534 27.8096 22.0617 26.5954C23.6892 25.4975 24.5934 24.025 24.5934 22.4233C24.5805 20.8346 23.6892 19.3621 22.0617 18.2771Z" fill="#FF9E30"/>
</svg>
