<svg width="24" height="24" viewBox="0 0 24 24" fill="none" xmlns="http://www.w3.org/2000/svg">
<path d="M12.1596 10.7255C12.0596 10.7157 11.9396 10.7157 11.8296 10.7255C9.44957 10.6466 7.55957 8.72251 7.55957 6.35442C7.55957 3.93699 9.53957 1.97345 11.9996 1.97345C14.4496 1.97345 16.4396 3.93699 16.4396 6.35442C16.4296 8.72251 14.5396 10.6466 12.1596 10.7255Z" stroke="#292D32" stroke-width="1.7" stroke-linecap="round" stroke-linejoin="round"/>
<path d="M7.1607 14.3664C4.7407 15.9649 4.7407 18.5698 7.1607 20.1584C9.9107 21.9739 14.4207 21.9739 17.1707 20.1584C19.5907 18.5599 19.5907 15.955 17.1707 14.3664C14.4307 12.5607 9.9207 12.5607 7.1607 14.3664Z" stroke="#292D32" stroke-width="1.7" stroke-linecap="round" stroke-linejoin="round"/>
</svg>
