<svg width="29" height="29" viewBox="0 0 29 29" fill="none" xmlns="http://www.w3.org/2000/svg">
<g opacity="0.5">
<path d="M14.6933 13.1346C14.5725 13.1225 14.4275 13.1225 14.2946 13.1346C11.4188 13.0379 9.13501 10.6817 9.13501 7.78169C9.13501 4.82127 11.5275 2.41669 14.5 2.41669C17.4604 2.41669 19.865 4.82127 19.865 7.78169C19.8529 10.6817 17.5692 13.0379 14.6933 13.1346Z" stroke="#292D32" stroke-width="2" stroke-linecap="round" stroke-linejoin="round"/>
<path d="M8.65162 17.5933C5.72745 19.5508 5.72745 22.7408 8.65162 24.6862C11.9745 26.9096 17.4241 26.9096 20.747 24.6862C23.6712 22.7287 23.6712 19.5387 20.747 17.5933C17.4362 15.3821 11.9866 15.3821 8.65162 17.5933Z" stroke="#292D32" stroke-width="2" stroke-linecap="round" stroke-linejoin="round"/>
</g>
</svg>
