<svg width="38" height="38" viewBox="0 0 38 38" fill="none" xmlns="http://www.w3.org/2000/svg">
<g filter="url(#filter0_d_386_2736)">
<rect x="3" y="2" width="32" height="32" rx="5" fill="white"/>
</g>
<g clip-path="url(#clip0_386_2736)">
<path d="M14.1866 15.9979C13.6569 16.003 13.2773 16.3575 13.2762 16.8616C13.2735 19.5478 13.2735 22.2341 13.2762 24.9203C13.2767 25.4137 13.658 25.7743 14.1744 25.7748C17.3927 25.7773 20.611 25.7773 23.8292 25.7748C24.327 25.7743 24.6944 25.4255 24.7205 24.9508C24.7237 24.8872 24.7232 24.8235 24.7232 24.7599C24.7232 22.1755 24.7237 19.5911 24.7232 17.0067C24.7232 16.3116 24.3919 15.9969 23.6628 15.9969C23.4038 15.9969 23.1449 16.0005 22.8864 15.9959C22.5152 15.9888 22.2382 15.7209 22.2419 15.3792C22.2451 15.0472 22.5205 14.7717 22.8806 14.7783C23.3826 14.788 23.8973 14.763 24.3834 14.8598C25.3028 15.0421 25.9526 15.8411 25.9882 16.7409C26.0058 17.1799 25.9973 17.6194 25.9973 18.0583C25.9978 20.3117 25.9989 22.5651 25.9968 24.8184C25.9962 25.8237 25.4379 26.6074 24.5025 26.889C24.26 26.9613 23.9952 26.9924 23.7404 26.9939C22.1547 27.0031 20.5684 26.9985 18.9827 26.9985C17.3969 26.9985 15.7846 27.0026 14.185 26.997C13.0848 26.9934 12.2158 26.285 12.0265 25.2462C12.0015 25.1097 12.001 24.9676 12.001 24.8281C11.9999 22.1989 11.9994 19.5702 12.001 16.9411C12.0021 15.6573 12.9268 14.7768 14.2701 14.7748C14.5817 14.7742 14.8939 14.7722 15.2055 14.7753C15.5942 14.7788 15.8739 15.038 15.8728 15.3879C15.8728 15.7362 15.5905 15.9934 15.2018 15.9964C14.863 15.999 14.5248 15.9944 14.1866 15.9979Z" fill="black"/>
<path d="M19.9895 9.43846C20.7569 10.3072 21.5072 11.1907 22.2591 12.0727C22.4963 12.3503 22.4532 12.7271 22.1794 12.943C21.9039 13.16 21.521 13.1238 21.2759 12.8447C20.776 12.2754 20.2825 11.7005 19.7859 11.1276C19.7534 11.0899 19.7183 11.0543 19.6465 10.9758V11.2569C19.6465 14.0073 19.6465 16.7577 19.6455 19.5076C19.6449 19.6089 19.6417 19.7128 19.6178 19.8106C19.545 20.11 19.2477 20.3061 18.9334 20.272C18.6261 20.2389 18.39 19.996 18.374 19.695C18.3703 19.6252 18.3719 19.555 18.3719 19.4852V11.0329C18.3586 11.0278 18.3448 11.0227 18.3315 11.0171C18.2868 11.0675 18.2416 11.1174 18.1969 11.1683C17.7125 11.7254 17.2286 12.2836 16.7425 12.8391C16.5378 13.0729 16.2623 13.1442 15.9932 13.0413C15.7343 12.942 15.5577 12.6879 15.5987 12.42C15.6178 12.2948 15.6758 12.1583 15.7593 12.061C16.5218 11.1795 17.2865 10.2991 18.0661 9.43133C18.5851 8.85385 19.4753 8.8564 19.9895 9.43846Z" fill="black"/>
</g>
<defs>
<filter id="filter0_d_386_2736" x="0" y="0" width="38" height="38" filterUnits="userSpaceOnUse" color-interpolation-filters="sRGB">
<feFlood flood-opacity="0" result="BackgroundImageFix"/>
<feColorMatrix in="SourceAlpha" type="matrix" values="0 0 0 0 0 0 0 0 0 0 0 0 0 0 0 0 0 0 127 0" result="hardAlpha"/>
<feOffset dy="1"/>
<feGaussianBlur stdDeviation="1.5"/>
<feComposite in2="hardAlpha" operator="out"/>
<feColorMatrix type="matrix" values="0 0 0 0 0 0 0 0 0 0 0 0 0 0 0 0 0 0 0.15 0"/>
<feBlend mode="normal" in2="BackgroundImageFix" result="effect1_dropShadow_386_2736"/>
<feBlend mode="normal" in="SourceGraphic" in2="effect1_dropShadow_386_2736" result="shape"/>
</filter>
<clipPath id="clip0_386_2736">
<rect width="14" height="18" fill="white" transform="translate(12 9)"/>
</clipPath>
</defs>
</svg>
