<svg width="39" height="39" viewBox="0 0 39 39" fill="none" xmlns="http://www.w3.org/2000/svg">
<path d="M23.4956 35.2428C21.6249 35.2428 18.9775 33.9269 16.8848 27.6332L15.7434 24.209L12.3191 23.0675C6.04128 20.9749 4.72546 18.3274 4.72546 16.4568C4.72546 14.6019 6.04128 11.9386 12.3191 9.83012L25.7785 5.34368C29.1394 4.2181 31.9454 4.55102 33.6734 6.26316C35.4014 7.9753 35.7343 10.7972 34.6087 14.158L30.1223 27.6174C28.0138 33.9269 25.3663 35.2428 23.4956 35.2428ZM13.0642 12.0971C8.65705 13.5715 7.08759 15.3153 7.08759 16.4568C7.08759 17.5982 8.65705 19.342 13.0642 20.8005L17.0592 22.1322C17.408 22.2432 17.6934 22.5285 17.8043 22.8773L19.136 26.8723C20.5945 31.2795 22.3542 32.8489 23.4956 32.8489C24.6371 32.8489 26.3809 31.2795 27.8552 26.8723L32.3417 13.4129C33.1502 10.9716 33.0075 8.97405 31.9771 7.9436C30.9466 6.91314 28.9491 6.78632 26.5236 7.59483L13.0642 12.0971Z" fill="white"/>
<path d="M16.9798 23.781C16.6786 23.781 16.3774 23.67 16.1396 23.4322C15.6799 22.9725 15.6799 22.2115 16.1396 21.7518L21.815 16.0605C22.2748 15.6008 23.0357 15.6008 23.4955 16.0605C23.9552 16.5202 23.9552 17.2812 23.4955 17.7409L17.82 23.4322C17.5981 23.67 17.281 23.781 16.9798 23.781Z" fill="white"/>
</svg>
