<svg width="31" height="31" viewBox="0 0 31 31" fill="none" xmlns="http://www.w3.org/2000/svg">
<g opacity="0.5">
<path d="M15.5 29.2304C14.6346 29.2304 13.7562 29.0367 13.0716 28.6362L5.96748 24.5417C3.07414 22.5912 2.89331 22.2942 2.89331 19.2329V11.7671C2.89331 8.70582 3.06123 8.40874 5.90289 6.48416L13.0587 2.35083C14.415 1.56291 16.5462 1.56291 17.9025 2.35083L25.0325 6.45832C27.9258 8.40874 28.1066 8.70582 28.1066 11.7671V19.22C28.1066 22.2812 27.9387 22.5783 25.0971 24.5029L17.9412 28.6362C17.2437 29.0367 16.3654 29.2304 15.5 29.2304ZM15.5 3.70707C14.9575 3.70707 14.4279 3.81041 14.0533 4.02999L6.94914 8.13749C4.84373 9.55832 4.84373 9.55832 4.84373 11.7671V19.22C4.84373 21.4287 4.84373 21.4287 7.00081 22.8883L14.0533 26.9571C14.8154 27.3962 16.1975 27.3962 16.9596 26.9571L24.0637 22.8496C26.1562 21.4287 26.1562 21.4287 26.1562 19.22V11.7671C26.1562 9.55832 26.1562 9.55832 23.9991 8.09874L16.9466 4.02999C16.5721 3.81041 16.0425 3.70707 15.5 3.70707Z" fill="#292D32"/>
<path d="M15.5 20.3438C12.8263 20.3438 10.6562 18.1737 10.6562 15.5C10.6562 12.8263 12.8263 10.6562 15.5 10.6562C18.1737 10.6562 20.3438 12.8263 20.3438 15.5C20.3438 18.1737 18.1737 20.3438 15.5 20.3438ZM15.5 12.5938C13.8983 12.5938 12.5938 13.8983 12.5938 15.5C12.5938 17.1017 13.8983 18.4062 15.5 18.4062C17.1017 18.4062 18.4062 17.1017 18.4062 15.5C18.4062 13.8983 17.1017 12.5938 15.5 12.5938Z" fill="#292D32"/>
</g>
</svg>
