<svg width="33" height="33" viewBox="0 0 33 33" fill="none" xmlns="http://www.w3.org/2000/svg">
<path d="M26.0429 7.45248L18.9341 3.34123C17.5729 2.55748 15.4416 2.55748 14.0804 3.34123L6.90285 7.47998C4.0566 9.40498 3.8916 9.69373 3.8916 12.76V20.2262C3.8916 23.2925 4.0566 23.595 6.95785 25.5475L14.0666 29.6587C14.7541 30.0575 15.6341 30.25 16.5004 30.25C17.3666 30.25 18.2466 30.0575 18.9204 29.6587L26.0978 25.52C28.9441 23.595 29.1091 23.3062 29.1091 20.24V12.76C29.1091 9.69373 28.9441 9.40498 26.0429 7.45248ZM16.5004 20.9687C14.0391 20.9687 12.0316 18.9612 12.0316 16.5C12.0316 14.0387 14.0391 12.0312 16.5004 12.0312C18.9616 12.0312 20.9691 14.0387 20.9691 16.5C20.9691 18.9612 18.9616 20.9687 16.5004 20.9687Z" fill="#FF9E30"/>
</svg>
