<svg width="52" height="79" viewBox="0 0 52 79" fill="none" xmlns="http://www.w3.org/2000/svg">
<path d="M48.921 62.9225C48.921 60.1334 48.9241 57.3454 48.918 54.5563C48.916 53.2193 48.3663 52.1668 47.1659 51.5473C45.9928 50.9418 44.8319 51.0518 43.7385 51.8016C43.6608 51.854 43.5781 51.8994 43.4439 51.9822C43.448 50.5301 42.8781 49.4454 41.6202 48.8167C40.3453 48.179 39.1278 48.4403 37.9739 49.2849C38.2674 46.293 35.1647 44.2911 32.4827 46.2608V45.6856C32.4827 43.5857 32.4978 41.4858 32.4766 39.387C32.4574 37.502 31.0634 36.0904 29.2579 36.0782C27.406 36.0651 25.9838 37.5041 25.9828 39.4294C25.9757 47.0398 25.9787 54.6491 25.9787 62.2595V62.7933C25.9394 62.8024 25.9 62.8125 25.8607 62.8216C24.8359 61.6016 23.8212 60.3736 22.7853 59.1627C21.4407 57.5916 19.1238 57.4523 17.6148 58.8348C16.2047 60.1264 16.0554 62.2989 17.3142 63.7943C20.6438 67.7519 24.0199 71.6711 27.3152 75.6569C28.6699 77.2967 30.3483 78.0071 32.4171 78C35.7588 77.9889 39.1006 77.996 42.4423 77.997C46.2511 77.997 48.9119 75.3482 48.919 71.5399C48.9251 68.6671 48.921 65.7943 48.921 62.9225ZM47.3142 71.885C47.2991 74.4228 45.2484 76.3885 42.7096 76.3976C39.15 76.4097 35.5904 76.4147 32.0318 76.3926C30.7326 76.3845 29.6342 75.9102 28.7677 74.8779C25.4008 70.8649 22.0096 66.871 18.6214 62.8751C18.0879 62.2454 17.8942 61.5532 18.1897 60.7732C18.4691 60.0366 19.0259 59.6037 19.8066 59.5028C20.5702 59.4049 21.1704 59.7157 21.6586 60.3009C23.4883 62.4926 25.3261 64.6763 27.1609 66.8629C27.2658 66.988 27.3767 67.1081 27.5765 67.3352V63.873C27.5755 55.8277 27.5755 47.7814 27.5755 39.7351C27.5755 39.5504 27.5704 39.3648 27.5855 39.1811C27.6511 38.384 28.3067 37.7351 29.0955 37.6796C29.9065 37.6221 30.6378 38.1388 30.8214 38.9228C30.8779 39.164 30.89 39.4213 30.89 39.6715C30.893 46.508 30.892 53.3444 30.892 60.1809V60.8176H33.0465V60.2515C33.0465 56.522 33.0455 52.7935 33.0495 49.0639C33.0495 48.8147 33.0576 48.5574 33.1131 48.3152C33.2987 47.5211 34.0209 47.0024 34.8268 47.0569C35.6166 47.1114 36.2712 47.7461 36.3519 48.5483C36.3701 48.731 36.362 48.9166 36.362 49.1013C36.363 52.7975 36.363 56.4927 36.362 60.1879V60.8196H38.5054C38.5145 60.6612 38.5347 60.4866 38.5347 60.311C38.5347 57.5058 38.5347 54.7006 38.5327 51.8964C38.5327 50.8278 39.2176 50.071 40.1909 50.075C41.1502 50.0781 41.827 50.8016 41.829 51.856C41.8351 54.6441 41.8311 57.4322 41.8321 60.2212V60.8317H44.0108V60.2868C44.0108 58.3383 44.0047 56.3898 44.0148 54.4413C44.0179 53.6592 44.5121 53.0205 45.2192 52.8268C45.9273 52.633 46.6898 52.9065 47.0479 53.5493C47.2053 53.8308 47.3132 54.1809 47.3142 54.4998C47.3293 60.2949 47.3485 66.09 47.3142 71.885Z" fill="#FF9E30" stroke="#FF9E30" stroke-width="0.5"/>
<path d="M50.9997 25.4056C50.8212 33.5134 48.008 39.8181 42.3866 44.8453C42.3362 44.8897 42.2847 44.9331 42.2333 44.9765C41.7118 45.4154 41.2408 45.4346 40.9129 45.0299C40.5972 44.6394 40.688 44.1995 41.1863 43.7696C44.1145 41.2419 46.3104 38.1885 47.7356 34.5931C52.3523 22.9455 46.8914 9.64191 35.4328 4.59758C23.3892 -0.703061 9.4201 4.89929 4.35454 17.0616C-1.32934 30.7123 7.15866 46.3488 21.6916 48.9966C21.7733 49.0117 21.855 49.0309 21.9378 49.0491C22.5016 49.1752 22.7709 49.5142 22.6842 49.9895C22.5974 50.4688 22.2111 50.7362 21.6594 50.604C20.3562 50.2922 19.0156 50.0612 17.7709 49.5849C8.23088 45.9351 2.54094 39.0643 1.20748 28.9192C-0.501218 15.9153 8.50524 3.79537 21.386 1.42204C34.9527 -1.07743 47.9464 7.79027 50.5145 21.334C50.804 22.8617 50.8867 24.4298 50.9997 25.4056Z" fill="#FF9E30" stroke="#FF9E30" stroke-width="0.5"/>
<path d="M35.0194 21.4205C35.1435 21.364 35.2454 21.3186 35.3452 21.2712C36.0614 20.9331 36.4074 20.2934 36.2984 19.5093C36.1946 18.7566 35.7638 18.249 34.9377 18.2026C33.6406 18.1309 32.3364 18.1834 31.019 18.1834V24.0027H32.8296V21.6748C33.2744 21.582 33.5125 21.7959 33.687 22.1117C33.9876 22.6536 34.274 23.2045 34.5807 23.7424C34.6483 23.8604 34.7754 24.0229 34.8803 24.0279C35.4905 24.0552 36.1028 24.0411 36.8119 24.0411C36.2107 23.0895 36.01 22.0098 35.0194 21.4205ZM34.0088 20.4488C33.6366 20.5043 33.2583 20.5204 32.8447 20.5578V19.3348C33.229 19.3348 33.6053 19.2762 33.9472 19.357C34.149 19.4044 34.387 19.6466 34.4516 19.8504C34.5474 20.1602 34.3376 20.4003 34.0088 20.4488Z" fill="#FF9E30" stroke="#FF9E30" stroke-width="0.5"/>
<path d="M31.9916 31.3639C32.1933 31.27 32.3506 31.2105 32.4949 31.1288C33.0971 30.7887 33.3976 30.1268 33.2817 29.4113C33.1717 28.7312 32.7612 28.1934 32.0904 28.1611C30.7388 28.0945 29.3811 28.1409 28.0083 28.1409V33.9239H29.8189V31.597C30.2677 31.5223 30.5058 31.7352 30.6793 32.0501C30.9708 32.5798 31.2441 33.1197 31.5508 33.6403C31.6315 33.7766 31.7999 33.9431 31.9371 33.9511C32.5191 33.9854 33.1041 33.9653 33.8041 33.9653C33.1858 33.047 33.0184 31.9461 31.9916 31.3639ZM31.4438 29.82C31.3904 30.042 31.1544 30.3134 30.9415 30.3811C30.6077 30.487 30.2254 30.4406 29.8249 30.4608V29.267C30.2153 29.267 30.5784 29.2479 30.9375 29.2731C31.2593 29.2963 31.5215 29.4991 31.4438 29.82Z" fill="#FF9E30" stroke="#FF9E30" stroke-width="0.5"/>
<path d="M15.7568 28.0874V33.941H13.9502V31.601H11.948V33.938H10.1606V28.0884H11.9399V30.0935H13.9371V28.0874H15.7568Z" fill="#FF9E30" stroke="#FF9E30" stroke-width="0.5"/>
<path d="M41.81 32.6282V33.9289H36.9038V28.0945H41.7343V29.2973H38.7083V30.2509H41.4923V31.4557H38.7073V32.6282H41.81Z" fill="#FF9E30" stroke="#FF9E30" stroke-width="0.5"/>
<path d="M24.4243 32.6303V33.939H19.5171V28.0884H24.3446V29.2963H21.3499V30.2337H24.1136V31.4335H21.3539V32.6303H24.4243Z" fill="#FF9E30" stroke="#FF9E30" stroke-width="0.5"/>
<path d="M13.0618 22.8453C12.8207 23.4235 12.3809 23.7959 11.7858 23.9725C10.9779 24.2116 10.1588 24.2025 9.34887 23.9936C8.44207 23.7605 7.93975 23.1026 7.88428 22.0946C8.42997 22.0583 8.97667 22.0209 9.5153 21.9856C9.8754 22.814 10.1417 23.028 10.7328 22.9785C11.0818 22.9493 11.4237 22.7969 11.4035 22.4397C11.3914 22.2126 11.1332 21.8988 10.9083 21.8019C10.3575 21.5648 9.72612 21.5033 9.19858 21.2328C8.79511 21.025 8.37651 20.6657 8.18385 20.2682C7.79753 19.47 8.29481 18.5507 9.20766 18.2329C10.0882 17.9261 10.992 17.9281 11.8766 18.2278C12.5676 18.4619 12.9045 18.9877 12.9993 19.7737C12.4798 19.802 11.9866 19.8413 11.4923 19.8454C11.4035 19.8464 11.2764 19.7172 11.2311 19.6193C11.0505 19.2208 10.7247 19.0613 10.3333 19.138C10.1256 19.1794 9.95004 19.3893 9.76041 19.5225C9.90869 19.6768 10.0297 19.9079 10.2093 19.9715C10.8397 20.1945 11.5125 20.3045 12.1278 20.5598C13.0981 20.9604 13.4552 21.9029 13.0618 22.8453Z" fill="#FF9E30" stroke="#FF9E30" stroke-width="0.5"/>
<path d="M28.542 23.6031C28.0346 22.252 27.5293 20.8998 27.0169 19.5507C26.8384 19.0815 26.7627 18.4417 26.4167 18.2056C26.0697 17.9685 25.4454 18.1572 24.9441 18.1199C24.6021 18.0946 24.4488 18.2137 24.3308 18.5396C23.7175 20.2268 23.076 21.9039 22.4456 23.586C22.3962 23.7172 22.3669 23.8574 22.3145 24.0431C22.8854 24.0431 23.3877 24.0572 23.889 24.032C23.9959 24.0259 24.1795 23.8837 24.1866 23.7938C24.243 23.0401 24.7272 22.9886 25.3112 23.0582C25.4766 23.0774 25.6501 23.0824 25.8146 23.0572C26.329 22.9775 26.6427 23.1339 26.7082 23.698C26.7224 23.8211 26.8878 24.0189 26.9937 24.0259C27.5384 24.0592 28.0871 24.0411 28.6984 24.0411C28.6288 23.8463 28.5874 23.7242 28.542 23.6031ZM24.8321 21.7616C25.0328 21.0905 25.2215 20.4558 25.4111 19.8221C25.4464 19.8191 25.4827 19.8171 25.518 19.8151C25.7107 20.4387 25.9033 21.0613 26.1192 21.7616H24.8321Z" fill="#FF9E30" stroke="#FF9E30" stroke-width="0.5"/>
<path d="M20.8983 18.1673V19.5648C20.4434 19.5648 19.9945 19.5921 19.5517 19.5568C19.1372 19.5235 19.0413 19.689 19.0494 20.0744C19.0726 21.1975 19.0605 22.3216 19.0625 23.4457V24.0148H17.258V19.58H15.4272V18.1673H20.8983Z" fill="#FF9E30" stroke="#FF9E30" stroke-width="0.5"/>
<path d="M44.0714 18.1552V19.5588H42.2487V24.0118H40.4422V19.5689H38.5933V18.1552H44.0714Z" fill="#FF9E30" stroke="#FF9E30" stroke-width="0.5"/>
</svg>
