<svg width="14" height="14" viewBox="0 0 14 14" fill="none" xmlns="http://www.w3.org/2000/svg">
<path d="M7.00001 2.71252C4.21167 2.71252 1.9425 4.98169 1.9425 7.77002C1.9425 10.5584 4.21167 12.8334 7.00001 12.8334C9.78834 12.8334 12.0575 10.5642 12.0575 7.77586C12.0575 4.98752 9.78834 2.71252 7.00001 2.71252ZM7.43751 7.58336C7.43751 7.82253 7.23917 8.02086 7.00001 8.02086C6.76084 8.02086 6.56251 7.82253 6.56251 7.58336V4.66669C6.56251 4.42752 6.76084 4.22919 7.00001 4.22919C7.23917 4.22919 7.43751 4.42752 7.43751 4.66669V7.58336Z" fill="white"/>
<path d="M8.68583 2.01252H5.31416C5.08083 2.01252 4.89417 1.82585 4.89417 1.59252C4.89417 1.35919 5.08083 1.16669 5.31416 1.16669H8.68583C8.91917 1.16669 9.10583 1.35335 9.10583 1.58669C9.10583 1.82002 8.91917 2.01252 8.68583 2.01252Z" fill="white"/>
</svg>
