<svg width="26" height="26" viewBox="0 0 26 26" fill="none" xmlns="http://www.w3.org/2000/svg">
<path d="M13.0002 24.6458C7.3235 24.6458 2.7085 20.0308 2.7085 14.3542C2.7085 8.6775 7.3235 4.0625 13.0002 4.0625C18.6768 4.0625 23.2918 8.6775 23.2918 14.3542C23.2918 20.0308 18.6768 24.6458 13.0002 24.6458ZM13.0002 5.6875C8.22266 5.6875 4.3335 9.57667 4.3335 14.3542C4.3335 19.1317 8.22266 23.0208 13.0002 23.0208C17.7777 23.0208 21.6668 19.1317 21.6668 14.3542C21.6668 9.57667 17.7777 5.6875 13.0002 5.6875Z" fill="#FF9E30"/>
<path d="M13 14.8959C12.5558 14.8959 12.1875 14.5275 12.1875 14.0834V8.66669C12.1875 8.22252 12.5558 7.85419 13 7.85419C13.4442 7.85419 13.8125 8.22252 13.8125 8.66669V14.0834C13.8125 14.5275 13.4442 14.8959 13 14.8959Z" fill="#FFD8AC"/>
<path d="M16.25 2.97919H9.75C9.30583 2.97919 8.9375 2.61085 8.9375 2.16669C8.9375 1.72252 9.30583 1.35419 9.75 1.35419H16.25C16.6942 1.35419 17.0625 1.72252 17.0625 2.16669C17.0625 2.61085 16.6942 2.97919 16.25 2.97919Z" fill="#FF9E30"/>
</svg>
