<svg width="45" height="45" viewBox="0 0 45 45" fill="none" xmlns="http://www.w3.org/2000/svg">
<g clip-path="url(#clip0_283_2407)">
<path d="M44.6543 18.6212C43.371 11.7818 39.711 6.58504 33.7507 3.02371C30.8299 1.27826 27.6401 0.325803 24.2438 0.0719116C24.1303 0.0635953 24.0183 0.0249489 23.9058 0H21.0931C20.2839 0.112025 19.4703 0.199591 18.6656 0.339501C13.4703 1.24451 9.12592 3.69439 5.63081 7.62703C2.6225 11.0118 0.788837 14.9689 0.20958 19.4582C-0.581515 25.5912 0.856841 31.1837 4.60831 36.1143C7.97279 40.5356 12.4014 43.4062 17.8554 44.4937C25.4087 45.9994 32.1215 44.1449 37.8167 38.9452C41.7654 35.3409 44.0418 30.8041 44.8016 25.511C44.8784 24.9768 44.9341 24.4401 44.9997 23.9045V21.0921C44.8862 20.2683 44.8074 19.4376 44.6543 18.6212ZM34.9116 35.6965C32.6562 35.6965 30.4009 35.6897 28.1455 35.7043C27.8275 35.7068 27.6504 35.6001 27.4743 35.3428C25.328 32.2002 23.1695 29.0665 21.0139 25.9307C20.9151 25.7864 20.8153 25.6431 20.6837 25.4528C20.5706 25.578 20.4757 25.6802 20.3847 25.7859C17.6337 28.9818 14.8808 32.1763 12.1367 35.3785C11.9381 35.6104 11.738 35.717 11.4283 35.7038C10.8475 35.6789 10.2649 35.6965 9.57357 35.6965C12.9747 31.7423 16.3104 27.865 19.6636 23.9666C16.3084 19.0825 12.9655 14.2175 9.58385 9.29469C9.78933 9.28197 9.91555 9.26729 10.0418 9.26729C12.3118 9.26583 14.5819 9.27268 16.8519 9.25898C17.1719 9.25653 17.3495 9.37198 17.5242 9.62783C19.5545 12.6012 21.5966 15.5662 23.6362 18.5336C23.7336 18.6755 23.8343 18.8144 23.9522 18.9817C25.1298 17.6129 26.2849 16.2711 27.4395 14.9287C28.9576 13.1637 30.4811 11.4031 31.988 9.62832C32.2189 9.35633 32.4557 9.23941 32.8123 9.25849C33.3632 9.28784 33.9175 9.26632 34.5927 9.26632C31.3397 13.0483 28.1597 16.7456 24.9625 20.463C28.4395 25.5237 31.9077 30.5712 35.4292 35.6965H34.9116Z" fill="black"/>
<path d="M32.3069 34.0695C31.3265 34.0695 30.437 34.0318 29.553 34.0836C29.0045 34.1154 28.6924 33.9276 28.3808 33.4795C23.2565 26.1181 18.1122 18.7699 12.9732 11.4183C12.891 11.3009 12.8132 11.1801 12.6831 10.9854C13.4267 10.9854 14.1146 11.0587 14.78 10.9687C15.8235 10.8278 16.4057 11.2583 16.9957 12.1115C21.9615 19.2982 26.984 26.4459 31.9894 33.6052C32.0784 33.7324 32.1645 33.8611 32.3069 34.0695Z" fill="black"/>
</g>
<defs>
<clipPath id="clip0_283_2407">
<rect width="45" height="45" fill="white"/>
</clipPath>
</defs>
</svg>
