<svg width="44" height="44" viewBox="0 0 44 44" fill="none" xmlns="http://www.w3.org/2000/svg">
<circle cx="22" cy="22" r="21.5" fill="black" stroke="white"/>
<path d="M28.7098 23.4179C27.5275 23.1651 26.3905 23.3201 25.3303 23.8891C23.932 24.6387 23.1091 25.8151 22.795 27.3406H20.2165C19.7426 24.6481 17.1421 22.9682 14.5773 23.3619C12.2059 23.7253 10.4366 25.7369 10.4078 28.1246C10.3797 30.4854 12.1353 32.5354 14.5499 32.9331C17.258 33.3787 19.8119 31.5228 20.2192 28.9801H22.7977C23.3388 31.6698 25.7233 33.1825 28.0679 32.9776C30.5155 32.7632 32.4391 30.8251 32.5845 28.5345C32.7436 26.0355 31.0655 23.9208 28.7098 23.4179ZM15.3084 31.3793C13.5082 31.3691 12.0324 29.8962 12.0502 28.1266C12.0674 26.3382 13.5541 24.9084 15.3838 24.9212C17.1723 24.9333 18.6323 26.3955 18.6207 28.1617C18.609 29.9616 17.138 31.3907 15.3084 31.3793ZM27.5927 31.3793C25.8145 31.3563 24.3455 29.8638 24.3757 28.1111C24.4066 26.3179 25.8933 24.9023 27.725 24.9212C29.5115 24.94 30.966 26.4103 30.9468 28.1772C30.9263 29.9865 29.4429 31.4035 27.5927 31.3793Z" fill="white"/>
<path d="M32.1278 20.0812C31.5559 20.0751 30.984 20.0799 30.3928 20.0799C29.9697 18.0096 29.55 15.9772 29.1392 13.9427C28.8951 12.7373 28.0056 12.0012 26.7582 12.0005C23.2498 11.9998 19.7406 11.9998 16.2315 12.0005C15.0787 12.0012 14.1694 12.711 13.9321 13.8173C13.5008 15.8309 13.0804 17.8465 12.6675 19.8635C12.6285 20.0529 12.551 20.0859 12.3802 20.0826C11.8666 20.0738 11.3529 20.0711 10.8393 20.0826C10.2611 20.0947 9.88329 20.5881 10.0328 21.1146C10.1391 21.4881 10.4504 21.6944 10.9168 21.6944H32.0723C32.1409 21.6944 32.2101 21.6964 32.278 21.6903C32.6627 21.6539 32.9741 21.3357 32.9981 20.9555C33.0296 20.4547 32.6689 20.0866 32.1278 20.0812ZM14.2928 20.063C14.4876 19.0936 14.6782 18.1391 14.8723 17.1852C15.0712 16.205 15.2742 15.2262 15.4744 14.2467C15.567 13.7916 15.7803 13.6157 16.2521 13.6157C19.7502 13.615 23.2491 13.615 26.7479 13.6157C27.1786 13.6157 27.422 13.7775 27.4995 14.1523C27.9007 16.085 28.2937 18.0197 28.6887 19.9545C28.6955 19.9862 28.6969 20.0199 28.7017 20.063H14.2928Z" fill="white"/>
</svg>
