<svg width="29" height="29" viewBox="0 0 29 29" fill="none" xmlns="http://www.w3.org/2000/svg">
<g opacity="0.5">
<path d="M26.5833 18.125V10.875C26.5833 4.83335 24.1666 2.41669 18.125 2.41669H10.875C4.83329 2.41669 2.41663 4.83335 2.41663 10.875V18.125C2.41663 24.1667 4.83329 26.5834 10.875 26.5834H18.125C24.1666 26.5834 26.5833 24.1667 26.5833 18.125Z" stroke="#FF9E30" stroke-width="1.8125" stroke-linecap="round" stroke-linejoin="round"/>
<path d="M3.04504 8.59125H25.955" stroke="#FF9E30" stroke-width="1.8125" stroke-linecap="round" stroke-linejoin="round"/>
<path d="M10.295 2.54956V8.42206" stroke="#FF9E30" stroke-width="1.8125" stroke-linecap="round" stroke-linejoin="round"/>
<path d="M18.705 2.54956V7.87831" stroke="#FF9E30" stroke-width="1.8125" stroke-linecap="round" stroke-linejoin="round"/>
<path d="M11.7812 17.4604V16.0104C11.7812 14.1496 13.0983 13.3883 14.7054 14.3187L15.9621 15.0437L17.2188 15.7687C18.8258 16.6991 18.8258 18.2216 17.2188 19.1521L15.9621 19.8771L14.7054 20.6021C13.0983 21.5325 11.7812 20.7712 11.7812 18.9104V17.4604V17.4604Z" stroke="#FF9E30" stroke-width="1.8125" stroke-miterlimit="10" stroke-linecap="round" stroke-linejoin="round"/>
</g>
</svg>
